G04 #@! TF.GenerationSoftware,KiCad,Pcbnew,5.0.1-33cea8e~68~ubuntu18.04.1*
G04 #@! TF.CreationDate,2018-12-09T10:12:36+01:00*
G04 #@! TF.ProjectId,NFC_adapter,4E46435F616461707465722E6B696361,rev?*
G04 #@! TF.SameCoordinates,PX6239c08PY7b26c20*
G04 #@! TF.FileFunction,Soldermask,Top*
G04 #@! TF.FilePolarity,Negative*
%FSLAX46Y46*%
G04 Gerber Fmt 4.6, Leading zero omitted, Abs format (unit mm)*
G04 Created by KiCad (PCBNEW 5.0.1-33cea8e~68~ubuntu18.04.1) date ned 09 dec 2018 10:12:36 CET*
%MOMM*%
%LPD*%
G01*
G04 APERTURE LIST*
G04 #@! TA.AperFunction,NonConductor*
%ADD10C,0.100000*%
G04 #@! TD*
G04 APERTURE END LIST*
D10*
G36*
X14275327Y5622479D02*
X14540791Y5569675D01*
X14873830Y5431725D01*
X15173557Y5231454D01*
X15428454Y4976557D01*
X15628725Y4676830D01*
X15766675Y4343791D01*
X15837000Y3990239D01*
X15837000Y3629761D01*
X15766675Y3276209D01*
X15628725Y2943170D01*
X15428454Y2643443D01*
X15173557Y2388546D01*
X14873830Y2188275D01*
X14540791Y2050325D01*
X14275327Y1997521D01*
X14187241Y1980000D01*
X13826759Y1980000D01*
X13738673Y1997521D01*
X13473209Y2050325D01*
X13140170Y2188275D01*
X12840443Y2388546D01*
X12585546Y2643443D01*
X12385275Y2943170D01*
X12247325Y3276209D01*
X12177000Y3629761D01*
X12177000Y3990239D01*
X12247325Y4343791D01*
X12385275Y4676830D01*
X12585546Y4976557D01*
X12840443Y5231454D01*
X13140170Y5431725D01*
X13473209Y5569675D01*
X13738673Y5622479D01*
X13826759Y5640000D01*
X14187241Y5640000D01*
X14275327Y5622479D01*
X14275327Y5622479D01*
G37*
G36*
X5991828Y3090276D02*
X6032041Y3078077D01*
X6069115Y3058261D01*
X6101600Y3031600D01*
X6128261Y2999115D01*
X6148077Y2962041D01*
X6160276Y2921828D01*
X6165000Y2873860D01*
X6165000Y2206140D01*
X6160276Y2158172D01*
X6148077Y2117959D01*
X6128261Y2080885D01*
X6101600Y2048400D01*
X6069115Y2021739D01*
X6032041Y2001923D01*
X5991828Y1989724D01*
X5943860Y1985000D01*
X5176140Y1985000D01*
X5128172Y1989724D01*
X5087959Y2001923D01*
X5050885Y2021739D01*
X5018400Y2048400D01*
X4991739Y2080885D01*
X4971923Y2117959D01*
X4959724Y2158172D01*
X4955000Y2206140D01*
X4955000Y2873860D01*
X4959724Y2921828D01*
X4971923Y2962041D01*
X4991739Y2999115D01*
X5018400Y3031600D01*
X5050885Y3058261D01*
X5087959Y3078077D01*
X5128172Y3090276D01*
X5176140Y3095000D01*
X5943860Y3095000D01*
X5991828Y3090276D01*
X5991828Y3090276D01*
G37*
G36*
X4241828Y3090276D02*
X4282041Y3078077D01*
X4319115Y3058261D01*
X4351600Y3031600D01*
X4378261Y2999115D01*
X4398077Y2962041D01*
X4410276Y2921828D01*
X4415000Y2873860D01*
X4415000Y2206140D01*
X4410276Y2158172D01*
X4398077Y2117959D01*
X4378261Y2080885D01*
X4351600Y2048400D01*
X4319115Y2021739D01*
X4282041Y2001923D01*
X4241828Y1989724D01*
X4193860Y1985000D01*
X3426140Y1985000D01*
X3378172Y1989724D01*
X3337959Y2001923D01*
X3300885Y2021739D01*
X3268400Y2048400D01*
X3241739Y2080885D01*
X3221923Y2117959D01*
X3209724Y2158172D01*
X3205000Y2206140D01*
X3205000Y2873860D01*
X3209724Y2921828D01*
X3221923Y2962041D01*
X3241739Y2999115D01*
X3268400Y3031600D01*
X3300885Y3058261D01*
X3337959Y3078077D01*
X3378172Y3090276D01*
X3426140Y3095000D01*
X4193860Y3095000D01*
X4241828Y3090276D01*
X4241828Y3090276D01*
G37*
G36*
X9547828Y3090276D02*
X9588041Y3078077D01*
X9625115Y3058261D01*
X9657600Y3031600D01*
X9684261Y2999115D01*
X9704077Y2962041D01*
X9716276Y2921828D01*
X9721000Y2873860D01*
X9721000Y2206140D01*
X9716276Y2158172D01*
X9704077Y2117959D01*
X9684261Y2080885D01*
X9657600Y2048400D01*
X9625115Y2021739D01*
X9588041Y2001923D01*
X9547828Y1989724D01*
X9499860Y1985000D01*
X8732140Y1985000D01*
X8684172Y1989724D01*
X8643959Y2001923D01*
X8606885Y2021739D01*
X8574400Y2048400D01*
X8547739Y2080885D01*
X8527923Y2117959D01*
X8515724Y2158172D01*
X8511000Y2206140D01*
X8511000Y2873860D01*
X8515724Y2921828D01*
X8527923Y2962041D01*
X8547739Y2999115D01*
X8574400Y3031600D01*
X8606885Y3058261D01*
X8643959Y3078077D01*
X8684172Y3090276D01*
X8732140Y3095000D01*
X9499860Y3095000D01*
X9547828Y3090276D01*
X9547828Y3090276D01*
G37*
G36*
X7797828Y3090276D02*
X7838041Y3078077D01*
X7875115Y3058261D01*
X7907600Y3031600D01*
X7934261Y2999115D01*
X7954077Y2962041D01*
X7966276Y2921828D01*
X7971000Y2873860D01*
X7971000Y2206140D01*
X7966276Y2158172D01*
X7954077Y2117959D01*
X7934261Y2080885D01*
X7907600Y2048400D01*
X7875115Y2021739D01*
X7838041Y2001923D01*
X7797828Y1989724D01*
X7749860Y1985000D01*
X6982140Y1985000D01*
X6934172Y1989724D01*
X6893959Y2001923D01*
X6856885Y2021739D01*
X6824400Y2048400D01*
X6797739Y2080885D01*
X6777923Y2117959D01*
X6765724Y2158172D01*
X6761000Y2206140D01*
X6761000Y2873860D01*
X6765724Y2921828D01*
X6777923Y2962041D01*
X6797739Y2999115D01*
X6824400Y3031600D01*
X6856885Y3058261D01*
X6893959Y3078077D01*
X6934172Y3090276D01*
X6982140Y3095000D01*
X7749860Y3095000D01*
X7797828Y3090276D01*
X7797828Y3090276D01*
G37*
G36*
X33601006Y4483309D02*
X33710312Y4472543D01*
X33885617Y4419364D01*
X34047180Y4333008D01*
X34188791Y4216791D01*
X34305008Y4075180D01*
X34391364Y3913617D01*
X34444543Y3738312D01*
X34462499Y3556000D01*
X34444543Y3373688D01*
X34391364Y3198383D01*
X34305008Y3036820D01*
X34188791Y2895209D01*
X34047180Y2778992D01*
X33885617Y2692636D01*
X33710312Y2639457D01*
X33601006Y2628691D01*
X33573681Y2626000D01*
X33482319Y2626000D01*
X33454994Y2628691D01*
X33345688Y2639457D01*
X33170383Y2692636D01*
X33008820Y2778992D01*
X32867209Y2895209D01*
X32750992Y3036820D01*
X32664636Y3198383D01*
X32611457Y3373688D01*
X32593501Y3556000D01*
X32611457Y3738312D01*
X32664636Y3913617D01*
X32750992Y4075180D01*
X32867209Y4216791D01*
X33008820Y4333008D01*
X33170383Y4419364D01*
X33345688Y4472543D01*
X33454994Y4483309D01*
X33482319Y4486000D01*
X33573681Y4486000D01*
X33601006Y4483309D01*
X33601006Y4483309D01*
G37*
G36*
X42078000Y2626000D02*
X40218000Y2626000D01*
X40218000Y4486000D01*
X42078000Y4486000D01*
X42078000Y2626000D01*
X42078000Y2626000D01*
G37*
G36*
X38681006Y4483309D02*
X38790312Y4472543D01*
X38965617Y4419364D01*
X39127180Y4333008D01*
X39268791Y4216791D01*
X39385008Y4075180D01*
X39471364Y3913617D01*
X39524543Y3738312D01*
X39542499Y3556000D01*
X39524543Y3373688D01*
X39471364Y3198383D01*
X39385008Y3036820D01*
X39268791Y2895209D01*
X39127180Y2778992D01*
X38965617Y2692636D01*
X38790312Y2639457D01*
X38681006Y2628691D01*
X38653681Y2626000D01*
X38562319Y2626000D01*
X38534994Y2628691D01*
X38425688Y2639457D01*
X38250383Y2692636D01*
X38088820Y2778992D01*
X37947209Y2895209D01*
X37830992Y3036820D01*
X37744636Y3198383D01*
X37691457Y3373688D01*
X37673501Y3556000D01*
X37691457Y3738312D01*
X37744636Y3913617D01*
X37830992Y4075180D01*
X37947209Y4216791D01*
X38088820Y4333008D01*
X38250383Y4419364D01*
X38425688Y4472543D01*
X38534994Y4483309D01*
X38562319Y4486000D01*
X38653681Y4486000D01*
X38681006Y4483309D01*
X38681006Y4483309D01*
G37*
G36*
X36141006Y4483309D02*
X36250312Y4472543D01*
X36425617Y4419364D01*
X36587180Y4333008D01*
X36728791Y4216791D01*
X36845008Y4075180D01*
X36931364Y3913617D01*
X36984543Y3738312D01*
X37002499Y3556000D01*
X36984543Y3373688D01*
X36931364Y3198383D01*
X36845008Y3036820D01*
X36728791Y2895209D01*
X36587180Y2778992D01*
X36425617Y2692636D01*
X36250312Y2639457D01*
X36141006Y2628691D01*
X36113681Y2626000D01*
X36022319Y2626000D01*
X35994994Y2628691D01*
X35885688Y2639457D01*
X35710383Y2692636D01*
X35548820Y2778992D01*
X35407209Y2895209D01*
X35290992Y3036820D01*
X35204636Y3198383D01*
X35151457Y3373688D01*
X35133501Y3556000D01*
X35151457Y3738312D01*
X35204636Y3913617D01*
X35290992Y4075180D01*
X35407209Y4216791D01*
X35548820Y4333008D01*
X35710383Y4419364D01*
X35885688Y4472543D01*
X35994994Y4483309D01*
X36022319Y4486000D01*
X36113681Y4486000D01*
X36141006Y4483309D01*
X36141006Y4483309D01*
G37*
G36*
X20901006Y4483309D02*
X21010312Y4472543D01*
X21185617Y4419364D01*
X21347180Y4333008D01*
X21488791Y4216791D01*
X21605008Y4075180D01*
X21691364Y3913617D01*
X21744543Y3738312D01*
X21762499Y3556000D01*
X21744543Y3373688D01*
X21691364Y3198383D01*
X21605008Y3036820D01*
X21488791Y2895209D01*
X21347180Y2778992D01*
X21185617Y2692636D01*
X21010312Y2639457D01*
X20901006Y2628691D01*
X20873681Y2626000D01*
X20782319Y2626000D01*
X20754994Y2628691D01*
X20645688Y2639457D01*
X20470383Y2692636D01*
X20308820Y2778992D01*
X20167209Y2895209D01*
X20050992Y3036820D01*
X19964636Y3198383D01*
X19911457Y3373688D01*
X19893501Y3556000D01*
X19911457Y3738312D01*
X19964636Y3913617D01*
X20050992Y4075180D01*
X20167209Y4216791D01*
X20308820Y4333008D01*
X20470383Y4419364D01*
X20645688Y4472543D01*
X20754994Y4483309D01*
X20782319Y4486000D01*
X20873681Y4486000D01*
X20901006Y4483309D01*
X20901006Y4483309D01*
G37*
G36*
X23441006Y4483309D02*
X23550312Y4472543D01*
X23725617Y4419364D01*
X23887180Y4333008D01*
X24028791Y4216791D01*
X24145008Y4075180D01*
X24231364Y3913617D01*
X24284543Y3738312D01*
X24302499Y3556000D01*
X24284543Y3373688D01*
X24231364Y3198383D01*
X24145008Y3036820D01*
X24028791Y2895209D01*
X23887180Y2778992D01*
X23725617Y2692636D01*
X23550312Y2639457D01*
X23441006Y2628691D01*
X23413681Y2626000D01*
X23322319Y2626000D01*
X23294994Y2628691D01*
X23185688Y2639457D01*
X23010383Y2692636D01*
X22848820Y2778992D01*
X22707209Y2895209D01*
X22590992Y3036820D01*
X22504636Y3198383D01*
X22451457Y3373688D01*
X22433501Y3556000D01*
X22451457Y3738312D01*
X22504636Y3913617D01*
X22590992Y4075180D01*
X22707209Y4216791D01*
X22848820Y4333008D01*
X23010383Y4419364D01*
X23185688Y4472543D01*
X23294994Y4483309D01*
X23322319Y4486000D01*
X23413681Y4486000D01*
X23441006Y4483309D01*
X23441006Y4483309D01*
G37*
G36*
X25981006Y4483309D02*
X26090312Y4472543D01*
X26265617Y4419364D01*
X26427180Y4333008D01*
X26568791Y4216791D01*
X26685008Y4075180D01*
X26771364Y3913617D01*
X26824543Y3738312D01*
X26842499Y3556000D01*
X26824543Y3373688D01*
X26771364Y3198383D01*
X26685008Y3036820D01*
X26568791Y2895209D01*
X26427180Y2778992D01*
X26265617Y2692636D01*
X26090312Y2639457D01*
X25981006Y2628691D01*
X25953681Y2626000D01*
X25862319Y2626000D01*
X25834994Y2628691D01*
X25725688Y2639457D01*
X25550383Y2692636D01*
X25388820Y2778992D01*
X25247209Y2895209D01*
X25130992Y3036820D01*
X25044636Y3198383D01*
X24991457Y3373688D01*
X24973501Y3556000D01*
X24991457Y3738312D01*
X25044636Y3913617D01*
X25130992Y4075180D01*
X25247209Y4216791D01*
X25388820Y4333008D01*
X25550383Y4419364D01*
X25725688Y4472543D01*
X25834994Y4483309D01*
X25862319Y4486000D01*
X25953681Y4486000D01*
X25981006Y4483309D01*
X25981006Y4483309D01*
G37*
G36*
X28521006Y4483309D02*
X28630312Y4472543D01*
X28805617Y4419364D01*
X28967180Y4333008D01*
X29108791Y4216791D01*
X29225008Y4075180D01*
X29311364Y3913617D01*
X29364543Y3738312D01*
X29382499Y3556000D01*
X29364543Y3373688D01*
X29311364Y3198383D01*
X29225008Y3036820D01*
X29108791Y2895209D01*
X28967180Y2778992D01*
X28805617Y2692636D01*
X28630312Y2639457D01*
X28521006Y2628691D01*
X28493681Y2626000D01*
X28402319Y2626000D01*
X28374994Y2628691D01*
X28265688Y2639457D01*
X28090383Y2692636D01*
X27928820Y2778992D01*
X27787209Y2895209D01*
X27670992Y3036820D01*
X27584636Y3198383D01*
X27531457Y3373688D01*
X27513501Y3556000D01*
X27531457Y3738312D01*
X27584636Y3913617D01*
X27670992Y4075180D01*
X27787209Y4216791D01*
X27928820Y4333008D01*
X28090383Y4419364D01*
X28265688Y4472543D01*
X28374994Y4483309D01*
X28402319Y4486000D01*
X28493681Y4486000D01*
X28521006Y4483309D01*
X28521006Y4483309D01*
G37*
G36*
X31061006Y4483309D02*
X31170312Y4472543D01*
X31345617Y4419364D01*
X31507180Y4333008D01*
X31648791Y4216791D01*
X31765008Y4075180D01*
X31851364Y3913617D01*
X31904543Y3738312D01*
X31922499Y3556000D01*
X31904543Y3373688D01*
X31851364Y3198383D01*
X31765008Y3036820D01*
X31648791Y2895209D01*
X31507180Y2778992D01*
X31345617Y2692636D01*
X31170312Y2639457D01*
X31061006Y2628691D01*
X31033681Y2626000D01*
X30942319Y2626000D01*
X30914994Y2628691D01*
X30805688Y2639457D01*
X30630383Y2692636D01*
X30468820Y2778992D01*
X30327209Y2895209D01*
X30210992Y3036820D01*
X30124636Y3198383D01*
X30071457Y3373688D01*
X30053501Y3556000D01*
X30071457Y3738312D01*
X30124636Y3913617D01*
X30210992Y4075180D01*
X30327209Y4216791D01*
X30468820Y4333008D01*
X30630383Y4419364D01*
X30805688Y4472543D01*
X30914994Y4483309D01*
X30942319Y4486000D01*
X31033681Y4486000D01*
X31061006Y4483309D01*
X31061006Y4483309D01*
G37*
G36*
X49596857Y5121728D02*
X49797042Y5038809D01*
X49797045Y5038807D01*
X49890209Y4976557D01*
X49977213Y4918422D01*
X50130422Y4765213D01*
X50130424Y4765210D01*
X50130425Y4765209D01*
X50248565Y4588400D01*
X50250809Y4585042D01*
X50333728Y4384857D01*
X50376000Y4172342D01*
X50376000Y3955658D01*
X50333728Y3743143D01*
X50250809Y3542958D01*
X50130422Y3362787D01*
X49977213Y3209578D01*
X49797042Y3089191D01*
X49596857Y3006272D01*
X49384342Y2964000D01*
X49167658Y2964000D01*
X48955143Y3006272D01*
X48754958Y3089191D01*
X48574787Y3209578D01*
X48421578Y3362787D01*
X48301191Y3542958D01*
X48218272Y3743143D01*
X48176000Y3955658D01*
X48176000Y4172342D01*
X48218272Y4384857D01*
X48301191Y4585042D01*
X48303435Y4588400D01*
X48421575Y4765209D01*
X48421576Y4765210D01*
X48421578Y4765213D01*
X48574787Y4918422D01*
X48661792Y4976557D01*
X48754955Y5038807D01*
X48754958Y5038809D01*
X48955143Y5121728D01*
X49167658Y5164000D01*
X49384342Y5164000D01*
X49596857Y5121728D01*
X49596857Y5121728D01*
G37*
G36*
X9547828Y5630276D02*
X9588041Y5618077D01*
X9625115Y5598261D01*
X9657600Y5571600D01*
X9684261Y5539115D01*
X9704077Y5502041D01*
X9716276Y5461828D01*
X9721000Y5413860D01*
X9721000Y4746140D01*
X9716276Y4698172D01*
X9704077Y4657959D01*
X9684261Y4620885D01*
X9657600Y4588400D01*
X9625115Y4561739D01*
X9588041Y4541923D01*
X9547828Y4529724D01*
X9499860Y4525000D01*
X8732140Y4525000D01*
X8684172Y4529724D01*
X8643959Y4541923D01*
X8606885Y4561739D01*
X8574400Y4588400D01*
X8547739Y4620885D01*
X8527923Y4657959D01*
X8515724Y4698172D01*
X8511000Y4746140D01*
X8511000Y5413860D01*
X8515724Y5461828D01*
X8527923Y5502041D01*
X8547739Y5539115D01*
X8574400Y5571600D01*
X8606885Y5598261D01*
X8643959Y5618077D01*
X8684172Y5630276D01*
X8732140Y5635000D01*
X9499860Y5635000D01*
X9547828Y5630276D01*
X9547828Y5630276D01*
G37*
G36*
X7797828Y5630276D02*
X7838041Y5618077D01*
X7875115Y5598261D01*
X7907600Y5571600D01*
X7934261Y5539115D01*
X7954077Y5502041D01*
X7966276Y5461828D01*
X7971000Y5413860D01*
X7971000Y4746140D01*
X7966276Y4698172D01*
X7954077Y4657959D01*
X7934261Y4620885D01*
X7907600Y4588400D01*
X7875115Y4561739D01*
X7838041Y4541923D01*
X7797828Y4529724D01*
X7749860Y4525000D01*
X6982140Y4525000D01*
X6934172Y4529724D01*
X6893959Y4541923D01*
X6856885Y4561739D01*
X6824400Y4588400D01*
X6797739Y4620885D01*
X6777923Y4657959D01*
X6765724Y4698172D01*
X6761000Y4746140D01*
X6761000Y5413860D01*
X6765724Y5461828D01*
X6777923Y5502041D01*
X6797739Y5539115D01*
X6824400Y5571600D01*
X6856885Y5598261D01*
X6893959Y5618077D01*
X6934172Y5630276D01*
X6982140Y5635000D01*
X7749860Y5635000D01*
X7797828Y5630276D01*
X7797828Y5630276D01*
G37*
G36*
X4241828Y5630276D02*
X4282041Y5618077D01*
X4319115Y5598261D01*
X4351600Y5571600D01*
X4378261Y5539115D01*
X4398077Y5502041D01*
X4410276Y5461828D01*
X4415000Y5413860D01*
X4415000Y4746140D01*
X4410276Y4698172D01*
X4398077Y4657959D01*
X4378261Y4620885D01*
X4351600Y4588400D01*
X4319115Y4561739D01*
X4282041Y4541923D01*
X4241828Y4529724D01*
X4193860Y4525000D01*
X3426140Y4525000D01*
X3378172Y4529724D01*
X3337959Y4541923D01*
X3300885Y4561739D01*
X3268400Y4588400D01*
X3241739Y4620885D01*
X3221923Y4657959D01*
X3209724Y4698172D01*
X3205000Y4746140D01*
X3205000Y5413860D01*
X3209724Y5461828D01*
X3221923Y5502041D01*
X3241739Y5539115D01*
X3268400Y5571600D01*
X3300885Y5598261D01*
X3337959Y5618077D01*
X3378172Y5630276D01*
X3426140Y5635000D01*
X4193860Y5635000D01*
X4241828Y5630276D01*
X4241828Y5630276D01*
G37*
G36*
X5991828Y5630276D02*
X6032041Y5618077D01*
X6069115Y5598261D01*
X6101600Y5571600D01*
X6128261Y5539115D01*
X6148077Y5502041D01*
X6160276Y5461828D01*
X6165000Y5413860D01*
X6165000Y4746140D01*
X6160276Y4698172D01*
X6148077Y4657959D01*
X6128261Y4620885D01*
X6101600Y4588400D01*
X6069115Y4561739D01*
X6032041Y4541923D01*
X5991828Y4529724D01*
X5943860Y4525000D01*
X5176140Y4525000D01*
X5128172Y4529724D01*
X5087959Y4541923D01*
X5050885Y4561739D01*
X5018400Y4588400D01*
X4991739Y4620885D01*
X4971923Y4657959D01*
X4959724Y4698172D01*
X4955000Y4746140D01*
X4955000Y5413860D01*
X4959724Y5461828D01*
X4971923Y5502041D01*
X4991739Y5539115D01*
X5018400Y5571600D01*
X5050885Y5598261D01*
X5087959Y5618077D01*
X5128172Y5630276D01*
X5176140Y5635000D01*
X5943860Y5635000D01*
X5991828Y5630276D01*
X5991828Y5630276D01*
G37*
G36*
X23799828Y11472276D02*
X23840041Y11460077D01*
X23877115Y11440261D01*
X23909600Y11413600D01*
X23936261Y11381115D01*
X23956077Y11344041D01*
X23968276Y11303828D01*
X23973000Y11255860D01*
X23973000Y10588140D01*
X23968276Y10540172D01*
X23956077Y10499959D01*
X23936261Y10462885D01*
X23909600Y10430400D01*
X23877115Y10403739D01*
X23840041Y10383923D01*
X23799828Y10371724D01*
X23751860Y10367000D01*
X22984140Y10367000D01*
X22936172Y10371724D01*
X22895959Y10383923D01*
X22858885Y10403739D01*
X22826400Y10430400D01*
X22799739Y10462885D01*
X22779923Y10499959D01*
X22767724Y10540172D01*
X22763000Y10588140D01*
X22763000Y11255860D01*
X22767724Y11303828D01*
X22779923Y11344041D01*
X22799739Y11381115D01*
X22826400Y11413600D01*
X22858885Y11440261D01*
X22895959Y11460077D01*
X22936172Y11472276D01*
X22984140Y11477000D01*
X23751860Y11477000D01*
X23799828Y11472276D01*
X23799828Y11472276D01*
G37*
G36*
X22049828Y11472276D02*
X22090041Y11460077D01*
X22127115Y11440261D01*
X22159600Y11413600D01*
X22186261Y11381115D01*
X22206077Y11344041D01*
X22218276Y11303828D01*
X22223000Y11255860D01*
X22223000Y10588140D01*
X22218276Y10540172D01*
X22206077Y10499959D01*
X22186261Y10462885D01*
X22159600Y10430400D01*
X22127115Y10403739D01*
X22090041Y10383923D01*
X22049828Y10371724D01*
X22001860Y10367000D01*
X21234140Y10367000D01*
X21186172Y10371724D01*
X21145959Y10383923D01*
X21108885Y10403739D01*
X21076400Y10430400D01*
X21049739Y10462885D01*
X21029923Y10499959D01*
X21017724Y10540172D01*
X21013000Y10588140D01*
X21013000Y11255860D01*
X21017724Y11303828D01*
X21029923Y11344041D01*
X21049739Y11381115D01*
X21076400Y11413600D01*
X21108885Y11440261D01*
X21145959Y11460077D01*
X21186172Y11472276D01*
X21234140Y11477000D01*
X22001860Y11477000D01*
X22049828Y11472276D01*
X22049828Y11472276D01*
G37*
G36*
X3876857Y14519728D02*
X4077042Y14436809D01*
X4257213Y14316422D01*
X4410422Y14163213D01*
X4530809Y13983042D01*
X4613728Y13782857D01*
X4656000Y13570342D01*
X4656000Y13353658D01*
X4613728Y13141143D01*
X4530809Y12940958D01*
X4410422Y12760787D01*
X4257213Y12607578D01*
X4077042Y12487191D01*
X3876857Y12404272D01*
X3664342Y12362000D01*
X3447658Y12362000D01*
X3235143Y12404272D01*
X3034958Y12487191D01*
X2854787Y12607578D01*
X2701578Y12760787D01*
X2581191Y12940958D01*
X2498272Y13141143D01*
X2456000Y13353658D01*
X2456000Y13570342D01*
X2498272Y13782857D01*
X2581191Y13983042D01*
X2701578Y14163213D01*
X2854787Y14316422D01*
X3034958Y14436809D01*
X3235143Y14519728D01*
X3447658Y14562000D01*
X3664342Y14562000D01*
X3876857Y14519728D01*
X3876857Y14519728D01*
G37*
G36*
X12837400Y14667900D02*
X11477400Y14667900D01*
X11477400Y19672900D01*
X12837400Y19672900D01*
X12837400Y14667900D01*
X12837400Y14667900D01*
G37*
G36*
X18037400Y14667900D02*
X16677400Y14667900D01*
X16677400Y19672900D01*
X18037400Y19672900D01*
X18037400Y14667900D01*
X18037400Y14667900D01*
G37*
G36*
X31212508Y16213036D02*
X31252721Y16200837D01*
X31289795Y16181021D01*
X31322280Y16154360D01*
X31348941Y16121875D01*
X31368757Y16084801D01*
X31380956Y16044588D01*
X31385680Y15996620D01*
X31385680Y15328900D01*
X31380956Y15280932D01*
X31368757Y15240719D01*
X31348941Y15203645D01*
X31322280Y15171160D01*
X31289795Y15144499D01*
X31252721Y15124683D01*
X31212508Y15112484D01*
X31164540Y15107760D01*
X30396820Y15107760D01*
X30348852Y15112484D01*
X30308639Y15124683D01*
X30271565Y15144499D01*
X30239080Y15171160D01*
X30212419Y15203645D01*
X30192603Y15240719D01*
X30180404Y15280932D01*
X30175680Y15328900D01*
X30175680Y15996620D01*
X30180404Y16044588D01*
X30192603Y16084801D01*
X30212419Y16121875D01*
X30239080Y16154360D01*
X30271565Y16181021D01*
X30308639Y16200837D01*
X30348852Y16213036D01*
X30396820Y16217760D01*
X31164540Y16217760D01*
X31212508Y16213036D01*
X31212508Y16213036D01*
G37*
G36*
X32962508Y16213036D02*
X33002721Y16200837D01*
X33039795Y16181021D01*
X33072280Y16154360D01*
X33098941Y16121875D01*
X33118757Y16084801D01*
X33130956Y16044588D01*
X33135680Y15996620D01*
X33135680Y15328900D01*
X33130956Y15280932D01*
X33118757Y15240719D01*
X33098941Y15203645D01*
X33072280Y15171160D01*
X33039795Y15144499D01*
X33002721Y15124683D01*
X32962508Y15112484D01*
X32914540Y15107760D01*
X32146820Y15107760D01*
X32098852Y15112484D01*
X32058639Y15124683D01*
X32021565Y15144499D01*
X31989080Y15171160D01*
X31962419Y15203645D01*
X31942603Y15240719D01*
X31930404Y15280932D01*
X31925680Y15328900D01*
X31925680Y15996620D01*
X31930404Y16044588D01*
X31942603Y16084801D01*
X31962419Y16121875D01*
X31989080Y16154360D01*
X32021565Y16181021D01*
X32058639Y16200837D01*
X32098852Y16213036D01*
X32146820Y16217760D01*
X32914540Y16217760D01*
X32962508Y16213036D01*
X32962508Y16213036D01*
G37*
G36*
X22414228Y16768176D02*
X22454441Y16755977D01*
X22491515Y16736161D01*
X22524000Y16709500D01*
X22550661Y16677015D01*
X22570477Y16639941D01*
X22582676Y16599728D01*
X22587400Y16551760D01*
X22587400Y15884040D01*
X22582676Y15836072D01*
X22570477Y15795859D01*
X22550661Y15758785D01*
X22524000Y15726300D01*
X22491515Y15699639D01*
X22454441Y15679823D01*
X22414228Y15667624D01*
X22366260Y15662900D01*
X21598540Y15662900D01*
X21550572Y15667624D01*
X21510359Y15679823D01*
X21473285Y15699639D01*
X21440800Y15726300D01*
X21414139Y15758785D01*
X21394323Y15795859D01*
X21382124Y15836072D01*
X21377400Y15884040D01*
X21377400Y16551760D01*
X21382124Y16599728D01*
X21394323Y16639941D01*
X21414139Y16677015D01*
X21440800Y16709500D01*
X21473285Y16736161D01*
X21510359Y16755977D01*
X21550572Y16768176D01*
X21598540Y16772900D01*
X22366260Y16772900D01*
X22414228Y16768176D01*
X22414228Y16768176D01*
G37*
G36*
X20664228Y16768176D02*
X20704441Y16755977D01*
X20741515Y16736161D01*
X20774000Y16709500D01*
X20800661Y16677015D01*
X20820477Y16639941D01*
X20832676Y16599728D01*
X20837400Y16551760D01*
X20837400Y15884040D01*
X20832676Y15836072D01*
X20820477Y15795859D01*
X20800661Y15758785D01*
X20774000Y15726300D01*
X20741515Y15699639D01*
X20704441Y15679823D01*
X20664228Y15667624D01*
X20616260Y15662900D01*
X19848540Y15662900D01*
X19800572Y15667624D01*
X19760359Y15679823D01*
X19723285Y15699639D01*
X19690800Y15726300D01*
X19664139Y15758785D01*
X19644323Y15795859D01*
X19632124Y15836072D01*
X19627400Y15884040D01*
X19627400Y16551760D01*
X19632124Y16599728D01*
X19644323Y16639941D01*
X19664139Y16677015D01*
X19690800Y16709500D01*
X19723285Y16736161D01*
X19760359Y16755977D01*
X19800572Y16768176D01*
X19848540Y16772900D01*
X20616260Y16772900D01*
X20664228Y16768176D01*
X20664228Y16768176D01*
G37*
G36*
X9790428Y17415876D02*
X9830641Y17403677D01*
X9867715Y17383861D01*
X9900200Y17357200D01*
X9926861Y17324715D01*
X9946677Y17287641D01*
X9958876Y17247428D01*
X9963600Y17199460D01*
X9963600Y16531740D01*
X9958876Y16483772D01*
X9946677Y16443559D01*
X9926861Y16406485D01*
X9900200Y16374000D01*
X9867715Y16347339D01*
X9830641Y16327523D01*
X9790428Y16315324D01*
X9742460Y16310600D01*
X8974740Y16310600D01*
X8926772Y16315324D01*
X8886559Y16327523D01*
X8849485Y16347339D01*
X8817000Y16374000D01*
X8790339Y16406485D01*
X8770523Y16443559D01*
X8758324Y16483772D01*
X8753600Y16531740D01*
X8753600Y17199460D01*
X8758324Y17247428D01*
X8770523Y17287641D01*
X8790339Y17324715D01*
X8817000Y17357200D01*
X8849485Y17383861D01*
X8886559Y17403677D01*
X8926772Y17415876D01*
X8974740Y17420600D01*
X9742460Y17420600D01*
X9790428Y17415876D01*
X9790428Y17415876D01*
G37*
G36*
X8040428Y17415876D02*
X8080641Y17403677D01*
X8117715Y17383861D01*
X8150200Y17357200D01*
X8176861Y17324715D01*
X8196677Y17287641D01*
X8208876Y17247428D01*
X8213600Y17199460D01*
X8213600Y16531740D01*
X8208876Y16483772D01*
X8196677Y16443559D01*
X8176861Y16406485D01*
X8150200Y16374000D01*
X8117715Y16347339D01*
X8080641Y16327523D01*
X8040428Y16315324D01*
X7992460Y16310600D01*
X7224740Y16310600D01*
X7176772Y16315324D01*
X7136559Y16327523D01*
X7099485Y16347339D01*
X7067000Y16374000D01*
X7040339Y16406485D01*
X7020523Y16443559D01*
X7008324Y16483772D01*
X7003600Y16531740D01*
X7003600Y17199460D01*
X7008324Y17247428D01*
X7020523Y17287641D01*
X7040339Y17324715D01*
X7067000Y17357200D01*
X7099485Y17383861D01*
X7136559Y17403677D01*
X7176772Y17415876D01*
X7224740Y17420600D01*
X7992460Y17420600D01*
X8040428Y17415876D01*
X8040428Y17415876D01*
G37*
G36*
X33513207Y18188053D02*
X33553262Y18175902D01*
X33590177Y18156170D01*
X33622535Y18129615D01*
X33649090Y18097257D01*
X33668822Y18060342D01*
X33680973Y18020287D01*
X33685680Y17972491D01*
X33685680Y16853029D01*
X33680973Y16805233D01*
X33668822Y16765178D01*
X33649090Y16728263D01*
X33622535Y16695905D01*
X33590177Y16669350D01*
X33553262Y16649618D01*
X33513207Y16637467D01*
X33465411Y16632760D01*
X32595949Y16632760D01*
X32548153Y16637467D01*
X32508098Y16649618D01*
X32471183Y16669350D01*
X32438825Y16695905D01*
X32412270Y16728263D01*
X32392538Y16765178D01*
X32380387Y16805233D01*
X32375680Y16853029D01*
X32375680Y17972491D01*
X32380387Y18020287D01*
X32392538Y18060342D01*
X32412270Y18097257D01*
X32438825Y18129615D01*
X32471183Y18156170D01*
X32508098Y18175902D01*
X32548153Y18188053D01*
X32595949Y18192760D01*
X33465411Y18192760D01*
X33513207Y18188053D01*
X33513207Y18188053D01*
G37*
G36*
X31463207Y18188053D02*
X31503262Y18175902D01*
X31540177Y18156170D01*
X31572535Y18129615D01*
X31599090Y18097257D01*
X31618822Y18060342D01*
X31630973Y18020287D01*
X31635680Y17972491D01*
X31635680Y16853029D01*
X31630973Y16805233D01*
X31618822Y16765178D01*
X31599090Y16728263D01*
X31572535Y16695905D01*
X31540177Y16669350D01*
X31503262Y16649618D01*
X31463207Y16637467D01*
X31415411Y16632760D01*
X30545949Y16632760D01*
X30498153Y16637467D01*
X30458098Y16649618D01*
X30421183Y16669350D01*
X30388825Y16695905D01*
X30362270Y16728263D01*
X30342538Y16765178D01*
X30330387Y16805233D01*
X30325680Y16853029D01*
X30325680Y17972491D01*
X30330387Y18020287D01*
X30342538Y18060342D01*
X30362270Y18097257D01*
X30388825Y18129615D01*
X30421183Y18156170D01*
X30458098Y18175902D01*
X30498153Y18188053D01*
X30545949Y18192760D01*
X31415411Y18192760D01*
X31463207Y18188053D01*
X31463207Y18188053D01*
G37*
G36*
X29337828Y18013276D02*
X29378041Y18001077D01*
X29415115Y17981261D01*
X29447600Y17954600D01*
X29474261Y17922115D01*
X29494077Y17885041D01*
X29506276Y17844828D01*
X29511000Y17796860D01*
X29511000Y17029140D01*
X29506276Y16981172D01*
X29494077Y16940959D01*
X29474261Y16903885D01*
X29447600Y16871400D01*
X29415115Y16844739D01*
X29378041Y16824923D01*
X29337828Y16812724D01*
X29289860Y16808000D01*
X28622140Y16808000D01*
X28574172Y16812724D01*
X28533959Y16824923D01*
X28496885Y16844739D01*
X28464400Y16871400D01*
X28437739Y16903885D01*
X28417923Y16940959D01*
X28405724Y16981172D01*
X28401000Y17029140D01*
X28401000Y17796860D01*
X28405724Y17844828D01*
X28417923Y17885041D01*
X28437739Y17922115D01*
X28464400Y17954600D01*
X28496885Y17981261D01*
X28533959Y18001077D01*
X28574172Y18013276D01*
X28622140Y18018000D01*
X29289860Y18018000D01*
X29337828Y18013276D01*
X29337828Y18013276D01*
G37*
G36*
X9790428Y18990676D02*
X9830641Y18978477D01*
X9867715Y18958661D01*
X9900200Y18932000D01*
X9926861Y18899515D01*
X9946677Y18862441D01*
X9958876Y18822228D01*
X9963600Y18774260D01*
X9963600Y18106540D01*
X9958876Y18058572D01*
X9946677Y18018359D01*
X9926861Y17981285D01*
X9900200Y17948800D01*
X9867715Y17922139D01*
X9830641Y17902323D01*
X9790428Y17890124D01*
X9742460Y17885400D01*
X8974740Y17885400D01*
X8926772Y17890124D01*
X8886559Y17902323D01*
X8849485Y17922139D01*
X8817000Y17948800D01*
X8790339Y17981285D01*
X8770523Y18018359D01*
X8758324Y18058572D01*
X8753600Y18106540D01*
X8753600Y18774260D01*
X8758324Y18822228D01*
X8770523Y18862441D01*
X8790339Y18899515D01*
X8817000Y18932000D01*
X8849485Y18958661D01*
X8886559Y18978477D01*
X8926772Y18990676D01*
X8974740Y18995400D01*
X9742460Y18995400D01*
X9790428Y18990676D01*
X9790428Y18990676D01*
G37*
G36*
X8040428Y18990676D02*
X8080641Y18978477D01*
X8117715Y18958661D01*
X8150200Y18932000D01*
X8176861Y18899515D01*
X8196677Y18862441D01*
X8208876Y18822228D01*
X8213600Y18774260D01*
X8213600Y18106540D01*
X8208876Y18058572D01*
X8196677Y18018359D01*
X8176861Y17981285D01*
X8150200Y17948800D01*
X8117715Y17922139D01*
X8080641Y17902323D01*
X8040428Y17890124D01*
X7992460Y17885400D01*
X7224740Y17885400D01*
X7176772Y17890124D01*
X7136559Y17902323D01*
X7099485Y17922139D01*
X7067000Y17948800D01*
X7040339Y17981285D01*
X7020523Y18018359D01*
X7008324Y18058572D01*
X7003600Y18106540D01*
X7003600Y18774260D01*
X7008324Y18822228D01*
X7020523Y18862441D01*
X7040339Y18899515D01*
X7067000Y18932000D01*
X7099485Y18958661D01*
X7136559Y18978477D01*
X7176772Y18990676D01*
X7224740Y18995400D01*
X7992460Y18995400D01*
X8040428Y18990676D01*
X8040428Y18990676D01*
G37*
G36*
X29337828Y19763276D02*
X29378041Y19751077D01*
X29415115Y19731261D01*
X29447600Y19704600D01*
X29474261Y19672115D01*
X29494077Y19635041D01*
X29506276Y19594828D01*
X29511000Y19546860D01*
X29511000Y18779140D01*
X29506276Y18731172D01*
X29494077Y18690959D01*
X29474261Y18653885D01*
X29447600Y18621400D01*
X29415115Y18594739D01*
X29378041Y18574923D01*
X29337828Y18562724D01*
X29289860Y18558000D01*
X28622140Y18558000D01*
X28574172Y18562724D01*
X28533959Y18574923D01*
X28496885Y18594739D01*
X28464400Y18621400D01*
X28437739Y18653885D01*
X28417923Y18690959D01*
X28405724Y18731172D01*
X28401000Y18779140D01*
X28401000Y19546860D01*
X28405724Y19594828D01*
X28417923Y19635041D01*
X28437739Y19672115D01*
X28464400Y19704600D01*
X28496885Y19731261D01*
X28533959Y19751077D01*
X28574172Y19763276D01*
X28622140Y19768000D01*
X29289860Y19768000D01*
X29337828Y19763276D01*
X29337828Y19763276D01*
G37*
G36*
X33932508Y19713036D02*
X33972721Y19700837D01*
X34009795Y19681021D01*
X34042280Y19654360D01*
X34068941Y19621875D01*
X34088757Y19584801D01*
X34100956Y19544588D01*
X34105680Y19496620D01*
X34105680Y18828900D01*
X34100956Y18780932D01*
X34088757Y18740719D01*
X34068941Y18703645D01*
X34042280Y18671160D01*
X34009795Y18644499D01*
X33972721Y18624683D01*
X33932508Y18612484D01*
X33884540Y18607760D01*
X33116820Y18607760D01*
X33068852Y18612484D01*
X33028639Y18624683D01*
X32991565Y18644499D01*
X32959080Y18671160D01*
X32932419Y18703645D01*
X32912603Y18740719D01*
X32900404Y18780932D01*
X32895680Y18828900D01*
X32895680Y19496620D01*
X32900404Y19544588D01*
X32912603Y19584801D01*
X32932419Y19621875D01*
X32959080Y19654360D01*
X32991565Y19681021D01*
X33028639Y19700837D01*
X33068852Y19713036D01*
X33116820Y19717760D01*
X33884540Y19717760D01*
X33932508Y19713036D01*
X33932508Y19713036D01*
G37*
G36*
X32182508Y19713036D02*
X32222721Y19700837D01*
X32259795Y19681021D01*
X32292280Y19654360D01*
X32318941Y19621875D01*
X32338757Y19584801D01*
X32350956Y19544588D01*
X32355680Y19496620D01*
X32355680Y18828900D01*
X32350956Y18780932D01*
X32338757Y18740719D01*
X32318941Y18703645D01*
X32292280Y18671160D01*
X32259795Y18644499D01*
X32222721Y18624683D01*
X32182508Y18612484D01*
X32134540Y18607760D01*
X31366820Y18607760D01*
X31318852Y18612484D01*
X31278639Y18624683D01*
X31241565Y18644499D01*
X31209080Y18671160D01*
X31182419Y18703645D01*
X31162603Y18740719D01*
X31150404Y18780932D01*
X31145680Y18828900D01*
X31145680Y19496620D01*
X31150404Y19544588D01*
X31162603Y19584801D01*
X31182419Y19621875D01*
X31209080Y19654360D01*
X31241565Y19681021D01*
X31278639Y19700837D01*
X31318852Y19713036D01*
X31366820Y19717760D01*
X32134540Y19717760D01*
X32182508Y19713036D01*
X32182508Y19713036D01*
G37*
G36*
X45403828Y20870276D02*
X45444041Y20858077D01*
X45481115Y20838261D01*
X45513600Y20811600D01*
X45540261Y20779115D01*
X45560077Y20742041D01*
X45572276Y20701828D01*
X45577000Y20653860D01*
X45577000Y19986140D01*
X45572276Y19938172D01*
X45560077Y19897959D01*
X45540261Y19860885D01*
X45513600Y19828400D01*
X45481115Y19801739D01*
X45444041Y19781923D01*
X45403828Y19769724D01*
X45355860Y19765000D01*
X44588140Y19765000D01*
X44540172Y19769724D01*
X44499959Y19781923D01*
X44462885Y19801739D01*
X44430400Y19828400D01*
X44403739Y19860885D01*
X44383923Y19897959D01*
X44371724Y19938172D01*
X44367000Y19986140D01*
X44367000Y20653860D01*
X44371724Y20701828D01*
X44383923Y20742041D01*
X44403739Y20779115D01*
X44430400Y20811600D01*
X44462885Y20838261D01*
X44499959Y20858077D01*
X44540172Y20870276D01*
X44588140Y20875000D01*
X45355860Y20875000D01*
X45403828Y20870276D01*
X45403828Y20870276D01*
G37*
G36*
X47153828Y20870276D02*
X47194041Y20858077D01*
X47231115Y20838261D01*
X47263600Y20811600D01*
X47290261Y20779115D01*
X47310077Y20742041D01*
X47322276Y20701828D01*
X47327000Y20653860D01*
X47327000Y19986140D01*
X47322276Y19938172D01*
X47310077Y19897959D01*
X47290261Y19860885D01*
X47263600Y19828400D01*
X47231115Y19801739D01*
X47194041Y19781923D01*
X47153828Y19769724D01*
X47105860Y19765000D01*
X46338140Y19765000D01*
X46290172Y19769724D01*
X46249959Y19781923D01*
X46212885Y19801739D01*
X46180400Y19828400D01*
X46153739Y19860885D01*
X46133923Y19897959D01*
X46121724Y19938172D01*
X46117000Y19986140D01*
X46117000Y20653860D01*
X46121724Y20701828D01*
X46133923Y20742041D01*
X46153739Y20779115D01*
X46180400Y20811600D01*
X46212885Y20838261D01*
X46249959Y20858077D01*
X46290172Y20870276D01*
X46338140Y20875000D01*
X47105860Y20875000D01*
X47153828Y20870276D01*
X47153828Y20870276D01*
G37*
G36*
X3916965Y28094515D02*
X3940414Y28087402D01*
X3964800Y28085000D01*
X5539800Y28085000D01*
X5539800Y26752925D01*
X5542202Y26728539D01*
X5545183Y26716639D01*
X5550685Y26698503D01*
X5562848Y26575000D01*
X5550685Y26451497D01*
X5545183Y26433361D01*
X5540402Y26409328D01*
X5539800Y26397075D01*
X5539800Y25874239D01*
X5535866Y25869446D01*
X5524315Y25847835D01*
X5517202Y25824386D01*
X5514800Y25800000D01*
X5514800Y22460000D01*
X5517202Y22435614D01*
X5524315Y22412165D01*
X5535866Y22390554D01*
X5551412Y22371612D01*
X5559800Y22364728D01*
X5559800Y21772090D01*
X5560402Y21759838D01*
X5562848Y21735000D01*
X5560402Y21710162D01*
X5559800Y21697910D01*
X5559800Y20175000D01*
X3964800Y20175000D01*
X3940414Y20172598D01*
X3916965Y20165485D01*
X3911380Y20162500D01*
X2979800Y20162500D01*
X2979800Y20525000D01*
X2977398Y20549386D01*
X2970285Y20572835D01*
X2958734Y20594446D01*
X2943188Y20613388D01*
X2924246Y20628934D01*
X2902635Y20640485D01*
X2879186Y20647598D01*
X2854800Y20650000D01*
X1529761Y20650000D01*
X1524246Y20654526D01*
X1502635Y20666077D01*
X1467059Y20674989D01*
X1406794Y20680924D01*
X1264476Y20724096D01*
X1133315Y20794203D01*
X1018351Y20888551D01*
X924003Y21003515D01*
X853896Y21134676D01*
X810724Y21276994D01*
X796147Y21425000D01*
X810724Y21573006D01*
X853896Y21715324D01*
X924003Y21846485D01*
X1018351Y21961449D01*
X1133315Y22055797D01*
X1264476Y22125904D01*
X1361669Y22155387D01*
X1384295Y22164760D01*
X1404670Y22178374D01*
X1421997Y22195701D01*
X1435611Y22216075D01*
X1444988Y22238714D01*
X1449769Y22262748D01*
X1449769Y22287252D01*
X1444989Y22311285D01*
X1435611Y22333924D01*
X1421997Y22354299D01*
X1404670Y22371626D01*
X1384296Y22385240D01*
X1361657Y22394617D01*
X1337623Y22399398D01*
X1325371Y22400000D01*
X129800Y22400000D01*
X129800Y23990000D01*
X2789800Y23990000D01*
X2789800Y22285000D01*
X2792202Y22260614D01*
X2799315Y22237165D01*
X2810866Y22215554D01*
X2826412Y22196612D01*
X2845354Y22181066D01*
X2866965Y22169515D01*
X2890414Y22162402D01*
X2914800Y22160000D01*
X3774800Y22160000D01*
X3799186Y22162402D01*
X3822635Y22169515D01*
X3844246Y22181066D01*
X3863188Y22196612D01*
X3878734Y22215554D01*
X3890285Y22237165D01*
X3897398Y22260614D01*
X3899800Y22285000D01*
X3899800Y22450000D01*
X3897398Y22474386D01*
X3890285Y22497835D01*
X3878734Y22519446D01*
X3863188Y22538388D01*
X3844246Y22553934D01*
X3822635Y22565485D01*
X3799186Y22572598D01*
X3774800Y22575000D01*
X3704800Y22575000D01*
X3704800Y25735000D01*
X3754800Y25735000D01*
X3779186Y25737402D01*
X3802635Y25744515D01*
X3824246Y25756066D01*
X3843188Y25771612D01*
X3858734Y25790554D01*
X3870285Y25812165D01*
X3877398Y25835614D01*
X3879800Y25860000D01*
X3879800Y25987500D01*
X3877398Y26011886D01*
X3870285Y26035335D01*
X3858734Y26056946D01*
X3843188Y26075888D01*
X3824246Y26091434D01*
X3802635Y26102985D01*
X3779186Y26110098D01*
X3754800Y26112500D01*
X2914800Y26112500D01*
X2890414Y26110098D01*
X2866965Y26102985D01*
X2845354Y26091434D01*
X2826412Y26075888D01*
X2810866Y26056946D01*
X2799315Y26035335D01*
X2792202Y26011886D01*
X2789800Y25987500D01*
X2789800Y24320000D01*
X129800Y24320000D01*
X129800Y25910000D01*
X1325371Y25910000D01*
X1349757Y25912402D01*
X1373206Y25919515D01*
X1394817Y25931066D01*
X1413759Y25946612D01*
X1429305Y25965554D01*
X1440856Y25987165D01*
X1447969Y26010614D01*
X1450371Y26035000D01*
X1447969Y26059386D01*
X1440856Y26082835D01*
X1429305Y26104446D01*
X1413759Y26123388D01*
X1394817Y26138934D01*
X1373206Y26150485D01*
X1361682Y26154609D01*
X1264476Y26184096D01*
X1133315Y26254203D01*
X1018351Y26348551D01*
X924003Y26463515D01*
X853896Y26594676D01*
X810724Y26736994D01*
X796147Y26885000D01*
X810724Y27033006D01*
X853896Y27175324D01*
X924003Y27306485D01*
X1018351Y27421449D01*
X1133315Y27515797D01*
X1264476Y27585904D01*
X1406794Y27629076D01*
X1467061Y27635012D01*
X1491086Y27639791D01*
X1491591Y27640000D01*
X2854800Y27640000D01*
X2879186Y27642402D01*
X2902635Y27649515D01*
X2924246Y27661066D01*
X2943188Y27676612D01*
X2958734Y27695554D01*
X2970285Y27717165D01*
X2977398Y27740614D01*
X2979800Y27765000D01*
X2979800Y28097500D01*
X3911380Y28097500D01*
X3916965Y28094515D01*
X3916965Y28094515D01*
G37*
G36*
X41974828Y21378276D02*
X42015041Y21366077D01*
X42052115Y21346261D01*
X42084600Y21319600D01*
X42111261Y21287115D01*
X42131077Y21250041D01*
X42143276Y21209828D01*
X42148000Y21161860D01*
X42148000Y20494140D01*
X42143276Y20446172D01*
X42131077Y20405959D01*
X42111261Y20368885D01*
X42084600Y20336400D01*
X42052115Y20309739D01*
X42015041Y20289923D01*
X41974828Y20277724D01*
X41926860Y20273000D01*
X41159140Y20273000D01*
X41111172Y20277724D01*
X41070959Y20289923D01*
X41033885Y20309739D01*
X41001400Y20336400D01*
X40974739Y20368885D01*
X40954923Y20405959D01*
X40942724Y20446172D01*
X40938000Y20494140D01*
X40938000Y21161860D01*
X40942724Y21209828D01*
X40954923Y21250041D01*
X40974739Y21287115D01*
X41001400Y21319600D01*
X41033885Y21346261D01*
X41070959Y21366077D01*
X41111172Y21378276D01*
X41159140Y21383000D01*
X41926860Y21383000D01*
X41974828Y21378276D01*
X41974828Y21378276D01*
G37*
G36*
X43724828Y21378276D02*
X43765041Y21366077D01*
X43802115Y21346261D01*
X43834600Y21319600D01*
X43861261Y21287115D01*
X43881077Y21250041D01*
X43893276Y21209828D01*
X43898000Y21161860D01*
X43898000Y20494140D01*
X43893276Y20446172D01*
X43881077Y20405959D01*
X43861261Y20368885D01*
X43834600Y20336400D01*
X43802115Y20309739D01*
X43765041Y20289923D01*
X43724828Y20277724D01*
X43676860Y20273000D01*
X42909140Y20273000D01*
X42861172Y20277724D01*
X42820959Y20289923D01*
X42783885Y20309739D01*
X42751400Y20336400D01*
X42724739Y20368885D01*
X42704923Y20405959D01*
X42692724Y20446172D01*
X42688000Y20494140D01*
X42688000Y21161860D01*
X42692724Y21209828D01*
X42704923Y21250041D01*
X42724739Y21287115D01*
X42751400Y21319600D01*
X42783885Y21346261D01*
X42820959Y21366077D01*
X42861172Y21378276D01*
X42909140Y21383000D01*
X43676860Y21383000D01*
X43724828Y21378276D01*
X43724828Y21378276D01*
G37*
G36*
X48768828Y21569276D02*
X48809041Y21557077D01*
X48846115Y21537261D01*
X48878600Y21510600D01*
X48905261Y21478115D01*
X48925077Y21441041D01*
X48937276Y21400828D01*
X48942000Y21352860D01*
X48942000Y20585140D01*
X48937276Y20537172D01*
X48925077Y20496959D01*
X48905261Y20459885D01*
X48878600Y20427400D01*
X48846115Y20400739D01*
X48809041Y20380923D01*
X48768828Y20368724D01*
X48720860Y20364000D01*
X48053140Y20364000D01*
X48005172Y20368724D01*
X47964959Y20380923D01*
X47927885Y20400739D01*
X47895400Y20427400D01*
X47868739Y20459885D01*
X47848923Y20496959D01*
X47836724Y20537172D01*
X47832000Y20585140D01*
X47832000Y21352860D01*
X47836724Y21400828D01*
X47848923Y21441041D01*
X47868739Y21478115D01*
X47895400Y21510600D01*
X47927885Y21537261D01*
X47964959Y21557077D01*
X48005172Y21569276D01*
X48053140Y21574000D01*
X48720860Y21574000D01*
X48768828Y21569276D01*
X48768828Y21569276D01*
G37*
G36*
X50292828Y21569276D02*
X50333041Y21557077D01*
X50370115Y21537261D01*
X50402600Y21510600D01*
X50429261Y21478115D01*
X50449077Y21441041D01*
X50461276Y21400828D01*
X50466000Y21352860D01*
X50466000Y20585140D01*
X50461276Y20537172D01*
X50449077Y20496959D01*
X50429261Y20459885D01*
X50402600Y20427400D01*
X50370115Y20400739D01*
X50333041Y20380923D01*
X50292828Y20368724D01*
X50244860Y20364000D01*
X49577140Y20364000D01*
X49529172Y20368724D01*
X49488959Y20380923D01*
X49451885Y20400739D01*
X49419400Y20427400D01*
X49392739Y20459885D01*
X49372923Y20496959D01*
X49360724Y20537172D01*
X49356000Y20585140D01*
X49356000Y21352860D01*
X49360724Y21400828D01*
X49372923Y21441041D01*
X49392739Y21478115D01*
X49419400Y21510600D01*
X49451885Y21537261D01*
X49488959Y21557077D01*
X49529172Y21569276D01*
X49577140Y21574000D01*
X50244860Y21574000D01*
X50292828Y21569276D01*
X50292828Y21569276D01*
G37*
G36*
X31240680Y26609160D02*
X31243082Y26584774D01*
X31250195Y26561325D01*
X31261746Y26539714D01*
X31277292Y26520772D01*
X31296234Y26505226D01*
X31317845Y26493675D01*
X31341294Y26486562D01*
X31365680Y26484160D01*
X32345680Y26484160D01*
X32345680Y21534160D01*
X31365680Y21534160D01*
X31341294Y21531758D01*
X31317845Y21524645D01*
X31296234Y21513094D01*
X31277292Y21497548D01*
X31261746Y21478606D01*
X31250195Y21456995D01*
X31243082Y21433546D01*
X31240680Y21409160D01*
X31240680Y20429160D01*
X26290680Y20429160D01*
X26290680Y21409160D01*
X26288278Y21433546D01*
X26281165Y21456995D01*
X26269614Y21478606D01*
X26254068Y21497548D01*
X26235126Y21513094D01*
X26213515Y21524645D01*
X26190066Y21531758D01*
X26165680Y21534160D01*
X25185680Y21534160D01*
X25185680Y26404160D01*
X26245680Y26404160D01*
X26245680Y21614160D01*
X26248082Y21589774D01*
X26255195Y21566325D01*
X26266746Y21544714D01*
X26282292Y21525772D01*
X26301234Y21510226D01*
X26322845Y21498675D01*
X26346294Y21491562D01*
X26370680Y21489160D01*
X31160680Y21489160D01*
X31185066Y21491562D01*
X31208515Y21498675D01*
X31230126Y21510226D01*
X31249068Y21525772D01*
X31264614Y21544714D01*
X31276165Y21566325D01*
X31283278Y21589774D01*
X31285680Y21614160D01*
X31285680Y26404160D01*
X31283278Y26428546D01*
X31276165Y26451995D01*
X31264614Y26473606D01*
X31249068Y26492548D01*
X31230126Y26508094D01*
X31208515Y26519645D01*
X31185066Y26526758D01*
X31160680Y26529160D01*
X26370680Y26529160D01*
X26346294Y26526758D01*
X26322845Y26519645D01*
X26301234Y26508094D01*
X26282292Y26492548D01*
X26266746Y26473606D01*
X26255195Y26451995D01*
X26248082Y26428546D01*
X26245680Y26404160D01*
X25185680Y26404160D01*
X25185680Y26484160D01*
X26165680Y26484160D01*
X26190066Y26486562D01*
X26213515Y26493675D01*
X26235126Y26505226D01*
X26254068Y26520772D01*
X26269614Y26539714D01*
X26281165Y26561325D01*
X26288278Y26584774D01*
X26290680Y26609160D01*
X26290680Y27589160D01*
X31240680Y27589160D01*
X31240680Y26609160D01*
X31240680Y26609160D01*
G37*
G36*
X30905680Y21869160D02*
X26625680Y21869160D01*
X26625680Y26149160D01*
X30905680Y26149160D01*
X30905680Y21869160D01*
X30905680Y21869160D01*
G37*
G36*
X51999068Y21959416D02*
X52039281Y21947217D01*
X52076355Y21927401D01*
X52108840Y21900740D01*
X52135501Y21868255D01*
X52155317Y21831181D01*
X52167516Y21790968D01*
X52172240Y21743000D01*
X52172240Y21075280D01*
X52167516Y21027312D01*
X52155317Y20987099D01*
X52135501Y20950025D01*
X52108840Y20917540D01*
X52076355Y20890879D01*
X52039281Y20871063D01*
X51999068Y20858864D01*
X51951100Y20854140D01*
X51183380Y20854140D01*
X51135412Y20858864D01*
X51095199Y20871063D01*
X51058125Y20890879D01*
X51025640Y20917540D01*
X50998979Y20950025D01*
X50979163Y20987099D01*
X50966964Y21027312D01*
X50962240Y21075280D01*
X50962240Y21743000D01*
X50966964Y21790968D01*
X50979163Y21831181D01*
X50998979Y21868255D01*
X51025640Y21900740D01*
X51058125Y21927401D01*
X51095199Y21947217D01*
X51135412Y21959416D01*
X51183380Y21964140D01*
X51951100Y21964140D01*
X51999068Y21959416D01*
X51999068Y21959416D01*
G37*
G36*
X53749068Y21959416D02*
X53789281Y21947217D01*
X53826355Y21927401D01*
X53858840Y21900740D01*
X53885501Y21868255D01*
X53905317Y21831181D01*
X53917516Y21790968D01*
X53922240Y21743000D01*
X53922240Y21075280D01*
X53917516Y21027312D01*
X53905317Y20987099D01*
X53885501Y20950025D01*
X53858840Y20917540D01*
X53826355Y20890879D01*
X53789281Y20871063D01*
X53749068Y20858864D01*
X53701100Y20854140D01*
X52933380Y20854140D01*
X52885412Y20858864D01*
X52845199Y20871063D01*
X52808125Y20890879D01*
X52775640Y20917540D01*
X52748979Y20950025D01*
X52729163Y20987099D01*
X52716964Y21027312D01*
X52712240Y21075280D01*
X52712240Y21743000D01*
X52716964Y21790968D01*
X52729163Y21831181D01*
X52748979Y21868255D01*
X52775640Y21900740D01*
X52808125Y21927401D01*
X52845199Y21947217D01*
X52885412Y21959416D01*
X52933380Y21964140D01*
X53701100Y21964140D01*
X53749068Y21959416D01*
X53749068Y21959416D01*
G37*
G36*
X12650028Y22229676D02*
X12690241Y22217477D01*
X12727315Y22197661D01*
X12759800Y22171000D01*
X12786461Y22138515D01*
X12806277Y22101441D01*
X12818476Y22061228D01*
X12823200Y22013260D01*
X12823200Y21245540D01*
X12818476Y21197572D01*
X12806277Y21157359D01*
X12786461Y21120285D01*
X12759800Y21087800D01*
X12727315Y21061139D01*
X12690241Y21041323D01*
X12650028Y21029124D01*
X12602060Y21024400D01*
X11934340Y21024400D01*
X11886372Y21029124D01*
X11846159Y21041323D01*
X11809085Y21061139D01*
X11776600Y21087800D01*
X11749939Y21120285D01*
X11730123Y21157359D01*
X11717924Y21197572D01*
X11713200Y21245540D01*
X11713200Y22013260D01*
X11717924Y22061228D01*
X11730123Y22101441D01*
X11749939Y22138515D01*
X11776600Y22171000D01*
X11809085Y22197661D01*
X11846159Y22217477D01*
X11886372Y22229676D01*
X11934340Y22234400D01*
X12602060Y22234400D01*
X12650028Y22229676D01*
X12650028Y22229676D01*
G37*
G36*
X16002828Y22229676D02*
X16043041Y22217477D01*
X16080115Y22197661D01*
X16112600Y22171000D01*
X16139261Y22138515D01*
X16159077Y22101441D01*
X16171276Y22061228D01*
X16176000Y22013260D01*
X16176000Y21245540D01*
X16171276Y21197572D01*
X16159077Y21157359D01*
X16139261Y21120285D01*
X16112600Y21087800D01*
X16080115Y21061139D01*
X16043041Y21041323D01*
X16002828Y21029124D01*
X15954860Y21024400D01*
X15287140Y21024400D01*
X15239172Y21029124D01*
X15198959Y21041323D01*
X15161885Y21061139D01*
X15129400Y21087800D01*
X15102739Y21120285D01*
X15082923Y21157359D01*
X15070724Y21197572D01*
X15066000Y21245540D01*
X15066000Y22013260D01*
X15070724Y22061228D01*
X15082923Y22101441D01*
X15102739Y22138515D01*
X15129400Y22171000D01*
X15161885Y22197661D01*
X15198959Y22217477D01*
X15239172Y22229676D01*
X15287140Y22234400D01*
X15954860Y22234400D01*
X16002828Y22229676D01*
X16002828Y22229676D01*
G37*
G36*
X45403828Y22394276D02*
X45444041Y22382077D01*
X45481115Y22362261D01*
X45513600Y22335600D01*
X45540261Y22303115D01*
X45560077Y22266041D01*
X45572276Y22225828D01*
X45577000Y22177860D01*
X45577000Y21510140D01*
X45572276Y21462172D01*
X45560077Y21421959D01*
X45540261Y21384885D01*
X45513600Y21352400D01*
X45481115Y21325739D01*
X45444041Y21305923D01*
X45403828Y21293724D01*
X45355860Y21289000D01*
X44588140Y21289000D01*
X44540172Y21293724D01*
X44499959Y21305923D01*
X44462885Y21325739D01*
X44430400Y21352400D01*
X44403739Y21384885D01*
X44383923Y21421959D01*
X44371724Y21462172D01*
X44367000Y21510140D01*
X44367000Y22177860D01*
X44371724Y22225828D01*
X44383923Y22266041D01*
X44403739Y22303115D01*
X44430400Y22335600D01*
X44462885Y22362261D01*
X44499959Y22382077D01*
X44540172Y22394276D01*
X44588140Y22399000D01*
X45355860Y22399000D01*
X45403828Y22394276D01*
X45403828Y22394276D01*
G37*
G36*
X47153828Y22394276D02*
X47194041Y22382077D01*
X47231115Y22362261D01*
X47263600Y22335600D01*
X47290261Y22303115D01*
X47310077Y22266041D01*
X47322276Y22225828D01*
X47327000Y22177860D01*
X47327000Y21510140D01*
X47322276Y21462172D01*
X47310077Y21421959D01*
X47290261Y21384885D01*
X47263600Y21352400D01*
X47231115Y21325739D01*
X47194041Y21305923D01*
X47153828Y21293724D01*
X47105860Y21289000D01*
X46338140Y21289000D01*
X46290172Y21293724D01*
X46249959Y21305923D01*
X46212885Y21325739D01*
X46180400Y21352400D01*
X46153739Y21384885D01*
X46133923Y21421959D01*
X46121724Y21462172D01*
X46117000Y21510140D01*
X46117000Y22177860D01*
X46121724Y22225828D01*
X46133923Y22266041D01*
X46153739Y22303115D01*
X46180400Y22335600D01*
X46212885Y22362261D01*
X46249959Y22382077D01*
X46290172Y22394276D01*
X46338140Y22399000D01*
X47105860Y22399000D01*
X47153828Y22394276D01*
X47153828Y22394276D01*
G37*
G36*
X40802371Y23683623D02*
X40839200Y23672451D01*
X40873144Y23654308D01*
X40902893Y23629893D01*
X40927308Y23600144D01*
X40945451Y23566200D01*
X40956623Y23529371D01*
X40961000Y23484929D01*
X40961000Y21981071D01*
X40956623Y21936629D01*
X40945451Y21899800D01*
X40927308Y21865856D01*
X40902893Y21836107D01*
X40873144Y21811692D01*
X40839200Y21793549D01*
X40802371Y21782377D01*
X40757929Y21778000D01*
X39579071Y21778000D01*
X39534629Y21782377D01*
X39497800Y21793549D01*
X39463856Y21811692D01*
X39434107Y21836107D01*
X39409692Y21865856D01*
X39391549Y21899800D01*
X39380377Y21936629D01*
X39376000Y21981071D01*
X39376000Y23484929D01*
X39380377Y23529371D01*
X39391549Y23566200D01*
X39409692Y23600144D01*
X39434107Y23629893D01*
X39463856Y23654308D01*
X39497800Y23672451D01*
X39534629Y23683623D01*
X39579071Y23688000D01*
X40757929Y23688000D01*
X40802371Y23683623D01*
X40802371Y23683623D01*
G37*
G36*
X43777371Y23683623D02*
X43814200Y23672451D01*
X43848144Y23654308D01*
X43877893Y23629893D01*
X43902308Y23600144D01*
X43920451Y23566200D01*
X43931623Y23529371D01*
X43936000Y23484929D01*
X43936000Y21981071D01*
X43931623Y21936629D01*
X43920451Y21899800D01*
X43902308Y21865856D01*
X43877893Y21836107D01*
X43848144Y21811692D01*
X43814200Y21793549D01*
X43777371Y21782377D01*
X43732929Y21778000D01*
X42554071Y21778000D01*
X42509629Y21782377D01*
X42472800Y21793549D01*
X42438856Y21811692D01*
X42409107Y21836107D01*
X42384692Y21865856D01*
X42366549Y21899800D01*
X42355377Y21936629D01*
X42351000Y21981071D01*
X42351000Y23484929D01*
X42355377Y23529371D01*
X42366549Y23566200D01*
X42384692Y23600144D01*
X42409107Y23629893D01*
X42438856Y23654308D01*
X42472800Y23672451D01*
X42509629Y23683623D01*
X42554071Y23688000D01*
X43732929Y23688000D01*
X43777371Y23683623D01*
X43777371Y23683623D01*
G37*
G36*
X14301028Y23118676D02*
X14341241Y23106477D01*
X14378315Y23086661D01*
X14410800Y23060000D01*
X14437461Y23027515D01*
X14457277Y22990441D01*
X14469476Y22950228D01*
X14474200Y22902260D01*
X14474200Y22134540D01*
X14469476Y22086572D01*
X14457277Y22046359D01*
X14437461Y22009285D01*
X14410800Y21976800D01*
X14378315Y21950139D01*
X14341241Y21930323D01*
X14301028Y21918124D01*
X14253060Y21913400D01*
X13585340Y21913400D01*
X13537372Y21918124D01*
X13497159Y21930323D01*
X13460085Y21950139D01*
X13427600Y21976800D01*
X13400939Y22009285D01*
X13381123Y22046359D01*
X13368924Y22086572D01*
X13364200Y22134540D01*
X13364200Y22902260D01*
X13368924Y22950228D01*
X13381123Y22990441D01*
X13400939Y23027515D01*
X13427600Y23060000D01*
X13460085Y23086661D01*
X13497159Y23106477D01*
X13537372Y23118676D01*
X13585340Y23123400D01*
X14253060Y23123400D01*
X14301028Y23118676D01*
X14301028Y23118676D01*
G37*
G36*
X50292828Y23319276D02*
X50333041Y23307077D01*
X50370115Y23287261D01*
X50402600Y23260600D01*
X50429261Y23228115D01*
X50449077Y23191041D01*
X50461276Y23150828D01*
X50466000Y23102860D01*
X50466000Y22335140D01*
X50461276Y22287172D01*
X50449077Y22246959D01*
X50429261Y22209885D01*
X50402600Y22177400D01*
X50370115Y22150739D01*
X50333041Y22130923D01*
X50292828Y22118724D01*
X50244860Y22114000D01*
X49577140Y22114000D01*
X49529172Y22118724D01*
X49488959Y22130923D01*
X49451885Y22150739D01*
X49419400Y22177400D01*
X49392739Y22209885D01*
X49372923Y22246959D01*
X49360724Y22287172D01*
X49356000Y22335140D01*
X49356000Y23102860D01*
X49360724Y23150828D01*
X49372923Y23191041D01*
X49392739Y23228115D01*
X49419400Y23260600D01*
X49451885Y23287261D01*
X49488959Y23307077D01*
X49529172Y23319276D01*
X49577140Y23324000D01*
X50244860Y23324000D01*
X50292828Y23319276D01*
X50292828Y23319276D01*
G37*
G36*
X48768828Y23319276D02*
X48809041Y23307077D01*
X48846115Y23287261D01*
X48878600Y23260600D01*
X48905261Y23228115D01*
X48925077Y23191041D01*
X48937276Y23150828D01*
X48942000Y23102860D01*
X48942000Y22335140D01*
X48937276Y22287172D01*
X48925077Y22246959D01*
X48905261Y22209885D01*
X48878600Y22177400D01*
X48846115Y22150739D01*
X48809041Y22130923D01*
X48768828Y22118724D01*
X48720860Y22114000D01*
X48053140Y22114000D01*
X48005172Y22118724D01*
X47964959Y22130923D01*
X47927885Y22150739D01*
X47895400Y22177400D01*
X47868739Y22209885D01*
X47848923Y22246959D01*
X47836724Y22287172D01*
X47832000Y22335140D01*
X47832000Y23102860D01*
X47836724Y23150828D01*
X47848923Y23191041D01*
X47868739Y23228115D01*
X47895400Y23260600D01*
X47927885Y23287261D01*
X47964959Y23307077D01*
X48005172Y23319276D01*
X48053140Y23324000D01*
X48720860Y23324000D01*
X48768828Y23319276D01*
X48768828Y23319276D01*
G37*
G36*
X35747508Y23488036D02*
X35787721Y23475837D01*
X35824795Y23456021D01*
X35857280Y23429360D01*
X35883941Y23396875D01*
X35903757Y23359801D01*
X35915956Y23319588D01*
X35920680Y23271620D01*
X35920680Y22503900D01*
X35915956Y22455932D01*
X35903757Y22415719D01*
X35883941Y22378645D01*
X35857280Y22346160D01*
X35824795Y22319499D01*
X35787721Y22299683D01*
X35747508Y22287484D01*
X35699540Y22282760D01*
X35031820Y22282760D01*
X34983852Y22287484D01*
X34943639Y22299683D01*
X34906565Y22319499D01*
X34874080Y22346160D01*
X34847419Y22378645D01*
X34827603Y22415719D01*
X34815404Y22455932D01*
X34810680Y22503900D01*
X34810680Y23271620D01*
X34815404Y23319588D01*
X34827603Y23359801D01*
X34847419Y23396875D01*
X34874080Y23429360D01*
X34906565Y23456021D01*
X34943639Y23475837D01*
X34983852Y23488036D01*
X35031820Y23492760D01*
X35699540Y23492760D01*
X35747508Y23488036D01*
X35747508Y23488036D01*
G37*
G36*
X38580527Y23628293D02*
X38620582Y23616142D01*
X38657497Y23596410D01*
X38689855Y23569855D01*
X38716410Y23537497D01*
X38736142Y23500582D01*
X38748293Y23460527D01*
X38753000Y23412731D01*
X38753000Y22543269D01*
X38748293Y22495473D01*
X38736142Y22455418D01*
X38716410Y22418503D01*
X38689855Y22386145D01*
X38657497Y22359590D01*
X38620582Y22339858D01*
X38580527Y22327707D01*
X38532731Y22323000D01*
X37413269Y22323000D01*
X37365473Y22327707D01*
X37325418Y22339858D01*
X37288503Y22359590D01*
X37256145Y22386145D01*
X37229590Y22418503D01*
X37209858Y22455418D01*
X37197707Y22495473D01*
X37193000Y22543269D01*
X37193000Y23412731D01*
X37197707Y23460527D01*
X37209858Y23500582D01*
X37229590Y23537497D01*
X37256145Y23569855D01*
X37288503Y23596410D01*
X37325418Y23616142D01*
X37365473Y23628293D01*
X37413269Y23633000D01*
X38532731Y23633000D01*
X38580527Y23628293D01*
X38580527Y23628293D01*
G37*
G36*
X51999068Y23555816D02*
X52039281Y23543617D01*
X52076355Y23523801D01*
X52108840Y23497140D01*
X52135501Y23464655D01*
X52155317Y23427581D01*
X52167516Y23387368D01*
X52172240Y23339400D01*
X52172240Y22671680D01*
X52167516Y22623712D01*
X52155317Y22583499D01*
X52135501Y22546425D01*
X52108840Y22513940D01*
X52076355Y22487279D01*
X52039281Y22467463D01*
X51999068Y22455264D01*
X51951100Y22450540D01*
X51183380Y22450540D01*
X51135412Y22455264D01*
X51095199Y22467463D01*
X51058125Y22487279D01*
X51025640Y22513940D01*
X50998979Y22546425D01*
X50979163Y22583499D01*
X50966964Y22623712D01*
X50962240Y22671680D01*
X50962240Y23339400D01*
X50966964Y23387368D01*
X50979163Y23427581D01*
X50998979Y23464655D01*
X51025640Y23497140D01*
X51058125Y23523801D01*
X51095199Y23543617D01*
X51135412Y23555816D01*
X51183380Y23560540D01*
X51951100Y23560540D01*
X51999068Y23555816D01*
X51999068Y23555816D01*
G37*
G36*
X53749068Y23555816D02*
X53789281Y23543617D01*
X53826355Y23523801D01*
X53858840Y23497140D01*
X53885501Y23464655D01*
X53905317Y23427581D01*
X53917516Y23387368D01*
X53922240Y23339400D01*
X53922240Y22671680D01*
X53917516Y22623712D01*
X53905317Y22583499D01*
X53885501Y22546425D01*
X53858840Y22513940D01*
X53826355Y22487279D01*
X53789281Y22467463D01*
X53749068Y22455264D01*
X53701100Y22450540D01*
X52933380Y22450540D01*
X52885412Y22455264D01*
X52845199Y22467463D01*
X52808125Y22487279D01*
X52775640Y22513940D01*
X52748979Y22546425D01*
X52729163Y22583499D01*
X52716964Y22623712D01*
X52712240Y22671680D01*
X52712240Y23339400D01*
X52716964Y23387368D01*
X52729163Y23427581D01*
X52748979Y23464655D01*
X52775640Y23497140D01*
X52808125Y23523801D01*
X52845199Y23543617D01*
X52885412Y23555816D01*
X52933380Y23560540D01*
X53701100Y23560540D01*
X53749068Y23555816D01*
X53749068Y23555816D01*
G37*
G36*
X12650028Y23979676D02*
X12690241Y23967477D01*
X12727315Y23947661D01*
X12759800Y23921000D01*
X12786461Y23888515D01*
X12806277Y23851441D01*
X12818476Y23811228D01*
X12823200Y23763260D01*
X12823200Y22995540D01*
X12818476Y22947572D01*
X12806277Y22907359D01*
X12786461Y22870285D01*
X12759800Y22837800D01*
X12727315Y22811139D01*
X12690241Y22791323D01*
X12650028Y22779124D01*
X12602060Y22774400D01*
X11934340Y22774400D01*
X11886372Y22779124D01*
X11846159Y22791323D01*
X11809085Y22811139D01*
X11776600Y22837800D01*
X11749939Y22870285D01*
X11730123Y22907359D01*
X11717924Y22947572D01*
X11713200Y22995540D01*
X11713200Y23763260D01*
X11717924Y23811228D01*
X11730123Y23851441D01*
X11749939Y23888515D01*
X11776600Y23921000D01*
X11809085Y23947661D01*
X11846159Y23967477D01*
X11886372Y23979676D01*
X11934340Y23984400D01*
X12602060Y23984400D01*
X12650028Y23979676D01*
X12650028Y23979676D01*
G37*
G36*
X16002828Y23979676D02*
X16043041Y23967477D01*
X16080115Y23947661D01*
X16112600Y23921000D01*
X16139261Y23888515D01*
X16159077Y23851441D01*
X16171276Y23811228D01*
X16176000Y23763260D01*
X16176000Y22995540D01*
X16171276Y22947572D01*
X16159077Y22907359D01*
X16139261Y22870285D01*
X16112600Y22837800D01*
X16080115Y22811139D01*
X16043041Y22791323D01*
X16002828Y22779124D01*
X15954860Y22774400D01*
X15287140Y22774400D01*
X15239172Y22779124D01*
X15198959Y22791323D01*
X15161885Y22811139D01*
X15129400Y22837800D01*
X15102739Y22870285D01*
X15082923Y22907359D01*
X15070724Y22947572D01*
X15066000Y22995540D01*
X15066000Y23763260D01*
X15070724Y23811228D01*
X15082923Y23851441D01*
X15102739Y23888515D01*
X15129400Y23921000D01*
X15161885Y23947661D01*
X15198959Y23967477D01*
X15239172Y23979676D01*
X15287140Y23984400D01*
X15954860Y23984400D01*
X16002828Y23979676D01*
X16002828Y23979676D01*
G37*
G36*
X10270400Y22775600D02*
X7560400Y22775600D01*
X7560400Y23995600D01*
X10270400Y23995600D01*
X10270400Y22775600D01*
X10270400Y22775600D01*
G37*
G36*
X14301028Y24868676D02*
X14341241Y24856477D01*
X14378315Y24836661D01*
X14410800Y24810000D01*
X14437461Y24777515D01*
X14457277Y24740441D01*
X14469476Y24700228D01*
X14474200Y24652260D01*
X14474200Y23884540D01*
X14469476Y23836572D01*
X14457277Y23796359D01*
X14437461Y23759285D01*
X14410800Y23726800D01*
X14378315Y23700139D01*
X14341241Y23680323D01*
X14301028Y23668124D01*
X14253060Y23663400D01*
X13585340Y23663400D01*
X13537372Y23668124D01*
X13497159Y23680323D01*
X13460085Y23700139D01*
X13427600Y23726800D01*
X13400939Y23759285D01*
X13381123Y23796359D01*
X13368924Y23836572D01*
X13364200Y23884540D01*
X13364200Y24652260D01*
X13368924Y24700228D01*
X13381123Y24740441D01*
X13400939Y24777515D01*
X13427600Y24810000D01*
X13460085Y24836661D01*
X13497159Y24856477D01*
X13537372Y24868676D01*
X13585340Y24873400D01*
X14253060Y24873400D01*
X14301028Y24868676D01*
X14301028Y24868676D01*
G37*
G36*
X35747508Y25238036D02*
X35787721Y25225837D01*
X35824795Y25206021D01*
X35857280Y25179360D01*
X35883941Y25146875D01*
X35903757Y25109801D01*
X35915956Y25069588D01*
X35920680Y25021620D01*
X35920680Y24253900D01*
X35915956Y24205932D01*
X35903757Y24165719D01*
X35883941Y24128645D01*
X35857280Y24096160D01*
X35824795Y24069499D01*
X35787721Y24049683D01*
X35747508Y24037484D01*
X35699540Y24032760D01*
X35031820Y24032760D01*
X34983852Y24037484D01*
X34943639Y24049683D01*
X34906565Y24069499D01*
X34874080Y24096160D01*
X34847419Y24128645D01*
X34827603Y24165719D01*
X34815404Y24205932D01*
X34810680Y24253900D01*
X34810680Y25021620D01*
X34815404Y25069588D01*
X34827603Y25109801D01*
X34847419Y25146875D01*
X34874080Y25179360D01*
X34906565Y25206021D01*
X34943639Y25225837D01*
X34983852Y25238036D01*
X35031820Y25242760D01*
X35699540Y25242760D01*
X35747508Y25238036D01*
X35747508Y25238036D01*
G37*
G36*
X43777371Y26223623D02*
X43814200Y26212451D01*
X43848144Y26194308D01*
X43877893Y26169893D01*
X43902308Y26140144D01*
X43920451Y26106200D01*
X43931623Y26069371D01*
X43936000Y26024929D01*
X43936000Y24521071D01*
X43931623Y24476629D01*
X43920451Y24439800D01*
X43902308Y24405856D01*
X43877893Y24376107D01*
X43848144Y24351692D01*
X43814200Y24333549D01*
X43777371Y24322377D01*
X43732929Y24318000D01*
X42554071Y24318000D01*
X42509629Y24322377D01*
X42472800Y24333549D01*
X42438856Y24351692D01*
X42409107Y24376107D01*
X42384692Y24405856D01*
X42366549Y24439800D01*
X42355377Y24476629D01*
X42351000Y24521071D01*
X42351000Y26024929D01*
X42355377Y26069371D01*
X42366549Y26106200D01*
X42384692Y26140144D01*
X42409107Y26169893D01*
X42438856Y26194308D01*
X42472800Y26212451D01*
X42509629Y26223623D01*
X42554071Y26228000D01*
X43732929Y26228000D01*
X43777371Y26223623D01*
X43777371Y26223623D01*
G37*
G36*
X40802371Y26223623D02*
X40839200Y26212451D01*
X40873144Y26194308D01*
X40902893Y26169893D01*
X40927308Y26140144D01*
X40945451Y26106200D01*
X40956623Y26069371D01*
X40961000Y26024929D01*
X40961000Y24521071D01*
X40956623Y24476629D01*
X40945451Y24439800D01*
X40927308Y24405856D01*
X40902893Y24376107D01*
X40873144Y24351692D01*
X40839200Y24333549D01*
X40802371Y24322377D01*
X40757929Y24318000D01*
X39579071Y24318000D01*
X39534629Y24322377D01*
X39497800Y24333549D01*
X39463856Y24351692D01*
X39434107Y24376107D01*
X39409692Y24405856D01*
X39391549Y24439800D01*
X39380377Y24476629D01*
X39376000Y24521071D01*
X39376000Y26024929D01*
X39380377Y26069371D01*
X39391549Y26106200D01*
X39409692Y26140144D01*
X39434107Y26169893D01*
X39463856Y26194308D01*
X39497800Y26212451D01*
X39534629Y26223623D01*
X39579071Y26228000D01*
X40757929Y26228000D01*
X40802371Y26223623D01*
X40802371Y26223623D01*
G37*
G36*
X38580527Y25678293D02*
X38620582Y25666142D01*
X38657497Y25646410D01*
X38689855Y25619855D01*
X38716410Y25587497D01*
X38736142Y25550582D01*
X38748293Y25510527D01*
X38753000Y25462731D01*
X38753000Y24593269D01*
X38748293Y24545473D01*
X38736142Y24505418D01*
X38716410Y24468503D01*
X38689855Y24436145D01*
X38657497Y24409590D01*
X38620582Y24389858D01*
X38580527Y24377707D01*
X38532731Y24373000D01*
X37413269Y24373000D01*
X37365473Y24377707D01*
X37325418Y24389858D01*
X37288503Y24409590D01*
X37256145Y24436145D01*
X37229590Y24468503D01*
X37209858Y24505418D01*
X37197707Y24545473D01*
X37193000Y24593269D01*
X37193000Y25462731D01*
X37197707Y25510527D01*
X37209858Y25550582D01*
X37229590Y25587497D01*
X37256145Y25619855D01*
X37288503Y25646410D01*
X37325418Y25666142D01*
X37365473Y25678293D01*
X37413269Y25683000D01*
X38532731Y25683000D01*
X38580527Y25678293D01*
X38580527Y25678293D01*
G37*
G36*
X51999068Y25555816D02*
X52039281Y25543617D01*
X52076355Y25523801D01*
X52108840Y25497140D01*
X52135501Y25464655D01*
X52155317Y25427581D01*
X52167516Y25387368D01*
X52172240Y25339400D01*
X52172240Y24671680D01*
X52167516Y24623712D01*
X52155317Y24583499D01*
X52135501Y24546425D01*
X52108840Y24513940D01*
X52076355Y24487279D01*
X52039281Y24467463D01*
X51999068Y24455264D01*
X51951100Y24450540D01*
X51183380Y24450540D01*
X51135412Y24455264D01*
X51095199Y24467463D01*
X51058125Y24487279D01*
X51025640Y24513940D01*
X50998979Y24546425D01*
X50979163Y24583499D01*
X50966964Y24623712D01*
X50962240Y24671680D01*
X50962240Y25339400D01*
X50966964Y25387368D01*
X50979163Y25427581D01*
X50998979Y25464655D01*
X51025640Y25497140D01*
X51058125Y25523801D01*
X51095199Y25543617D01*
X51135412Y25555816D01*
X51183380Y25560540D01*
X51951100Y25560540D01*
X51999068Y25555816D01*
X51999068Y25555816D01*
G37*
G36*
X53749068Y25555816D02*
X53789281Y25543617D01*
X53826355Y25523801D01*
X53858840Y25497140D01*
X53885501Y25464655D01*
X53905317Y25427581D01*
X53917516Y25387368D01*
X53922240Y25339400D01*
X53922240Y24671680D01*
X53917516Y24623712D01*
X53905317Y24583499D01*
X53885501Y24546425D01*
X53858840Y24513940D01*
X53826355Y24487279D01*
X53789281Y24467463D01*
X53749068Y24455264D01*
X53701100Y24450540D01*
X52933380Y24450540D01*
X52885412Y24455264D01*
X52845199Y24467463D01*
X52808125Y24487279D01*
X52775640Y24513940D01*
X52748979Y24546425D01*
X52729163Y24583499D01*
X52716964Y24623712D01*
X52712240Y24671680D01*
X52712240Y25339400D01*
X52716964Y25387368D01*
X52729163Y25427581D01*
X52748979Y25464655D01*
X52775640Y25497140D01*
X52808125Y25523801D01*
X52845199Y25543617D01*
X52885412Y25555816D01*
X52933380Y25560540D01*
X53701100Y25560540D01*
X53749068Y25555816D01*
X53749068Y25555816D01*
G37*
G36*
X48768828Y25887276D02*
X48809041Y25875077D01*
X48846115Y25855261D01*
X48878600Y25828600D01*
X48905261Y25796115D01*
X48925077Y25759041D01*
X48937276Y25718828D01*
X48942000Y25670860D01*
X48942000Y24903140D01*
X48937276Y24855172D01*
X48925077Y24814959D01*
X48905261Y24777885D01*
X48878600Y24745400D01*
X48846115Y24718739D01*
X48809041Y24698923D01*
X48768828Y24686724D01*
X48720860Y24682000D01*
X48053140Y24682000D01*
X48005172Y24686724D01*
X47964959Y24698923D01*
X47927885Y24718739D01*
X47895400Y24745400D01*
X47868739Y24777885D01*
X47848923Y24814959D01*
X47836724Y24855172D01*
X47832000Y24903140D01*
X47832000Y25670860D01*
X47836724Y25718828D01*
X47848923Y25759041D01*
X47868739Y25796115D01*
X47895400Y25828600D01*
X47927885Y25855261D01*
X47964959Y25875077D01*
X48005172Y25887276D01*
X48053140Y25892000D01*
X48720860Y25892000D01*
X48768828Y25887276D01*
X48768828Y25887276D01*
G37*
G36*
X50292828Y25887276D02*
X50333041Y25875077D01*
X50370115Y25855261D01*
X50402600Y25828600D01*
X50429261Y25796115D01*
X50449077Y25759041D01*
X50461276Y25718828D01*
X50466000Y25670860D01*
X50466000Y24903140D01*
X50461276Y24855172D01*
X50449077Y24814959D01*
X50429261Y24777885D01*
X50402600Y24745400D01*
X50370115Y24718739D01*
X50333041Y24698923D01*
X50292828Y24686724D01*
X50244860Y24682000D01*
X49577140Y24682000D01*
X49529172Y24686724D01*
X49488959Y24698923D01*
X49451885Y24718739D01*
X49419400Y24745400D01*
X49392739Y24777885D01*
X49372923Y24814959D01*
X49360724Y24855172D01*
X49356000Y24903140D01*
X49356000Y25670860D01*
X49360724Y25718828D01*
X49372923Y25759041D01*
X49392739Y25796115D01*
X49419400Y25828600D01*
X49451885Y25855261D01*
X49488959Y25875077D01*
X49529172Y25887276D01*
X49577140Y25892000D01*
X50244860Y25892000D01*
X50292828Y25887276D01*
X50292828Y25887276D01*
G37*
G36*
X24003828Y26141276D02*
X24044041Y26129077D01*
X24081115Y26109261D01*
X24113600Y26082600D01*
X24140261Y26050115D01*
X24160077Y26013041D01*
X24172276Y25972828D01*
X24177000Y25924860D01*
X24177000Y25157140D01*
X24172276Y25109172D01*
X24160077Y25068959D01*
X24140261Y25031885D01*
X24113600Y24999400D01*
X24081115Y24972739D01*
X24044041Y24952923D01*
X24003828Y24940724D01*
X23955860Y24936000D01*
X23288140Y24936000D01*
X23240172Y24940724D01*
X23199959Y24952923D01*
X23162885Y24972739D01*
X23130400Y24999400D01*
X23103739Y25031885D01*
X23083923Y25068959D01*
X23071724Y25109172D01*
X23067000Y25157140D01*
X23067000Y25924860D01*
X23071724Y25972828D01*
X23083923Y26013041D01*
X23103739Y26050115D01*
X23130400Y26082600D01*
X23162885Y26109261D01*
X23199959Y26129077D01*
X23240172Y26141276D01*
X23288140Y26146000D01*
X23955860Y26146000D01*
X24003828Y26141276D01*
X24003828Y26141276D01*
G37*
G36*
X12650028Y26166676D02*
X12690241Y26154477D01*
X12727315Y26134661D01*
X12759800Y26108000D01*
X12786461Y26075515D01*
X12806277Y26038441D01*
X12818476Y25998228D01*
X12823200Y25950260D01*
X12823200Y25182540D01*
X12818476Y25134572D01*
X12806277Y25094359D01*
X12786461Y25057285D01*
X12759800Y25024800D01*
X12727315Y24998139D01*
X12690241Y24978323D01*
X12650028Y24966124D01*
X12602060Y24961400D01*
X11934340Y24961400D01*
X11886372Y24966124D01*
X11846159Y24978323D01*
X11809085Y24998139D01*
X11776600Y25024800D01*
X11749939Y25057285D01*
X11730123Y25094359D01*
X11717924Y25134572D01*
X11713200Y25182540D01*
X11713200Y25950260D01*
X11717924Y25998228D01*
X11730123Y26038441D01*
X11749939Y26075515D01*
X11776600Y26108000D01*
X11809085Y26134661D01*
X11846159Y26154477D01*
X11886372Y26166676D01*
X11934340Y26171400D01*
X12602060Y26171400D01*
X12650028Y26166676D01*
X12650028Y26166676D01*
G37*
G36*
X10270400Y24975600D02*
X7560400Y24975600D01*
X7560400Y26195600D01*
X10270400Y26195600D01*
X10270400Y24975600D01*
X10270400Y24975600D01*
G37*
G36*
X45403828Y26712276D02*
X45444041Y26700077D01*
X45481115Y26680261D01*
X45513600Y26653600D01*
X45540261Y26621115D01*
X45560077Y26584041D01*
X45572276Y26543828D01*
X45577000Y26495860D01*
X45577000Y25828140D01*
X45572276Y25780172D01*
X45560077Y25739959D01*
X45540261Y25702885D01*
X45513600Y25670400D01*
X45481115Y25643739D01*
X45444041Y25623923D01*
X45403828Y25611724D01*
X45355860Y25607000D01*
X44588140Y25607000D01*
X44540172Y25611724D01*
X44499959Y25623923D01*
X44462885Y25643739D01*
X44430400Y25670400D01*
X44403739Y25702885D01*
X44383923Y25739959D01*
X44371724Y25780172D01*
X44367000Y25828140D01*
X44367000Y26495860D01*
X44371724Y26543828D01*
X44383923Y26584041D01*
X44403739Y26621115D01*
X44430400Y26653600D01*
X44462885Y26680261D01*
X44499959Y26700077D01*
X44540172Y26712276D01*
X44588140Y26717000D01*
X45355860Y26717000D01*
X45403828Y26712276D01*
X45403828Y26712276D01*
G37*
G36*
X47153828Y26712276D02*
X47194041Y26700077D01*
X47231115Y26680261D01*
X47263600Y26653600D01*
X47290261Y26621115D01*
X47310077Y26584041D01*
X47322276Y26543828D01*
X47327000Y26495860D01*
X47327000Y25828140D01*
X47322276Y25780172D01*
X47310077Y25739959D01*
X47290261Y25702885D01*
X47263600Y25670400D01*
X47231115Y25643739D01*
X47194041Y25623923D01*
X47153828Y25611724D01*
X47105860Y25607000D01*
X46338140Y25607000D01*
X46290172Y25611724D01*
X46249959Y25623923D01*
X46212885Y25643739D01*
X46180400Y25670400D01*
X46153739Y25702885D01*
X46133923Y25739959D01*
X46121724Y25780172D01*
X46117000Y25828140D01*
X46117000Y26495860D01*
X46121724Y26543828D01*
X46133923Y26584041D01*
X46153739Y26621115D01*
X46180400Y26653600D01*
X46212885Y26680261D01*
X46249959Y26700077D01*
X46290172Y26712276D01*
X46338140Y26717000D01*
X47105860Y26717000D01*
X47153828Y26712276D01*
X47153828Y26712276D01*
G37*
G36*
X53749068Y27159416D02*
X53789281Y27147217D01*
X53826355Y27127401D01*
X53858840Y27100740D01*
X53885501Y27068255D01*
X53905317Y27031181D01*
X53917516Y26990968D01*
X53922240Y26943000D01*
X53922240Y26275280D01*
X53917516Y26227312D01*
X53905317Y26187099D01*
X53885501Y26150025D01*
X53858840Y26117540D01*
X53826355Y26090879D01*
X53789281Y26071063D01*
X53749068Y26058864D01*
X53701100Y26054140D01*
X52933380Y26054140D01*
X52885412Y26058864D01*
X52845199Y26071063D01*
X52808125Y26090879D01*
X52775640Y26117540D01*
X52748979Y26150025D01*
X52729163Y26187099D01*
X52716964Y26227312D01*
X52712240Y26275280D01*
X52712240Y26943000D01*
X52716964Y26990968D01*
X52729163Y27031181D01*
X52748979Y27068255D01*
X52775640Y27100740D01*
X52808125Y27127401D01*
X52845199Y27147217D01*
X52885412Y27159416D01*
X52933380Y27164140D01*
X53701100Y27164140D01*
X53749068Y27159416D01*
X53749068Y27159416D01*
G37*
G36*
X51999068Y27159416D02*
X52039281Y27147217D01*
X52076355Y27127401D01*
X52108840Y27100740D01*
X52135501Y27068255D01*
X52155317Y27031181D01*
X52167516Y26990968D01*
X52172240Y26943000D01*
X52172240Y26275280D01*
X52167516Y26227312D01*
X52155317Y26187099D01*
X52135501Y26150025D01*
X52108840Y26117540D01*
X52076355Y26090879D01*
X52039281Y26071063D01*
X51999068Y26058864D01*
X51951100Y26054140D01*
X51183380Y26054140D01*
X51135412Y26058864D01*
X51095199Y26071063D01*
X51058125Y26090879D01*
X51025640Y26117540D01*
X50998979Y26150025D01*
X50979163Y26187099D01*
X50966964Y26227312D01*
X50962240Y26275280D01*
X50962240Y26943000D01*
X50966964Y26990968D01*
X50979163Y27031181D01*
X50998979Y27068255D01*
X51025640Y27100740D01*
X51058125Y27127401D01*
X51095199Y27147217D01*
X51135412Y27159416D01*
X51183380Y27164140D01*
X51951100Y27164140D01*
X51999068Y27159416D01*
X51999068Y27159416D01*
G37*
G36*
X36772508Y27363036D02*
X36812721Y27350837D01*
X36849795Y27331021D01*
X36882280Y27304360D01*
X36908941Y27271875D01*
X36928757Y27234801D01*
X36940956Y27194588D01*
X36945680Y27146620D01*
X36945680Y26478900D01*
X36940956Y26430932D01*
X36928757Y26390719D01*
X36908941Y26353645D01*
X36882280Y26321160D01*
X36849795Y26294499D01*
X36812721Y26274683D01*
X36772508Y26262484D01*
X36724540Y26257760D01*
X35956820Y26257760D01*
X35908852Y26262484D01*
X35868639Y26274683D01*
X35831565Y26294499D01*
X35799080Y26321160D01*
X35772419Y26353645D01*
X35752603Y26390719D01*
X35740404Y26430932D01*
X35735680Y26478900D01*
X35735680Y27146620D01*
X35740404Y27194588D01*
X35752603Y27234801D01*
X35772419Y27271875D01*
X35799080Y27304360D01*
X35831565Y27331021D01*
X35868639Y27350837D01*
X35908852Y27363036D01*
X35956820Y27367760D01*
X36724540Y27367760D01*
X36772508Y27363036D01*
X36772508Y27363036D01*
G37*
G36*
X35022508Y27363036D02*
X35062721Y27350837D01*
X35099795Y27331021D01*
X35132280Y27304360D01*
X35158941Y27271875D01*
X35178757Y27234801D01*
X35190956Y27194588D01*
X35195680Y27146620D01*
X35195680Y26478900D01*
X35190956Y26430932D01*
X35178757Y26390719D01*
X35158941Y26353645D01*
X35132280Y26321160D01*
X35099795Y26294499D01*
X35062721Y26274683D01*
X35022508Y26262484D01*
X34974540Y26257760D01*
X34206820Y26257760D01*
X34158852Y26262484D01*
X34118639Y26274683D01*
X34081565Y26294499D01*
X34049080Y26321160D01*
X34022419Y26353645D01*
X34002603Y26390719D01*
X33990404Y26430932D01*
X33985680Y26478900D01*
X33985680Y27146620D01*
X33990404Y27194588D01*
X34002603Y27234801D01*
X34022419Y27271875D01*
X34049080Y27304360D01*
X34081565Y27331021D01*
X34118639Y27350837D01*
X34158852Y27363036D01*
X34206820Y27367760D01*
X34974540Y27367760D01*
X35022508Y27363036D01*
X35022508Y27363036D01*
G37*
G36*
X48768828Y27637276D02*
X48809041Y27625077D01*
X48846115Y27605261D01*
X48878600Y27578600D01*
X48905261Y27546115D01*
X48925077Y27509041D01*
X48937276Y27468828D01*
X48942000Y27420860D01*
X48942000Y26653140D01*
X48937276Y26605172D01*
X48925077Y26564959D01*
X48905261Y26527885D01*
X48878600Y26495400D01*
X48846115Y26468739D01*
X48809041Y26448923D01*
X48768828Y26436724D01*
X48720860Y26432000D01*
X48053140Y26432000D01*
X48005172Y26436724D01*
X47964959Y26448923D01*
X47927885Y26468739D01*
X47895400Y26495400D01*
X47868739Y26527885D01*
X47848923Y26564959D01*
X47836724Y26605172D01*
X47832000Y26653140D01*
X47832000Y27420860D01*
X47836724Y27468828D01*
X47848923Y27509041D01*
X47868739Y27546115D01*
X47895400Y27578600D01*
X47927885Y27605261D01*
X47964959Y27625077D01*
X48005172Y27637276D01*
X48053140Y27642000D01*
X48720860Y27642000D01*
X48768828Y27637276D01*
X48768828Y27637276D01*
G37*
G36*
X50292828Y27637276D02*
X50333041Y27625077D01*
X50370115Y27605261D01*
X50402600Y27578600D01*
X50429261Y27546115D01*
X50449077Y27509041D01*
X50461276Y27468828D01*
X50466000Y27420860D01*
X50466000Y26653140D01*
X50461276Y26605172D01*
X50449077Y26564959D01*
X50429261Y26527885D01*
X50402600Y26495400D01*
X50370115Y26468739D01*
X50333041Y26448923D01*
X50292828Y26436724D01*
X50244860Y26432000D01*
X49577140Y26432000D01*
X49529172Y26436724D01*
X49488959Y26448923D01*
X49451885Y26468739D01*
X49419400Y26495400D01*
X49392739Y26527885D01*
X49372923Y26564959D01*
X49360724Y26605172D01*
X49356000Y26653140D01*
X49356000Y27420860D01*
X49360724Y27468828D01*
X49372923Y27509041D01*
X49392739Y27546115D01*
X49419400Y27578600D01*
X49451885Y27605261D01*
X49488959Y27625077D01*
X49529172Y27637276D01*
X49577140Y27642000D01*
X50244860Y27642000D01*
X50292828Y27637276D01*
X50292828Y27637276D01*
G37*
G36*
X43724828Y27728276D02*
X43765041Y27716077D01*
X43802115Y27696261D01*
X43834600Y27669600D01*
X43861261Y27637115D01*
X43881077Y27600041D01*
X43893276Y27559828D01*
X43898000Y27511860D01*
X43898000Y26844140D01*
X43893276Y26796172D01*
X43881077Y26755959D01*
X43861261Y26718885D01*
X43834600Y26686400D01*
X43802115Y26659739D01*
X43765041Y26639923D01*
X43724828Y26627724D01*
X43676860Y26623000D01*
X42909140Y26623000D01*
X42861172Y26627724D01*
X42820959Y26639923D01*
X42783885Y26659739D01*
X42751400Y26686400D01*
X42724739Y26718885D01*
X42704923Y26755959D01*
X42692724Y26796172D01*
X42688000Y26844140D01*
X42688000Y27511860D01*
X42692724Y27559828D01*
X42704923Y27600041D01*
X42724739Y27637115D01*
X42751400Y27669600D01*
X42783885Y27696261D01*
X42820959Y27716077D01*
X42861172Y27728276D01*
X42909140Y27733000D01*
X43676860Y27733000D01*
X43724828Y27728276D01*
X43724828Y27728276D01*
G37*
G36*
X41974828Y27728276D02*
X42015041Y27716077D01*
X42052115Y27696261D01*
X42084600Y27669600D01*
X42111261Y27637115D01*
X42131077Y27600041D01*
X42143276Y27559828D01*
X42148000Y27511860D01*
X42148000Y26844140D01*
X42143276Y26796172D01*
X42131077Y26755959D01*
X42111261Y26718885D01*
X42084600Y26686400D01*
X42052115Y26659739D01*
X42015041Y26639923D01*
X41974828Y26627724D01*
X41926860Y26623000D01*
X41159140Y26623000D01*
X41111172Y26627724D01*
X41070959Y26639923D01*
X41033885Y26659739D01*
X41001400Y26686400D01*
X40974739Y26718885D01*
X40954923Y26755959D01*
X40942724Y26796172D01*
X40938000Y26844140D01*
X40938000Y27511860D01*
X40942724Y27559828D01*
X40954923Y27600041D01*
X40974739Y27637115D01*
X41001400Y27669600D01*
X41033885Y27696261D01*
X41070959Y27716077D01*
X41111172Y27728276D01*
X41159140Y27733000D01*
X41926860Y27733000D01*
X41974828Y27728276D01*
X41974828Y27728276D01*
G37*
G36*
X24003828Y27891276D02*
X24044041Y27879077D01*
X24081115Y27859261D01*
X24113600Y27832600D01*
X24140261Y27800115D01*
X24160077Y27763041D01*
X24172276Y27722828D01*
X24177000Y27674860D01*
X24177000Y26907140D01*
X24172276Y26859172D01*
X24160077Y26818959D01*
X24140261Y26781885D01*
X24113600Y26749400D01*
X24081115Y26722739D01*
X24044041Y26702923D01*
X24003828Y26690724D01*
X23955860Y26686000D01*
X23288140Y26686000D01*
X23240172Y26690724D01*
X23199959Y26702923D01*
X23162885Y26722739D01*
X23130400Y26749400D01*
X23103739Y26781885D01*
X23083923Y26818959D01*
X23071724Y26859172D01*
X23067000Y26907140D01*
X23067000Y27674860D01*
X23071724Y27722828D01*
X23083923Y27763041D01*
X23103739Y27800115D01*
X23130400Y27832600D01*
X23162885Y27859261D01*
X23199959Y27879077D01*
X23240172Y27891276D01*
X23288140Y27896000D01*
X23955860Y27896000D01*
X24003828Y27891276D01*
X24003828Y27891276D01*
G37*
G36*
X12650028Y27916676D02*
X12690241Y27904477D01*
X12727315Y27884661D01*
X12759800Y27858000D01*
X12786461Y27825515D01*
X12806277Y27788441D01*
X12818476Y27748228D01*
X12823200Y27700260D01*
X12823200Y26932540D01*
X12818476Y26884572D01*
X12806277Y26844359D01*
X12786461Y26807285D01*
X12759800Y26774800D01*
X12727315Y26748139D01*
X12690241Y26728323D01*
X12650028Y26716124D01*
X12602060Y26711400D01*
X11934340Y26711400D01*
X11886372Y26716124D01*
X11846159Y26728323D01*
X11809085Y26748139D01*
X11776600Y26774800D01*
X11749939Y26807285D01*
X11730123Y26844359D01*
X11717924Y26884572D01*
X11713200Y26932540D01*
X11713200Y27700260D01*
X11717924Y27748228D01*
X11730123Y27788441D01*
X11749939Y27825515D01*
X11776600Y27858000D01*
X11809085Y27884661D01*
X11846159Y27904477D01*
X11886372Y27916676D01*
X11934340Y27921400D01*
X12602060Y27921400D01*
X12650028Y27916676D01*
X12650028Y27916676D01*
G37*
G36*
X47153828Y28236276D02*
X47194041Y28224077D01*
X47231115Y28204261D01*
X47263600Y28177600D01*
X47290261Y28145115D01*
X47310077Y28108041D01*
X47322276Y28067828D01*
X47327000Y28019860D01*
X47327000Y27352140D01*
X47322276Y27304172D01*
X47310077Y27263959D01*
X47290261Y27226885D01*
X47263600Y27194400D01*
X47231115Y27167739D01*
X47194041Y27147923D01*
X47153828Y27135724D01*
X47105860Y27131000D01*
X46338140Y27131000D01*
X46290172Y27135724D01*
X46249959Y27147923D01*
X46212885Y27167739D01*
X46180400Y27194400D01*
X46153739Y27226885D01*
X46133923Y27263959D01*
X46121724Y27304172D01*
X46117000Y27352140D01*
X46117000Y28019860D01*
X46121724Y28067828D01*
X46133923Y28108041D01*
X46153739Y28145115D01*
X46180400Y28177600D01*
X46212885Y28204261D01*
X46249959Y28224077D01*
X46290172Y28236276D01*
X46338140Y28241000D01*
X47105860Y28241000D01*
X47153828Y28236276D01*
X47153828Y28236276D01*
G37*
G36*
X45403828Y28236276D02*
X45444041Y28224077D01*
X45481115Y28204261D01*
X45513600Y28177600D01*
X45540261Y28145115D01*
X45560077Y28108041D01*
X45572276Y28067828D01*
X45577000Y28019860D01*
X45577000Y27352140D01*
X45572276Y27304172D01*
X45560077Y27263959D01*
X45540261Y27226885D01*
X45513600Y27194400D01*
X45481115Y27167739D01*
X45444041Y27147923D01*
X45403828Y27135724D01*
X45355860Y27131000D01*
X44588140Y27131000D01*
X44540172Y27135724D01*
X44499959Y27147923D01*
X44462885Y27167739D01*
X44430400Y27194400D01*
X44403739Y27226885D01*
X44383923Y27263959D01*
X44371724Y27304172D01*
X44367000Y27352140D01*
X44367000Y28019860D01*
X44371724Y28067828D01*
X44383923Y28108041D01*
X44403739Y28145115D01*
X44430400Y28177600D01*
X44462885Y28204261D01*
X44499959Y28224077D01*
X44540172Y28236276D01*
X44588140Y28241000D01*
X45355860Y28241000D01*
X45403828Y28236276D01*
X45403828Y28236276D01*
G37*
G36*
X9522927Y28733693D02*
X9562982Y28721542D01*
X9599897Y28701810D01*
X9632255Y28675255D01*
X9658810Y28642897D01*
X9678542Y28605982D01*
X9690693Y28565927D01*
X9695400Y28518131D01*
X9695400Y27648669D01*
X9690693Y27600873D01*
X9678542Y27560818D01*
X9658810Y27523903D01*
X9632255Y27491545D01*
X9599897Y27464990D01*
X9562982Y27445258D01*
X9522927Y27433107D01*
X9475131Y27428400D01*
X8355669Y27428400D01*
X8307873Y27433107D01*
X8267818Y27445258D01*
X8230903Y27464990D01*
X8198545Y27491545D01*
X8171990Y27523903D01*
X8152258Y27560818D01*
X8140107Y27600873D01*
X8135400Y27648669D01*
X8135400Y28518131D01*
X8140107Y28565927D01*
X8152258Y28605982D01*
X8171990Y28642897D01*
X8198545Y28675255D01*
X8230903Y28701810D01*
X8267818Y28721542D01*
X8307873Y28733693D01*
X8355669Y28738400D01*
X9475131Y28738400D01*
X9522927Y28733693D01*
X9522927Y28733693D01*
G37*
G36*
X35252508Y29893036D02*
X35292721Y29880837D01*
X35329795Y29861021D01*
X35362280Y29834360D01*
X35388941Y29801875D01*
X35408757Y29764801D01*
X35420956Y29724588D01*
X35425680Y29676620D01*
X35425680Y29008900D01*
X35420956Y28960932D01*
X35408757Y28920719D01*
X35388941Y28883645D01*
X35362280Y28851160D01*
X35329795Y28824499D01*
X35292721Y28804683D01*
X35252508Y28792484D01*
X35204540Y28787760D01*
X34436820Y28787760D01*
X34388852Y28792484D01*
X34348639Y28804683D01*
X34311565Y28824499D01*
X34279080Y28851160D01*
X34252419Y28883645D01*
X34232603Y28920719D01*
X34220404Y28960932D01*
X34215680Y29008900D01*
X34215680Y29676620D01*
X34220404Y29724588D01*
X34232603Y29764801D01*
X34252419Y29801875D01*
X34279080Y29834360D01*
X34311565Y29861021D01*
X34348639Y29880837D01*
X34388852Y29893036D01*
X34436820Y29897760D01*
X35204540Y29897760D01*
X35252508Y29893036D01*
X35252508Y29893036D01*
G37*
G36*
X37002508Y29893036D02*
X37042721Y29880837D01*
X37079795Y29861021D01*
X37112280Y29834360D01*
X37138941Y29801875D01*
X37158757Y29764801D01*
X37170956Y29724588D01*
X37175680Y29676620D01*
X37175680Y29008900D01*
X37170956Y28960932D01*
X37158757Y28920719D01*
X37138941Y28883645D01*
X37112280Y28851160D01*
X37079795Y28824499D01*
X37042721Y28804683D01*
X37002508Y28792484D01*
X36954540Y28787760D01*
X36186820Y28787760D01*
X36138852Y28792484D01*
X36098639Y28804683D01*
X36061565Y28824499D01*
X36029080Y28851160D01*
X36002419Y28883645D01*
X35982603Y28920719D01*
X35970404Y28960932D01*
X35965680Y29008900D01*
X35965680Y29676620D01*
X35970404Y29724588D01*
X35982603Y29764801D01*
X36002419Y29801875D01*
X36029080Y29834360D01*
X36061565Y29861021D01*
X36098639Y29880837D01*
X36138852Y29893036D01*
X36186820Y29897760D01*
X36954540Y29897760D01*
X37002508Y29893036D01*
X37002508Y29893036D01*
G37*
G36*
X9522927Y30783693D02*
X9562982Y30771542D01*
X9599897Y30751810D01*
X9632255Y30725255D01*
X9658810Y30692897D01*
X9678542Y30655982D01*
X9690693Y30615927D01*
X9695400Y30568131D01*
X9695400Y29698669D01*
X9690693Y29650873D01*
X9678542Y29610818D01*
X9658810Y29573903D01*
X9632255Y29541545D01*
X9599897Y29514990D01*
X9562982Y29495258D01*
X9522927Y29483107D01*
X9475131Y29478400D01*
X8355669Y29478400D01*
X8307873Y29483107D01*
X8267818Y29495258D01*
X8230903Y29514990D01*
X8198545Y29541545D01*
X8171990Y29573903D01*
X8152258Y29610818D01*
X8140107Y29650873D01*
X8135400Y29698669D01*
X8135400Y30568131D01*
X8140107Y30615927D01*
X8152258Y30655982D01*
X8171990Y30692897D01*
X8198545Y30725255D01*
X8230903Y30751810D01*
X8267818Y30771542D01*
X8307873Y30783693D01*
X8355669Y30788400D01*
X9475131Y30788400D01*
X9522927Y30783693D01*
X9522927Y30783693D01*
G37*
G36*
X32575680Y30027760D02*
X31015680Y30027760D01*
X31015680Y31337760D01*
X32575680Y31337760D01*
X32575680Y30027760D01*
X32575680Y30027760D01*
G37*
G36*
X30375680Y30027760D02*
X28815680Y30027760D01*
X28815680Y31337760D01*
X30375680Y31337760D01*
X30375680Y30027760D01*
X30375680Y30027760D01*
G37*
G36*
X28177508Y31602276D02*
X28217721Y31590077D01*
X28254795Y31570261D01*
X28287280Y31543600D01*
X28313941Y31511115D01*
X28333757Y31474041D01*
X28345956Y31433828D01*
X28350680Y31385860D01*
X28350680Y30618140D01*
X28345956Y30570172D01*
X28333757Y30529959D01*
X28313941Y30492885D01*
X28287280Y30460400D01*
X28254795Y30433739D01*
X28217721Y30413923D01*
X28177508Y30401724D01*
X28129540Y30397000D01*
X27461820Y30397000D01*
X27413852Y30401724D01*
X27373639Y30413923D01*
X27336565Y30433739D01*
X27304080Y30460400D01*
X27277419Y30492885D01*
X27257603Y30529959D01*
X27245404Y30570172D01*
X27240680Y30618140D01*
X27240680Y31385860D01*
X27245404Y31433828D01*
X27257603Y31474041D01*
X27277419Y31511115D01*
X27304080Y31543600D01*
X27336565Y31570261D01*
X27373639Y31590077D01*
X27413852Y31602276D01*
X27461820Y31607000D01*
X28129540Y31607000D01*
X28177508Y31602276D01*
X28177508Y31602276D01*
G37*
G36*
X44359828Y31538276D02*
X44400041Y31526077D01*
X44437115Y31506261D01*
X44469600Y31479600D01*
X44496261Y31447115D01*
X44516077Y31410041D01*
X44528276Y31369828D01*
X44533000Y31321860D01*
X44533000Y30654140D01*
X44528276Y30606172D01*
X44516077Y30565959D01*
X44496261Y30528885D01*
X44469600Y30496400D01*
X44437115Y30469739D01*
X44400041Y30449923D01*
X44359828Y30437724D01*
X44311860Y30433000D01*
X43544140Y30433000D01*
X43496172Y30437724D01*
X43455959Y30449923D01*
X43418885Y30469739D01*
X43386400Y30496400D01*
X43359739Y30528885D01*
X43339923Y30565959D01*
X43327724Y30606172D01*
X43323000Y30654140D01*
X43323000Y31321860D01*
X43327724Y31369828D01*
X43339923Y31410041D01*
X43359739Y31447115D01*
X43386400Y31479600D01*
X43418885Y31506261D01*
X43455959Y31526077D01*
X43496172Y31538276D01*
X43544140Y31543000D01*
X44311860Y31543000D01*
X44359828Y31538276D01*
X44359828Y31538276D01*
G37*
G36*
X35370828Y31538276D02*
X35411041Y31526077D01*
X35448115Y31506261D01*
X35480600Y31479600D01*
X35507261Y31447115D01*
X35527077Y31410041D01*
X35539276Y31369828D01*
X35544000Y31321860D01*
X35544000Y30654140D01*
X35539276Y30606172D01*
X35527077Y30565959D01*
X35507261Y30528885D01*
X35480600Y30496400D01*
X35448115Y30469739D01*
X35411041Y30449923D01*
X35370828Y30437724D01*
X35322860Y30433000D01*
X34555140Y30433000D01*
X34507172Y30437724D01*
X34466959Y30449923D01*
X34429885Y30469739D01*
X34397400Y30496400D01*
X34370739Y30528885D01*
X34350923Y30565959D01*
X34338724Y30606172D01*
X34334000Y30654140D01*
X34334000Y31321860D01*
X34338724Y31369828D01*
X34350923Y31410041D01*
X34370739Y31447115D01*
X34397400Y31479600D01*
X34429885Y31506261D01*
X34466959Y31526077D01*
X34507172Y31538276D01*
X34555140Y31543000D01*
X35322860Y31543000D01*
X35370828Y31538276D01*
X35370828Y31538276D01*
G37*
G36*
X42609828Y31538276D02*
X42650041Y31526077D01*
X42687115Y31506261D01*
X42719600Y31479600D01*
X42746261Y31447115D01*
X42766077Y31410041D01*
X42778276Y31369828D01*
X42783000Y31321860D01*
X42783000Y30654140D01*
X42778276Y30606172D01*
X42766077Y30565959D01*
X42746261Y30528885D01*
X42719600Y30496400D01*
X42687115Y30469739D01*
X42650041Y30449923D01*
X42609828Y30437724D01*
X42561860Y30433000D01*
X41794140Y30433000D01*
X41746172Y30437724D01*
X41705959Y30449923D01*
X41668885Y30469739D01*
X41636400Y30496400D01*
X41609739Y30528885D01*
X41589923Y30565959D01*
X41577724Y30606172D01*
X41573000Y30654140D01*
X41573000Y31321860D01*
X41577724Y31369828D01*
X41589923Y31410041D01*
X41609739Y31447115D01*
X41636400Y31479600D01*
X41668885Y31506261D01*
X41705959Y31526077D01*
X41746172Y31538276D01*
X41794140Y31543000D01*
X42561860Y31543000D01*
X42609828Y31538276D01*
X42609828Y31538276D01*
G37*
G36*
X37120828Y31538276D02*
X37161041Y31526077D01*
X37198115Y31506261D01*
X37230600Y31479600D01*
X37257261Y31447115D01*
X37277077Y31410041D01*
X37289276Y31369828D01*
X37294000Y31321860D01*
X37294000Y30654140D01*
X37289276Y30606172D01*
X37277077Y30565959D01*
X37257261Y30528885D01*
X37230600Y30496400D01*
X37198115Y30469739D01*
X37161041Y30449923D01*
X37120828Y30437724D01*
X37072860Y30433000D01*
X36305140Y30433000D01*
X36257172Y30437724D01*
X36216959Y30449923D01*
X36179885Y30469739D01*
X36147400Y30496400D01*
X36120739Y30528885D01*
X36100923Y30565959D01*
X36088724Y30606172D01*
X36084000Y30654140D01*
X36084000Y31321860D01*
X36088724Y31369828D01*
X36100923Y31410041D01*
X36120739Y31447115D01*
X36147400Y31479600D01*
X36179885Y31506261D01*
X36216959Y31526077D01*
X36257172Y31538276D01*
X36305140Y31543000D01*
X37072860Y31543000D01*
X37120828Y31538276D01*
X37120828Y31538276D01*
G37*
G36*
X40803828Y31538276D02*
X40844041Y31526077D01*
X40881115Y31506261D01*
X40913600Y31479600D01*
X40940261Y31447115D01*
X40960077Y31410041D01*
X40972276Y31369828D01*
X40977000Y31321860D01*
X40977000Y30654140D01*
X40972276Y30606172D01*
X40960077Y30565959D01*
X40940261Y30528885D01*
X40913600Y30496400D01*
X40881115Y30469739D01*
X40844041Y30449923D01*
X40803828Y30437724D01*
X40755860Y30433000D01*
X39988140Y30433000D01*
X39940172Y30437724D01*
X39899959Y30449923D01*
X39862885Y30469739D01*
X39830400Y30496400D01*
X39803739Y30528885D01*
X39783923Y30565959D01*
X39771724Y30606172D01*
X39767000Y30654140D01*
X39767000Y31321860D01*
X39771724Y31369828D01*
X39783923Y31410041D01*
X39803739Y31447115D01*
X39830400Y31479600D01*
X39862885Y31506261D01*
X39899959Y31526077D01*
X39940172Y31538276D01*
X39988140Y31543000D01*
X40755860Y31543000D01*
X40803828Y31538276D01*
X40803828Y31538276D01*
G37*
G36*
X39053828Y31538276D02*
X39094041Y31526077D01*
X39131115Y31506261D01*
X39163600Y31479600D01*
X39190261Y31447115D01*
X39210077Y31410041D01*
X39222276Y31369828D01*
X39227000Y31321860D01*
X39227000Y30654140D01*
X39222276Y30606172D01*
X39210077Y30565959D01*
X39190261Y30528885D01*
X39163600Y30496400D01*
X39131115Y30469739D01*
X39094041Y30449923D01*
X39053828Y30437724D01*
X39005860Y30433000D01*
X38238140Y30433000D01*
X38190172Y30437724D01*
X38149959Y30449923D01*
X38112885Y30469739D01*
X38080400Y30496400D01*
X38053739Y30528885D01*
X38033923Y30565959D01*
X38021724Y30606172D01*
X38017000Y30654140D01*
X38017000Y31321860D01*
X38021724Y31369828D01*
X38033923Y31410041D01*
X38053739Y31447115D01*
X38080400Y31479600D01*
X38112885Y31506261D01*
X38149959Y31526077D01*
X38190172Y31538276D01*
X38238140Y31543000D01*
X39005860Y31543000D01*
X39053828Y31538276D01*
X39053828Y31538276D01*
G37*
G36*
X30375680Y31627760D02*
X28815680Y31627760D01*
X28815680Y32937760D01*
X30375680Y32937760D01*
X30375680Y31627760D01*
X30375680Y31627760D01*
G37*
G36*
X32575680Y31627760D02*
X31015680Y31627760D01*
X31015680Y32937760D01*
X32575680Y32937760D01*
X32575680Y31627760D01*
X32575680Y31627760D01*
G37*
G36*
X9406927Y33465093D02*
X9446982Y33452942D01*
X9483897Y33433210D01*
X9516255Y33406655D01*
X9542810Y33374297D01*
X9562542Y33337382D01*
X9574693Y33297327D01*
X9579400Y33249531D01*
X9579400Y32130069D01*
X9574693Y32082273D01*
X9562542Y32042218D01*
X9542810Y32005303D01*
X9516255Y31972945D01*
X9483897Y31946390D01*
X9446982Y31926658D01*
X9406927Y31914507D01*
X9359131Y31909800D01*
X8489669Y31909800D01*
X8441873Y31914507D01*
X8401818Y31926658D01*
X8364903Y31946390D01*
X8332545Y31972945D01*
X8305990Y32005303D01*
X8286258Y32042218D01*
X8274107Y32082273D01*
X8269400Y32130069D01*
X8269400Y33249531D01*
X8274107Y33297327D01*
X8286258Y33337382D01*
X8305990Y33374297D01*
X8332545Y33406655D01*
X8364903Y33433210D01*
X8401818Y33452942D01*
X8441873Y33465093D01*
X8489669Y33469800D01*
X9359131Y33469800D01*
X9406927Y33465093D01*
X9406927Y33465093D01*
G37*
G36*
X7356927Y33465093D02*
X7396982Y33452942D01*
X7433897Y33433210D01*
X7466255Y33406655D01*
X7492810Y33374297D01*
X7512542Y33337382D01*
X7524693Y33297327D01*
X7529400Y33249531D01*
X7529400Y32130069D01*
X7524693Y32082273D01*
X7512542Y32042218D01*
X7492810Y32005303D01*
X7466255Y31972945D01*
X7433897Y31946390D01*
X7396982Y31926658D01*
X7356927Y31914507D01*
X7309131Y31909800D01*
X6439669Y31909800D01*
X6391873Y31914507D01*
X6351818Y31926658D01*
X6314903Y31946390D01*
X6282545Y31972945D01*
X6255990Y32005303D01*
X6236258Y32042218D01*
X6224107Y32082273D01*
X6219400Y32130069D01*
X6219400Y33249531D01*
X6224107Y33297327D01*
X6236258Y33337382D01*
X6255990Y33374297D01*
X6282545Y33406655D01*
X6314903Y33433210D01*
X6351818Y33452942D01*
X6391873Y33465093D01*
X6439669Y33469800D01*
X7309131Y33469800D01*
X7356927Y33465093D01*
X7356927Y33465093D01*
G37*
G36*
X28177508Y33352276D02*
X28217721Y33340077D01*
X28254795Y33320261D01*
X28287280Y33293600D01*
X28313941Y33261115D01*
X28333757Y33224041D01*
X28345956Y33183828D01*
X28350680Y33135860D01*
X28350680Y32368140D01*
X28345956Y32320172D01*
X28333757Y32279959D01*
X28313941Y32242885D01*
X28287280Y32210400D01*
X28254795Y32183739D01*
X28217721Y32163923D01*
X28177508Y32151724D01*
X28129540Y32147000D01*
X27461820Y32147000D01*
X27413852Y32151724D01*
X27373639Y32163923D01*
X27336565Y32183739D01*
X27304080Y32210400D01*
X27277419Y32242885D01*
X27257603Y32279959D01*
X27245404Y32320172D01*
X27240680Y32368140D01*
X27240680Y33135860D01*
X27245404Y33183828D01*
X27257603Y33224041D01*
X27277419Y33261115D01*
X27304080Y33293600D01*
X27336565Y33320261D01*
X27373639Y33340077D01*
X27413852Y33352276D01*
X27461820Y33357000D01*
X28129540Y33357000D01*
X28177508Y33352276D01*
X28177508Y33352276D01*
G37*
G36*
X30252508Y34503036D02*
X30292721Y34490837D01*
X30329795Y34471021D01*
X30362280Y34444360D01*
X30388941Y34411875D01*
X30408757Y34374801D01*
X30420956Y34334588D01*
X30425680Y34286620D01*
X30425680Y33618900D01*
X30420956Y33570932D01*
X30408757Y33530719D01*
X30388941Y33493645D01*
X30362280Y33461160D01*
X30329795Y33434499D01*
X30292721Y33414683D01*
X30252508Y33402484D01*
X30204540Y33397760D01*
X29436820Y33397760D01*
X29388852Y33402484D01*
X29348639Y33414683D01*
X29311565Y33434499D01*
X29279080Y33461160D01*
X29252419Y33493645D01*
X29232603Y33530719D01*
X29220404Y33570932D01*
X29215680Y33618900D01*
X29215680Y34286620D01*
X29220404Y34334588D01*
X29232603Y34374801D01*
X29252419Y34411875D01*
X29279080Y34444360D01*
X29311565Y34471021D01*
X29348639Y34490837D01*
X29388852Y34503036D01*
X29436820Y34507760D01*
X30204540Y34507760D01*
X30252508Y34503036D01*
X30252508Y34503036D01*
G37*
G36*
X32002508Y34503036D02*
X32042721Y34490837D01*
X32079795Y34471021D01*
X32112280Y34444360D01*
X32138941Y34411875D01*
X32158757Y34374801D01*
X32170956Y34334588D01*
X32175680Y34286620D01*
X32175680Y33618900D01*
X32170956Y33570932D01*
X32158757Y33530719D01*
X32138941Y33493645D01*
X32112280Y33461160D01*
X32079795Y33434499D01*
X32042721Y33414683D01*
X32002508Y33402484D01*
X31954540Y33397760D01*
X31186820Y33397760D01*
X31138852Y33402484D01*
X31098639Y33414683D01*
X31061565Y33434499D01*
X31029080Y33461160D01*
X31002419Y33493645D01*
X30982603Y33530719D01*
X30970404Y33570932D01*
X30965680Y33618900D01*
X30965680Y34286620D01*
X30970404Y34334588D01*
X30982603Y34374801D01*
X31002419Y34411875D01*
X31029080Y34444360D01*
X31061565Y34471021D01*
X31098639Y34490837D01*
X31138852Y34503036D01*
X31186820Y34507760D01*
X31954540Y34507760D01*
X32002508Y34503036D01*
X32002508Y34503036D01*
G37*
G36*
X13140600Y33926200D02*
X10430600Y33926200D01*
X10430600Y35146200D01*
X13140600Y35146200D01*
X13140600Y33926200D01*
X13140600Y33926200D01*
G37*
G36*
X7597228Y35068876D02*
X7637441Y35056677D01*
X7674515Y35036861D01*
X7707000Y35010200D01*
X7733661Y34977715D01*
X7753477Y34940641D01*
X7765676Y34900428D01*
X7770400Y34852460D01*
X7770400Y34184740D01*
X7765676Y34136772D01*
X7753477Y34096559D01*
X7733661Y34059485D01*
X7707000Y34027000D01*
X7674515Y34000339D01*
X7637441Y33980523D01*
X7597228Y33968324D01*
X7549260Y33963600D01*
X6781540Y33963600D01*
X6733572Y33968324D01*
X6693359Y33980523D01*
X6656285Y34000339D01*
X6623800Y34027000D01*
X6597139Y34059485D01*
X6577323Y34096559D01*
X6565124Y34136772D01*
X6560400Y34184740D01*
X6560400Y34852460D01*
X6565124Y34900428D01*
X6577323Y34940641D01*
X6597139Y34977715D01*
X6623800Y35010200D01*
X6656285Y35036861D01*
X6693359Y35056677D01*
X6733572Y35068876D01*
X6781540Y35073600D01*
X7549260Y35073600D01*
X7597228Y35068876D01*
X7597228Y35068876D01*
G37*
G36*
X9347228Y35068876D02*
X9387441Y35056677D01*
X9424515Y35036861D01*
X9457000Y35010200D01*
X9483661Y34977715D01*
X9503477Y34940641D01*
X9515676Y34900428D01*
X9520400Y34852460D01*
X9520400Y34184740D01*
X9515676Y34136772D01*
X9503477Y34096559D01*
X9483661Y34059485D01*
X9457000Y34027000D01*
X9424515Y34000339D01*
X9387441Y33980523D01*
X9347228Y33968324D01*
X9299260Y33963600D01*
X8531540Y33963600D01*
X8483572Y33968324D01*
X8443359Y33980523D01*
X8406285Y34000339D01*
X8373800Y34027000D01*
X8347139Y34059485D01*
X8327323Y34096559D01*
X8315124Y34136772D01*
X8310400Y34184740D01*
X8310400Y34852460D01*
X8315124Y34900428D01*
X8327323Y34940641D01*
X8347139Y34977715D01*
X8373800Y35010200D01*
X8406285Y35036861D01*
X8443359Y35056677D01*
X8483572Y35068876D01*
X8531540Y35073600D01*
X9299260Y35073600D01*
X9347228Y35068876D01*
X9347228Y35068876D01*
G37*
G36*
X7398727Y37503693D02*
X7438782Y37491542D01*
X7475697Y37471810D01*
X7508055Y37445255D01*
X7534610Y37412897D01*
X7554342Y37375982D01*
X7566493Y37335927D01*
X7571200Y37288131D01*
X7571200Y36168669D01*
X7566493Y36120873D01*
X7554342Y36080818D01*
X7534610Y36043903D01*
X7508055Y36011545D01*
X7475697Y35984990D01*
X7438782Y35965258D01*
X7398727Y35953107D01*
X7350931Y35948400D01*
X6481469Y35948400D01*
X6433673Y35953107D01*
X6393618Y35965258D01*
X6356703Y35984990D01*
X6324345Y36011545D01*
X6297790Y36043903D01*
X6278058Y36080818D01*
X6265907Y36120873D01*
X6261200Y36168669D01*
X6261200Y37288131D01*
X6265907Y37335927D01*
X6278058Y37375982D01*
X6297790Y37412897D01*
X6324345Y37445255D01*
X6356703Y37471810D01*
X6393618Y37491542D01*
X6433673Y37503693D01*
X6481469Y37508400D01*
X7350931Y37508400D01*
X7398727Y37503693D01*
X7398727Y37503693D01*
G37*
G36*
X9448727Y37503693D02*
X9488782Y37491542D01*
X9525697Y37471810D01*
X9558055Y37445255D01*
X9584610Y37412897D01*
X9604342Y37375982D01*
X9616493Y37335927D01*
X9621200Y37288131D01*
X9621200Y36168669D01*
X9616493Y36120873D01*
X9604342Y36080818D01*
X9584610Y36043903D01*
X9558055Y36011545D01*
X9525697Y35984990D01*
X9488782Y35965258D01*
X9448727Y35953107D01*
X9400931Y35948400D01*
X8531469Y35948400D01*
X8483673Y35953107D01*
X8443618Y35965258D01*
X8406703Y35984990D01*
X8374345Y36011545D01*
X8347790Y36043903D01*
X8328058Y36080818D01*
X8315907Y36120873D01*
X8311200Y36168669D01*
X8311200Y37288131D01*
X8315907Y37335927D01*
X8328058Y37375982D01*
X8347790Y37412897D01*
X8374345Y37445255D01*
X8406703Y37471810D01*
X8443618Y37491542D01*
X8483673Y37503693D01*
X8531469Y37508400D01*
X9400931Y37508400D01*
X9448727Y37503693D01*
X9448727Y37503693D01*
G37*
G36*
X11240600Y36126200D02*
X10430600Y36126200D01*
X10430600Y37346200D01*
X11240600Y37346200D01*
X11240600Y36126200D01*
X11240600Y36126200D01*
G37*
G36*
X13140600Y36126200D02*
X12330600Y36126200D01*
X12330600Y37346200D01*
X13140600Y37346200D01*
X13140600Y36126200D01*
X13140600Y36126200D01*
G37*
G36*
X9409428Y39082076D02*
X9449641Y39069877D01*
X9486715Y39050061D01*
X9519200Y39023400D01*
X9545861Y38990915D01*
X9565677Y38953841D01*
X9577876Y38913628D01*
X9582600Y38865660D01*
X9582600Y38197940D01*
X9577876Y38149972D01*
X9565677Y38109759D01*
X9545861Y38072685D01*
X9519200Y38040200D01*
X9486715Y38013539D01*
X9449641Y37993723D01*
X9409428Y37981524D01*
X9361460Y37976800D01*
X8593740Y37976800D01*
X8545772Y37981524D01*
X8505559Y37993723D01*
X8468485Y38013539D01*
X8436000Y38040200D01*
X8409339Y38072685D01*
X8389523Y38109759D01*
X8377324Y38149972D01*
X8372600Y38197940D01*
X8372600Y38865660D01*
X8377324Y38913628D01*
X8389523Y38953841D01*
X8409339Y38990915D01*
X8436000Y39023400D01*
X8468485Y39050061D01*
X8505559Y39069877D01*
X8545772Y39082076D01*
X8593740Y39086800D01*
X9361460Y39086800D01*
X9409428Y39082076D01*
X9409428Y39082076D01*
G37*
G36*
X7659428Y39082076D02*
X7699641Y39069877D01*
X7736715Y39050061D01*
X7769200Y39023400D01*
X7795861Y38990915D01*
X7815677Y38953841D01*
X7827876Y38913628D01*
X7832600Y38865660D01*
X7832600Y38197940D01*
X7827876Y38149972D01*
X7815677Y38109759D01*
X7795861Y38072685D01*
X7769200Y38040200D01*
X7736715Y38013539D01*
X7699641Y37993723D01*
X7659428Y37981524D01*
X7611460Y37976800D01*
X6843740Y37976800D01*
X6795772Y37981524D01*
X6755559Y37993723D01*
X6718485Y38013539D01*
X6686000Y38040200D01*
X6659339Y38072685D01*
X6639523Y38109759D01*
X6627324Y38149972D01*
X6622600Y38197940D01*
X6622600Y38865660D01*
X6627324Y38913628D01*
X6639523Y38953841D01*
X6659339Y38990915D01*
X6686000Y39023400D01*
X6718485Y39050061D01*
X6755559Y39069877D01*
X6795772Y39082076D01*
X6843740Y39086800D01*
X7611460Y39086800D01*
X7659428Y39082076D01*
X7659428Y39082076D01*
G37*
G36*
X39690857Y40173728D02*
X39891042Y40090809D01*
X40071213Y39970422D01*
X40224422Y39817213D01*
X40344809Y39637042D01*
X40427728Y39436857D01*
X40470000Y39224342D01*
X40470000Y39007658D01*
X40427728Y38795143D01*
X40344809Y38594958D01*
X40224422Y38414787D01*
X40071213Y38261578D01*
X40071210Y38261576D01*
X40071209Y38261575D01*
X39891045Y38141193D01*
X39891042Y38141191D01*
X39690857Y38058272D01*
X39478342Y38016000D01*
X39261658Y38016000D01*
X39049143Y38058272D01*
X38848958Y38141191D01*
X38848955Y38141193D01*
X38668791Y38261575D01*
X38668790Y38261576D01*
X38668787Y38261578D01*
X38515578Y38414787D01*
X38395191Y38594958D01*
X38312272Y38795143D01*
X38270000Y39007658D01*
X38270000Y39224342D01*
X38312272Y39436857D01*
X38395191Y39637042D01*
X38515578Y39817213D01*
X38668787Y39970422D01*
X38848958Y40090809D01*
X39049143Y40173728D01*
X39261658Y40216000D01*
X39478342Y40216000D01*
X39690857Y40173728D01*
X39690857Y40173728D01*
G37*
G36*
X27338846Y43503869D02*
X27448152Y43493103D01*
X27623457Y43439924D01*
X27785020Y43353568D01*
X27926631Y43237351D01*
X28042848Y43095740D01*
X28129204Y42934177D01*
X28182383Y42758872D01*
X28200339Y42576560D01*
X28182383Y42394248D01*
X28129204Y42218943D01*
X28042848Y42057380D01*
X27926631Y41915769D01*
X27785020Y41799552D01*
X27623457Y41713196D01*
X27448152Y41660017D01*
X27338846Y41649251D01*
X27311521Y41646560D01*
X27220159Y41646560D01*
X27192834Y41649251D01*
X27083528Y41660017D01*
X26908223Y41713196D01*
X26746660Y41799552D01*
X26605049Y41915769D01*
X26488832Y42057380D01*
X26402476Y42218943D01*
X26349297Y42394248D01*
X26331341Y42576560D01*
X26349297Y42758872D01*
X26402476Y42934177D01*
X26488832Y43095740D01*
X26605049Y43237351D01*
X26746660Y43353568D01*
X26908223Y43439924D01*
X27083528Y43493103D01*
X27192834Y43503869D01*
X27220159Y43506560D01*
X27311521Y43506560D01*
X27338846Y43503869D01*
X27338846Y43503869D01*
G37*
G36*
X25655840Y41646560D02*
X23795840Y41646560D01*
X23795840Y43506560D01*
X25655840Y43506560D01*
X25655840Y41646560D01*
X25655840Y41646560D01*
G37*
G36*
X29878846Y43503869D02*
X29988152Y43493103D01*
X30163457Y43439924D01*
X30325020Y43353568D01*
X30466631Y43237351D01*
X30582848Y43095740D01*
X30669204Y42934177D01*
X30722383Y42758872D01*
X30740339Y42576560D01*
X30722383Y42394248D01*
X30669204Y42218943D01*
X30582848Y42057380D01*
X30466631Y41915769D01*
X30325020Y41799552D01*
X30163457Y41713196D01*
X29988152Y41660017D01*
X29878846Y41649251D01*
X29851521Y41646560D01*
X29760159Y41646560D01*
X29732834Y41649251D01*
X29623528Y41660017D01*
X29448223Y41713196D01*
X29286660Y41799552D01*
X29145049Y41915769D01*
X29028832Y42057380D01*
X28942476Y42218943D01*
X28889297Y42394248D01*
X28871341Y42576560D01*
X28889297Y42758872D01*
X28942476Y42934177D01*
X29028832Y43095740D01*
X29145049Y43237351D01*
X29286660Y43353568D01*
X29448223Y43439924D01*
X29623528Y43493103D01*
X29732834Y43503869D01*
X29760159Y43506560D01*
X29851521Y43506560D01*
X29878846Y43503869D01*
X29878846Y43503869D01*
G37*
G36*
X14275327Y46262479D02*
X14540791Y46209675D01*
X14873830Y46071725D01*
X15173557Y45871454D01*
X15428454Y45616557D01*
X15628725Y45316830D01*
X15766675Y44983791D01*
X15811399Y44758943D01*
X15837000Y44630241D01*
X15837000Y44269759D01*
X15819479Y44181673D01*
X15766675Y43916209D01*
X15628725Y43583170D01*
X15428454Y43283443D01*
X15173557Y43028546D01*
X14873830Y42828275D01*
X14540791Y42690325D01*
X14275327Y42637521D01*
X14187241Y42620000D01*
X13826759Y42620000D01*
X13738673Y42637521D01*
X13473209Y42690325D01*
X13140170Y42828275D01*
X12840443Y43028546D01*
X12585546Y43283443D01*
X12385275Y43583170D01*
X12247325Y43916209D01*
X12194521Y44181673D01*
X12177000Y44269759D01*
X12177000Y44630241D01*
X12202601Y44758943D01*
X12247325Y44983791D01*
X12385275Y45316830D01*
X12585546Y45616557D01*
X12840443Y45871454D01*
X13140170Y46071725D01*
X13473209Y46209675D01*
X13738673Y46262479D01*
X13826759Y46280000D01*
X14187241Y46280000D01*
X14275327Y46262479D01*
X14275327Y46262479D01*
G37*
G36*
X35222668Y44716836D02*
X35262881Y44704637D01*
X35299955Y44684821D01*
X35332440Y44658160D01*
X35359101Y44625675D01*
X35378917Y44588601D01*
X35391116Y44548388D01*
X35395840Y44500420D01*
X35395840Y43832700D01*
X35391116Y43784732D01*
X35378917Y43744519D01*
X35359101Y43707445D01*
X35332440Y43674960D01*
X35299955Y43648299D01*
X35262881Y43628483D01*
X35222668Y43616284D01*
X35174700Y43611560D01*
X34406980Y43611560D01*
X34359012Y43616284D01*
X34318799Y43628483D01*
X34281725Y43648299D01*
X34249240Y43674960D01*
X34222579Y43707445D01*
X34202763Y43744519D01*
X34190564Y43784732D01*
X34185840Y43832700D01*
X34185840Y44500420D01*
X34190564Y44548388D01*
X34202763Y44588601D01*
X34222579Y44625675D01*
X34249240Y44658160D01*
X34281725Y44684821D01*
X34318799Y44704637D01*
X34359012Y44716836D01*
X34406980Y44721560D01*
X35174700Y44721560D01*
X35222668Y44716836D01*
X35222668Y44716836D01*
G37*
G36*
X33472668Y44716836D02*
X33512881Y44704637D01*
X33549955Y44684821D01*
X33582440Y44658160D01*
X33609101Y44625675D01*
X33628917Y44588601D01*
X33641116Y44548388D01*
X33645840Y44500420D01*
X33645840Y43832700D01*
X33641116Y43784732D01*
X33628917Y43744519D01*
X33609101Y43707445D01*
X33582440Y43674960D01*
X33549955Y43648299D01*
X33512881Y43628483D01*
X33472668Y43616284D01*
X33424700Y43611560D01*
X32656980Y43611560D01*
X32609012Y43616284D01*
X32568799Y43628483D01*
X32531725Y43648299D01*
X32499240Y43674960D01*
X32472579Y43707445D01*
X32452763Y43744519D01*
X32440564Y43784732D01*
X32435840Y43832700D01*
X32435840Y44500420D01*
X32440564Y44548388D01*
X32452763Y44588601D01*
X32472579Y44625675D01*
X32499240Y44658160D01*
X32531725Y44684821D01*
X32568799Y44704637D01*
X32609012Y44716836D01*
X32656980Y44721560D01*
X33424700Y44721560D01*
X33472668Y44716836D01*
X33472668Y44716836D01*
G37*
G36*
X25655840Y44186560D02*
X23795840Y44186560D01*
X23795840Y46046560D01*
X25655840Y46046560D01*
X25655840Y44186560D01*
X25655840Y44186560D01*
G37*
G36*
X27336903Y46044060D02*
X27448152Y46033103D01*
X27623457Y45979924D01*
X27785020Y45893568D01*
X27926631Y45777351D01*
X28042848Y45635740D01*
X28129204Y45474177D01*
X28182383Y45298872D01*
X28200339Y45116560D01*
X28182383Y44934248D01*
X28129204Y44758943D01*
X28042848Y44597380D01*
X27926631Y44455769D01*
X27785020Y44339552D01*
X27623457Y44253196D01*
X27448152Y44200017D01*
X27338846Y44189251D01*
X27311521Y44186560D01*
X27220159Y44186560D01*
X27192834Y44189251D01*
X27083528Y44200017D01*
X26908223Y44253196D01*
X26746660Y44339552D01*
X26605049Y44455769D01*
X26488832Y44597380D01*
X26402476Y44758943D01*
X26349297Y44934248D01*
X26331341Y45116560D01*
X26349297Y45298872D01*
X26402476Y45474177D01*
X26488832Y45635740D01*
X26605049Y45777351D01*
X26746660Y45893568D01*
X26908223Y45979924D01*
X27083528Y46033103D01*
X27194777Y46044060D01*
X27220159Y46046560D01*
X27311521Y46046560D01*
X27336903Y46044060D01*
X27336903Y46044060D01*
G37*
G36*
X29876903Y46044060D02*
X29988152Y46033103D01*
X30163457Y45979924D01*
X30325020Y45893568D01*
X30466631Y45777351D01*
X30582848Y45635740D01*
X30669204Y45474177D01*
X30722383Y45298872D01*
X30740339Y45116560D01*
X30722383Y44934248D01*
X30669204Y44758943D01*
X30582848Y44597380D01*
X30466631Y44455769D01*
X30325020Y44339552D01*
X30163457Y44253196D01*
X29988152Y44200017D01*
X29878846Y44189251D01*
X29851521Y44186560D01*
X29760159Y44186560D01*
X29732834Y44189251D01*
X29623528Y44200017D01*
X29448223Y44253196D01*
X29286660Y44339552D01*
X29145049Y44455769D01*
X29028832Y44597380D01*
X28942476Y44758943D01*
X28889297Y44934248D01*
X28871341Y45116560D01*
X28889297Y45298872D01*
X28942476Y45474177D01*
X29028832Y45635740D01*
X29145049Y45777351D01*
X29286660Y45893568D01*
X29448223Y45979924D01*
X29623528Y46033103D01*
X29734777Y46044060D01*
X29760159Y46046560D01*
X29851521Y46046560D01*
X29876903Y46044060D01*
X29876903Y46044060D01*
G37*
G36*
X9547828Y46270276D02*
X9588041Y46258077D01*
X9625115Y46238261D01*
X9657600Y46211600D01*
X9684261Y46179115D01*
X9704077Y46142041D01*
X9716276Y46101828D01*
X9721000Y46053860D01*
X9721000Y45386140D01*
X9716276Y45338172D01*
X9704077Y45297959D01*
X9684261Y45260885D01*
X9657600Y45228400D01*
X9625115Y45201739D01*
X9588041Y45181923D01*
X9547828Y45169724D01*
X9499860Y45165000D01*
X8732140Y45165000D01*
X8684172Y45169724D01*
X8643959Y45181923D01*
X8606885Y45201739D01*
X8574400Y45228400D01*
X8547739Y45260885D01*
X8527923Y45297959D01*
X8515724Y45338172D01*
X8511000Y45386140D01*
X8511000Y46053860D01*
X8515724Y46101828D01*
X8527923Y46142041D01*
X8547739Y46179115D01*
X8574400Y46211600D01*
X8606885Y46238261D01*
X8643959Y46258077D01*
X8684172Y46270276D01*
X8732140Y46275000D01*
X9499860Y46275000D01*
X9547828Y46270276D01*
X9547828Y46270276D01*
G37*
G36*
X7797828Y46270276D02*
X7838041Y46258077D01*
X7875115Y46238261D01*
X7907600Y46211600D01*
X7934261Y46179115D01*
X7954077Y46142041D01*
X7966276Y46101828D01*
X7971000Y46053860D01*
X7971000Y45386140D01*
X7966276Y45338172D01*
X7954077Y45297959D01*
X7934261Y45260885D01*
X7907600Y45228400D01*
X7875115Y45201739D01*
X7838041Y45181923D01*
X7797828Y45169724D01*
X7749860Y45165000D01*
X6982140Y45165000D01*
X6934172Y45169724D01*
X6893959Y45181923D01*
X6856885Y45201739D01*
X6824400Y45228400D01*
X6797739Y45260885D01*
X6777923Y45297959D01*
X6765724Y45338172D01*
X6761000Y45386140D01*
X6761000Y46053860D01*
X6765724Y46101828D01*
X6777923Y46142041D01*
X6797739Y46179115D01*
X6824400Y46211600D01*
X6856885Y46238261D01*
X6893959Y46258077D01*
X6934172Y46270276D01*
X6982140Y46275000D01*
X7749860Y46275000D01*
X7797828Y46270276D01*
X7797828Y46270276D01*
G37*
G36*
X4241828Y46270276D02*
X4282041Y46258077D01*
X4319115Y46238261D01*
X4351600Y46211600D01*
X4378261Y46179115D01*
X4398077Y46142041D01*
X4410276Y46101828D01*
X4415000Y46053860D01*
X4415000Y45386140D01*
X4410276Y45338172D01*
X4398077Y45297959D01*
X4378261Y45260885D01*
X4351600Y45228400D01*
X4319115Y45201739D01*
X4282041Y45181923D01*
X4241828Y45169724D01*
X4193860Y45165000D01*
X3426140Y45165000D01*
X3378172Y45169724D01*
X3337959Y45181923D01*
X3300885Y45201739D01*
X3268400Y45228400D01*
X3241739Y45260885D01*
X3221923Y45297959D01*
X3209724Y45338172D01*
X3205000Y45386140D01*
X3205000Y46053860D01*
X3209724Y46101828D01*
X3221923Y46142041D01*
X3241739Y46179115D01*
X3268400Y46211600D01*
X3300885Y46238261D01*
X3337959Y46258077D01*
X3378172Y46270276D01*
X3426140Y46275000D01*
X4193860Y46275000D01*
X4241828Y46270276D01*
X4241828Y46270276D01*
G37*
G36*
X5991828Y46270276D02*
X6032041Y46258077D01*
X6069115Y46238261D01*
X6101600Y46211600D01*
X6128261Y46179115D01*
X6148077Y46142041D01*
X6160276Y46101828D01*
X6165000Y46053860D01*
X6165000Y45386140D01*
X6160276Y45338172D01*
X6148077Y45297959D01*
X6128261Y45260885D01*
X6101600Y45228400D01*
X6069115Y45201739D01*
X6032041Y45181923D01*
X5991828Y45169724D01*
X5943860Y45165000D01*
X5176140Y45165000D01*
X5128172Y45169724D01*
X5087959Y45181923D01*
X5050885Y45201739D01*
X5018400Y45228400D01*
X4991739Y45260885D01*
X4971923Y45297959D01*
X4959724Y45338172D01*
X4955000Y45386140D01*
X4955000Y46053860D01*
X4959724Y46101828D01*
X4971923Y46142041D01*
X4991739Y46179115D01*
X5018400Y46211600D01*
X5050885Y46238261D01*
X5087959Y46258077D01*
X5128172Y46270276D01*
X5176140Y46275000D01*
X5943860Y46275000D01*
X5991828Y46270276D01*
X5991828Y46270276D01*
G37*
G36*
X35222668Y46316836D02*
X35262881Y46304637D01*
X35299955Y46284821D01*
X35332440Y46258160D01*
X35359101Y46225675D01*
X35378917Y46188601D01*
X35391116Y46148388D01*
X35395840Y46100420D01*
X35395840Y45432700D01*
X35391116Y45384732D01*
X35378917Y45344519D01*
X35359101Y45307445D01*
X35332440Y45274960D01*
X35299955Y45248299D01*
X35262881Y45228483D01*
X35222668Y45216284D01*
X35174700Y45211560D01*
X34406980Y45211560D01*
X34359012Y45216284D01*
X34318799Y45228483D01*
X34281725Y45248299D01*
X34249240Y45274960D01*
X34222579Y45307445D01*
X34202763Y45344519D01*
X34190564Y45384732D01*
X34185840Y45432700D01*
X34185840Y46100420D01*
X34190564Y46148388D01*
X34202763Y46188601D01*
X34222579Y46225675D01*
X34249240Y46258160D01*
X34281725Y46284821D01*
X34318799Y46304637D01*
X34359012Y46316836D01*
X34406980Y46321560D01*
X35174700Y46321560D01*
X35222668Y46316836D01*
X35222668Y46316836D01*
G37*
G36*
X33472668Y46316836D02*
X33512881Y46304637D01*
X33549955Y46284821D01*
X33582440Y46258160D01*
X33609101Y46225675D01*
X33628917Y46188601D01*
X33641116Y46148388D01*
X33645840Y46100420D01*
X33645840Y45432700D01*
X33641116Y45384732D01*
X33628917Y45344519D01*
X33609101Y45307445D01*
X33582440Y45274960D01*
X33549955Y45248299D01*
X33512881Y45228483D01*
X33472668Y45216284D01*
X33424700Y45211560D01*
X32656980Y45211560D01*
X32609012Y45216284D01*
X32568799Y45228483D01*
X32531725Y45248299D01*
X32499240Y45274960D01*
X32472579Y45307445D01*
X32452763Y45344519D01*
X32440564Y45384732D01*
X32435840Y45432700D01*
X32435840Y46100420D01*
X32440564Y46148388D01*
X32452763Y46188601D01*
X32472579Y46225675D01*
X32499240Y46258160D01*
X32531725Y46284821D01*
X32568799Y46304637D01*
X32609012Y46316836D01*
X32656980Y46321560D01*
X33424700Y46321560D01*
X33472668Y46316836D01*
X33472668Y46316836D01*
G37*
M02*
