G04 #@! TF.GenerationSoftware,KiCad,Pcbnew,5.0.1-33cea8e~68~ubuntu18.04.1*
G04 #@! TF.CreationDate,2018-12-09T10:12:36+01:00*
G04 #@! TF.ProjectId,NFC_adapter,4E46435F616461707465722E6B696361,rev?*
G04 #@! TF.SameCoordinates,PX6239c08PY7b26c20*
G04 #@! TF.FileFunction,Legend,Top*
G04 #@! TF.FilePolarity,Positive*
%FSLAX46Y46*%
G04 Gerber Fmt 4.6, Leading zero omitted, Abs format (unit mm)*
G04 Created by KiCad (PCBNEW 5.0.1-33cea8e~68~ubuntu18.04.1) date ned 09 dec 2018 10:12:36 CET*
%MOMM*%
%LPD*%
G01*
G04 APERTURE LIST*
%ADD10C,0.250000*%
%ADD11C,0.300000*%
%ADD12C,0.200000*%
%ADD13C,0.120000*%
%ADD14C,0.150000*%
G04 APERTURE END LIST*
D10*
X41448099Y6341207D02*
X41347084Y6307535D01*
X41246068Y6206520D01*
X41178725Y6071833D01*
X41178725Y5937146D01*
X41212397Y5836130D01*
X41313412Y5667772D01*
X41414427Y5566756D01*
X41582786Y5465741D01*
X41683801Y5432069D01*
X41818488Y5432069D01*
X41953175Y5499413D01*
X42020519Y5566756D01*
X42087862Y5701443D01*
X42087862Y5768787D01*
X41852160Y6004489D01*
X41717473Y5869802D01*
X42458252Y6004489D02*
X41751145Y6711596D01*
X42862313Y6408550D01*
X42155206Y7115657D01*
X43199030Y6745268D02*
X42491923Y7452375D01*
X42660282Y7620733D01*
X42794969Y7688077D01*
X42929656Y7688077D01*
X43030671Y7654405D01*
X43199030Y7553390D01*
X43300045Y7452375D01*
X43401061Y7284016D01*
X43434732Y7183001D01*
X43434732Y7048314D01*
X43367389Y6913627D01*
X43199030Y6745268D01*
D11*
X69949428Y32992286D02*
X69878000Y32920858D01*
X69663714Y32849429D01*
X69520857Y32849429D01*
X69306571Y32920858D01*
X69163714Y33063715D01*
X69092285Y33206572D01*
X69020857Y33492286D01*
X69020857Y33706572D01*
X69092285Y33992286D01*
X69163714Y34135143D01*
X69306571Y34278000D01*
X69520857Y34349429D01*
X69663714Y34349429D01*
X69878000Y34278000D01*
X69949428Y34206572D01*
X70520857Y33278000D02*
X71235142Y33278000D01*
X70378000Y32849429D02*
X70878000Y34349429D01*
X71378000Y32849429D01*
X72735142Y32849429D02*
X72235142Y33563715D01*
X71878000Y32849429D02*
X71878000Y34349429D01*
X72449428Y34349429D01*
X72592285Y34278000D01*
X72663714Y34206572D01*
X72735142Y34063715D01*
X72735142Y33849429D01*
X72663714Y33706572D01*
X72592285Y33635143D01*
X72449428Y33563715D01*
X71878000Y33563715D01*
X73378000Y32849429D02*
X73378000Y34349429D01*
X73735142Y34349429D01*
X73949428Y34278000D01*
X74092285Y34135143D01*
X74163714Y33992286D01*
X74235142Y33706572D01*
X74235142Y33492286D01*
X74163714Y33206572D01*
X74092285Y33063715D01*
X73949428Y32920858D01*
X73735142Y32849429D01*
X73378000Y32849429D01*
D12*
X80010000Y37592000D02*
G75*
G03X78994000Y38608000I-1016000J0D01*
G01*
X78994000Y28448000D02*
G75*
G03X80010000Y29464000I0J1016000D01*
G01*
X63500000Y29464000D02*
G75*
G03X64516000Y28448000I1016000J0D01*
G01*
X64516000Y38608000D02*
X78994000Y38608000D01*
X64516000Y38608000D02*
G75*
G03X63500000Y37592000I0J-1016000D01*
G01*
X63500000Y29464000D02*
X63500000Y37592000D01*
X78994000Y28448000D02*
X64516000Y28448000D01*
X80010000Y37592000D02*
X80010000Y29464000D01*
X78937121Y20393733D02*
G75*
G03X65532001Y19811999I-6293121J-9725733D01*
G01*
X77901114Y18027960D02*
G75*
G03X67056001Y17779999I-5257114J-7359960D01*
G01*
X76374701Y15997573D02*
G75*
G03X68580001Y15747999I-3730701J-5329573D01*
G01*
D11*
X68747142Y9310858D02*
X68747142Y12310858D01*
X70461428Y9310858D01*
X70461428Y12310858D01*
X72890000Y10882286D02*
X71890000Y10882286D01*
X71890000Y9310858D02*
X71890000Y12310858D01*
X73318571Y12310858D01*
X76175714Y9596572D02*
X76032857Y9453715D01*
X75604285Y9310858D01*
X75318571Y9310858D01*
X74890000Y9453715D01*
X74604285Y9739429D01*
X74461428Y10025143D01*
X74318571Y10596572D01*
X74318571Y11025143D01*
X74461428Y11596572D01*
X74604285Y11882286D01*
X74890000Y12168000D01*
X75318571Y12310858D01*
X75604285Y12310858D01*
X76032857Y12168000D01*
X76175714Y12025143D01*
D10*
X27884380Y36976596D02*
X26884380Y36976596D01*
X27884380Y37976596D02*
X27884380Y37405167D01*
X27884380Y37690881D02*
X26884380Y37690881D01*
X27027238Y37595643D01*
X27122476Y37500405D01*
X27170095Y37405167D01*
X26836761Y39119453D02*
X28122476Y38262310D01*
X27884380Y39452786D02*
X26884380Y39452786D01*
X26884380Y40119453D02*
X26884380Y40214691D01*
X26932000Y40309929D01*
X26979619Y40357548D01*
X27074857Y40405167D01*
X27265333Y40452786D01*
X27503428Y40452786D01*
X27693904Y40405167D01*
X27789142Y40357548D01*
X27836761Y40309929D01*
X27884380Y40214691D01*
X27884380Y40119453D01*
X27836761Y40024215D01*
X27789142Y39976596D01*
X27693904Y39928977D01*
X27503428Y39881358D01*
X27265333Y39881358D01*
X27074857Y39928977D01*
X26979619Y39976596D01*
X26932000Y40024215D01*
X26884380Y40119453D01*
X24392000Y38262405D02*
X24344380Y38167167D01*
X24344380Y38024310D01*
X24392000Y37881453D01*
X24487238Y37786215D01*
X24582476Y37738596D01*
X24772952Y37690977D01*
X24915809Y37690977D01*
X25106285Y37738596D01*
X25201523Y37786215D01*
X25296761Y37881453D01*
X25344380Y38024310D01*
X25344380Y38119548D01*
X25296761Y38262405D01*
X25249142Y38310024D01*
X24915809Y38310024D01*
X24915809Y38119548D01*
X25344380Y38738596D02*
X24344380Y38738596D01*
X25344380Y39310024D01*
X24344380Y39310024D01*
X25344380Y39786215D02*
X24344380Y39786215D01*
X24344380Y40024310D01*
X24392000Y40167167D01*
X24487238Y40262405D01*
X24582476Y40310024D01*
X24772952Y40357643D01*
X24915809Y40357643D01*
X25106285Y40310024D01*
X25201523Y40262405D01*
X25296761Y40167167D01*
X25344380Y40024310D01*
X25344380Y39786215D01*
X29424380Y37849739D02*
X30424380Y38183072D01*
X29424380Y38516405D01*
X30329142Y39421167D02*
X30376761Y39373548D01*
X30424380Y39230691D01*
X30424380Y39135453D01*
X30376761Y38992596D01*
X30281523Y38897358D01*
X30186285Y38849739D01*
X29995809Y38802120D01*
X29852952Y38802120D01*
X29662476Y38849739D01*
X29567238Y38897358D01*
X29472000Y38992596D01*
X29424380Y39135453D01*
X29424380Y39230691D01*
X29472000Y39373548D01*
X29519619Y39421167D01*
X30329142Y40421167D02*
X30376761Y40373548D01*
X30424380Y40230691D01*
X30424380Y40135453D01*
X30376761Y39992596D01*
X30281523Y39897358D01*
X30186285Y39849739D01*
X29995809Y39802120D01*
X29852952Y39802120D01*
X29662476Y39849739D01*
X29567238Y39897358D01*
X29472000Y39992596D01*
X29424380Y40135453D01*
X29424380Y40230691D01*
X29472000Y40373548D01*
X29519619Y40421167D01*
X21161771Y5820756D02*
X21700519Y6359505D01*
X21700519Y5820756D02*
X21161771Y6359505D01*
X21936221Y7470672D02*
X21599504Y7133955D01*
X21902549Y6763566D01*
X21902549Y6830909D01*
X21936221Y6931924D01*
X22104580Y7100283D01*
X22205595Y7133955D01*
X22272939Y7133955D01*
X22373954Y7100283D01*
X22542313Y6931924D01*
X22575984Y6830909D01*
X22575984Y6763566D01*
X22542313Y6662550D01*
X22373954Y6494192D01*
X22272939Y6460520D01*
X22205595Y6460520D01*
X22441297Y7504344D02*
X23081061Y7201298D01*
X22778015Y7841062D01*
X23701771Y5820756D02*
X24240519Y6359505D01*
X24240519Y5820756D02*
X23701771Y6359505D01*
X24072160Y7066611D02*
X24509893Y7504344D01*
X24543565Y6999268D01*
X24644580Y7100283D01*
X24745595Y7133955D01*
X24812939Y7133955D01*
X24913954Y7100283D01*
X25082313Y6931924D01*
X25115984Y6830909D01*
X25115984Y6763566D01*
X25082313Y6662550D01*
X24880282Y6460520D01*
X24779267Y6426848D01*
X24711923Y6426848D01*
X24981297Y7504344D02*
X25621061Y7201298D01*
X25318015Y7841062D01*
X25284343Y8278794D02*
X25722076Y8716527D01*
X25755748Y8211451D01*
X25856763Y8312466D01*
X25957778Y8346138D01*
X26025122Y8346138D01*
X26126137Y8312466D01*
X26294496Y8144107D01*
X26328167Y8043092D01*
X26328167Y7975749D01*
X26294496Y7874733D01*
X26092465Y7672703D01*
X25991450Y7639031D01*
X25924106Y7639031D01*
X25283978Y6441832D02*
X25991085Y7148939D01*
X26915206Y5955443D02*
X26342786Y6056459D01*
X26511145Y5551382D02*
X25804038Y6258489D01*
X26073412Y6527863D01*
X26174427Y6561535D01*
X26241771Y6561535D01*
X26342786Y6527863D01*
X26443801Y6426848D01*
X26477473Y6325833D01*
X26477473Y6258489D01*
X26443801Y6157474D01*
X26174427Y5888100D01*
X25991085Y7148939D02*
X26664520Y7822374D01*
X27150908Y6258489D02*
X27285595Y6325833D01*
X27453954Y6494192D01*
X27487626Y6595207D01*
X27487626Y6662550D01*
X27453954Y6763566D01*
X27386610Y6830909D01*
X27285595Y6864581D01*
X27218252Y6864581D01*
X27117236Y6830909D01*
X26948878Y6729894D01*
X26847862Y6696222D01*
X26780519Y6696222D01*
X26679504Y6729894D01*
X26612160Y6797237D01*
X26578488Y6898253D01*
X26578488Y6965596D01*
X26612160Y7066611D01*
X26780519Y7234970D01*
X26915206Y7302314D01*
X26664520Y7822374D02*
X27203268Y8361122D01*
X27083565Y7538016D02*
X27487626Y7942077D01*
X27992702Y7032940D02*
X27285595Y7740046D01*
X27203268Y8361122D02*
X27910374Y9068229D01*
X28430435Y7470672D02*
X27723328Y8177779D01*
X27992702Y8447153D01*
X28093717Y8480825D01*
X28161061Y8480825D01*
X28262076Y8447153D01*
X28363091Y8346138D01*
X28396763Y8245123D01*
X28396763Y8177779D01*
X28363091Y8076764D01*
X28093717Y7807390D01*
X27910374Y9068229D02*
X28617481Y9775335D01*
X29137541Y8177779D02*
X28430435Y8884886D01*
X28598793Y9053245D01*
X28733480Y9120588D01*
X28868167Y9120588D01*
X28969183Y9086916D01*
X29137541Y8985901D01*
X29238557Y8884886D01*
X29339572Y8716527D01*
X29373244Y8615512D01*
X29373244Y8480825D01*
X29305900Y8346138D01*
X29137541Y8177779D01*
X28617481Y9775335D02*
X29358260Y10516114D01*
X29844648Y8884886D02*
X29137541Y9591993D01*
X30248709Y9288947D01*
X29541602Y9996054D01*
X29051145Y5551382D02*
X28344038Y6258489D01*
X29791923Y6292161D02*
X29219504Y6393176D01*
X29387862Y5888100D02*
X28680755Y6595207D01*
X28950129Y6864581D01*
X29051145Y6898253D01*
X29118488Y6898253D01*
X29219504Y6864581D01*
X29320519Y6763566D01*
X29354191Y6662550D01*
X29354191Y6595207D01*
X29320519Y6494192D01*
X29051145Y6224817D01*
X30633717Y6999268D02*
X30532702Y6965596D01*
X30398015Y6965596D01*
X30195984Y6965596D01*
X30094969Y6931924D01*
X30027626Y6864581D01*
X30229656Y6729894D02*
X30128641Y6696222D01*
X29993954Y6696222D01*
X29825595Y6797237D01*
X29589893Y7032940D01*
X29488878Y7201298D01*
X29488878Y7335985D01*
X29522549Y7437001D01*
X29657236Y7571688D01*
X29758252Y7605359D01*
X29892939Y7605359D01*
X30061297Y7504344D01*
X30297000Y7268642D01*
X30398015Y7100283D01*
X30398015Y6965596D01*
X30364343Y6864581D01*
X30229656Y6729894D01*
X31591145Y5551382D02*
X30884038Y6258489D01*
X31995206Y5955443D01*
X31288099Y6662550D01*
X32264580Y6292161D02*
X32399267Y6359505D01*
X32567626Y6527863D01*
X32601297Y6628879D01*
X32601297Y6696222D01*
X32567626Y6797237D01*
X32500282Y6864581D01*
X32399267Y6898253D01*
X32331923Y6898253D01*
X32230908Y6864581D01*
X32062549Y6763566D01*
X31961534Y6729894D01*
X31894191Y6729894D01*
X31793175Y6763566D01*
X31725832Y6830909D01*
X31692160Y6931924D01*
X31692160Y6999268D01*
X31725832Y7100283D01*
X31894191Y7268642D01*
X32028878Y7335985D01*
X32938015Y6965596D02*
X33072702Y7032940D01*
X33241061Y7201298D01*
X33274732Y7302314D01*
X33274732Y7369657D01*
X33241061Y7470672D01*
X33173717Y7538016D01*
X33072702Y7571688D01*
X33005358Y7571688D01*
X32904343Y7538016D01*
X32735984Y7437001D01*
X32634969Y7403329D01*
X32567626Y7403329D01*
X32466610Y7437001D01*
X32399267Y7504344D01*
X32365595Y7605359D01*
X32365595Y7672703D01*
X32399267Y7773718D01*
X32567626Y7942077D01*
X32702313Y8009420D01*
X33443091Y8884886D02*
X33746137Y7369657D01*
X34352228Y8379810D02*
X34486915Y8447153D01*
X34655274Y8615512D01*
X34688946Y8716527D01*
X34688946Y8783871D01*
X34655274Y8884886D01*
X34587931Y8952229D01*
X34486915Y8985901D01*
X34419572Y8985901D01*
X34318557Y8952229D01*
X34150198Y8851214D01*
X34049183Y8817542D01*
X33981839Y8817542D01*
X33880824Y8851214D01*
X33813480Y8918558D01*
X33779809Y9019573D01*
X33779809Y9086916D01*
X33813480Y9187932D01*
X33981839Y9356290D01*
X34116526Y9423634D01*
X35429724Y9524649D02*
X35429724Y9457306D01*
X35362381Y9322619D01*
X35295037Y9255275D01*
X35160350Y9187932D01*
X35025663Y9187932D01*
X34924648Y9221603D01*
X34756289Y9322619D01*
X34655274Y9423634D01*
X34554259Y9591993D01*
X34520587Y9693008D01*
X34520587Y9827695D01*
X34587931Y9962382D01*
X34655274Y10029725D01*
X34789961Y10097069D01*
X34857305Y10097069D01*
X36136831Y10097069D02*
X35800114Y9760351D01*
X35093007Y10467458D01*
X36136831Y11578626D02*
X36439877Y10063397D01*
X37517373Y11477611D02*
X36944953Y11578626D01*
X37113312Y11073550D02*
X36406205Y11780656D01*
X36675579Y12050031D01*
X36776594Y12083702D01*
X36843938Y12083702D01*
X36944953Y12050031D01*
X37045968Y11949015D01*
X37079640Y11848000D01*
X37079640Y11780656D01*
X37045968Y11679641D01*
X36776594Y11410267D01*
X37045968Y12420420D02*
X38224480Y12184718D01*
X37517373Y12891824D02*
X37753075Y11713313D01*
X34131145Y5551382D02*
X33424038Y6258489D01*
X34164816Y5989115D01*
X33895442Y6729894D01*
X34602549Y6022787D01*
X34366847Y7201298D02*
X34501534Y7335985D01*
X34602549Y7369657D01*
X34737236Y7369657D01*
X34905595Y7268642D01*
X35141297Y7032940D01*
X35242313Y6864581D01*
X35242313Y6729894D01*
X35208641Y6628879D01*
X35073954Y6494192D01*
X34972939Y6460520D01*
X34838252Y6460520D01*
X34669893Y6561535D01*
X34434191Y6797237D01*
X34333175Y6965596D01*
X34333175Y7100283D01*
X34366847Y7201298D01*
X35612702Y7100283D02*
X35747389Y7167627D01*
X35915748Y7335985D01*
X35949419Y7437001D01*
X35949419Y7504344D01*
X35915748Y7605359D01*
X35848404Y7672703D01*
X35747389Y7706375D01*
X35680045Y7706375D01*
X35579030Y7672703D01*
X35410671Y7571688D01*
X35309656Y7538016D01*
X35242313Y7538016D01*
X35141297Y7571688D01*
X35073954Y7639031D01*
X35040282Y7740046D01*
X35040282Y7807390D01*
X35073954Y7908405D01*
X35242313Y8076764D01*
X35377000Y8144107D01*
X36353480Y7773718D02*
X35646374Y8480825D01*
X36454496Y9356290D02*
X36757541Y7841062D01*
X37363633Y8851214D02*
X37498320Y8918558D01*
X37666679Y9086916D01*
X37700350Y9187932D01*
X37700350Y9255275D01*
X37666679Y9356290D01*
X37599335Y9423634D01*
X37498320Y9457306D01*
X37430976Y9457306D01*
X37329961Y9423634D01*
X37161602Y9322619D01*
X37060587Y9288947D01*
X36993244Y9288947D01*
X36892228Y9322619D01*
X36824885Y9389962D01*
X36791213Y9490977D01*
X36791213Y9558321D01*
X36824885Y9659336D01*
X36993244Y9827695D01*
X37127931Y9895038D01*
X38104411Y9524649D02*
X37397305Y10231756D01*
X37565663Y10400115D01*
X37700350Y10467458D01*
X37835037Y10467458D01*
X37936053Y10433786D01*
X38104411Y10332771D01*
X38205427Y10231756D01*
X38306442Y10063397D01*
X38340114Y9962382D01*
X38340114Y9827695D01*
X38272770Y9693008D01*
X38104411Y9524649D01*
X38575816Y10400115D02*
X38912533Y10736832D01*
X38710503Y10130741D02*
X38239098Y11073550D01*
X39181907Y10602145D01*
X39181907Y12083702D02*
X39484953Y10568473D01*
X39350266Y12184718D02*
X39754327Y12588779D01*
X40259404Y11679641D02*
X39552297Y12386748D01*
X39922686Y12757137D02*
X41101197Y12521435D01*
X40394091Y13228542D02*
X40629793Y12050031D01*
X36671145Y5551382D02*
X35964038Y6258489D01*
X36704816Y5989115D01*
X36435442Y6729894D01*
X37142549Y6022787D01*
X37479267Y6359505D02*
X36772160Y7066611D01*
X37748641Y6696222D02*
X37883328Y6763566D01*
X38051687Y6931924D01*
X38085358Y7032940D01*
X38085358Y7100283D01*
X38051687Y7201298D01*
X37984343Y7268642D01*
X37883328Y7302314D01*
X37815984Y7302314D01*
X37714969Y7268642D01*
X37546610Y7167627D01*
X37445595Y7133955D01*
X37378252Y7133955D01*
X37277236Y7167627D01*
X37209893Y7234970D01*
X37176221Y7335985D01*
X37176221Y7403329D01*
X37209893Y7504344D01*
X37378252Y7672703D01*
X37512939Y7740046D01*
X37917000Y8211451D02*
X38051687Y8346138D01*
X38152702Y8379810D01*
X38287389Y8379810D01*
X38455748Y8278794D01*
X38691450Y8043092D01*
X38792465Y7874733D01*
X38792465Y7740046D01*
X38758793Y7639031D01*
X38624106Y7504344D01*
X38523091Y7470672D01*
X38388404Y7470672D01*
X38220045Y7571688D01*
X37984343Y7807390D01*
X37883328Y7975749D01*
X37883328Y8110436D01*
X37917000Y8211451D01*
X39143801Y5551382D02*
X39278488Y5618726D01*
X39446847Y5787085D01*
X39480519Y5888100D01*
X39480519Y5955443D01*
X39446847Y6056459D01*
X39379504Y6123802D01*
X39278488Y6157474D01*
X39211145Y6157474D01*
X39110129Y6123802D01*
X38941771Y6022787D01*
X38840755Y5989115D01*
X38773412Y5989115D01*
X38672397Y6022787D01*
X38605053Y6090130D01*
X38571381Y6191146D01*
X38571381Y6258489D01*
X38605053Y6359505D01*
X38773412Y6527863D01*
X38908099Y6595207D01*
X40221297Y6696222D02*
X40221297Y6628879D01*
X40153954Y6494192D01*
X40086610Y6426848D01*
X39951923Y6359505D01*
X39817236Y6359505D01*
X39716221Y6393176D01*
X39547862Y6494192D01*
X39446847Y6595207D01*
X39345832Y6763566D01*
X39312160Y6864581D01*
X39312160Y6999268D01*
X39379504Y7133955D01*
X39446847Y7201298D01*
X39581534Y7268642D01*
X39648878Y7268642D01*
X40591687Y6931924D02*
X39884580Y7639031D01*
X40995748Y7335985D02*
X40288641Y7437001D01*
X40288641Y8043092D02*
X40288641Y7234970D01*
D11*
X53002571Y35365715D02*
X51502571Y35365715D01*
X51645428Y36008572D02*
X51574000Y36080000D01*
X51502571Y36222858D01*
X51502571Y36580000D01*
X51574000Y36722858D01*
X51645428Y36794286D01*
X51788285Y36865715D01*
X51931142Y36865715D01*
X52145428Y36794286D01*
X53002571Y35937143D01*
X53002571Y36865715D01*
X52859714Y38365715D02*
X52931142Y38294286D01*
X53002571Y38080000D01*
X53002571Y37937143D01*
X52931142Y37722858D01*
X52788285Y37580000D01*
X52645428Y37508572D01*
X52359714Y37437143D01*
X52145428Y37437143D01*
X51859714Y37508572D01*
X51716857Y37580000D01*
X51574000Y37722858D01*
X51502571Y37937143D01*
X51502571Y38080000D01*
X51574000Y38294286D01*
X51645428Y38365715D01*
X49375142Y35294286D02*
X49446571Y35508572D01*
X49446571Y35865715D01*
X49375142Y36008572D01*
X49303714Y36080000D01*
X49160857Y36151429D01*
X49018000Y36151429D01*
X48875142Y36080000D01*
X48803714Y36008572D01*
X48732285Y35865715D01*
X48660857Y35580000D01*
X48589428Y35437143D01*
X48518000Y35365715D01*
X48375142Y35294286D01*
X48232285Y35294286D01*
X48089428Y35365715D01*
X48018000Y35437143D01*
X47946571Y35580000D01*
X47946571Y35937143D01*
X48018000Y36151429D01*
X49446571Y36794286D02*
X47946571Y36794286D01*
X47946571Y37365715D01*
X48018000Y37508572D01*
X48089428Y37580000D01*
X48232285Y37651429D01*
X48446571Y37651429D01*
X48589428Y37580000D01*
X48660857Y37508572D01*
X48732285Y37365715D01*
X48732285Y36794286D01*
X49446571Y38294286D02*
X47946571Y38294286D01*
X44136571Y35199143D02*
X45350857Y35199143D01*
X45493714Y35270572D01*
X45565142Y35342000D01*
X45636571Y35484858D01*
X45636571Y35770572D01*
X45565142Y35913429D01*
X45493714Y35984858D01*
X45350857Y36056286D01*
X44136571Y36056286D01*
X45208000Y36699143D02*
X45208000Y37413429D01*
X45636571Y36556286D02*
X44136571Y37056286D01*
X45636571Y37556286D01*
X45636571Y38913429D02*
X44922285Y38413429D01*
X45636571Y38056286D02*
X44136571Y38056286D01*
X44136571Y38627715D01*
X44208000Y38770572D01*
X44279428Y38842000D01*
X44422285Y38913429D01*
X44636571Y38913429D01*
X44779428Y38842000D01*
X44850857Y38770572D01*
X44922285Y38627715D01*
X44922285Y38056286D01*
X44136571Y39342000D02*
X44136571Y40199143D01*
X45636571Y39770572D02*
X44136571Y39770572D01*
X40176142Y44538429D02*
X40176142Y46038429D01*
X41176142Y46038429D02*
X41319000Y46038429D01*
X41461857Y45967000D01*
X41533285Y45895572D01*
X41604714Y45752715D01*
X41676142Y45467000D01*
X41676142Y45109858D01*
X41604714Y44824143D01*
X41533285Y44681286D01*
X41461857Y44609858D01*
X41319000Y44538429D01*
X41176142Y44538429D01*
X41033285Y44609858D01*
X40961857Y44681286D01*
X40890428Y44824143D01*
X40819000Y45109858D01*
X40819000Y45467000D01*
X40890428Y45752715D01*
X40961857Y45895572D01*
X41033285Y45967000D01*
X41176142Y46038429D01*
X44890428Y46038429D02*
X45033285Y46038429D01*
X45176142Y45967000D01*
X45247571Y45895572D01*
X45319000Y45752715D01*
X45390428Y45467000D01*
X45390428Y45109858D01*
X45319000Y44824143D01*
X45247571Y44681286D01*
X45176142Y44609858D01*
X45033285Y44538429D01*
X44890428Y44538429D01*
X44747571Y44609858D01*
X44676142Y44681286D01*
X44604714Y44824143D01*
X44533285Y45109858D01*
X44533285Y45467000D01*
X44604714Y45752715D01*
X44676142Y45895572D01*
X44747571Y45967000D01*
X44890428Y46038429D01*
X48604714Y46038429D02*
X48747571Y46038429D01*
X48890428Y45967000D01*
X48961857Y45895572D01*
X49033285Y45752715D01*
X49104714Y45467000D01*
X49104714Y45109858D01*
X49033285Y44824143D01*
X48961857Y44681286D01*
X48890428Y44609858D01*
X48747571Y44538429D01*
X48604714Y44538429D01*
X48461857Y44609858D01*
X48390428Y44681286D01*
X48319000Y44824143D01*
X48247571Y45109858D01*
X48247571Y45467000D01*
X48319000Y45752715D01*
X48390428Y45895572D01*
X48461857Y45967000D01*
X48604714Y46038429D01*
X52819000Y44538429D02*
X51961857Y44538429D01*
X52390428Y44538429D02*
X52390428Y46038429D01*
X52247571Y45824143D01*
X52104714Y45681286D01*
X51961857Y45609858D01*
X40176142Y41988429D02*
X40176142Y43488429D01*
X41676142Y41988429D02*
X40819000Y41988429D01*
X41247571Y41988429D02*
X41247571Y43488429D01*
X41104714Y43274143D01*
X40961857Y43131286D01*
X40819000Y43059858D01*
X44890428Y43488429D02*
X45033285Y43488429D01*
X45176142Y43417000D01*
X45247571Y43345572D01*
X45319000Y43202715D01*
X45390428Y42917000D01*
X45390428Y42559858D01*
X45319000Y42274143D01*
X45247571Y42131286D01*
X45176142Y42059858D01*
X45033285Y41988429D01*
X44890428Y41988429D01*
X44747571Y42059858D01*
X44676142Y42131286D01*
X44604714Y42274143D01*
X44533285Y42559858D01*
X44533285Y42917000D01*
X44604714Y43202715D01*
X44676142Y43345572D01*
X44747571Y43417000D01*
X44890428Y43488429D01*
X48604714Y43488429D02*
X48747571Y43488429D01*
X48890428Y43417000D01*
X48961857Y43345572D01*
X49033285Y43202715D01*
X49104714Y42917000D01*
X49104714Y42559858D01*
X49033285Y42274143D01*
X48961857Y42131286D01*
X48890428Y42059858D01*
X48747571Y41988429D01*
X48604714Y41988429D01*
X48461857Y42059858D01*
X48390428Y42131286D01*
X48319000Y42274143D01*
X48247571Y42559858D01*
X48247571Y42917000D01*
X48319000Y43202715D01*
X48390428Y43345572D01*
X48461857Y43417000D01*
X48604714Y43488429D01*
X52819000Y41988429D02*
X51961857Y41988429D01*
X52390428Y41988429D02*
X52390428Y43488429D01*
X52247571Y43274143D01*
X52104714Y43131286D01*
X51961857Y43059858D01*
D13*
G04 #@! TO.C,L2*
X42258064Y21823000D02*
X41053936Y21823000D01*
X42258064Y23643000D02*
X41053936Y23643000D01*
G04 #@! TO.C,C24*
X45675733Y22354000D02*
X46018267Y22354000D01*
X45675733Y21334000D02*
X46018267Y21334000D01*
G04 #@! TO.C,C20*
X42246733Y26668000D02*
X42589267Y26668000D01*
X42246733Y27688000D02*
X42589267Y27688000D01*
G04 #@! TO.C,C1*
X23112000Y26244733D02*
X23112000Y26587267D01*
X24132000Y26244733D02*
X24132000Y26587267D01*
G04 #@! TO.C,C2*
X32454413Y18652760D02*
X32796947Y18652760D01*
X32454413Y19672760D02*
X32796947Y19672760D01*
G04 #@! TO.C,C25*
X45675733Y28196000D02*
X46018267Y28196000D01*
X45675733Y27176000D02*
X46018267Y27176000D01*
G04 #@! TO.C,C3*
X11758200Y22675667D02*
X11758200Y22333133D01*
X12778200Y22675667D02*
X12778200Y22333133D01*
G04 #@! TO.C,C6*
X11758200Y26270133D02*
X11758200Y26612667D01*
X12778200Y26270133D02*
X12778200Y26612667D01*
G04 #@! TO.C,C7*
X8211667Y35028600D02*
X7869133Y35028600D01*
X8211667Y34008600D02*
X7869133Y34008600D01*
G04 #@! TO.C,C8*
X31484413Y16172760D02*
X31826947Y16172760D01*
X31484413Y15152760D02*
X31826947Y15152760D01*
G04 #@! TO.C,C9*
X8312333Y17930400D02*
X8654867Y17930400D01*
X8312333Y18950400D02*
X8654867Y18950400D01*
G04 #@! TO.C,C10*
X35294413Y27322760D02*
X35636947Y27322760D01*
X35294413Y26302760D02*
X35636947Y26302760D01*
G04 #@! TO.C,C12*
X34855680Y23934027D02*
X34855680Y23591493D01*
X35875680Y23934027D02*
X35875680Y23591493D01*
G04 #@! TO.C,C13*
X20936133Y16727900D02*
X21278667Y16727900D01*
X20936133Y15707900D02*
X21278667Y15707900D01*
G04 #@! TO.C,C14*
X28446000Y18459267D02*
X28446000Y18116733D01*
X29466000Y18459267D02*
X29466000Y18116733D01*
G04 #@! TO.C,C18*
X39668267Y30478000D02*
X39325733Y30478000D01*
X39668267Y31498000D02*
X39325733Y31498000D01*
G04 #@! TO.C,C22*
X8273867Y39041800D02*
X7931333Y39041800D01*
X8273867Y38021800D02*
X7931333Y38021800D01*
G04 #@! TO.C,C31*
X8654867Y16355600D02*
X8312333Y16355600D01*
X8654867Y17375600D02*
X8312333Y17375600D01*
G04 #@! TO.C,C30*
X50421000Y25990733D02*
X50421000Y26333267D01*
X49401000Y25990733D02*
X49401000Y26333267D01*
G04 #@! TO.C,C29*
X49401000Y21672733D02*
X49401000Y22015267D01*
X50421000Y21672733D02*
X50421000Y22015267D01*
G04 #@! TO.C,C28*
X48897000Y25990733D02*
X48897000Y26333267D01*
X47877000Y25990733D02*
X47877000Y26333267D01*
G04 #@! TO.C,C23*
X45675733Y20830000D02*
X46018267Y20830000D01*
X45675733Y19810000D02*
X46018267Y19810000D01*
G04 #@! TO.C,C27*
X48897000Y21672733D02*
X48897000Y22015267D01*
X47877000Y21672733D02*
X47877000Y22015267D01*
G04 #@! TO.C,C26*
X45675733Y26672000D02*
X46018267Y26672000D01*
X45675733Y25652000D02*
X46018267Y25652000D01*
G04 #@! TO.C,C17*
X30866947Y34462760D02*
X30524413Y34462760D01*
X30866947Y33442760D02*
X30524413Y33442760D01*
G04 #@! TO.C,C16*
X35866947Y28832760D02*
X35524413Y28832760D01*
X35866947Y29852760D02*
X35524413Y29852760D01*
G04 #@! TO.C,C19*
X42246733Y20318000D02*
X42589267Y20318000D01*
X42246733Y21338000D02*
X42589267Y21338000D01*
G04 #@! TO.C,C15*
X27285680Y31705733D02*
X27285680Y32048267D01*
X28305680Y31705733D02*
X28305680Y32048267D01*
G04 #@! TO.C,C11*
X37263000Y24264252D02*
X37263000Y23741748D01*
X38683000Y24264252D02*
X38683000Y23741748D01*
G04 #@! TO.C,C5*
X31744428Y18122760D02*
X32266932Y18122760D01*
X31744428Y16702760D02*
X32266932Y16702760D01*
G04 #@! TO.C,C4*
X8160652Y33399800D02*
X7638148Y33399800D01*
X8160652Y31979800D02*
X7638148Y31979800D01*
G04 #@! TO.C,C21*
X8202452Y36018400D02*
X7679948Y36018400D01*
X8202452Y37438400D02*
X7679948Y37438400D01*
G04 #@! TO.C,P3*
X23395840Y45116560D02*
X23395840Y46446560D01*
X23395840Y46446560D02*
X24725840Y46446560D01*
X25995840Y46446560D02*
X31135840Y46446560D01*
X31135840Y43786560D02*
X31135840Y46446560D01*
X25995840Y43786560D02*
X31135840Y43786560D01*
X25995840Y43786560D02*
X25995840Y46446560D01*
G04 #@! TO.C,P4*
X25995840Y41246560D02*
X25995840Y43906560D01*
X25995840Y41246560D02*
X31135840Y41246560D01*
X31135840Y41246560D02*
X31135840Y43906560D01*
X25995840Y43906560D02*
X31135840Y43906560D01*
X23395840Y43906560D02*
X24725840Y43906560D01*
X23395840Y42576560D02*
X23395840Y43906560D01*
G04 #@! TO.C,P2*
X39878000Y4886000D02*
X39878000Y2226000D01*
X39878000Y4886000D02*
X19498000Y4886000D01*
X19498000Y4886000D02*
X19498000Y2226000D01*
X39878000Y2226000D02*
X19498000Y2226000D01*
X42478000Y2226000D02*
X41148000Y2226000D01*
X42478000Y3556000D02*
X42478000Y2226000D01*
G04 #@! TO.C,L1*
X9625400Y29369652D02*
X9625400Y28847148D01*
X8205400Y29369652D02*
X8205400Y28847148D01*
G04 #@! TO.C,D3*
X5485000Y3275000D02*
X3025000Y3275000D01*
X3025000Y3275000D02*
X3025000Y1805000D01*
X3025000Y1805000D02*
X5485000Y1805000D01*
G04 #@! TO.C,D2*
X3025000Y4345000D02*
X5485000Y4345000D01*
X3025000Y5815000D02*
X3025000Y4345000D01*
X5485000Y5815000D02*
X3025000Y5815000D01*
G04 #@! TO.C,D1*
X5485000Y46455000D02*
X3025000Y46455000D01*
X3025000Y46455000D02*
X3025000Y44985000D01*
X3025000Y44985000D02*
X5485000Y44985000D01*
D14*
G04 #@! TO.C,U1*
X16757400Y19845400D02*
X12757400Y19845400D01*
X18032400Y14445400D02*
X12757400Y14445400D01*
D13*
G04 #@! TO.C,R9*
X43224267Y31498000D02*
X42881733Y31498000D01*
X43224267Y30478000D02*
X42881733Y30478000D01*
G04 #@! TO.C,R2*
X34087107Y43656560D02*
X33744573Y43656560D01*
X34087107Y44676560D02*
X33744573Y44676560D01*
G04 #@! TO.C,R14*
X8069733Y4570000D02*
X8412267Y4570000D01*
X8069733Y5590000D02*
X8412267Y5590000D01*
G04 #@! TO.C,R13*
X52270973Y27119140D02*
X52613507Y27119140D01*
X52270973Y26099140D02*
X52613507Y26099140D01*
G04 #@! TO.C,R12*
X52270973Y24495540D02*
X52613507Y24495540D01*
X52270973Y25515540D02*
X52613507Y25515540D01*
G04 #@! TO.C,R11*
X52270973Y23515540D02*
X52613507Y23515540D01*
X52270973Y22495540D02*
X52613507Y22495540D01*
G04 #@! TO.C,R10*
X52270973Y20899140D02*
X52613507Y20899140D01*
X52270973Y21919140D02*
X52613507Y21919140D01*
G04 #@! TO.C,R8*
X35642733Y31498000D02*
X35985267Y31498000D01*
X35642733Y30478000D02*
X35985267Y30478000D01*
G04 #@! TO.C,R7*
X8069733Y2030000D02*
X8412267Y2030000D01*
X8069733Y3050000D02*
X8412267Y3050000D01*
G04 #@! TO.C,R6*
X8069733Y46230000D02*
X8412267Y46230000D01*
X8069733Y45210000D02*
X8412267Y45210000D01*
G04 #@! TO.C,R5*
X22664267Y11432000D02*
X22321733Y11432000D01*
X22664267Y10412000D02*
X22321733Y10412000D01*
G04 #@! TO.C,R4*
X13409200Y23222133D02*
X13409200Y23564667D01*
X14429200Y23222133D02*
X14429200Y23564667D01*
G04 #@! TO.C,R3*
X16131000Y22333133D02*
X16131000Y22675667D01*
X15111000Y22333133D02*
X15111000Y22675667D01*
G04 #@! TO.C,R1*
X34087107Y45256560D02*
X33744573Y45256560D01*
X34087107Y46276560D02*
X33744573Y46276560D01*
G04 #@! TO.C,L3*
X42258064Y26183000D02*
X41053936Y26183000D01*
X42258064Y24363000D02*
X41053936Y24363000D01*
G04 #@! TO.C,U4*
X10525400Y23585600D02*
X10525400Y25385600D01*
X7305400Y25385600D02*
X7305400Y22935600D01*
G04 #@! TO.C,P1*
X2909800Y28305000D02*
X4459800Y28305000D01*
X2909800Y28305000D02*
X2909800Y28005000D01*
X109800Y28005000D02*
X2909800Y28005000D01*
X2909800Y20005000D02*
X4459800Y20005000D01*
X2909800Y20305000D02*
X2909800Y20005000D01*
X109800Y20305000D02*
X2909800Y20305000D01*
X6159800Y25055000D02*
X5709800Y25455000D01*
X6159800Y25855000D02*
X6159800Y25055000D01*
X5709800Y25455000D02*
X6159800Y25855000D01*
D14*
G04 #@! TO.C,U3*
X10185600Y35336200D02*
G75*
G03X10185600Y35336200I-100000J0D01*
G01*
X10335600Y35886200D02*
X10335600Y35386200D01*
X13235600Y35886200D02*
X10335600Y35886200D01*
X13235600Y35386200D02*
X13235600Y35886200D01*
X10335600Y35386200D02*
X13235600Y35386200D01*
G04 #@! TO.C,Y1*
X28445680Y29482760D02*
G75*
G03X28445680Y29482760I-250000J0D01*
G01*
X32695680Y32982760D02*
X28695680Y32982760D01*
X32695680Y29982760D02*
X32695680Y32982760D01*
X28695680Y29982760D02*
X32695680Y29982760D01*
X28695680Y32982760D02*
X28695680Y29982760D01*
G04 #@! TO.C,U2*
X31965680Y27209160D02*
X31965680Y26609160D01*
X31465680Y27209160D02*
X31965680Y27209160D01*
X25565680Y27209160D02*
X25565680Y26609160D01*
X26165680Y27209160D02*
X25565680Y27209160D01*
X25565680Y20809160D02*
X25565680Y21409160D01*
X26165680Y20809160D02*
X25565680Y20809160D01*
X31965680Y21409160D02*
X31365680Y20809160D01*
X31965680Y20809160D02*
X31965680Y21409160D01*
X31965680Y20809160D02*
X31365680Y20809160D01*
X33331365Y20009160D02*
G75*
G03X33331365Y20009160I-565685J0D01*
G01*
G04 #@! TO.C,L2*
X44791333Y22788620D02*
X44315142Y22788620D01*
X44315142Y23788620D01*
X45077047Y23693381D02*
X45124666Y23741000D01*
X45219904Y23788620D01*
X45458000Y23788620D01*
X45553238Y23741000D01*
X45600857Y23693381D01*
X45648476Y23598143D01*
X45648476Y23502905D01*
X45600857Y23360048D01*
X45029428Y22788620D01*
X45648476Y22788620D01*
G04 #@! TO.C,C24*
X45204142Y18311858D02*
X45156523Y18264239D01*
X45013666Y18216620D01*
X44918428Y18216620D01*
X44775571Y18264239D01*
X44680333Y18359477D01*
X44632714Y18454715D01*
X44585095Y18645191D01*
X44585095Y18788048D01*
X44632714Y18978524D01*
X44680333Y19073762D01*
X44775571Y19169000D01*
X44918428Y19216620D01*
X45013666Y19216620D01*
X45156523Y19169000D01*
X45204142Y19121381D01*
X45585095Y19121381D02*
X45632714Y19169000D01*
X45727952Y19216620D01*
X45966047Y19216620D01*
X46061285Y19169000D01*
X46108904Y19121381D01*
X46156523Y19026143D01*
X46156523Y18930905D01*
X46108904Y18788048D01*
X45537476Y18216620D01*
X46156523Y18216620D01*
X47013666Y18883286D02*
X47013666Y18216620D01*
X46775571Y19264239D02*
X46537476Y18549953D01*
X47156523Y18549953D01*
G04 #@! TO.C,C20*
X41775142Y28852858D02*
X41727523Y28805239D01*
X41584666Y28757620D01*
X41489428Y28757620D01*
X41346571Y28805239D01*
X41251333Y28900477D01*
X41203714Y28995715D01*
X41156095Y29186191D01*
X41156095Y29329048D01*
X41203714Y29519524D01*
X41251333Y29614762D01*
X41346571Y29710000D01*
X41489428Y29757620D01*
X41584666Y29757620D01*
X41727523Y29710000D01*
X41775142Y29662381D01*
X42156095Y29662381D02*
X42203714Y29710000D01*
X42298952Y29757620D01*
X42537047Y29757620D01*
X42632285Y29710000D01*
X42679904Y29662381D01*
X42727523Y29567143D01*
X42727523Y29471905D01*
X42679904Y29329048D01*
X42108476Y28757620D01*
X42727523Y28757620D01*
X43346571Y29757620D02*
X43441809Y29757620D01*
X43537047Y29710000D01*
X43584666Y29662381D01*
X43632285Y29567143D01*
X43679904Y29376667D01*
X43679904Y29138572D01*
X43632285Y28948096D01*
X43584666Y28852858D01*
X43537047Y28805239D01*
X43441809Y28757620D01*
X43346571Y28757620D01*
X43251333Y28805239D01*
X43203714Y28852858D01*
X43156095Y28948096D01*
X43108476Y29138572D01*
X43108476Y29376667D01*
X43156095Y29567143D01*
X43203714Y29662381D01*
X43251333Y29710000D01*
X43346571Y29757620D01*
G04 #@! TO.C,C1*
X22549142Y26249334D02*
X22596761Y26201715D01*
X22644380Y26058858D01*
X22644380Y25963620D01*
X22596761Y25820762D01*
X22501523Y25725524D01*
X22406285Y25677905D01*
X22215809Y25630286D01*
X22072952Y25630286D01*
X21882476Y25677905D01*
X21787238Y25725524D01*
X21692000Y25820762D01*
X21644380Y25963620D01*
X21644380Y26058858D01*
X21692000Y26201715D01*
X21739619Y26249334D01*
X22644380Y27201715D02*
X22644380Y26630286D01*
X22644380Y26916000D02*
X21644380Y26916000D01*
X21787238Y26820762D01*
X21882476Y26725524D01*
X21930095Y26630286D01*
G04 #@! TO.C,C2*
X35647333Y17549858D02*
X35599714Y17502239D01*
X35456857Y17454620D01*
X35361619Y17454620D01*
X35218761Y17502239D01*
X35123523Y17597477D01*
X35075904Y17692715D01*
X35028285Y17883191D01*
X35028285Y18026048D01*
X35075904Y18216524D01*
X35123523Y18311762D01*
X35218761Y18407000D01*
X35361619Y18454620D01*
X35456857Y18454620D01*
X35599714Y18407000D01*
X35647333Y18359381D01*
X36028285Y18359381D02*
X36075904Y18407000D01*
X36171142Y18454620D01*
X36409238Y18454620D01*
X36504476Y18407000D01*
X36552095Y18359381D01*
X36599714Y18264143D01*
X36599714Y18168905D01*
X36552095Y18026048D01*
X35980666Y17454620D01*
X36599714Y17454620D01*
G04 #@! TO.C,C25*
X45585142Y30503858D02*
X45537523Y30456239D01*
X45394666Y30408620D01*
X45299428Y30408620D01*
X45156571Y30456239D01*
X45061333Y30551477D01*
X45013714Y30646715D01*
X44966095Y30837191D01*
X44966095Y30980048D01*
X45013714Y31170524D01*
X45061333Y31265762D01*
X45156571Y31361000D01*
X45299428Y31408620D01*
X45394666Y31408620D01*
X45537523Y31361000D01*
X45585142Y31313381D01*
X45966095Y31313381D02*
X46013714Y31361000D01*
X46108952Y31408620D01*
X46347047Y31408620D01*
X46442285Y31361000D01*
X46489904Y31313381D01*
X46537523Y31218143D01*
X46537523Y31122905D01*
X46489904Y30980048D01*
X45918476Y30408620D01*
X46537523Y30408620D01*
X47442285Y31408620D02*
X46966095Y31408620D01*
X46918476Y30932429D01*
X46966095Y30980048D01*
X47061333Y31027667D01*
X47299428Y31027667D01*
X47394666Y30980048D01*
X47442285Y30932429D01*
X47489904Y30837191D01*
X47489904Y30599096D01*
X47442285Y30503858D01*
X47394666Y30456239D01*
X47299428Y30408620D01*
X47061333Y30408620D01*
X46966095Y30456239D01*
X46918476Y30503858D01*
G04 #@! TO.C,C3*
X11152142Y21550334D02*
X11199761Y21502715D01*
X11247380Y21359858D01*
X11247380Y21264620D01*
X11199761Y21121762D01*
X11104523Y21026524D01*
X11009285Y20978905D01*
X10818809Y20931286D01*
X10675952Y20931286D01*
X10485476Y20978905D01*
X10390238Y21026524D01*
X10295000Y21121762D01*
X10247380Y21264620D01*
X10247380Y21359858D01*
X10295000Y21502715D01*
X10342619Y21550334D01*
X10247380Y21883667D02*
X10247380Y22502715D01*
X10628333Y22169381D01*
X10628333Y22312239D01*
X10675952Y22407477D01*
X10723571Y22455096D01*
X10818809Y22502715D01*
X11056904Y22502715D01*
X11152142Y22455096D01*
X11199761Y22407477D01*
X11247380Y22312239D01*
X11247380Y22026524D01*
X11199761Y21931286D01*
X11152142Y21883667D01*
G04 #@! TO.C,C6*
X12676142Y28916334D02*
X12723761Y28868715D01*
X12771380Y28725858D01*
X12771380Y28630620D01*
X12723761Y28487762D01*
X12628523Y28392524D01*
X12533285Y28344905D01*
X12342809Y28297286D01*
X12199952Y28297286D01*
X12009476Y28344905D01*
X11914238Y28392524D01*
X11819000Y28487762D01*
X11771380Y28630620D01*
X11771380Y28725858D01*
X11819000Y28868715D01*
X11866619Y28916334D01*
X11771380Y29773477D02*
X11771380Y29583000D01*
X11819000Y29487762D01*
X11866619Y29440143D01*
X12009476Y29344905D01*
X12199952Y29297286D01*
X12580904Y29297286D01*
X12676142Y29344905D01*
X12723761Y29392524D01*
X12771380Y29487762D01*
X12771380Y29678239D01*
X12723761Y29773477D01*
X12676142Y29821096D01*
X12580904Y29868715D01*
X12342809Y29868715D01*
X12247571Y29821096D01*
X12199952Y29773477D01*
X12152333Y29678239D01*
X12152333Y29487762D01*
X12199952Y29392524D01*
X12247571Y29344905D01*
X12342809Y29297286D01*
G04 #@! TO.C,C7*
X3135333Y34059858D02*
X3087714Y34012239D01*
X2944857Y33964620D01*
X2849619Y33964620D01*
X2706761Y34012239D01*
X2611523Y34107477D01*
X2563904Y34202715D01*
X2516285Y34393191D01*
X2516285Y34536048D01*
X2563904Y34726524D01*
X2611523Y34821762D01*
X2706761Y34917000D01*
X2849619Y34964620D01*
X2944857Y34964620D01*
X3087714Y34917000D01*
X3135333Y34869381D01*
X3468666Y34964620D02*
X4135333Y34964620D01*
X3706761Y33964620D01*
G04 #@! TO.C,C8*
X35647333Y15009858D02*
X35599714Y14962239D01*
X35456857Y14914620D01*
X35361619Y14914620D01*
X35218761Y14962239D01*
X35123523Y15057477D01*
X35075904Y15152715D01*
X35028285Y15343191D01*
X35028285Y15486048D01*
X35075904Y15676524D01*
X35123523Y15771762D01*
X35218761Y15867000D01*
X35361619Y15914620D01*
X35456857Y15914620D01*
X35599714Y15867000D01*
X35647333Y15819381D01*
X36218761Y15486048D02*
X36123523Y15533667D01*
X36075904Y15581286D01*
X36028285Y15676524D01*
X36028285Y15724143D01*
X36075904Y15819381D01*
X36123523Y15867000D01*
X36218761Y15914620D01*
X36409238Y15914620D01*
X36504476Y15867000D01*
X36552095Y15819381D01*
X36599714Y15724143D01*
X36599714Y15676524D01*
X36552095Y15581286D01*
X36504476Y15533667D01*
X36409238Y15486048D01*
X36218761Y15486048D01*
X36123523Y15438429D01*
X36075904Y15390810D01*
X36028285Y15295572D01*
X36028285Y15105096D01*
X36075904Y15009858D01*
X36123523Y14962239D01*
X36218761Y14914620D01*
X36409238Y14914620D01*
X36504476Y14962239D01*
X36552095Y15009858D01*
X36599714Y15105096D01*
X36599714Y15295572D01*
X36552095Y15390810D01*
X36504476Y15438429D01*
X36409238Y15486048D01*
G04 #@! TO.C,C9*
X4532333Y18057858D02*
X4484714Y18010239D01*
X4341857Y17962620D01*
X4246619Y17962620D01*
X4103761Y18010239D01*
X4008523Y18105477D01*
X3960904Y18200715D01*
X3913285Y18391191D01*
X3913285Y18534048D01*
X3960904Y18724524D01*
X4008523Y18819762D01*
X4103761Y18915000D01*
X4246619Y18962620D01*
X4341857Y18962620D01*
X4484714Y18915000D01*
X4532333Y18867381D01*
X5008523Y17962620D02*
X5199000Y17962620D01*
X5294238Y18010239D01*
X5341857Y18057858D01*
X5437095Y18200715D01*
X5484714Y18391191D01*
X5484714Y18772143D01*
X5437095Y18867381D01*
X5389476Y18915000D01*
X5294238Y18962620D01*
X5103761Y18962620D01*
X5008523Y18915000D01*
X4960904Y18867381D01*
X4913285Y18772143D01*
X4913285Y18534048D01*
X4960904Y18438810D01*
X5008523Y18391191D01*
X5103761Y18343572D01*
X5294238Y18343572D01*
X5389476Y18391191D01*
X5437095Y18438810D01*
X5484714Y18534048D01*
G04 #@! TO.C,C10*
X34822822Y27709858D02*
X34775203Y27662239D01*
X34632346Y27614620D01*
X34537108Y27614620D01*
X34394251Y27662239D01*
X34299013Y27757477D01*
X34251394Y27852715D01*
X34203775Y28043191D01*
X34203775Y28186048D01*
X34251394Y28376524D01*
X34299013Y28471762D01*
X34394251Y28567000D01*
X34537108Y28614620D01*
X34632346Y28614620D01*
X34775203Y28567000D01*
X34822822Y28519381D01*
X35775203Y27614620D02*
X35203775Y27614620D01*
X35489489Y27614620D02*
X35489489Y28614620D01*
X35394251Y28471762D01*
X35299013Y28376524D01*
X35203775Y28328905D01*
X36394251Y28614620D02*
X36489489Y28614620D01*
X36584727Y28567000D01*
X36632346Y28519381D01*
X36679965Y28424143D01*
X36727584Y28233667D01*
X36727584Y27995572D01*
X36679965Y27805096D01*
X36632346Y27709858D01*
X36584727Y27662239D01*
X36489489Y27614620D01*
X36394251Y27614620D01*
X36299013Y27662239D01*
X36251394Y27709858D01*
X36203775Y27805096D01*
X36156156Y27995572D01*
X36156156Y28233667D01*
X36203775Y28424143D01*
X36251394Y28519381D01*
X36299013Y28567000D01*
X36394251Y28614620D01*
G04 #@! TO.C,C12*
X36298142Y19677143D02*
X36345761Y19629524D01*
X36393380Y19486667D01*
X36393380Y19391429D01*
X36345761Y19248572D01*
X36250523Y19153334D01*
X36155285Y19105715D01*
X35964809Y19058096D01*
X35821952Y19058096D01*
X35631476Y19105715D01*
X35536238Y19153334D01*
X35441000Y19248572D01*
X35393380Y19391429D01*
X35393380Y19486667D01*
X35441000Y19629524D01*
X35488619Y19677143D01*
X36393380Y20629524D02*
X36393380Y20058096D01*
X36393380Y20343810D02*
X35393380Y20343810D01*
X35536238Y20248572D01*
X35631476Y20153334D01*
X35679095Y20058096D01*
X35488619Y21010477D02*
X35441000Y21058096D01*
X35393380Y21153334D01*
X35393380Y21391429D01*
X35441000Y21486667D01*
X35488619Y21534286D01*
X35583857Y21581905D01*
X35679095Y21581905D01*
X35821952Y21534286D01*
X36393380Y20962858D01*
X36393380Y21581905D01*
G04 #@! TO.C,C13*
X20464542Y17290758D02*
X20416923Y17243139D01*
X20274066Y17195520D01*
X20178828Y17195520D01*
X20035971Y17243139D01*
X19940733Y17338377D01*
X19893114Y17433615D01*
X19845495Y17624091D01*
X19845495Y17766948D01*
X19893114Y17957424D01*
X19940733Y18052662D01*
X20035971Y18147900D01*
X20178828Y18195520D01*
X20274066Y18195520D01*
X20416923Y18147900D01*
X20464542Y18100281D01*
X21416923Y17195520D02*
X20845495Y17195520D01*
X21131209Y17195520D02*
X21131209Y18195520D01*
X21035971Y18052662D01*
X20940733Y17957424D01*
X20845495Y17909805D01*
X21750257Y18195520D02*
X22369304Y18195520D01*
X22035971Y17814567D01*
X22178828Y17814567D01*
X22274066Y17766948D01*
X22321685Y17719329D01*
X22369304Y17624091D01*
X22369304Y17385996D01*
X22321685Y17290758D01*
X22274066Y17243139D01*
X22178828Y17195520D01*
X21893114Y17195520D01*
X21797876Y17243139D01*
X21750257Y17290758D01*
G04 #@! TO.C,C14*
X27789142Y17772143D02*
X27836761Y17724524D01*
X27884380Y17581667D01*
X27884380Y17486429D01*
X27836761Y17343572D01*
X27741523Y17248334D01*
X27646285Y17200715D01*
X27455809Y17153096D01*
X27312952Y17153096D01*
X27122476Y17200715D01*
X27027238Y17248334D01*
X26932000Y17343572D01*
X26884380Y17486429D01*
X26884380Y17581667D01*
X26932000Y17724524D01*
X26979619Y17772143D01*
X27884380Y18724524D02*
X27884380Y18153096D01*
X27884380Y18438810D02*
X26884380Y18438810D01*
X27027238Y18343572D01*
X27122476Y18248334D01*
X27170095Y18153096D01*
X27217714Y19581667D02*
X27884380Y19581667D01*
X26836761Y19343572D02*
X27551047Y19105477D01*
X27551047Y19724524D01*
G04 #@! TO.C,C18*
X38854142Y32027858D02*
X38806523Y31980239D01*
X38663666Y31932620D01*
X38568428Y31932620D01*
X38425571Y31980239D01*
X38330333Y32075477D01*
X38282714Y32170715D01*
X38235095Y32361191D01*
X38235095Y32504048D01*
X38282714Y32694524D01*
X38330333Y32789762D01*
X38425571Y32885000D01*
X38568428Y32932620D01*
X38663666Y32932620D01*
X38806523Y32885000D01*
X38854142Y32837381D01*
X39806523Y31932620D02*
X39235095Y31932620D01*
X39520809Y31932620D02*
X39520809Y32932620D01*
X39425571Y32789762D01*
X39330333Y32694524D01*
X39235095Y32646905D01*
X40377952Y32504048D02*
X40282714Y32551667D01*
X40235095Y32599286D01*
X40187476Y32694524D01*
X40187476Y32742143D01*
X40235095Y32837381D01*
X40282714Y32885000D01*
X40377952Y32932620D01*
X40568428Y32932620D01*
X40663666Y32885000D01*
X40711285Y32837381D01*
X40758904Y32742143D01*
X40758904Y32694524D01*
X40711285Y32599286D01*
X40663666Y32551667D01*
X40568428Y32504048D01*
X40377952Y32504048D01*
X40282714Y32456429D01*
X40235095Y32408810D01*
X40187476Y32313572D01*
X40187476Y32123096D01*
X40235095Y32027858D01*
X40282714Y31980239D01*
X40377952Y31932620D01*
X40568428Y31932620D01*
X40663666Y31980239D01*
X40711285Y32027858D01*
X40758904Y32123096D01*
X40758904Y32313572D01*
X40711285Y32408810D01*
X40663666Y32456429D01*
X40568428Y32504048D01*
G04 #@! TO.C,C22*
X3040142Y38250858D02*
X2992523Y38203239D01*
X2849666Y38155620D01*
X2754428Y38155620D01*
X2611571Y38203239D01*
X2516333Y38298477D01*
X2468714Y38393715D01*
X2421095Y38584191D01*
X2421095Y38727048D01*
X2468714Y38917524D01*
X2516333Y39012762D01*
X2611571Y39108000D01*
X2754428Y39155620D01*
X2849666Y39155620D01*
X2992523Y39108000D01*
X3040142Y39060381D01*
X3421095Y39060381D02*
X3468714Y39108000D01*
X3563952Y39155620D01*
X3802047Y39155620D01*
X3897285Y39108000D01*
X3944904Y39060381D01*
X3992523Y38965143D01*
X3992523Y38869905D01*
X3944904Y38727048D01*
X3373476Y38155620D01*
X3992523Y38155620D01*
X4373476Y39060381D02*
X4421095Y39108000D01*
X4516333Y39155620D01*
X4754428Y39155620D01*
X4849666Y39108000D01*
X4897285Y39060381D01*
X4944904Y38965143D01*
X4944904Y38869905D01*
X4897285Y38727048D01*
X4325857Y38155620D01*
X4944904Y38155620D01*
G04 #@! TO.C,C31*
X4564142Y16533858D02*
X4516523Y16486239D01*
X4373666Y16438620D01*
X4278428Y16438620D01*
X4135571Y16486239D01*
X4040333Y16581477D01*
X3992714Y16676715D01*
X3945095Y16867191D01*
X3945095Y17010048D01*
X3992714Y17200524D01*
X4040333Y17295762D01*
X4135571Y17391000D01*
X4278428Y17438620D01*
X4373666Y17438620D01*
X4516523Y17391000D01*
X4564142Y17343381D01*
X4897476Y17438620D02*
X5516523Y17438620D01*
X5183190Y17057667D01*
X5326047Y17057667D01*
X5421285Y17010048D01*
X5468904Y16962429D01*
X5516523Y16867191D01*
X5516523Y16629096D01*
X5468904Y16533858D01*
X5421285Y16486239D01*
X5326047Y16438620D01*
X5040333Y16438620D01*
X4945095Y16486239D01*
X4897476Y16533858D01*
X6468904Y16438620D02*
X5897476Y16438620D01*
X6183190Y16438620D02*
X6183190Y17438620D01*
X6087952Y17295762D01*
X5992714Y17200524D01*
X5897476Y17152905D01*
G04 #@! TO.C,C30*
X50268142Y28948143D02*
X50315761Y28900524D01*
X50363380Y28757667D01*
X50363380Y28662429D01*
X50315761Y28519572D01*
X50220523Y28424334D01*
X50125285Y28376715D01*
X49934809Y28329096D01*
X49791952Y28329096D01*
X49601476Y28376715D01*
X49506238Y28424334D01*
X49411000Y28519572D01*
X49363380Y28662429D01*
X49363380Y28757667D01*
X49411000Y28900524D01*
X49458619Y28948143D01*
X49363380Y29281477D02*
X49363380Y29900524D01*
X49744333Y29567191D01*
X49744333Y29710048D01*
X49791952Y29805286D01*
X49839571Y29852905D01*
X49934809Y29900524D01*
X50172904Y29900524D01*
X50268142Y29852905D01*
X50315761Y29805286D01*
X50363380Y29710048D01*
X50363380Y29424334D01*
X50315761Y29329096D01*
X50268142Y29281477D01*
X49363380Y30519572D02*
X49363380Y30614810D01*
X49411000Y30710048D01*
X49458619Y30757667D01*
X49553857Y30805286D01*
X49744333Y30852905D01*
X49982428Y30852905D01*
X50172904Y30805286D01*
X50268142Y30757667D01*
X50315761Y30710048D01*
X50363380Y30614810D01*
X50363380Y30519572D01*
X50315761Y30424334D01*
X50268142Y30376715D01*
X50172904Y30329096D01*
X49982428Y30281477D01*
X49744333Y30281477D01*
X49553857Y30329096D01*
X49458619Y30376715D01*
X49411000Y30424334D01*
X49363380Y30519572D01*
G04 #@! TO.C,C29*
X50268142Y17518143D02*
X50315761Y17470524D01*
X50363380Y17327667D01*
X50363380Y17232429D01*
X50315761Y17089572D01*
X50220523Y16994334D01*
X50125285Y16946715D01*
X49934809Y16899096D01*
X49791952Y16899096D01*
X49601476Y16946715D01*
X49506238Y16994334D01*
X49411000Y17089572D01*
X49363380Y17232429D01*
X49363380Y17327667D01*
X49411000Y17470524D01*
X49458619Y17518143D01*
X49458619Y17899096D02*
X49411000Y17946715D01*
X49363380Y18041953D01*
X49363380Y18280048D01*
X49411000Y18375286D01*
X49458619Y18422905D01*
X49553857Y18470524D01*
X49649095Y18470524D01*
X49791952Y18422905D01*
X50363380Y17851477D01*
X50363380Y18470524D01*
X50363380Y18946715D02*
X50363380Y19137191D01*
X50315761Y19232429D01*
X50268142Y19280048D01*
X50125285Y19375286D01*
X49934809Y19422905D01*
X49553857Y19422905D01*
X49458619Y19375286D01*
X49411000Y19327667D01*
X49363380Y19232429D01*
X49363380Y19041953D01*
X49411000Y18946715D01*
X49458619Y18899096D01*
X49553857Y18851477D01*
X49791952Y18851477D01*
X49887190Y18899096D01*
X49934809Y18946715D01*
X49982428Y19041953D01*
X49982428Y19232429D01*
X49934809Y19327667D01*
X49887190Y19375286D01*
X49791952Y19422905D01*
G04 #@! TO.C,C28*
X48744142Y28948143D02*
X48791761Y28900524D01*
X48839380Y28757667D01*
X48839380Y28662429D01*
X48791761Y28519572D01*
X48696523Y28424334D01*
X48601285Y28376715D01*
X48410809Y28329096D01*
X48267952Y28329096D01*
X48077476Y28376715D01*
X47982238Y28424334D01*
X47887000Y28519572D01*
X47839380Y28662429D01*
X47839380Y28757667D01*
X47887000Y28900524D01*
X47934619Y28948143D01*
X47934619Y29329096D02*
X47887000Y29376715D01*
X47839380Y29471953D01*
X47839380Y29710048D01*
X47887000Y29805286D01*
X47934619Y29852905D01*
X48029857Y29900524D01*
X48125095Y29900524D01*
X48267952Y29852905D01*
X48839380Y29281477D01*
X48839380Y29900524D01*
X48267952Y30471953D02*
X48220333Y30376715D01*
X48172714Y30329096D01*
X48077476Y30281477D01*
X48029857Y30281477D01*
X47934619Y30329096D01*
X47887000Y30376715D01*
X47839380Y30471953D01*
X47839380Y30662429D01*
X47887000Y30757667D01*
X47934619Y30805286D01*
X48029857Y30852905D01*
X48077476Y30852905D01*
X48172714Y30805286D01*
X48220333Y30757667D01*
X48267952Y30662429D01*
X48267952Y30471953D01*
X48315571Y30376715D01*
X48363190Y30329096D01*
X48458428Y30281477D01*
X48648904Y30281477D01*
X48744142Y30329096D01*
X48791761Y30376715D01*
X48839380Y30471953D01*
X48839380Y30662429D01*
X48791761Y30757667D01*
X48744142Y30805286D01*
X48648904Y30852905D01*
X48458428Y30852905D01*
X48363190Y30805286D01*
X48315571Y30757667D01*
X48267952Y30662429D01*
G04 #@! TO.C,C23*
X45204142Y17041858D02*
X45156523Y16994239D01*
X45013666Y16946620D01*
X44918428Y16946620D01*
X44775571Y16994239D01*
X44680333Y17089477D01*
X44632714Y17184715D01*
X44585095Y17375191D01*
X44585095Y17518048D01*
X44632714Y17708524D01*
X44680333Y17803762D01*
X44775571Y17899000D01*
X44918428Y17946620D01*
X45013666Y17946620D01*
X45156523Y17899000D01*
X45204142Y17851381D01*
X45585095Y17851381D02*
X45632714Y17899000D01*
X45727952Y17946620D01*
X45966047Y17946620D01*
X46061285Y17899000D01*
X46108904Y17851381D01*
X46156523Y17756143D01*
X46156523Y17660905D01*
X46108904Y17518048D01*
X45537476Y16946620D01*
X46156523Y16946620D01*
X46489857Y17946620D02*
X47108904Y17946620D01*
X46775571Y17565667D01*
X46918428Y17565667D01*
X47013666Y17518048D01*
X47061285Y17470429D01*
X47108904Y17375191D01*
X47108904Y17137096D01*
X47061285Y17041858D01*
X47013666Y16994239D01*
X46918428Y16946620D01*
X46632714Y16946620D01*
X46537476Y16994239D01*
X46489857Y17041858D01*
G04 #@! TO.C,C27*
X48744142Y17518143D02*
X48791761Y17470524D01*
X48839380Y17327667D01*
X48839380Y17232429D01*
X48791761Y17089572D01*
X48696523Y16994334D01*
X48601285Y16946715D01*
X48410809Y16899096D01*
X48267952Y16899096D01*
X48077476Y16946715D01*
X47982238Y16994334D01*
X47887000Y17089572D01*
X47839380Y17232429D01*
X47839380Y17327667D01*
X47887000Y17470524D01*
X47934619Y17518143D01*
X47934619Y17899096D02*
X47887000Y17946715D01*
X47839380Y18041953D01*
X47839380Y18280048D01*
X47887000Y18375286D01*
X47934619Y18422905D01*
X48029857Y18470524D01*
X48125095Y18470524D01*
X48267952Y18422905D01*
X48839380Y17851477D01*
X48839380Y18470524D01*
X47839380Y18803858D02*
X47839380Y19470524D01*
X48839380Y19041953D01*
G04 #@! TO.C,C26*
X45585142Y28979858D02*
X45537523Y28932239D01*
X45394666Y28884620D01*
X45299428Y28884620D01*
X45156571Y28932239D01*
X45061333Y29027477D01*
X45013714Y29122715D01*
X44966095Y29313191D01*
X44966095Y29456048D01*
X45013714Y29646524D01*
X45061333Y29741762D01*
X45156571Y29837000D01*
X45299428Y29884620D01*
X45394666Y29884620D01*
X45537523Y29837000D01*
X45585142Y29789381D01*
X45966095Y29789381D02*
X46013714Y29837000D01*
X46108952Y29884620D01*
X46347047Y29884620D01*
X46442285Y29837000D01*
X46489904Y29789381D01*
X46537523Y29694143D01*
X46537523Y29598905D01*
X46489904Y29456048D01*
X45918476Y28884620D01*
X46537523Y28884620D01*
X47394666Y29884620D02*
X47204190Y29884620D01*
X47108952Y29837000D01*
X47061333Y29789381D01*
X46966095Y29646524D01*
X46918476Y29456048D01*
X46918476Y29075096D01*
X46966095Y28979858D01*
X47013714Y28932239D01*
X47108952Y28884620D01*
X47299428Y28884620D01*
X47394666Y28932239D01*
X47442285Y28979858D01*
X47489904Y29075096D01*
X47489904Y29313191D01*
X47442285Y29408429D01*
X47394666Y29456048D01*
X47299428Y29503667D01*
X47108952Y29503667D01*
X47013714Y29456048D01*
X46966095Y29408429D01*
X46918476Y29313191D01*
G04 #@! TO.C,C17*
X30052822Y35075858D02*
X30005203Y35028239D01*
X29862346Y34980620D01*
X29767108Y34980620D01*
X29624251Y35028239D01*
X29529013Y35123477D01*
X29481394Y35218715D01*
X29433775Y35409191D01*
X29433775Y35552048D01*
X29481394Y35742524D01*
X29529013Y35837762D01*
X29624251Y35933000D01*
X29767108Y35980620D01*
X29862346Y35980620D01*
X30005203Y35933000D01*
X30052822Y35885381D01*
X31005203Y34980620D02*
X30433775Y34980620D01*
X30719489Y34980620D02*
X30719489Y35980620D01*
X30624251Y35837762D01*
X30529013Y35742524D01*
X30433775Y35694905D01*
X31338537Y35980620D02*
X32005203Y35980620D01*
X31576632Y34980620D01*
G04 #@! TO.C,C16*
X35679142Y32408858D02*
X35631523Y32361239D01*
X35488666Y32313620D01*
X35393428Y32313620D01*
X35250571Y32361239D01*
X35155333Y32456477D01*
X35107714Y32551715D01*
X35060095Y32742191D01*
X35060095Y32885048D01*
X35107714Y33075524D01*
X35155333Y33170762D01*
X35250571Y33266000D01*
X35393428Y33313620D01*
X35488666Y33313620D01*
X35631523Y33266000D01*
X35679142Y33218381D01*
X36631523Y32313620D02*
X36060095Y32313620D01*
X36345809Y32313620D02*
X36345809Y33313620D01*
X36250571Y33170762D01*
X36155333Y33075524D01*
X36060095Y33027905D01*
X37488666Y33313620D02*
X37298190Y33313620D01*
X37202952Y33266000D01*
X37155333Y33218381D01*
X37060095Y33075524D01*
X37012476Y32885048D01*
X37012476Y32504096D01*
X37060095Y32408858D01*
X37107714Y32361239D01*
X37202952Y32313620D01*
X37393428Y32313620D01*
X37488666Y32361239D01*
X37536285Y32408858D01*
X37583904Y32504096D01*
X37583904Y32742191D01*
X37536285Y32837429D01*
X37488666Y32885048D01*
X37393428Y32932667D01*
X37202952Y32932667D01*
X37107714Y32885048D01*
X37060095Y32837429D01*
X37012476Y32742191D01*
G04 #@! TO.C,C19*
X41775142Y18946858D02*
X41727523Y18899239D01*
X41584666Y18851620D01*
X41489428Y18851620D01*
X41346571Y18899239D01*
X41251333Y18994477D01*
X41203714Y19089715D01*
X41156095Y19280191D01*
X41156095Y19423048D01*
X41203714Y19613524D01*
X41251333Y19708762D01*
X41346571Y19804000D01*
X41489428Y19851620D01*
X41584666Y19851620D01*
X41727523Y19804000D01*
X41775142Y19756381D01*
X42727523Y18851620D02*
X42156095Y18851620D01*
X42441809Y18851620D02*
X42441809Y19851620D01*
X42346571Y19708762D01*
X42251333Y19613524D01*
X42156095Y19565905D01*
X43203714Y18851620D02*
X43394190Y18851620D01*
X43489428Y18899239D01*
X43537047Y18946858D01*
X43632285Y19089715D01*
X43679904Y19280191D01*
X43679904Y19661143D01*
X43632285Y19756381D01*
X43584666Y19804000D01*
X43489428Y19851620D01*
X43298952Y19851620D01*
X43203714Y19804000D01*
X43156095Y19756381D01*
X43108476Y19661143D01*
X43108476Y19423048D01*
X43156095Y19327810D01*
X43203714Y19280191D01*
X43298952Y19232572D01*
X43489428Y19232572D01*
X43584666Y19280191D01*
X43632285Y19327810D01*
X43679904Y19423048D01*
G04 #@! TO.C,C15*
X26722822Y31234143D02*
X26770441Y31186524D01*
X26818060Y31043667D01*
X26818060Y30948429D01*
X26770441Y30805572D01*
X26675203Y30710334D01*
X26579965Y30662715D01*
X26389489Y30615096D01*
X26246632Y30615096D01*
X26056156Y30662715D01*
X25960918Y30710334D01*
X25865680Y30805572D01*
X25818060Y30948429D01*
X25818060Y31043667D01*
X25865680Y31186524D01*
X25913299Y31234143D01*
X26818060Y32186524D02*
X26818060Y31615096D01*
X26818060Y31900810D02*
X25818060Y31900810D01*
X25960918Y31805572D01*
X26056156Y31710334D01*
X26103775Y31615096D01*
X25818060Y33091286D02*
X25818060Y32615096D01*
X26294251Y32567477D01*
X26246632Y32615096D01*
X26199013Y32710334D01*
X26199013Y32948429D01*
X26246632Y33043667D01*
X26294251Y33091286D01*
X26389489Y33138905D01*
X26627584Y33138905D01*
X26722822Y33091286D01*
X26770441Y33043667D01*
X26818060Y32948429D01*
X26818060Y32710334D01*
X26770441Y32615096D01*
X26722822Y32567477D01*
G04 #@! TO.C,C11*
X38330142Y19550143D02*
X38377761Y19502524D01*
X38425380Y19359667D01*
X38425380Y19264429D01*
X38377761Y19121572D01*
X38282523Y19026334D01*
X38187285Y18978715D01*
X37996809Y18931096D01*
X37853952Y18931096D01*
X37663476Y18978715D01*
X37568238Y19026334D01*
X37473000Y19121572D01*
X37425380Y19264429D01*
X37425380Y19359667D01*
X37473000Y19502524D01*
X37520619Y19550143D01*
X38425380Y20502524D02*
X38425380Y19931096D01*
X38425380Y20216810D02*
X37425380Y20216810D01*
X37568238Y20121572D01*
X37663476Y20026334D01*
X37711095Y19931096D01*
X38425380Y21454905D02*
X38425380Y20883477D01*
X38425380Y21169191D02*
X37425380Y21169191D01*
X37568238Y21073953D01*
X37663476Y20978715D01*
X37711095Y20883477D01*
G04 #@! TO.C,C5*
X35647333Y16279858D02*
X35599714Y16232239D01*
X35456857Y16184620D01*
X35361619Y16184620D01*
X35218761Y16232239D01*
X35123523Y16327477D01*
X35075904Y16422715D01*
X35028285Y16613191D01*
X35028285Y16756048D01*
X35075904Y16946524D01*
X35123523Y17041762D01*
X35218761Y17137000D01*
X35361619Y17184620D01*
X35456857Y17184620D01*
X35599714Y17137000D01*
X35647333Y17089381D01*
X36552095Y17184620D02*
X36075904Y17184620D01*
X36028285Y16708429D01*
X36075904Y16756048D01*
X36171142Y16803667D01*
X36409238Y16803667D01*
X36504476Y16756048D01*
X36552095Y16708429D01*
X36599714Y16613191D01*
X36599714Y16375096D01*
X36552095Y16279858D01*
X36504476Y16232239D01*
X36409238Y16184620D01*
X36171142Y16184620D01*
X36075904Y16232239D01*
X36028285Y16279858D01*
G04 #@! TO.C,C4*
X3135333Y32154858D02*
X3087714Y32107239D01*
X2944857Y32059620D01*
X2849619Y32059620D01*
X2706761Y32107239D01*
X2611523Y32202477D01*
X2563904Y32297715D01*
X2516285Y32488191D01*
X2516285Y32631048D01*
X2563904Y32821524D01*
X2611523Y32916762D01*
X2706761Y33012000D01*
X2849619Y33059620D01*
X2944857Y33059620D01*
X3087714Y33012000D01*
X3135333Y32964381D01*
X3992476Y32726286D02*
X3992476Y32059620D01*
X3754380Y33107239D02*
X3516285Y32392953D01*
X4135333Y32392953D01*
G04 #@! TO.C,C21*
X3040142Y36345858D02*
X2992523Y36298239D01*
X2849666Y36250620D01*
X2754428Y36250620D01*
X2611571Y36298239D01*
X2516333Y36393477D01*
X2468714Y36488715D01*
X2421095Y36679191D01*
X2421095Y36822048D01*
X2468714Y37012524D01*
X2516333Y37107762D01*
X2611571Y37203000D01*
X2754428Y37250620D01*
X2849666Y37250620D01*
X2992523Y37203000D01*
X3040142Y37155381D01*
X3421095Y37155381D02*
X3468714Y37203000D01*
X3563952Y37250620D01*
X3802047Y37250620D01*
X3897285Y37203000D01*
X3944904Y37155381D01*
X3992523Y37060143D01*
X3992523Y36964905D01*
X3944904Y36822048D01*
X3373476Y36250620D01*
X3992523Y36250620D01*
X4944904Y36250620D02*
X4373476Y36250620D01*
X4659190Y36250620D02*
X4659190Y37250620D01*
X4563952Y37107762D01*
X4468714Y37012524D01*
X4373476Y36964905D01*
G04 #@! TO.C,P3*
X20597904Y44664180D02*
X20597904Y45664180D01*
X20978857Y45664180D01*
X21074095Y45616560D01*
X21121714Y45568941D01*
X21169333Y45473703D01*
X21169333Y45330846D01*
X21121714Y45235608D01*
X21074095Y45187989D01*
X20978857Y45140370D01*
X20597904Y45140370D01*
X21502666Y45664180D02*
X22121714Y45664180D01*
X21788380Y45283227D01*
X21931238Y45283227D01*
X22026476Y45235608D01*
X22074095Y45187989D01*
X22121714Y45092751D01*
X22121714Y44854656D01*
X22074095Y44759418D01*
X22026476Y44711799D01*
X21931238Y44664180D01*
X21645523Y44664180D01*
X21550285Y44711799D01*
X21502666Y44759418D01*
G04 #@! TO.C,P4*
X20597904Y42124180D02*
X20597904Y43124180D01*
X20978857Y43124180D01*
X21074095Y43076560D01*
X21121714Y43028941D01*
X21169333Y42933703D01*
X21169333Y42790846D01*
X21121714Y42695608D01*
X21074095Y42647989D01*
X20978857Y42600370D01*
X20597904Y42600370D01*
X22026476Y42790846D02*
X22026476Y42124180D01*
X21788380Y43171799D02*
X21550285Y42457513D01*
X22169333Y42457513D01*
G04 #@! TO.C,P2*
X44370380Y2817905D02*
X43370380Y2817905D01*
X43370380Y3198858D01*
X43418000Y3294096D01*
X43465619Y3341715D01*
X43560857Y3389334D01*
X43703714Y3389334D01*
X43798952Y3341715D01*
X43846571Y3294096D01*
X43894190Y3198858D01*
X43894190Y2817905D01*
X43465619Y3770286D02*
X43418000Y3817905D01*
X43370380Y3913143D01*
X43370380Y4151239D01*
X43418000Y4246477D01*
X43465619Y4294096D01*
X43560857Y4341715D01*
X43656095Y4341715D01*
X43798952Y4294096D01*
X44370380Y3722667D01*
X44370380Y4341715D01*
G04 #@! TO.C,L1*
X11017780Y28941734D02*
X11017780Y28465543D01*
X10017780Y28465543D01*
X11017780Y29798877D02*
X11017780Y29227448D01*
X11017780Y29513162D02*
X10017780Y29513162D01*
X10160638Y29417924D01*
X10255876Y29322686D01*
X10303495Y29227448D01*
G04 #@! TO.C,D3*
X3946904Y6659620D02*
X3946904Y7659620D01*
X4185000Y7659620D01*
X4327857Y7612000D01*
X4423095Y7516762D01*
X4470714Y7421524D01*
X4518333Y7231048D01*
X4518333Y7088191D01*
X4470714Y6897715D01*
X4423095Y6802477D01*
X4327857Y6707239D01*
X4185000Y6659620D01*
X3946904Y6659620D01*
X4851666Y7659620D02*
X5470714Y7659620D01*
X5137380Y7278667D01*
X5280238Y7278667D01*
X5375476Y7231048D01*
X5423095Y7183429D01*
X5470714Y7088191D01*
X5470714Y6850096D01*
X5423095Y6754858D01*
X5375476Y6707239D01*
X5280238Y6659620D01*
X4994523Y6659620D01*
X4899285Y6707239D01*
X4851666Y6754858D01*
G04 #@! TO.C,D2*
X3946904Y8183620D02*
X3946904Y9183620D01*
X4185000Y9183620D01*
X4327857Y9136000D01*
X4423095Y9040762D01*
X4470714Y8945524D01*
X4518333Y8755048D01*
X4518333Y8612191D01*
X4470714Y8421715D01*
X4423095Y8326477D01*
X4327857Y8231239D01*
X4185000Y8183620D01*
X3946904Y8183620D01*
X4899285Y9088381D02*
X4946904Y9136000D01*
X5042142Y9183620D01*
X5280238Y9183620D01*
X5375476Y9136000D01*
X5423095Y9088381D01*
X5470714Y8993143D01*
X5470714Y8897905D01*
X5423095Y8755048D01*
X4851666Y8183620D01*
X5470714Y8183620D01*
G04 #@! TO.C,D1*
X3946904Y43235620D02*
X3946904Y44235620D01*
X4185000Y44235620D01*
X4327857Y44188000D01*
X4423095Y44092762D01*
X4470714Y43997524D01*
X4518333Y43807048D01*
X4518333Y43664191D01*
X4470714Y43473715D01*
X4423095Y43378477D01*
X4327857Y43283239D01*
X4185000Y43235620D01*
X3946904Y43235620D01*
X5470714Y43235620D02*
X4899285Y43235620D01*
X5185000Y43235620D02*
X5185000Y44235620D01*
X5089761Y44092762D01*
X4994523Y43997524D01*
X4899285Y43949905D01*
G04 #@! TO.C,U1*
X13995495Y14218020D02*
X13995495Y13408496D01*
X14043114Y13313258D01*
X14090733Y13265639D01*
X14185971Y13218020D01*
X14376447Y13218020D01*
X14471685Y13265639D01*
X14519304Y13313258D01*
X14566923Y13408496D01*
X14566923Y14218020D01*
X15566923Y13218020D02*
X14995495Y13218020D01*
X15281209Y13218020D02*
X15281209Y14218020D01*
X15185971Y14075162D01*
X15090733Y13979924D01*
X14995495Y13932305D01*
G04 #@! TO.C,R9*
X42886333Y31932620D02*
X42553000Y32408810D01*
X42314904Y31932620D02*
X42314904Y32932620D01*
X42695857Y32932620D01*
X42791095Y32885000D01*
X42838714Y32837381D01*
X42886333Y32742143D01*
X42886333Y32599286D01*
X42838714Y32504048D01*
X42791095Y32456429D01*
X42695857Y32408810D01*
X42314904Y32408810D01*
X43362523Y31932620D02*
X43553000Y31932620D01*
X43648238Y31980239D01*
X43695857Y32027858D01*
X43791095Y32170715D01*
X43838714Y32361191D01*
X43838714Y32742143D01*
X43791095Y32837381D01*
X43743476Y32885000D01*
X43648238Y32932620D01*
X43457761Y32932620D01*
X43362523Y32885000D01*
X43314904Y32837381D01*
X43267285Y32742143D01*
X43267285Y32504048D01*
X43314904Y32408810D01*
X43362523Y32361191D01*
X43457761Y32313572D01*
X43648238Y32313572D01*
X43743476Y32361191D01*
X43791095Y32408810D01*
X43838714Y32504048D01*
G04 #@! TO.C,R2*
X37933333Y43743620D02*
X37600000Y44219810D01*
X37361904Y43743620D02*
X37361904Y44743620D01*
X37742857Y44743620D01*
X37838095Y44696000D01*
X37885714Y44648381D01*
X37933333Y44553143D01*
X37933333Y44410286D01*
X37885714Y44315048D01*
X37838095Y44267429D01*
X37742857Y44219810D01*
X37361904Y44219810D01*
X38314285Y44648381D02*
X38361904Y44696000D01*
X38457142Y44743620D01*
X38695238Y44743620D01*
X38790476Y44696000D01*
X38838095Y44648381D01*
X38885714Y44553143D01*
X38885714Y44457905D01*
X38838095Y44315048D01*
X38266666Y43743620D01*
X38885714Y43743620D01*
G04 #@! TO.C,R14*
X7598142Y8183620D02*
X7264809Y8659810D01*
X7026714Y8183620D02*
X7026714Y9183620D01*
X7407666Y9183620D01*
X7502904Y9136000D01*
X7550523Y9088381D01*
X7598142Y8993143D01*
X7598142Y8850286D01*
X7550523Y8755048D01*
X7502904Y8707429D01*
X7407666Y8659810D01*
X7026714Y8659810D01*
X8550523Y8183620D02*
X7979095Y8183620D01*
X8264809Y8183620D02*
X8264809Y9183620D01*
X8169571Y9040762D01*
X8074333Y8945524D01*
X7979095Y8897905D01*
X9407666Y8850286D02*
X9407666Y8183620D01*
X9169571Y9231239D02*
X8931476Y8516953D01*
X9550523Y8516953D01*
G04 #@! TO.C,R13*
X51808142Y29773620D02*
X51474809Y30249810D01*
X51236714Y29773620D02*
X51236714Y30773620D01*
X51617666Y30773620D01*
X51712904Y30726000D01*
X51760523Y30678381D01*
X51808142Y30583143D01*
X51808142Y30440286D01*
X51760523Y30345048D01*
X51712904Y30297429D01*
X51617666Y30249810D01*
X51236714Y30249810D01*
X52760523Y29773620D02*
X52189095Y29773620D01*
X52474809Y29773620D02*
X52474809Y30773620D01*
X52379571Y30630762D01*
X52284333Y30535524D01*
X52189095Y30487905D01*
X53093857Y30773620D02*
X53712904Y30773620D01*
X53379571Y30392667D01*
X53522428Y30392667D01*
X53617666Y30345048D01*
X53665285Y30297429D01*
X53712904Y30202191D01*
X53712904Y29964096D01*
X53665285Y29868858D01*
X53617666Y29821239D01*
X53522428Y29773620D01*
X53236714Y29773620D01*
X53141476Y29821239D01*
X53093857Y29868858D01*
G04 #@! TO.C,R12*
X51799382Y28376620D02*
X51466049Y28852810D01*
X51227954Y28376620D02*
X51227954Y29376620D01*
X51608906Y29376620D01*
X51704144Y29329000D01*
X51751763Y29281381D01*
X51799382Y29186143D01*
X51799382Y29043286D01*
X51751763Y28948048D01*
X51704144Y28900429D01*
X51608906Y28852810D01*
X51227954Y28852810D01*
X52751763Y28376620D02*
X52180335Y28376620D01*
X52466049Y28376620D02*
X52466049Y29376620D01*
X52370811Y29233762D01*
X52275573Y29138524D01*
X52180335Y29090905D01*
X53132716Y29281381D02*
X53180335Y29329000D01*
X53275573Y29376620D01*
X53513668Y29376620D01*
X53608906Y29329000D01*
X53656525Y29281381D01*
X53704144Y29186143D01*
X53704144Y29090905D01*
X53656525Y28948048D01*
X53085097Y28376620D01*
X53704144Y28376620D01*
G04 #@! TO.C,R11*
X51808142Y18470620D02*
X51474809Y18946810D01*
X51236714Y18470620D02*
X51236714Y19470620D01*
X51617666Y19470620D01*
X51712904Y19423000D01*
X51760523Y19375381D01*
X51808142Y19280143D01*
X51808142Y19137286D01*
X51760523Y19042048D01*
X51712904Y18994429D01*
X51617666Y18946810D01*
X51236714Y18946810D01*
X52760523Y18470620D02*
X52189095Y18470620D01*
X52474809Y18470620D02*
X52474809Y19470620D01*
X52379571Y19327762D01*
X52284333Y19232524D01*
X52189095Y19184905D01*
X53712904Y18470620D02*
X53141476Y18470620D01*
X53427190Y18470620D02*
X53427190Y19470620D01*
X53331952Y19327762D01*
X53236714Y19232524D01*
X53141476Y19184905D01*
G04 #@! TO.C,R10*
X51808142Y16946620D02*
X51474809Y17422810D01*
X51236714Y16946620D02*
X51236714Y17946620D01*
X51617666Y17946620D01*
X51712904Y17899000D01*
X51760523Y17851381D01*
X51808142Y17756143D01*
X51808142Y17613286D01*
X51760523Y17518048D01*
X51712904Y17470429D01*
X51617666Y17422810D01*
X51236714Y17422810D01*
X52760523Y16946620D02*
X52189095Y16946620D01*
X52474809Y16946620D02*
X52474809Y17946620D01*
X52379571Y17803762D01*
X52284333Y17708524D01*
X52189095Y17660905D01*
X53379571Y17946620D02*
X53474809Y17946620D01*
X53570047Y17899000D01*
X53617666Y17851381D01*
X53665285Y17756143D01*
X53712904Y17565667D01*
X53712904Y17327572D01*
X53665285Y17137096D01*
X53617666Y17041858D01*
X53570047Y16994239D01*
X53474809Y16946620D01*
X53379571Y16946620D01*
X53284333Y16994239D01*
X53236714Y17041858D01*
X53189095Y17137096D01*
X53141476Y17327572D01*
X53141476Y17565667D01*
X53189095Y17756143D01*
X53236714Y17851381D01*
X53284333Y17899000D01*
X53379571Y17946620D01*
G04 #@! TO.C,R8*
X35647333Y33837620D02*
X35314000Y34313810D01*
X35075904Y33837620D02*
X35075904Y34837620D01*
X35456857Y34837620D01*
X35552095Y34790000D01*
X35599714Y34742381D01*
X35647333Y34647143D01*
X35647333Y34504286D01*
X35599714Y34409048D01*
X35552095Y34361429D01*
X35456857Y34313810D01*
X35075904Y34313810D01*
X36218761Y34409048D02*
X36123523Y34456667D01*
X36075904Y34504286D01*
X36028285Y34599524D01*
X36028285Y34647143D01*
X36075904Y34742381D01*
X36123523Y34790000D01*
X36218761Y34837620D01*
X36409238Y34837620D01*
X36504476Y34790000D01*
X36552095Y34742381D01*
X36599714Y34647143D01*
X36599714Y34599524D01*
X36552095Y34504286D01*
X36504476Y34456667D01*
X36409238Y34409048D01*
X36218761Y34409048D01*
X36123523Y34361429D01*
X36075904Y34313810D01*
X36028285Y34218572D01*
X36028285Y34028096D01*
X36075904Y33932858D01*
X36123523Y33885239D01*
X36218761Y33837620D01*
X36409238Y33837620D01*
X36504476Y33885239D01*
X36552095Y33932858D01*
X36599714Y34028096D01*
X36599714Y34218572D01*
X36552095Y34313810D01*
X36504476Y34361429D01*
X36409238Y34409048D01*
G04 #@! TO.C,R7*
X8074333Y6659620D02*
X7741000Y7135810D01*
X7502904Y6659620D02*
X7502904Y7659620D01*
X7883857Y7659620D01*
X7979095Y7612000D01*
X8026714Y7564381D01*
X8074333Y7469143D01*
X8074333Y7326286D01*
X8026714Y7231048D01*
X7979095Y7183429D01*
X7883857Y7135810D01*
X7502904Y7135810D01*
X8407666Y7659620D02*
X9074333Y7659620D01*
X8645761Y6659620D01*
G04 #@! TO.C,R6*
X7961333Y43235620D02*
X7628000Y43711810D01*
X7389904Y43235620D02*
X7389904Y44235620D01*
X7770857Y44235620D01*
X7866095Y44188000D01*
X7913714Y44140381D01*
X7961333Y44045143D01*
X7961333Y43902286D01*
X7913714Y43807048D01*
X7866095Y43759429D01*
X7770857Y43711810D01*
X7389904Y43711810D01*
X8818476Y44235620D02*
X8628000Y44235620D01*
X8532761Y44188000D01*
X8485142Y44140381D01*
X8389904Y43997524D01*
X8342285Y43807048D01*
X8342285Y43426096D01*
X8389904Y43330858D01*
X8437523Y43283239D01*
X8532761Y43235620D01*
X8723238Y43235620D01*
X8818476Y43283239D01*
X8866095Y43330858D01*
X8913714Y43426096D01*
X8913714Y43664191D01*
X8866095Y43759429D01*
X8818476Y43807048D01*
X8723238Y43854667D01*
X8532761Y43854667D01*
X8437523Y43807048D01*
X8389904Y43759429D01*
X8342285Y43664191D01*
G04 #@! TO.C,R5*
X22326333Y9039620D02*
X21993000Y9515810D01*
X21754904Y9039620D02*
X21754904Y10039620D01*
X22135857Y10039620D01*
X22231095Y9992000D01*
X22278714Y9944381D01*
X22326333Y9849143D01*
X22326333Y9706286D01*
X22278714Y9611048D01*
X22231095Y9563429D01*
X22135857Y9515810D01*
X21754904Y9515810D01*
X23231095Y10039620D02*
X22754904Y10039620D01*
X22707285Y9563429D01*
X22754904Y9611048D01*
X22850142Y9658667D01*
X23088238Y9658667D01*
X23183476Y9611048D01*
X23231095Y9563429D01*
X23278714Y9468191D01*
X23278714Y9230096D01*
X23231095Y9134858D01*
X23183476Y9087239D01*
X23088238Y9039620D01*
X22850142Y9039620D01*
X22754904Y9087239D01*
X22707285Y9134858D01*
G04 #@! TO.C,R4*
X14422380Y25868334D02*
X13946190Y25535000D01*
X14422380Y25296905D02*
X13422380Y25296905D01*
X13422380Y25677858D01*
X13470000Y25773096D01*
X13517619Y25820715D01*
X13612857Y25868334D01*
X13755714Y25868334D01*
X13850952Y25820715D01*
X13898571Y25773096D01*
X13946190Y25677858D01*
X13946190Y25296905D01*
X13755714Y26725477D02*
X14422380Y26725477D01*
X13374761Y26487381D02*
X14089047Y26249286D01*
X14089047Y26868334D01*
G04 #@! TO.C,R3*
X16200380Y24979334D02*
X15724190Y24646000D01*
X16200380Y24407905D02*
X15200380Y24407905D01*
X15200380Y24788858D01*
X15248000Y24884096D01*
X15295619Y24931715D01*
X15390857Y24979334D01*
X15533714Y24979334D01*
X15628952Y24931715D01*
X15676571Y24884096D01*
X15724190Y24788858D01*
X15724190Y24407905D01*
X15200380Y25312667D02*
X15200380Y25931715D01*
X15581333Y25598381D01*
X15581333Y25741239D01*
X15628952Y25836477D01*
X15676571Y25884096D01*
X15771809Y25931715D01*
X16009904Y25931715D01*
X16105142Y25884096D01*
X16152761Y25836477D01*
X16200380Y25741239D01*
X16200380Y25455524D01*
X16152761Y25360286D01*
X16105142Y25312667D01*
G04 #@! TO.C,R1*
X37933333Y45267620D02*
X37600000Y45743810D01*
X37361904Y45267620D02*
X37361904Y46267620D01*
X37742857Y46267620D01*
X37838095Y46220000D01*
X37885714Y46172381D01*
X37933333Y46077143D01*
X37933333Y45934286D01*
X37885714Y45839048D01*
X37838095Y45791429D01*
X37742857Y45743810D01*
X37361904Y45743810D01*
X38885714Y45267620D02*
X38314285Y45267620D01*
X38600000Y45267620D02*
X38600000Y46267620D01*
X38504761Y46124762D01*
X38409523Y46029524D01*
X38314285Y45981905D01*
G04 #@! TO.C,H1*
X13245095Y40949620D02*
X13245095Y41949620D01*
X13245095Y41473429D02*
X13816523Y41473429D01*
X13816523Y40949620D02*
X13816523Y41949620D01*
X14816523Y40949620D02*
X14245095Y40949620D01*
X14530809Y40949620D02*
X14530809Y41949620D01*
X14435571Y41806762D01*
X14340333Y41711524D01*
X14245095Y41663905D01*
G04 #@! TO.C,H2*
X13245095Y6405620D02*
X13245095Y7405620D01*
X13245095Y6929429D02*
X13816523Y6929429D01*
X13816523Y6405620D02*
X13816523Y7405620D01*
X14245095Y7310381D02*
X14292714Y7358000D01*
X14387952Y7405620D01*
X14626047Y7405620D01*
X14721285Y7358000D01*
X14768904Y7310381D01*
X14816523Y7215143D01*
X14816523Y7119905D01*
X14768904Y6977048D01*
X14197476Y6405620D01*
X14816523Y6405620D01*
G04 #@! TO.C,L3*
X44664333Y24312620D02*
X44188142Y24312620D01*
X44188142Y25312620D01*
X44902428Y25312620D02*
X45521476Y25312620D01*
X45188142Y24931667D01*
X45331000Y24931667D01*
X45426238Y24884048D01*
X45473857Y24836429D01*
X45521476Y24741191D01*
X45521476Y24503096D01*
X45473857Y24407858D01*
X45426238Y24360239D01*
X45331000Y24312620D01*
X45045285Y24312620D01*
X44950047Y24360239D01*
X44902428Y24407858D01*
G04 #@! TO.C,U4*
X6056380Y23622096D02*
X6865904Y23622096D01*
X6961142Y23669715D01*
X7008761Y23717334D01*
X7056380Y23812572D01*
X7056380Y24003048D01*
X7008761Y24098286D01*
X6961142Y24145905D01*
X6865904Y24193524D01*
X6056380Y24193524D01*
X6389714Y25098286D02*
X7056380Y25098286D01*
X6008761Y24860191D02*
X6723047Y24622096D01*
X6723047Y25241143D01*
G04 #@! TO.C,P1*
X2484380Y18311905D02*
X1484380Y18311905D01*
X1484380Y18692858D01*
X1532000Y18788096D01*
X1579619Y18835715D01*
X1674857Y18883334D01*
X1817714Y18883334D01*
X1912952Y18835715D01*
X1960571Y18788096D01*
X2008190Y18692858D01*
X2008190Y18311905D01*
X2484380Y19835715D02*
X2484380Y19264286D01*
X2484380Y19550000D02*
X1484380Y19550000D01*
X1627238Y19454762D01*
X1722476Y19359524D01*
X1770095Y19264286D01*
G04 #@! TO.C,U3*
X13549380Y34925096D02*
X14358904Y34925096D01*
X14454142Y34972715D01*
X14501761Y35020334D01*
X14549380Y35115572D01*
X14549380Y35306048D01*
X14501761Y35401286D01*
X14454142Y35448905D01*
X14358904Y35496524D01*
X13549380Y35496524D01*
X13549380Y35877477D02*
X13549380Y36496524D01*
X13930333Y36163191D01*
X13930333Y36306048D01*
X13977952Y36401286D01*
X14025571Y36448905D01*
X14120809Y36496524D01*
X14358904Y36496524D01*
X14454142Y36448905D01*
X14501761Y36401286D01*
X14549380Y36306048D01*
X14549380Y36020334D01*
X14501761Y35925096D01*
X14454142Y35877477D01*
G04 #@! TO.C,Y1*
X30209489Y29256570D02*
X30209489Y28780380D01*
X29876156Y29780380D02*
X30209489Y29256570D01*
X30542822Y29780380D01*
X31399965Y28780380D02*
X30828537Y28780380D01*
X31114251Y28780380D02*
X31114251Y29780380D01*
X31019013Y29637522D01*
X30923775Y29542284D01*
X30828537Y29494665D01*
G04 #@! TO.C,U2*
X23876095Y20232620D02*
X23876095Y19423096D01*
X23923714Y19327858D01*
X23971333Y19280239D01*
X24066571Y19232620D01*
X24257047Y19232620D01*
X24352285Y19280239D01*
X24399904Y19327858D01*
X24447523Y19423096D01*
X24447523Y20232620D01*
X24876095Y20137381D02*
X24923714Y20185000D01*
X25018952Y20232620D01*
X25257047Y20232620D01*
X25352285Y20185000D01*
X25399904Y20137381D01*
X25447523Y20042143D01*
X25447523Y19946905D01*
X25399904Y19804048D01*
X24828476Y19232620D01*
X25447523Y19232620D01*
G04 #@! TD*
M02*
