M48
;DRILL file {KiCad 5.0.1-33cea8e~68~ubuntu18.04.1} date ned 09 dec 2018 10:12:56 CET
;FORMAT={-:-/ absolute / metric / decimal}
FMAT,2
METRIC,TZ
T1C0.300
T2C0.650
T3C0.700
T4C1.000
%
G90
G05
M71
T1
X1.016Y42.926
X1.016Y38.862
X1.016Y34.798
X1.016Y31.242
X1.016Y19.05
X1.016Y16.002
X1.016Y12.7
X1.016Y9.398
X1.016Y6.096
X1.778Y45.72
X1.778Y1.778
X3.048Y9.906
X3.81Y47.244
X5.08Y32.614
X5.08Y1.016
X5.283Y36.728
X5.334Y34.569
X5.563Y38.608
X6.35Y22.86
X6.35Y22.047
X6.35Y21.082
X6.35Y7.366
X6.655Y40.157
X6.96Y30.886
X7.112Y27.178
X7.366Y21.946
X7.366Y21.082
X7.366Y13.97
X7.874Y10.668
X8.128Y47.244
X8.28Y40.132
X8.915Y21.971
X8.992Y20.955
X9.359Y15.533
X9.652Y1.016
X10.16Y42.164
X10.16Y31.242
X10.414Y43.942
X10.414Y9.144
X10.668Y39.878
X10.744Y27.356
X10.77Y21.539
X11.176Y10.668
X11.76Y33.35
X12.217Y20.32
X12.268Y28.727
X12.344Y32.487
X12.446Y47.244
X13.106Y33.274
X13.462Y18.034
X13.462Y17.272
X13.462Y16.51
X13.665Y27.356
X13.716Y39.624
X13.818Y32.512
X14.224Y19.304
X14.478Y1.016
X14.732Y20.32
X15.011Y36.068
X15.011Y32.588
X15.24Y12.7
X15.494Y30.48
X15.494Y9.398
X15.748Y17.78
X16.002Y38.354
X17.018Y33.02
X17.272Y47.244
X17.272Y21.59
X17.526Y20.32
X17.78Y27.432
X18.034Y23.114
X18.034Y10.414
X18.542Y19.812
X18.796Y17.78
X19.05Y14.732
X19.05Y13.716
X19.05Y12.446
X19.304Y21.082
X19.304Y1.016
X20.574Y30.226
X20.574Y8.382
X21.082Y23.114
X21.082Y22.098
X21.082Y20.066
X21.082Y19.304
X21.336Y24.13
X21.336Y12.446
X21.59Y40.132
X21.59Y17.526
X22.352Y26.873
X22.606Y47.244
X22.606Y17.526
X22.86Y9.398
X23.368Y39.878
X23.368Y16.002
X23.368Y12.446
X23.622Y35.814
X23.876Y30.48
X23.876Y7.62
X24.028Y28.321
X24.13Y1.016
X24.638Y10.922
X25.476Y27.343
X25.654Y14.732
X26.162Y13.716
X26.34Y39.853
X26.619Y32.766
X26.645Y30.81
X26.67Y6.604
X26.797Y28.143
X26.924Y35.052
X27.178Y18.796
X27.356Y25.425
X27.356Y22.606
X27.432Y47.244
X28.194Y10.922
X28.27Y33.985
X28.423Y29.464
X28.448Y15.748
X28.766Y24.009
X28.956Y1.016
X29.108Y16.256
X29.134Y14.986
X29.718Y10.414
X29.82Y35.319
X30.169Y22.606
X30.175Y25.425
X30.988Y12.192
X31.636Y28.689
X32.004Y8.89
X32.266Y20.243
X32.474Y14.427
X33.02Y22.314
X33.045Y21.196
X33.218Y30.759
X33.274Y41.656
X33.274Y33.782
X33.528Y37.084
X33.782Y1.016
X34.074Y15.697
X34.557Y17.399
X34.684Y19.113
X34.716Y27.803
X34.716Y20.583
X34.732Y32.644
X34.747Y42.723
X34.773Y47.32
X35.814Y35.814
X35.941Y28.067
X36.068Y13.97
X36.449Y45.06
X36.576Y24.003
X36.576Y22.987
X36.83Y20.574
X37.084Y28.067
X37.084Y17.018
X37.846Y1.016
X37.973Y29.337
X38.481Y26.416
X38.862Y33.782
X39.04Y24.079
X39.37Y47.244
X40.132Y20.828
X40.386Y27.178
X41.402Y1.016
X41.529Y28.321
X41.656Y24.13
X41.656Y19.304
X42.418Y33.782
X43.942Y47.244
X44.196Y18.796
X44.958Y1.016
X45.974Y32.512
X47.625Y24.003
X48.387Y24.003
X48.514Y1.016
X48.768Y47.244
X48.768Y32.258
X49.022Y28.194
X49.149Y24.003
X49.276Y19.812
X49.911Y24.003
X50.673Y24.003
X51.308Y32.512
X52.324Y27.94
X52.324Y20.066
X52.578Y47.244
X52.578Y43.942
X52.578Y41.148
X52.578Y38.862
X52.578Y34.798
X52.578Y31.496
X52.832Y16.256
X52.832Y13.208
X52.832Y10.414
X52.832Y7.62
X52.832Y4.572
X52.832Y1.016
X55.88Y25.4
X57.15Y22.86
X58.42Y25.4
X59.69Y22.86
X60.96Y24.13
X82.55Y25.4
X83.82Y22.86
X85.09Y25.4
X86.36Y22.86
X87.63Y25.4
X88.9Y22.86
T4
X24.726Y42.577
X27.266Y42.577
X29.806Y42.577
X24.726Y45.117
X27.266Y45.117
X29.806Y45.117
X20.828Y3.556
X23.368Y3.556
X25.908Y3.556
X28.448Y3.556
X30.988Y3.556
X33.528Y3.556
X36.068Y3.556
X38.608Y3.556
X41.148Y3.556
T2
X4.53Y26.575G85X4.93Y26.575
G05
X4.53Y21.735G85X4.93Y21.735
G05
T3
X1.48Y26.885G85X1.98Y26.885
G05
X1.48Y21.425G85X1.98Y21.425
G05
T0
M30
