G04 #@! TF.GenerationSoftware,KiCad,Pcbnew,5.0.1-33cea8e~68~ubuntu18.04.1*
G04 #@! TF.CreationDate,2018-12-09T10:12:36+01:00*
G04 #@! TF.ProjectId,NFC_adapter,4E46435F616461707465722E6B696361,rev?*
G04 #@! TF.SameCoordinates,PX6239c08PY7b26c20*
G04 #@! TF.FileFunction,Copper,L2,Bot,Signal*
G04 #@! TF.FilePolarity,Positive*
%FSLAX46Y46*%
G04 Gerber Fmt 4.6, Leading zero omitted, Abs format (unit mm)*
G04 Created by KiCad (PCBNEW 5.0.1-33cea8e~68~ubuntu18.04.1) date ned 09 dec 2018 10:12:36 CET*
%MOMM*%
%LPD*%
G01*
G04 APERTURE LIST*
G04 #@! TA.AperFunction,ComponentPad*
%ADD10O,1.700000X1.700000*%
G04 #@! TD*
G04 #@! TA.AperFunction,ComponentPad*
%ADD11R,1.700000X1.700000*%
G04 #@! TD*
G04 #@! TA.AperFunction,ComponentPad*
%ADD12O,1.500000X1.100000*%
G04 #@! TD*
G04 #@! TA.AperFunction,ComponentPad*
%ADD13O,1.700000X1.350000*%
G04 #@! TD*
G04 #@! TA.AperFunction,ViaPad*
%ADD14C,0.600000*%
G04 #@! TD*
G04 #@! TA.AperFunction,Conductor*
%ADD15C,0.400000*%
G04 #@! TD*
G04 #@! TA.AperFunction,Conductor*
%ADD16C,0.280000*%
G04 #@! TD*
G04 #@! TA.AperFunction,Conductor*
%ADD17C,1.000000*%
G04 #@! TD*
G04 #@! TA.AperFunction,Conductor*
%ADD18C,0.500000*%
G04 #@! TD*
G04 #@! TA.AperFunction,Conductor*
%ADD19C,0.300000*%
G04 #@! TD*
G04 #@! TA.AperFunction,Conductor*
%ADD20C,0.200000*%
G04 #@! TD*
G04 APERTURE END LIST*
D10*
G04 #@! TO.P,P3,3*
G04 #@! TO.N,VCC*
X29805840Y45116560D03*
G04 #@! TO.P,P3,2*
G04 #@! TO.N,/I0*
X27265840Y45116560D03*
D11*
G04 #@! TO.P,P3,1*
G04 #@! TO.N,GND*
X24725840Y45116560D03*
G04 #@! TD*
G04 #@! TO.P,P4,1*
G04 #@! TO.N,GND*
X24725840Y42576560D03*
D10*
G04 #@! TO.P,P4,2*
G04 #@! TO.N,/I1*
X27265840Y42576560D03*
G04 #@! TO.P,P4,3*
G04 #@! TO.N,VCC*
X29805840Y42576560D03*
G04 #@! TD*
D11*
G04 #@! TO.P,P2,1*
G04 #@! TO.N,GND*
X41148000Y3556000D03*
D10*
G04 #@! TO.P,P2,2*
G04 #@! TO.N,/SCK*
X38608000Y3556000D03*
G04 #@! TO.P,P2,3*
G04 #@! TO.N,/MISO*
X36068000Y3556000D03*
G04 #@! TO.P,P2,4*
G04 #@! TO.N,/MOSI*
X33528000Y3556000D03*
G04 #@! TO.P,P2,5*
G04 #@! TO.N,/NSS*
X30988000Y3556000D03*
G04 #@! TO.P,P2,6*
G04 #@! TO.N,/IRQ*
X28448000Y3556000D03*
G04 #@! TO.P,P2,7*
G04 #@! TO.N,/~RSTPDN~*
X25908000Y3556000D03*
G04 #@! TO.P,P2,8*
G04 #@! TO.N,+3V3*
X23368000Y3556000D03*
G04 #@! TO.P,P2,9*
G04 #@! TO.N,+5V*
X20828000Y3556000D03*
G04 #@! TD*
D12*
G04 #@! TO.P,P1,6*
G04 #@! TO.N,Net-(P1-Pad6)*
X4729800Y26575000D03*
X4729800Y21735000D03*
D13*
X1729800Y26885000D03*
X1729800Y21425000D03*
G04 #@! TD*
D14*
G04 #@! TO.N,GND*
X27355800Y25425400D03*
X27355800Y22606000D03*
X30175200Y25425400D03*
X13462000Y16510000D03*
X13462000Y17272000D03*
X13462000Y18034000D03*
X18796000Y17780000D03*
X18542000Y19812000D03*
X17526000Y20320000D03*
X31635700Y28689300D03*
X29819600Y35318700D03*
X28270200Y33985200D03*
X25476200Y27343100D03*
X28765680Y24009160D03*
X30168840Y22606000D03*
X33020000Y22313900D03*
X33045400Y21196300D03*
X34683700Y19113500D03*
X34556700Y17399000D03*
X34074100Y15697200D03*
X32473900Y14427200D03*
X29133800Y14986000D03*
X33218189Y30759399D03*
X36576000Y24003000D03*
X36576000Y22987000D03*
X35941000Y28067000D03*
X37084000Y28067000D03*
X37973000Y29337000D03*
X40386000Y27178000D03*
X41529000Y28321000D03*
X50673000Y24003000D03*
X49911000Y24003000D03*
X49149000Y24003000D03*
X48387000Y24003000D03*
X47625000Y24003000D03*
X26797000Y28143200D03*
X28422600Y29464000D03*
X26644600Y30810200D03*
X26619200Y32766000D03*
X39039800Y24079200D03*
X11760200Y33350200D03*
X12344400Y32486600D03*
X13106400Y33274000D03*
X13817600Y32512000D03*
X15011400Y32588200D03*
X15011400Y36068000D03*
X8280400Y40132000D03*
X6654800Y40157400D03*
X5562600Y38608000D03*
X5283200Y36728400D03*
X5334000Y34569400D03*
X5080000Y32613600D03*
X6959600Y30886400D03*
X6350000Y22860000D03*
X6350000Y22047200D03*
X6350000Y21082000D03*
X8915400Y21971000D03*
X7366000Y21945600D03*
X7366000Y21082000D03*
X8991600Y20955000D03*
X12217400Y20320000D03*
X10769600Y21539200D03*
X12268200Y28727400D03*
X10744200Y27355800D03*
X13665200Y27355800D03*
X24028400Y28321000D03*
X22352000Y26873200D03*
X34747200Y42722800D03*
X36449000Y45059600D03*
X34772600Y47320200D03*
X29108400Y16256000D03*
X28448000Y15748000D03*
X16002000Y38354000D03*
X13716000Y39624000D03*
X10668000Y39878000D03*
X10160000Y42164000D03*
X10414000Y43942000D03*
X15748000Y17780000D03*
X14224000Y19304000D03*
X14732000Y20320000D03*
X17272000Y21590000D03*
X6350000Y7366000D03*
X7874000Y10668000D03*
X23368000Y16002000D03*
X21590000Y17526000D03*
X22606000Y17526000D03*
X21336000Y12446000D03*
X23368000Y12446000D03*
X19050000Y12446000D03*
X15240000Y12700000D03*
X10414000Y9144000D03*
X15494000Y9398000D03*
X18034000Y10414000D03*
X20574000Y8382000D03*
X22860000Y9398000D03*
X23876000Y7620000D03*
X26670000Y6604000D03*
X29718000Y10414000D03*
X1778000Y1778000D03*
X1016000Y19050000D03*
X1016000Y16002000D03*
X1016000Y9398000D03*
X1016000Y31242000D03*
X1016000Y34798000D03*
X1016000Y38862000D03*
X1016000Y42926000D03*
X1778000Y45720000D03*
X3810000Y47244000D03*
X1016000Y12700000D03*
X1016000Y6096000D03*
X21336000Y24130000D03*
X20574000Y30226000D03*
X18034000Y23114000D03*
X17780000Y27432000D03*
X15494000Y30480000D03*
X17018000Y33020000D03*
X23876000Y30480000D03*
X23622000Y35814000D03*
X21590000Y40132000D03*
X26924000Y35052000D03*
X33528000Y37084000D03*
X33274000Y33782000D03*
X33274000Y41656000D03*
X35814000Y35814000D03*
X38862000Y33782000D03*
X42418000Y33782000D03*
X45974000Y32512000D03*
X48768000Y32258000D03*
X51308000Y32512000D03*
X52324000Y27940000D03*
X49022000Y28194000D03*
X52324000Y20066000D03*
X49276000Y19812000D03*
X44196000Y18796000D03*
X40132000Y20828000D03*
X41656000Y24130000D03*
X41656000Y19304000D03*
X52832000Y16256000D03*
X52832000Y13208000D03*
X52832000Y10414000D03*
X52832000Y7620000D03*
X52832000Y4572000D03*
X52832000Y1016000D03*
X48514000Y1016000D03*
X44958000Y1016000D03*
X41402000Y1016000D03*
X37846000Y1016000D03*
X33782000Y1016000D03*
X28956000Y1016000D03*
X24130000Y1016000D03*
X19304000Y1016000D03*
X14478000Y1016000D03*
X9652000Y1016000D03*
X5080000Y1016000D03*
X8128000Y47244000D03*
X12446000Y47244000D03*
X17272000Y47244000D03*
X22606000Y47244000D03*
X27432000Y47244000D03*
X39370000Y47244000D03*
X43942000Y47244000D03*
X48768000Y47244000D03*
X52578000Y47244000D03*
X52578000Y43942000D03*
X52578000Y41148000D03*
X52578000Y38862000D03*
X52578000Y34798000D03*
X52578000Y31496000D03*
X36830000Y20574000D03*
X37084000Y17018000D03*
X36068000Y13970000D03*
X30988000Y12192000D03*
X32004000Y8890000D03*
X7366000Y13970000D03*
X3048000Y9906000D03*
X7112000Y27178000D03*
X10160000Y31242000D03*
X27178000Y18796000D03*
X21082000Y20066000D03*
X21082000Y19304000D03*
X21082000Y22098000D03*
X21082000Y23114000D03*
G04 #@! TO.N,+5V*
X9358600Y15533400D03*
X19304000Y21082000D03*
X32265680Y20242760D03*
X11176000Y10668000D03*
G04 #@! TO.N,VCC*
X34715680Y27802760D03*
X34731919Y32644010D03*
X34715680Y20582760D03*
X38481000Y26416000D03*
G04 #@! TO.N,/MOSI*
X19050000Y13716000D03*
X26162000Y13716000D03*
G04 #@! TO.N,/NSS*
X19050000Y14732000D03*
X25654000Y14732000D03*
G04 #@! TO.N,/~RSTPDN~*
X24638000Y10922000D03*
X28194000Y10922000D03*
G04 #@! TO.N,/I1*
X26339800Y39852600D03*
X23368000Y39878000D03*
G04 #@! TO.N,Net-(R10-Pad2)*
X88900000Y22860000D03*
X87630000Y25400000D03*
X55880000Y25400000D03*
X57150000Y22860000D03*
X86360000Y22860000D03*
X85090000Y25400000D03*
X58420000Y25400000D03*
X59690000Y22860000D03*
X83820000Y22860000D03*
X82550000Y25400000D03*
X60960000Y24130000D03*
G04 #@! TD*
D15*
G04 #@! TO.N,+5V*
X31426440Y21082000D02*
X19304000Y21082000D01*
X32265680Y20242760D02*
X31426440Y21082000D01*
X19304000Y19558000D02*
X19304000Y21082000D01*
X16256000Y16510000D02*
X19304000Y19558000D01*
X15240000Y16510000D02*
X16256000Y16510000D01*
X9358600Y15533400D02*
X14263400Y15533400D01*
X14263400Y15533400D02*
X15240000Y16510000D01*
D16*
X11176000Y10668000D02*
X9358600Y12485400D01*
X9358600Y12485400D02*
X9358600Y15533400D01*
D17*
G04 #@! TO.N,VCC*
X29805840Y45116560D02*
X29805840Y42576560D01*
D16*
X34715680Y32627771D02*
X34731919Y32644010D01*
X34715680Y27802760D02*
X34715680Y32627771D01*
D18*
X34715680Y20582760D02*
X34715680Y23882760D01*
X34715680Y27802760D02*
X34715680Y26416000D01*
X38056736Y26416000D02*
X34715680Y26416000D01*
X38481000Y26416000D02*
X38056736Y26416000D01*
X34715680Y26416000D02*
X34715680Y23882760D01*
D16*
G04 #@! TO.N,/MOSI*
X26162000Y13716000D02*
X19050000Y13716000D01*
G04 #@! TO.N,/NSS*
X25654000Y14732000D02*
X24638000Y14732000D01*
X24638000Y14732000D02*
X19050000Y14732000D01*
G04 #@! TO.N,/~RSTPDN~*
X28194000Y10922000D02*
X24638000Y10922000D01*
D19*
G04 #@! TO.N,/I1*
X23368000Y39878000D02*
X23393400Y39852600D01*
X23393400Y39852600D02*
X26339800Y39852600D01*
D18*
G04 #@! TO.N,Net-(R10-Pad2)*
X88900000Y22860000D02*
X87630000Y25400000D01*
X55880000Y25400000D02*
X57150000Y22860000D01*
X86360000Y22860000D02*
X85090000Y25400000D01*
X58420000Y25400000D02*
X59690000Y22860000D01*
X83820000Y22860000D02*
X82550000Y25400000D01*
G04 #@! TD*
D20*
G04 #@! TO.N,GND*
G36*
X53240000Y475000D02*
X3833231Y475000D01*
X3162673Y540749D01*
X2539997Y728746D01*
X1965701Y1034104D01*
X1461649Y1445199D01*
X1047049Y1946364D01*
X737685Y2518520D01*
X545348Y3139861D01*
X475006Y3809124D01*
X475000Y3810803D01*
X475000Y4021757D01*
X11857000Y4021757D01*
X11857000Y3598243D01*
X11939623Y3182868D01*
X12101695Y2791593D01*
X12336986Y2439455D01*
X12636455Y2139986D01*
X12988593Y1904695D01*
X13379868Y1742623D01*
X13795243Y1660000D01*
X14218757Y1660000D01*
X14634132Y1742623D01*
X15025407Y1904695D01*
X15377545Y2139986D01*
X15677014Y2439455D01*
X15912305Y2791593D01*
X16074377Y3182868D01*
X16148597Y3556000D01*
X19571952Y3556000D01*
X19596087Y3310957D01*
X19667563Y3075331D01*
X19783634Y2858177D01*
X19939840Y2667840D01*
X20130177Y2511634D01*
X20347331Y2395563D01*
X20582957Y2324087D01*
X20766595Y2306000D01*
X20889405Y2306000D01*
X21073043Y2324087D01*
X21308669Y2395563D01*
X21525823Y2511634D01*
X21716160Y2667840D01*
X21872366Y2858177D01*
X21988437Y3075331D01*
X22059913Y3310957D01*
X22084048Y3556000D01*
X22111952Y3556000D01*
X22136087Y3310957D01*
X22207563Y3075331D01*
X22323634Y2858177D01*
X22479840Y2667840D01*
X22670177Y2511634D01*
X22887331Y2395563D01*
X23122957Y2324087D01*
X23306595Y2306000D01*
X23429405Y2306000D01*
X23613043Y2324087D01*
X23848669Y2395563D01*
X24065823Y2511634D01*
X24256160Y2667840D01*
X24412366Y2858177D01*
X24528437Y3075331D01*
X24599913Y3310957D01*
X24624048Y3556000D01*
X24651952Y3556000D01*
X24676087Y3310957D01*
X24747563Y3075331D01*
X24863634Y2858177D01*
X25019840Y2667840D01*
X25210177Y2511634D01*
X25427331Y2395563D01*
X25662957Y2324087D01*
X25846595Y2306000D01*
X25969405Y2306000D01*
X26153043Y2324087D01*
X26388669Y2395563D01*
X26605823Y2511634D01*
X26796160Y2667840D01*
X26952366Y2858177D01*
X27068437Y3075331D01*
X27139913Y3310957D01*
X27164048Y3556000D01*
X27191952Y3556000D01*
X27216087Y3310957D01*
X27287563Y3075331D01*
X27403634Y2858177D01*
X27559840Y2667840D01*
X27750177Y2511634D01*
X27967331Y2395563D01*
X28202957Y2324087D01*
X28386595Y2306000D01*
X28509405Y2306000D01*
X28693043Y2324087D01*
X28928669Y2395563D01*
X29145823Y2511634D01*
X29336160Y2667840D01*
X29492366Y2858177D01*
X29608437Y3075331D01*
X29679913Y3310957D01*
X29704048Y3556000D01*
X29731952Y3556000D01*
X29756087Y3310957D01*
X29827563Y3075331D01*
X29943634Y2858177D01*
X30099840Y2667840D01*
X30290177Y2511634D01*
X30507331Y2395563D01*
X30742957Y2324087D01*
X30926595Y2306000D01*
X31049405Y2306000D01*
X31233043Y2324087D01*
X31468669Y2395563D01*
X31685823Y2511634D01*
X31876160Y2667840D01*
X32032366Y2858177D01*
X32148437Y3075331D01*
X32219913Y3310957D01*
X32244048Y3556000D01*
X32271952Y3556000D01*
X32296087Y3310957D01*
X32367563Y3075331D01*
X32483634Y2858177D01*
X32639840Y2667840D01*
X32830177Y2511634D01*
X33047331Y2395563D01*
X33282957Y2324087D01*
X33466595Y2306000D01*
X33589405Y2306000D01*
X33773043Y2324087D01*
X34008669Y2395563D01*
X34225823Y2511634D01*
X34416160Y2667840D01*
X34572366Y2858177D01*
X34688437Y3075331D01*
X34759913Y3310957D01*
X34784048Y3556000D01*
X34811952Y3556000D01*
X34836087Y3310957D01*
X34907563Y3075331D01*
X35023634Y2858177D01*
X35179840Y2667840D01*
X35370177Y2511634D01*
X35587331Y2395563D01*
X35822957Y2324087D01*
X36006595Y2306000D01*
X36129405Y2306000D01*
X36313043Y2324087D01*
X36548669Y2395563D01*
X36765823Y2511634D01*
X36956160Y2667840D01*
X37112366Y2858177D01*
X37228437Y3075331D01*
X37299913Y3310957D01*
X37324048Y3556000D01*
X37351952Y3556000D01*
X37376087Y3310957D01*
X37447563Y3075331D01*
X37563634Y2858177D01*
X37719840Y2667840D01*
X37910177Y2511634D01*
X38127331Y2395563D01*
X38362957Y2324087D01*
X38546595Y2306000D01*
X38669405Y2306000D01*
X38853043Y2324087D01*
X39088669Y2395563D01*
X39305823Y2511634D01*
X39496160Y2667840D01*
X39652366Y2858177D01*
X39768437Y3075331D01*
X39837195Y3302000D01*
X39898000Y3302000D01*
X39898000Y2666603D01*
X39913372Y2589324D01*
X39943525Y2516529D01*
X39987300Y2451014D01*
X40043015Y2395299D01*
X40108529Y2351524D01*
X40181325Y2321372D01*
X40258604Y2306000D01*
X40894000Y2306000D01*
X40994000Y2406000D01*
X40994000Y3402000D01*
X41302000Y3402000D01*
X41302000Y2406000D01*
X41402000Y2306000D01*
X42037396Y2306000D01*
X42114675Y2321372D01*
X42187471Y2351524D01*
X42252985Y2395299D01*
X42308700Y2451014D01*
X42352475Y2516529D01*
X42382628Y2589324D01*
X42398000Y2666603D01*
X42398000Y3302000D01*
X42298000Y3402000D01*
X41302000Y3402000D01*
X40994000Y3402000D01*
X39998000Y3402000D01*
X39898000Y3302000D01*
X39837195Y3302000D01*
X39839913Y3310957D01*
X39864048Y3556000D01*
X39839913Y3801043D01*
X39768437Y4036669D01*
X39652366Y4253823D01*
X39496160Y4444160D01*
X39494653Y4445397D01*
X39898000Y4445397D01*
X39898000Y3810000D01*
X39998000Y3710000D01*
X40994000Y3710000D01*
X40994000Y4706000D01*
X41302000Y4706000D01*
X41302000Y3710000D01*
X42298000Y3710000D01*
X42398000Y3810000D01*
X42398000Y4445397D01*
X42382628Y4522676D01*
X42352475Y4595471D01*
X42308700Y4660986D01*
X42252985Y4716701D01*
X42187471Y4760476D01*
X42114675Y4790628D01*
X42037396Y4806000D01*
X41402000Y4806000D01*
X41302000Y4706000D01*
X40994000Y4706000D01*
X40894000Y4806000D01*
X40258604Y4806000D01*
X40181325Y4790628D01*
X40108529Y4760476D01*
X40043015Y4716701D01*
X39987300Y4660986D01*
X39943525Y4595471D01*
X39913372Y4522676D01*
X39898000Y4445397D01*
X39494653Y4445397D01*
X39305823Y4600366D01*
X39088669Y4716437D01*
X38853043Y4787913D01*
X38669405Y4806000D01*
X38546595Y4806000D01*
X38362957Y4787913D01*
X38127331Y4716437D01*
X37910177Y4600366D01*
X37719840Y4444160D01*
X37563634Y4253823D01*
X37447563Y4036669D01*
X37376087Y3801043D01*
X37351952Y3556000D01*
X37324048Y3556000D01*
X37299913Y3801043D01*
X37228437Y4036669D01*
X37112366Y4253823D01*
X36956160Y4444160D01*
X36765823Y4600366D01*
X36548669Y4716437D01*
X36313043Y4787913D01*
X36129405Y4806000D01*
X36006595Y4806000D01*
X35822957Y4787913D01*
X35587331Y4716437D01*
X35370177Y4600366D01*
X35179840Y4444160D01*
X35023634Y4253823D01*
X34907563Y4036669D01*
X34836087Y3801043D01*
X34811952Y3556000D01*
X34784048Y3556000D01*
X34759913Y3801043D01*
X34688437Y4036669D01*
X34572366Y4253823D01*
X34416160Y4444160D01*
X34225823Y4600366D01*
X34008669Y4716437D01*
X33773043Y4787913D01*
X33589405Y4806000D01*
X33466595Y4806000D01*
X33282957Y4787913D01*
X33047331Y4716437D01*
X32830177Y4600366D01*
X32639840Y4444160D01*
X32483634Y4253823D01*
X32367563Y4036669D01*
X32296087Y3801043D01*
X32271952Y3556000D01*
X32244048Y3556000D01*
X32219913Y3801043D01*
X32148437Y4036669D01*
X32032366Y4253823D01*
X31876160Y4444160D01*
X31685823Y4600366D01*
X31468669Y4716437D01*
X31233043Y4787913D01*
X31049405Y4806000D01*
X30926595Y4806000D01*
X30742957Y4787913D01*
X30507331Y4716437D01*
X30290177Y4600366D01*
X30099840Y4444160D01*
X29943634Y4253823D01*
X29827563Y4036669D01*
X29756087Y3801043D01*
X29731952Y3556000D01*
X29704048Y3556000D01*
X29679913Y3801043D01*
X29608437Y4036669D01*
X29492366Y4253823D01*
X29336160Y4444160D01*
X29145823Y4600366D01*
X28928669Y4716437D01*
X28693043Y4787913D01*
X28509405Y4806000D01*
X28386595Y4806000D01*
X28202957Y4787913D01*
X27967331Y4716437D01*
X27750177Y4600366D01*
X27559840Y4444160D01*
X27403634Y4253823D01*
X27287563Y4036669D01*
X27216087Y3801043D01*
X27191952Y3556000D01*
X27164048Y3556000D01*
X27139913Y3801043D01*
X27068437Y4036669D01*
X26952366Y4253823D01*
X26796160Y4444160D01*
X26605823Y4600366D01*
X26388669Y4716437D01*
X26153043Y4787913D01*
X25969405Y4806000D01*
X25846595Y4806000D01*
X25662957Y4787913D01*
X25427331Y4716437D01*
X25210177Y4600366D01*
X25019840Y4444160D01*
X24863634Y4253823D01*
X24747563Y4036669D01*
X24676087Y3801043D01*
X24651952Y3556000D01*
X24624048Y3556000D01*
X24599913Y3801043D01*
X24528437Y4036669D01*
X24412366Y4253823D01*
X24256160Y4444160D01*
X24065823Y4600366D01*
X23848669Y4716437D01*
X23613043Y4787913D01*
X23429405Y4806000D01*
X23306595Y4806000D01*
X23122957Y4787913D01*
X22887331Y4716437D01*
X22670177Y4600366D01*
X22479840Y4444160D01*
X22323634Y4253823D01*
X22207563Y4036669D01*
X22136087Y3801043D01*
X22111952Y3556000D01*
X22084048Y3556000D01*
X22059913Y3801043D01*
X21988437Y4036669D01*
X21872366Y4253823D01*
X21716160Y4444160D01*
X21525823Y4600366D01*
X21308669Y4716437D01*
X21073043Y4787913D01*
X20889405Y4806000D01*
X20766595Y4806000D01*
X20582957Y4787913D01*
X20347331Y4716437D01*
X20130177Y4600366D01*
X19939840Y4444160D01*
X19783634Y4253823D01*
X19667563Y4036669D01*
X19596087Y3801043D01*
X19571952Y3556000D01*
X16148597Y3556000D01*
X16157000Y3598243D01*
X16157000Y4021757D01*
X16074377Y4437132D01*
X15912305Y4828407D01*
X15677014Y5180545D01*
X15377545Y5480014D01*
X15025407Y5715305D01*
X14634132Y5877377D01*
X14218757Y5960000D01*
X13795243Y5960000D01*
X13379868Y5877377D01*
X12988593Y5715305D01*
X12636455Y5480014D01*
X12336986Y5180545D01*
X12101695Y4828407D01*
X11939623Y4437132D01*
X11857000Y4021757D01*
X475000Y4021757D01*
X475000Y15602344D01*
X8658600Y15602344D01*
X8658600Y15464456D01*
X8685501Y15329218D01*
X8738268Y15201826D01*
X8814874Y15087176D01*
X8818601Y15083449D01*
X8818600Y12511918D01*
X8815988Y12485400D01*
X8818600Y12458882D01*
X8818600Y12458881D01*
X8826414Y12379543D01*
X8857292Y12277752D01*
X8907435Y12183941D01*
X8974915Y12101715D01*
X8995519Y12084806D01*
X10476000Y10604325D01*
X10476000Y10599056D01*
X10502901Y10463818D01*
X10555668Y10336426D01*
X10632274Y10221776D01*
X10729776Y10124274D01*
X10844426Y10047668D01*
X10971818Y9994901D01*
X11107056Y9968000D01*
X11244944Y9968000D01*
X11380182Y9994901D01*
X11507574Y10047668D01*
X11622224Y10124274D01*
X11719726Y10221776D01*
X11796332Y10336426D01*
X11849099Y10463818D01*
X11876000Y10599056D01*
X11876000Y10736944D01*
X11849099Y10872182D01*
X11799907Y10990944D01*
X23938000Y10990944D01*
X23938000Y10853056D01*
X23964901Y10717818D01*
X24017668Y10590426D01*
X24094274Y10475776D01*
X24191776Y10378274D01*
X24306426Y10301668D01*
X24433818Y10248901D01*
X24569056Y10222000D01*
X24706944Y10222000D01*
X24842182Y10248901D01*
X24969574Y10301668D01*
X25084224Y10378274D01*
X25087950Y10382000D01*
X27744050Y10382000D01*
X27747776Y10378274D01*
X27862426Y10301668D01*
X27989818Y10248901D01*
X28125056Y10222000D01*
X28262944Y10222000D01*
X28398182Y10248901D01*
X28525574Y10301668D01*
X28640224Y10378274D01*
X28737726Y10475776D01*
X28814332Y10590426D01*
X28867099Y10717818D01*
X28894000Y10853056D01*
X28894000Y10990944D01*
X28867099Y11126182D01*
X28814332Y11253574D01*
X28737726Y11368224D01*
X28640224Y11465726D01*
X28525574Y11542332D01*
X28398182Y11595099D01*
X28262944Y11622000D01*
X28125056Y11622000D01*
X27989818Y11595099D01*
X27862426Y11542332D01*
X27747776Y11465726D01*
X27744050Y11462000D01*
X25087950Y11462000D01*
X25084224Y11465726D01*
X24969574Y11542332D01*
X24842182Y11595099D01*
X24706944Y11622000D01*
X24569056Y11622000D01*
X24433818Y11595099D01*
X24306426Y11542332D01*
X24191776Y11465726D01*
X24094274Y11368224D01*
X24017668Y11253574D01*
X23964901Y11126182D01*
X23938000Y10990944D01*
X11799907Y10990944D01*
X11796332Y10999574D01*
X11719726Y11114224D01*
X11622224Y11211726D01*
X11507574Y11288332D01*
X11380182Y11341099D01*
X11244944Y11368000D01*
X11239675Y11368000D01*
X9898600Y12709075D01*
X9898600Y14800944D01*
X18350000Y14800944D01*
X18350000Y14663056D01*
X18376901Y14527818D01*
X18429668Y14400426D01*
X18506274Y14285776D01*
X18568050Y14224000D01*
X18506274Y14162224D01*
X18429668Y14047574D01*
X18376901Y13920182D01*
X18350000Y13784944D01*
X18350000Y13647056D01*
X18376901Y13511818D01*
X18429668Y13384426D01*
X18506274Y13269776D01*
X18603776Y13172274D01*
X18718426Y13095668D01*
X18845818Y13042901D01*
X18981056Y13016000D01*
X19118944Y13016000D01*
X19254182Y13042901D01*
X19381574Y13095668D01*
X19496224Y13172274D01*
X19499950Y13176000D01*
X25712050Y13176000D01*
X25715776Y13172274D01*
X25830426Y13095668D01*
X25957818Y13042901D01*
X26093056Y13016000D01*
X26230944Y13016000D01*
X26366182Y13042901D01*
X26493574Y13095668D01*
X26608224Y13172274D01*
X26705726Y13269776D01*
X26782332Y13384426D01*
X26835099Y13511818D01*
X26862000Y13647056D01*
X26862000Y13784944D01*
X26835099Y13920182D01*
X26782332Y14047574D01*
X26705726Y14162224D01*
X26608224Y14259726D01*
X26493574Y14336332D01*
X26366182Y14389099D01*
X26276989Y14406841D01*
X26327099Y14527818D01*
X26354000Y14663056D01*
X26354000Y14800944D01*
X26327099Y14936182D01*
X26274332Y15063574D01*
X26197726Y15178224D01*
X26100224Y15275726D01*
X25985574Y15352332D01*
X25858182Y15405099D01*
X25722944Y15432000D01*
X25585056Y15432000D01*
X25449818Y15405099D01*
X25322426Y15352332D01*
X25207776Y15275726D01*
X25204050Y15272000D01*
X19499950Y15272000D01*
X19496224Y15275726D01*
X19381574Y15352332D01*
X19254182Y15405099D01*
X19118944Y15432000D01*
X18981056Y15432000D01*
X18845818Y15405099D01*
X18718426Y15352332D01*
X18603776Y15275726D01*
X18506274Y15178224D01*
X18429668Y15063574D01*
X18376901Y14936182D01*
X18350000Y14800944D01*
X9898600Y14800944D01*
X9898600Y14933400D01*
X14233926Y14933400D01*
X14263400Y14930497D01*
X14292874Y14933400D01*
X14381021Y14942082D01*
X14494121Y14976390D01*
X14598355Y15032104D01*
X14689717Y15107083D01*
X14708513Y15129986D01*
X15488528Y15910000D01*
X16226526Y15910000D01*
X16256000Y15907097D01*
X16285474Y15910000D01*
X16373621Y15918682D01*
X16486721Y15952990D01*
X16590955Y16008704D01*
X16682317Y16083683D01*
X16701113Y16106586D01*
X19707420Y19112892D01*
X19730317Y19131683D01*
X19805296Y19223045D01*
X19861010Y19327279D01*
X19895318Y19440379D01*
X19904000Y19528526D01*
X19904000Y19528527D01*
X19906903Y19558000D01*
X19904000Y19587474D01*
X19904000Y20482000D01*
X31177913Y20482000D01*
X31585441Y20074471D01*
X31592581Y20038578D01*
X31645348Y19911186D01*
X31721954Y19796536D01*
X31819456Y19699034D01*
X31934106Y19622428D01*
X32061498Y19569661D01*
X32196736Y19542760D01*
X32334624Y19542760D01*
X32469862Y19569661D01*
X32597254Y19622428D01*
X32711904Y19699034D01*
X32809406Y19796536D01*
X32886012Y19911186D01*
X32938779Y20038578D01*
X32965680Y20173816D01*
X32965680Y20311704D01*
X32938779Y20446942D01*
X32886012Y20574334D01*
X32809406Y20688984D01*
X32711904Y20786486D01*
X32597254Y20863092D01*
X32469862Y20915859D01*
X32433969Y20922999D01*
X31871553Y21485414D01*
X31852757Y21508317D01*
X31761395Y21583296D01*
X31657161Y21639010D01*
X31544061Y21673318D01*
X31455914Y21682000D01*
X31426440Y21684903D01*
X31396966Y21682000D01*
X19666003Y21682000D01*
X19635574Y21702332D01*
X19508182Y21755099D01*
X19372944Y21782000D01*
X19235056Y21782000D01*
X19099818Y21755099D01*
X18972426Y21702332D01*
X18857776Y21625726D01*
X18760274Y21528224D01*
X18683668Y21413574D01*
X18630901Y21286182D01*
X18604000Y21150944D01*
X18604000Y21013056D01*
X18630901Y20877818D01*
X18683668Y20750426D01*
X18704001Y20719996D01*
X18704000Y19806528D01*
X16007473Y17110000D01*
X15269474Y17110000D01*
X15240000Y17112903D01*
X15210526Y17110000D01*
X15122379Y17101318D01*
X15009279Y17067010D01*
X14905045Y17011296D01*
X14813683Y16936317D01*
X14794894Y16913422D01*
X14014873Y16133400D01*
X9720603Y16133400D01*
X9690174Y16153732D01*
X9562782Y16206499D01*
X9427544Y16233400D01*
X9289656Y16233400D01*
X9154418Y16206499D01*
X9027026Y16153732D01*
X8912376Y16077126D01*
X8814874Y15979624D01*
X8738268Y15864974D01*
X8685501Y15737582D01*
X8658600Y15602344D01*
X475000Y15602344D01*
X475000Y21420929D01*
X495355Y21214263D01*
X556824Y21011625D01*
X656646Y20824872D01*
X790983Y20661183D01*
X954672Y20526846D01*
X1141425Y20427024D01*
X1344063Y20365555D01*
X1501994Y20350000D01*
X1957606Y20350000D01*
X2115537Y20365555D01*
X2318175Y20427024D01*
X2504928Y20526846D01*
X2668617Y20661183D01*
X2802954Y20824872D01*
X2902776Y21011625D01*
X2964245Y21214263D01*
X2985001Y21425000D01*
X2964245Y21635737D01*
X2934135Y21735000D01*
X3575204Y21735000D01*
X3593546Y21548768D01*
X3647868Y21369692D01*
X3736082Y21204655D01*
X3854799Y21059999D01*
X3999455Y20941282D01*
X4164492Y20853068D01*
X4343568Y20798746D01*
X4483135Y20785000D01*
X4976465Y20785000D01*
X5116032Y20798746D01*
X5295108Y20853068D01*
X5460145Y20941282D01*
X5604801Y21059999D01*
X5723518Y21204655D01*
X5811732Y21369692D01*
X5866054Y21548768D01*
X5884396Y21735000D01*
X5866054Y21921232D01*
X5811732Y22100308D01*
X5723518Y22265345D01*
X5604801Y22410001D01*
X5460145Y22528718D01*
X5295108Y22616932D01*
X5116032Y22671254D01*
X4976465Y22685000D01*
X4483135Y22685000D01*
X4343568Y22671254D01*
X4164492Y22616932D01*
X3999455Y22528718D01*
X3854799Y22410001D01*
X3736082Y22265345D01*
X3647868Y22100308D01*
X3593546Y21921232D01*
X3575204Y21735000D01*
X2934135Y21735000D01*
X2902776Y21838375D01*
X2802954Y22025128D01*
X2668617Y22188817D01*
X2504928Y22323154D01*
X2318175Y22422976D01*
X2115537Y22484445D01*
X1957606Y22500000D01*
X1501994Y22500000D01*
X1344063Y22484445D01*
X1141425Y22422976D01*
X954672Y22323154D01*
X790983Y22188817D01*
X656646Y22025128D01*
X556824Y21838375D01*
X495355Y21635737D01*
X475000Y21429071D01*
X475000Y26880929D01*
X495355Y26674263D01*
X556824Y26471625D01*
X656646Y26284872D01*
X790983Y26121183D01*
X954672Y25986846D01*
X1141425Y25887024D01*
X1344063Y25825555D01*
X1501994Y25810000D01*
X1957606Y25810000D01*
X2115537Y25825555D01*
X2318175Y25887024D01*
X2504928Y25986846D01*
X2668617Y26121183D01*
X2802954Y26284872D01*
X2902776Y26471625D01*
X2934134Y26575000D01*
X3575204Y26575000D01*
X3593546Y26388768D01*
X3647868Y26209692D01*
X3736082Y26044655D01*
X3854799Y25899999D01*
X3999455Y25781282D01*
X4164492Y25693068D01*
X4343568Y25638746D01*
X4483135Y25625000D01*
X4976465Y25625000D01*
X5116032Y25638746D01*
X5295108Y25693068D01*
X5460145Y25781282D01*
X5604801Y25899999D01*
X5723518Y26044655D01*
X5811732Y26209692D01*
X5866054Y26388768D01*
X5884396Y26575000D01*
X5866054Y26761232D01*
X5811732Y26940308D01*
X5723518Y27105345D01*
X5604801Y27250001D01*
X5460145Y27368718D01*
X5295108Y27456932D01*
X5116032Y27511254D01*
X4976465Y27525000D01*
X4483135Y27525000D01*
X4343568Y27511254D01*
X4164492Y27456932D01*
X3999455Y27368718D01*
X3854799Y27250001D01*
X3736082Y27105345D01*
X3647868Y26940308D01*
X3593546Y26761232D01*
X3575204Y26575000D01*
X2934134Y26575000D01*
X2964245Y26674263D01*
X2985001Y26885000D01*
X2964245Y27095737D01*
X2902776Y27298375D01*
X2802954Y27485128D01*
X2668617Y27648817D01*
X2504928Y27783154D01*
X2339264Y27871704D01*
X34015680Y27871704D01*
X34015680Y27733816D01*
X34042581Y27598578D01*
X34065680Y27542811D01*
X34065681Y26447941D01*
X34062535Y26416000D01*
X34065680Y26384068D01*
X34065681Y23914692D01*
X34065680Y20842709D01*
X34042581Y20786942D01*
X34015680Y20651704D01*
X34015680Y20513816D01*
X34042581Y20378578D01*
X34095348Y20251186D01*
X34171954Y20136536D01*
X34269456Y20039034D01*
X34384106Y19962428D01*
X34511498Y19909661D01*
X34646736Y19882760D01*
X34784624Y19882760D01*
X34919862Y19909661D01*
X35047254Y19962428D01*
X35161904Y20039034D01*
X35259406Y20136536D01*
X35336012Y20251186D01*
X35388779Y20378578D01*
X35415680Y20513816D01*
X35415680Y20651704D01*
X35388779Y20786942D01*
X35365680Y20842708D01*
X35365680Y25766000D01*
X38221052Y25766000D01*
X38276818Y25742901D01*
X38412056Y25716000D01*
X38549944Y25716000D01*
X38685182Y25742901D01*
X38812574Y25795668D01*
X38927224Y25872274D01*
X39024726Y25969776D01*
X39101332Y26084426D01*
X39154099Y26211818D01*
X39181000Y26347056D01*
X39181000Y26484944D01*
X39154099Y26620182D01*
X39101332Y26747574D01*
X39024726Y26862224D01*
X38927224Y26959726D01*
X38812574Y27036332D01*
X38685182Y27089099D01*
X38549944Y27116000D01*
X38412056Y27116000D01*
X38276818Y27089099D01*
X38221052Y27066000D01*
X35365680Y27066000D01*
X35365680Y27542812D01*
X35388779Y27598578D01*
X35415680Y27733816D01*
X35415680Y27871704D01*
X35388779Y28006942D01*
X35336012Y28134334D01*
X35259406Y28248984D01*
X35255680Y28252710D01*
X35255680Y32177821D01*
X35275645Y32197786D01*
X35352251Y32312436D01*
X35405018Y32439828D01*
X35431919Y32575066D01*
X35431919Y32712954D01*
X35405018Y32848192D01*
X35352251Y32975584D01*
X35275645Y33090234D01*
X35178143Y33187736D01*
X35063493Y33264342D01*
X34936101Y33317109D01*
X34800863Y33344010D01*
X34662975Y33344010D01*
X34527737Y33317109D01*
X34400345Y33264342D01*
X34285695Y33187736D01*
X34188193Y33090234D01*
X34111587Y32975584D01*
X34058820Y32848192D01*
X34031919Y32712954D01*
X34031919Y32575066D01*
X34058820Y32439828D01*
X34111587Y32312436D01*
X34175681Y32216512D01*
X34175680Y28252710D01*
X34171954Y28248984D01*
X34095348Y28134334D01*
X34042581Y28006942D01*
X34015680Y27871704D01*
X2339264Y27871704D01*
X2318175Y27882976D01*
X2115537Y27944445D01*
X1957606Y27960000D01*
X1501994Y27960000D01*
X1344063Y27944445D01*
X1141425Y27882976D01*
X954672Y27783154D01*
X790983Y27648817D01*
X656646Y27485128D01*
X556824Y27298375D01*
X495355Y27095737D01*
X475000Y26889071D01*
X475000Y39946944D01*
X22668000Y39946944D01*
X22668000Y39809056D01*
X22694901Y39673818D01*
X22747668Y39546426D01*
X22824274Y39431776D01*
X22921776Y39334274D01*
X23036426Y39257668D01*
X23163818Y39204901D01*
X23299056Y39178000D01*
X23436944Y39178000D01*
X23572182Y39204901D01*
X23699574Y39257668D01*
X23766820Y39302600D01*
X25902966Y39302600D01*
X26008226Y39232268D01*
X26135618Y39179501D01*
X26270856Y39152600D01*
X26408744Y39152600D01*
X26543982Y39179501D01*
X26671374Y39232268D01*
X26786024Y39308874D01*
X26883526Y39406376D01*
X26960132Y39521026D01*
X27012899Y39648418D01*
X27039800Y39783656D01*
X27039800Y39921544D01*
X27012899Y40056782D01*
X26960132Y40184174D01*
X26883526Y40298824D01*
X26786024Y40396326D01*
X26671374Y40472932D01*
X26543982Y40525699D01*
X26408744Y40552600D01*
X26270856Y40552600D01*
X26135618Y40525699D01*
X26008226Y40472932D01*
X25902966Y40402600D01*
X23833350Y40402600D01*
X23814224Y40421726D01*
X23699574Y40498332D01*
X23572182Y40551099D01*
X23436944Y40578000D01*
X23299056Y40578000D01*
X23163818Y40551099D01*
X23036426Y40498332D01*
X22921776Y40421726D01*
X22824274Y40324224D01*
X22747668Y40209574D01*
X22694901Y40082182D01*
X22668000Y39946944D01*
X475000Y39946944D01*
X475000Y44426769D01*
X498040Y44661757D01*
X11857000Y44661757D01*
X11857000Y44238243D01*
X11939623Y43822868D01*
X12101695Y43431593D01*
X12336986Y43079455D01*
X12636455Y42779986D01*
X12988593Y42544695D01*
X13379868Y42382623D01*
X13795243Y42300000D01*
X14218757Y42300000D01*
X14332174Y42322560D01*
X23475840Y42322560D01*
X23475840Y41687163D01*
X23491212Y41609884D01*
X23521365Y41537089D01*
X23565140Y41471574D01*
X23620855Y41415859D01*
X23686369Y41372084D01*
X23759165Y41341932D01*
X23836444Y41326560D01*
X24471840Y41326560D01*
X24571840Y41426560D01*
X24571840Y42422560D01*
X24879840Y42422560D01*
X24879840Y41426560D01*
X24979840Y41326560D01*
X25615236Y41326560D01*
X25692515Y41341932D01*
X25765311Y41372084D01*
X25830825Y41415859D01*
X25886540Y41471574D01*
X25930315Y41537089D01*
X25960468Y41609884D01*
X25975840Y41687163D01*
X25975840Y42322560D01*
X25875840Y42422560D01*
X24879840Y42422560D01*
X24571840Y42422560D01*
X23575840Y42422560D01*
X23475840Y42322560D01*
X14332174Y42322560D01*
X14634132Y42382623D01*
X15025407Y42544695D01*
X15073096Y42576560D01*
X26009792Y42576560D01*
X26033927Y42331517D01*
X26105403Y42095891D01*
X26221474Y41878737D01*
X26377680Y41688400D01*
X26568017Y41532194D01*
X26785171Y41416123D01*
X27020797Y41344647D01*
X27204435Y41326560D01*
X27327245Y41326560D01*
X27510883Y41344647D01*
X27746509Y41416123D01*
X27963663Y41532194D01*
X28154000Y41688400D01*
X28310206Y41878737D01*
X28426277Y42095891D01*
X28497753Y42331517D01*
X28521888Y42576560D01*
X28497753Y42821603D01*
X28426277Y43057229D01*
X28310206Y43274383D01*
X28154000Y43464720D01*
X27963663Y43620926D01*
X27746509Y43736997D01*
X27510883Y43808473D01*
X27327245Y43826560D01*
X27204435Y43826560D01*
X27020797Y43808473D01*
X26785171Y43736997D01*
X26568017Y43620926D01*
X26377680Y43464720D01*
X26221474Y43274383D01*
X26105403Y43057229D01*
X26033927Y42821603D01*
X26009792Y42576560D01*
X15073096Y42576560D01*
X15377545Y42779986D01*
X15677014Y43079455D01*
X15912305Y43431593D01*
X15926539Y43465957D01*
X23475840Y43465957D01*
X23475840Y42830560D01*
X23575840Y42730560D01*
X24571840Y42730560D01*
X24571840Y43726560D01*
X24879840Y43726560D01*
X24879840Y42730560D01*
X25875840Y42730560D01*
X25975840Y42830560D01*
X25975840Y43465957D01*
X25960468Y43543236D01*
X25930315Y43616031D01*
X25886540Y43681546D01*
X25830825Y43737261D01*
X25765311Y43781036D01*
X25692515Y43811188D01*
X25615236Y43826560D01*
X24979840Y43826560D01*
X24879840Y43726560D01*
X24571840Y43726560D01*
X24471840Y43826560D01*
X23836444Y43826560D01*
X23759165Y43811188D01*
X23686369Y43781036D01*
X23620855Y43737261D01*
X23565140Y43681546D01*
X23521365Y43616031D01*
X23491212Y43543236D01*
X23475840Y43465957D01*
X15926539Y43465957D01*
X16074377Y43822868D01*
X16157000Y44238243D01*
X16157000Y44661757D01*
X16117058Y44862560D01*
X23475840Y44862560D01*
X23475840Y44227163D01*
X23491212Y44149884D01*
X23521365Y44077089D01*
X23565140Y44011574D01*
X23620855Y43955859D01*
X23686369Y43912084D01*
X23759165Y43881932D01*
X23836444Y43866560D01*
X24471840Y43866560D01*
X24571840Y43966560D01*
X24571840Y44962560D01*
X24879840Y44962560D01*
X24879840Y43966560D01*
X24979840Y43866560D01*
X25615236Y43866560D01*
X25692515Y43881932D01*
X25765311Y43912084D01*
X25830825Y43955859D01*
X25886540Y44011574D01*
X25930315Y44077089D01*
X25960468Y44149884D01*
X25975840Y44227163D01*
X25975840Y44862560D01*
X25875840Y44962560D01*
X24879840Y44962560D01*
X24571840Y44962560D01*
X23575840Y44962560D01*
X23475840Y44862560D01*
X16117058Y44862560D01*
X16074377Y45077132D01*
X16058046Y45116560D01*
X26009792Y45116560D01*
X26033927Y44871517D01*
X26105403Y44635891D01*
X26221474Y44418737D01*
X26377680Y44228400D01*
X26568017Y44072194D01*
X26785171Y43956123D01*
X27020797Y43884647D01*
X27204435Y43866560D01*
X27327245Y43866560D01*
X27510883Y43884647D01*
X27746509Y43956123D01*
X27963663Y44072194D01*
X28154000Y44228400D01*
X28310206Y44418737D01*
X28426277Y44635891D01*
X28497753Y44871517D01*
X28521888Y45116560D01*
X28549792Y45116560D01*
X28573927Y44871517D01*
X28645403Y44635891D01*
X28761474Y44418737D01*
X28905840Y44242827D01*
X28905841Y43450294D01*
X28761474Y43274383D01*
X28645403Y43057229D01*
X28573927Y42821603D01*
X28549792Y42576560D01*
X28573927Y42331517D01*
X28645403Y42095891D01*
X28761474Y41878737D01*
X28917680Y41688400D01*
X29108017Y41532194D01*
X29325171Y41416123D01*
X29560797Y41344647D01*
X29744435Y41326560D01*
X29867245Y41326560D01*
X30050883Y41344647D01*
X30286509Y41416123D01*
X30503663Y41532194D01*
X30694000Y41688400D01*
X30850206Y41878737D01*
X30966277Y42095891D01*
X31037753Y42331517D01*
X31061888Y42576560D01*
X31037753Y42821603D01*
X30966277Y43057229D01*
X30850206Y43274383D01*
X30705840Y43450293D01*
X30705840Y44242827D01*
X30850206Y44418737D01*
X30966277Y44635891D01*
X31037753Y44871517D01*
X31061888Y45116560D01*
X31037753Y45361603D01*
X30966277Y45597229D01*
X30850206Y45814383D01*
X30694000Y46004720D01*
X30503663Y46160926D01*
X30286509Y46276997D01*
X30050883Y46348473D01*
X29867245Y46366560D01*
X29744435Y46366560D01*
X29560797Y46348473D01*
X29325171Y46276997D01*
X29108017Y46160926D01*
X28917680Y46004720D01*
X28761474Y45814383D01*
X28645403Y45597229D01*
X28573927Y45361603D01*
X28549792Y45116560D01*
X28521888Y45116560D01*
X28497753Y45361603D01*
X28426277Y45597229D01*
X28310206Y45814383D01*
X28154000Y46004720D01*
X27963663Y46160926D01*
X27746509Y46276997D01*
X27510883Y46348473D01*
X27327245Y46366560D01*
X27204435Y46366560D01*
X27020797Y46348473D01*
X26785171Y46276997D01*
X26568017Y46160926D01*
X26377680Y46004720D01*
X26221474Y45814383D01*
X26105403Y45597229D01*
X26033927Y45361603D01*
X26009792Y45116560D01*
X16058046Y45116560D01*
X15912305Y45468407D01*
X15677014Y45820545D01*
X15491602Y46005957D01*
X23475840Y46005957D01*
X23475840Y45370560D01*
X23575840Y45270560D01*
X24571840Y45270560D01*
X24571840Y46266560D01*
X24879840Y46266560D01*
X24879840Y45270560D01*
X25875840Y45270560D01*
X25975840Y45370560D01*
X25975840Y46005957D01*
X25960468Y46083236D01*
X25930315Y46156031D01*
X25886540Y46221546D01*
X25830825Y46277261D01*
X25765311Y46321036D01*
X25692515Y46351188D01*
X25615236Y46366560D01*
X24979840Y46366560D01*
X24879840Y46266560D01*
X24571840Y46266560D01*
X24471840Y46366560D01*
X23836444Y46366560D01*
X23759165Y46351188D01*
X23686369Y46321036D01*
X23620855Y46277261D01*
X23565140Y46221546D01*
X23521365Y46156031D01*
X23491212Y46083236D01*
X23475840Y46005957D01*
X15491602Y46005957D01*
X15377545Y46120014D01*
X15025407Y46355305D01*
X14634132Y46517377D01*
X14218757Y46600000D01*
X13795243Y46600000D01*
X13379868Y46517377D01*
X12988593Y46355305D01*
X12636455Y46120014D01*
X12336986Y45820545D01*
X12101695Y45468407D01*
X11939623Y45077132D01*
X11857000Y44661757D01*
X498040Y44661757D01*
X540749Y45097328D01*
X728746Y45720003D01*
X1034102Y46294297D01*
X1445199Y46798351D01*
X1946364Y47212951D01*
X2518519Y47522315D01*
X3139861Y47714652D01*
X3809123Y47784994D01*
X3810803Y47785000D01*
X53240000Y47785000D01*
X53240000Y475000D01*
X53240000Y475000D01*
G37*
X53240000Y475000D02*
X3833231Y475000D01*
X3162673Y540749D01*
X2539997Y728746D01*
X1965701Y1034104D01*
X1461649Y1445199D01*
X1047049Y1946364D01*
X737685Y2518520D01*
X545348Y3139861D01*
X475006Y3809124D01*
X475000Y3810803D01*
X475000Y4021757D01*
X11857000Y4021757D01*
X11857000Y3598243D01*
X11939623Y3182868D01*
X12101695Y2791593D01*
X12336986Y2439455D01*
X12636455Y2139986D01*
X12988593Y1904695D01*
X13379868Y1742623D01*
X13795243Y1660000D01*
X14218757Y1660000D01*
X14634132Y1742623D01*
X15025407Y1904695D01*
X15377545Y2139986D01*
X15677014Y2439455D01*
X15912305Y2791593D01*
X16074377Y3182868D01*
X16148597Y3556000D01*
X19571952Y3556000D01*
X19596087Y3310957D01*
X19667563Y3075331D01*
X19783634Y2858177D01*
X19939840Y2667840D01*
X20130177Y2511634D01*
X20347331Y2395563D01*
X20582957Y2324087D01*
X20766595Y2306000D01*
X20889405Y2306000D01*
X21073043Y2324087D01*
X21308669Y2395563D01*
X21525823Y2511634D01*
X21716160Y2667840D01*
X21872366Y2858177D01*
X21988437Y3075331D01*
X22059913Y3310957D01*
X22084048Y3556000D01*
X22111952Y3556000D01*
X22136087Y3310957D01*
X22207563Y3075331D01*
X22323634Y2858177D01*
X22479840Y2667840D01*
X22670177Y2511634D01*
X22887331Y2395563D01*
X23122957Y2324087D01*
X23306595Y2306000D01*
X23429405Y2306000D01*
X23613043Y2324087D01*
X23848669Y2395563D01*
X24065823Y2511634D01*
X24256160Y2667840D01*
X24412366Y2858177D01*
X24528437Y3075331D01*
X24599913Y3310957D01*
X24624048Y3556000D01*
X24651952Y3556000D01*
X24676087Y3310957D01*
X24747563Y3075331D01*
X24863634Y2858177D01*
X25019840Y2667840D01*
X25210177Y2511634D01*
X25427331Y2395563D01*
X25662957Y2324087D01*
X25846595Y2306000D01*
X25969405Y2306000D01*
X26153043Y2324087D01*
X26388669Y2395563D01*
X26605823Y2511634D01*
X26796160Y2667840D01*
X26952366Y2858177D01*
X27068437Y3075331D01*
X27139913Y3310957D01*
X27164048Y3556000D01*
X27191952Y3556000D01*
X27216087Y3310957D01*
X27287563Y3075331D01*
X27403634Y2858177D01*
X27559840Y2667840D01*
X27750177Y2511634D01*
X27967331Y2395563D01*
X28202957Y2324087D01*
X28386595Y2306000D01*
X28509405Y2306000D01*
X28693043Y2324087D01*
X28928669Y2395563D01*
X29145823Y2511634D01*
X29336160Y2667840D01*
X29492366Y2858177D01*
X29608437Y3075331D01*
X29679913Y3310957D01*
X29704048Y3556000D01*
X29731952Y3556000D01*
X29756087Y3310957D01*
X29827563Y3075331D01*
X29943634Y2858177D01*
X30099840Y2667840D01*
X30290177Y2511634D01*
X30507331Y2395563D01*
X30742957Y2324087D01*
X30926595Y2306000D01*
X31049405Y2306000D01*
X31233043Y2324087D01*
X31468669Y2395563D01*
X31685823Y2511634D01*
X31876160Y2667840D01*
X32032366Y2858177D01*
X32148437Y3075331D01*
X32219913Y3310957D01*
X32244048Y3556000D01*
X32271952Y3556000D01*
X32296087Y3310957D01*
X32367563Y3075331D01*
X32483634Y2858177D01*
X32639840Y2667840D01*
X32830177Y2511634D01*
X33047331Y2395563D01*
X33282957Y2324087D01*
X33466595Y2306000D01*
X33589405Y2306000D01*
X33773043Y2324087D01*
X34008669Y2395563D01*
X34225823Y2511634D01*
X34416160Y2667840D01*
X34572366Y2858177D01*
X34688437Y3075331D01*
X34759913Y3310957D01*
X34784048Y3556000D01*
X34811952Y3556000D01*
X34836087Y3310957D01*
X34907563Y3075331D01*
X35023634Y2858177D01*
X35179840Y2667840D01*
X35370177Y2511634D01*
X35587331Y2395563D01*
X35822957Y2324087D01*
X36006595Y2306000D01*
X36129405Y2306000D01*
X36313043Y2324087D01*
X36548669Y2395563D01*
X36765823Y2511634D01*
X36956160Y2667840D01*
X37112366Y2858177D01*
X37228437Y3075331D01*
X37299913Y3310957D01*
X37324048Y3556000D01*
X37351952Y3556000D01*
X37376087Y3310957D01*
X37447563Y3075331D01*
X37563634Y2858177D01*
X37719840Y2667840D01*
X37910177Y2511634D01*
X38127331Y2395563D01*
X38362957Y2324087D01*
X38546595Y2306000D01*
X38669405Y2306000D01*
X38853043Y2324087D01*
X39088669Y2395563D01*
X39305823Y2511634D01*
X39496160Y2667840D01*
X39652366Y2858177D01*
X39768437Y3075331D01*
X39837195Y3302000D01*
X39898000Y3302000D01*
X39898000Y2666603D01*
X39913372Y2589324D01*
X39943525Y2516529D01*
X39987300Y2451014D01*
X40043015Y2395299D01*
X40108529Y2351524D01*
X40181325Y2321372D01*
X40258604Y2306000D01*
X40894000Y2306000D01*
X40994000Y2406000D01*
X40994000Y3402000D01*
X41302000Y3402000D01*
X41302000Y2406000D01*
X41402000Y2306000D01*
X42037396Y2306000D01*
X42114675Y2321372D01*
X42187471Y2351524D01*
X42252985Y2395299D01*
X42308700Y2451014D01*
X42352475Y2516529D01*
X42382628Y2589324D01*
X42398000Y2666603D01*
X42398000Y3302000D01*
X42298000Y3402000D01*
X41302000Y3402000D01*
X40994000Y3402000D01*
X39998000Y3402000D01*
X39898000Y3302000D01*
X39837195Y3302000D01*
X39839913Y3310957D01*
X39864048Y3556000D01*
X39839913Y3801043D01*
X39768437Y4036669D01*
X39652366Y4253823D01*
X39496160Y4444160D01*
X39494653Y4445397D01*
X39898000Y4445397D01*
X39898000Y3810000D01*
X39998000Y3710000D01*
X40994000Y3710000D01*
X40994000Y4706000D01*
X41302000Y4706000D01*
X41302000Y3710000D01*
X42298000Y3710000D01*
X42398000Y3810000D01*
X42398000Y4445397D01*
X42382628Y4522676D01*
X42352475Y4595471D01*
X42308700Y4660986D01*
X42252985Y4716701D01*
X42187471Y4760476D01*
X42114675Y4790628D01*
X42037396Y4806000D01*
X41402000Y4806000D01*
X41302000Y4706000D01*
X40994000Y4706000D01*
X40894000Y4806000D01*
X40258604Y4806000D01*
X40181325Y4790628D01*
X40108529Y4760476D01*
X40043015Y4716701D01*
X39987300Y4660986D01*
X39943525Y4595471D01*
X39913372Y4522676D01*
X39898000Y4445397D01*
X39494653Y4445397D01*
X39305823Y4600366D01*
X39088669Y4716437D01*
X38853043Y4787913D01*
X38669405Y4806000D01*
X38546595Y4806000D01*
X38362957Y4787913D01*
X38127331Y4716437D01*
X37910177Y4600366D01*
X37719840Y4444160D01*
X37563634Y4253823D01*
X37447563Y4036669D01*
X37376087Y3801043D01*
X37351952Y3556000D01*
X37324048Y3556000D01*
X37299913Y3801043D01*
X37228437Y4036669D01*
X37112366Y4253823D01*
X36956160Y4444160D01*
X36765823Y4600366D01*
X36548669Y4716437D01*
X36313043Y4787913D01*
X36129405Y4806000D01*
X36006595Y4806000D01*
X35822957Y4787913D01*
X35587331Y4716437D01*
X35370177Y4600366D01*
X35179840Y4444160D01*
X35023634Y4253823D01*
X34907563Y4036669D01*
X34836087Y3801043D01*
X34811952Y3556000D01*
X34784048Y3556000D01*
X34759913Y3801043D01*
X34688437Y4036669D01*
X34572366Y4253823D01*
X34416160Y4444160D01*
X34225823Y4600366D01*
X34008669Y4716437D01*
X33773043Y4787913D01*
X33589405Y4806000D01*
X33466595Y4806000D01*
X33282957Y4787913D01*
X33047331Y4716437D01*
X32830177Y4600366D01*
X32639840Y4444160D01*
X32483634Y4253823D01*
X32367563Y4036669D01*
X32296087Y3801043D01*
X32271952Y3556000D01*
X32244048Y3556000D01*
X32219913Y3801043D01*
X32148437Y4036669D01*
X32032366Y4253823D01*
X31876160Y4444160D01*
X31685823Y4600366D01*
X31468669Y4716437D01*
X31233043Y4787913D01*
X31049405Y4806000D01*
X30926595Y4806000D01*
X30742957Y4787913D01*
X30507331Y4716437D01*
X30290177Y4600366D01*
X30099840Y4444160D01*
X29943634Y4253823D01*
X29827563Y4036669D01*
X29756087Y3801043D01*
X29731952Y3556000D01*
X29704048Y3556000D01*
X29679913Y3801043D01*
X29608437Y4036669D01*
X29492366Y4253823D01*
X29336160Y4444160D01*
X29145823Y4600366D01*
X28928669Y4716437D01*
X28693043Y4787913D01*
X28509405Y4806000D01*
X28386595Y4806000D01*
X28202957Y4787913D01*
X27967331Y4716437D01*
X27750177Y4600366D01*
X27559840Y4444160D01*
X27403634Y4253823D01*
X27287563Y4036669D01*
X27216087Y3801043D01*
X27191952Y3556000D01*
X27164048Y3556000D01*
X27139913Y3801043D01*
X27068437Y4036669D01*
X26952366Y4253823D01*
X26796160Y4444160D01*
X26605823Y4600366D01*
X26388669Y4716437D01*
X26153043Y4787913D01*
X25969405Y4806000D01*
X25846595Y4806000D01*
X25662957Y4787913D01*
X25427331Y4716437D01*
X25210177Y4600366D01*
X25019840Y4444160D01*
X24863634Y4253823D01*
X24747563Y4036669D01*
X24676087Y3801043D01*
X24651952Y3556000D01*
X24624048Y3556000D01*
X24599913Y3801043D01*
X24528437Y4036669D01*
X24412366Y4253823D01*
X24256160Y4444160D01*
X24065823Y4600366D01*
X23848669Y4716437D01*
X23613043Y4787913D01*
X23429405Y4806000D01*
X23306595Y4806000D01*
X23122957Y4787913D01*
X22887331Y4716437D01*
X22670177Y4600366D01*
X22479840Y4444160D01*
X22323634Y4253823D01*
X22207563Y4036669D01*
X22136087Y3801043D01*
X22111952Y3556000D01*
X22084048Y3556000D01*
X22059913Y3801043D01*
X21988437Y4036669D01*
X21872366Y4253823D01*
X21716160Y4444160D01*
X21525823Y4600366D01*
X21308669Y4716437D01*
X21073043Y4787913D01*
X20889405Y4806000D01*
X20766595Y4806000D01*
X20582957Y4787913D01*
X20347331Y4716437D01*
X20130177Y4600366D01*
X19939840Y4444160D01*
X19783634Y4253823D01*
X19667563Y4036669D01*
X19596087Y3801043D01*
X19571952Y3556000D01*
X16148597Y3556000D01*
X16157000Y3598243D01*
X16157000Y4021757D01*
X16074377Y4437132D01*
X15912305Y4828407D01*
X15677014Y5180545D01*
X15377545Y5480014D01*
X15025407Y5715305D01*
X14634132Y5877377D01*
X14218757Y5960000D01*
X13795243Y5960000D01*
X13379868Y5877377D01*
X12988593Y5715305D01*
X12636455Y5480014D01*
X12336986Y5180545D01*
X12101695Y4828407D01*
X11939623Y4437132D01*
X11857000Y4021757D01*
X475000Y4021757D01*
X475000Y15602344D01*
X8658600Y15602344D01*
X8658600Y15464456D01*
X8685501Y15329218D01*
X8738268Y15201826D01*
X8814874Y15087176D01*
X8818601Y15083449D01*
X8818600Y12511918D01*
X8815988Y12485400D01*
X8818600Y12458882D01*
X8818600Y12458881D01*
X8826414Y12379543D01*
X8857292Y12277752D01*
X8907435Y12183941D01*
X8974915Y12101715D01*
X8995519Y12084806D01*
X10476000Y10604325D01*
X10476000Y10599056D01*
X10502901Y10463818D01*
X10555668Y10336426D01*
X10632274Y10221776D01*
X10729776Y10124274D01*
X10844426Y10047668D01*
X10971818Y9994901D01*
X11107056Y9968000D01*
X11244944Y9968000D01*
X11380182Y9994901D01*
X11507574Y10047668D01*
X11622224Y10124274D01*
X11719726Y10221776D01*
X11796332Y10336426D01*
X11849099Y10463818D01*
X11876000Y10599056D01*
X11876000Y10736944D01*
X11849099Y10872182D01*
X11799907Y10990944D01*
X23938000Y10990944D01*
X23938000Y10853056D01*
X23964901Y10717818D01*
X24017668Y10590426D01*
X24094274Y10475776D01*
X24191776Y10378274D01*
X24306426Y10301668D01*
X24433818Y10248901D01*
X24569056Y10222000D01*
X24706944Y10222000D01*
X24842182Y10248901D01*
X24969574Y10301668D01*
X25084224Y10378274D01*
X25087950Y10382000D01*
X27744050Y10382000D01*
X27747776Y10378274D01*
X27862426Y10301668D01*
X27989818Y10248901D01*
X28125056Y10222000D01*
X28262944Y10222000D01*
X28398182Y10248901D01*
X28525574Y10301668D01*
X28640224Y10378274D01*
X28737726Y10475776D01*
X28814332Y10590426D01*
X28867099Y10717818D01*
X28894000Y10853056D01*
X28894000Y10990944D01*
X28867099Y11126182D01*
X28814332Y11253574D01*
X28737726Y11368224D01*
X28640224Y11465726D01*
X28525574Y11542332D01*
X28398182Y11595099D01*
X28262944Y11622000D01*
X28125056Y11622000D01*
X27989818Y11595099D01*
X27862426Y11542332D01*
X27747776Y11465726D01*
X27744050Y11462000D01*
X25087950Y11462000D01*
X25084224Y11465726D01*
X24969574Y11542332D01*
X24842182Y11595099D01*
X24706944Y11622000D01*
X24569056Y11622000D01*
X24433818Y11595099D01*
X24306426Y11542332D01*
X24191776Y11465726D01*
X24094274Y11368224D01*
X24017668Y11253574D01*
X23964901Y11126182D01*
X23938000Y10990944D01*
X11799907Y10990944D01*
X11796332Y10999574D01*
X11719726Y11114224D01*
X11622224Y11211726D01*
X11507574Y11288332D01*
X11380182Y11341099D01*
X11244944Y11368000D01*
X11239675Y11368000D01*
X9898600Y12709075D01*
X9898600Y14800944D01*
X18350000Y14800944D01*
X18350000Y14663056D01*
X18376901Y14527818D01*
X18429668Y14400426D01*
X18506274Y14285776D01*
X18568050Y14224000D01*
X18506274Y14162224D01*
X18429668Y14047574D01*
X18376901Y13920182D01*
X18350000Y13784944D01*
X18350000Y13647056D01*
X18376901Y13511818D01*
X18429668Y13384426D01*
X18506274Y13269776D01*
X18603776Y13172274D01*
X18718426Y13095668D01*
X18845818Y13042901D01*
X18981056Y13016000D01*
X19118944Y13016000D01*
X19254182Y13042901D01*
X19381574Y13095668D01*
X19496224Y13172274D01*
X19499950Y13176000D01*
X25712050Y13176000D01*
X25715776Y13172274D01*
X25830426Y13095668D01*
X25957818Y13042901D01*
X26093056Y13016000D01*
X26230944Y13016000D01*
X26366182Y13042901D01*
X26493574Y13095668D01*
X26608224Y13172274D01*
X26705726Y13269776D01*
X26782332Y13384426D01*
X26835099Y13511818D01*
X26862000Y13647056D01*
X26862000Y13784944D01*
X26835099Y13920182D01*
X26782332Y14047574D01*
X26705726Y14162224D01*
X26608224Y14259726D01*
X26493574Y14336332D01*
X26366182Y14389099D01*
X26276989Y14406841D01*
X26327099Y14527818D01*
X26354000Y14663056D01*
X26354000Y14800944D01*
X26327099Y14936182D01*
X26274332Y15063574D01*
X26197726Y15178224D01*
X26100224Y15275726D01*
X25985574Y15352332D01*
X25858182Y15405099D01*
X25722944Y15432000D01*
X25585056Y15432000D01*
X25449818Y15405099D01*
X25322426Y15352332D01*
X25207776Y15275726D01*
X25204050Y15272000D01*
X19499950Y15272000D01*
X19496224Y15275726D01*
X19381574Y15352332D01*
X19254182Y15405099D01*
X19118944Y15432000D01*
X18981056Y15432000D01*
X18845818Y15405099D01*
X18718426Y15352332D01*
X18603776Y15275726D01*
X18506274Y15178224D01*
X18429668Y15063574D01*
X18376901Y14936182D01*
X18350000Y14800944D01*
X9898600Y14800944D01*
X9898600Y14933400D01*
X14233926Y14933400D01*
X14263400Y14930497D01*
X14292874Y14933400D01*
X14381021Y14942082D01*
X14494121Y14976390D01*
X14598355Y15032104D01*
X14689717Y15107083D01*
X14708513Y15129986D01*
X15488528Y15910000D01*
X16226526Y15910000D01*
X16256000Y15907097D01*
X16285474Y15910000D01*
X16373621Y15918682D01*
X16486721Y15952990D01*
X16590955Y16008704D01*
X16682317Y16083683D01*
X16701113Y16106586D01*
X19707420Y19112892D01*
X19730317Y19131683D01*
X19805296Y19223045D01*
X19861010Y19327279D01*
X19895318Y19440379D01*
X19904000Y19528526D01*
X19904000Y19528527D01*
X19906903Y19558000D01*
X19904000Y19587474D01*
X19904000Y20482000D01*
X31177913Y20482000D01*
X31585441Y20074471D01*
X31592581Y20038578D01*
X31645348Y19911186D01*
X31721954Y19796536D01*
X31819456Y19699034D01*
X31934106Y19622428D01*
X32061498Y19569661D01*
X32196736Y19542760D01*
X32334624Y19542760D01*
X32469862Y19569661D01*
X32597254Y19622428D01*
X32711904Y19699034D01*
X32809406Y19796536D01*
X32886012Y19911186D01*
X32938779Y20038578D01*
X32965680Y20173816D01*
X32965680Y20311704D01*
X32938779Y20446942D01*
X32886012Y20574334D01*
X32809406Y20688984D01*
X32711904Y20786486D01*
X32597254Y20863092D01*
X32469862Y20915859D01*
X32433969Y20922999D01*
X31871553Y21485414D01*
X31852757Y21508317D01*
X31761395Y21583296D01*
X31657161Y21639010D01*
X31544061Y21673318D01*
X31455914Y21682000D01*
X31426440Y21684903D01*
X31396966Y21682000D01*
X19666003Y21682000D01*
X19635574Y21702332D01*
X19508182Y21755099D01*
X19372944Y21782000D01*
X19235056Y21782000D01*
X19099818Y21755099D01*
X18972426Y21702332D01*
X18857776Y21625726D01*
X18760274Y21528224D01*
X18683668Y21413574D01*
X18630901Y21286182D01*
X18604000Y21150944D01*
X18604000Y21013056D01*
X18630901Y20877818D01*
X18683668Y20750426D01*
X18704001Y20719996D01*
X18704000Y19806528D01*
X16007473Y17110000D01*
X15269474Y17110000D01*
X15240000Y17112903D01*
X15210526Y17110000D01*
X15122379Y17101318D01*
X15009279Y17067010D01*
X14905045Y17011296D01*
X14813683Y16936317D01*
X14794894Y16913422D01*
X14014873Y16133400D01*
X9720603Y16133400D01*
X9690174Y16153732D01*
X9562782Y16206499D01*
X9427544Y16233400D01*
X9289656Y16233400D01*
X9154418Y16206499D01*
X9027026Y16153732D01*
X8912376Y16077126D01*
X8814874Y15979624D01*
X8738268Y15864974D01*
X8685501Y15737582D01*
X8658600Y15602344D01*
X475000Y15602344D01*
X475000Y21420929D01*
X495355Y21214263D01*
X556824Y21011625D01*
X656646Y20824872D01*
X790983Y20661183D01*
X954672Y20526846D01*
X1141425Y20427024D01*
X1344063Y20365555D01*
X1501994Y20350000D01*
X1957606Y20350000D01*
X2115537Y20365555D01*
X2318175Y20427024D01*
X2504928Y20526846D01*
X2668617Y20661183D01*
X2802954Y20824872D01*
X2902776Y21011625D01*
X2964245Y21214263D01*
X2985001Y21425000D01*
X2964245Y21635737D01*
X2934135Y21735000D01*
X3575204Y21735000D01*
X3593546Y21548768D01*
X3647868Y21369692D01*
X3736082Y21204655D01*
X3854799Y21059999D01*
X3999455Y20941282D01*
X4164492Y20853068D01*
X4343568Y20798746D01*
X4483135Y20785000D01*
X4976465Y20785000D01*
X5116032Y20798746D01*
X5295108Y20853068D01*
X5460145Y20941282D01*
X5604801Y21059999D01*
X5723518Y21204655D01*
X5811732Y21369692D01*
X5866054Y21548768D01*
X5884396Y21735000D01*
X5866054Y21921232D01*
X5811732Y22100308D01*
X5723518Y22265345D01*
X5604801Y22410001D01*
X5460145Y22528718D01*
X5295108Y22616932D01*
X5116032Y22671254D01*
X4976465Y22685000D01*
X4483135Y22685000D01*
X4343568Y22671254D01*
X4164492Y22616932D01*
X3999455Y22528718D01*
X3854799Y22410001D01*
X3736082Y22265345D01*
X3647868Y22100308D01*
X3593546Y21921232D01*
X3575204Y21735000D01*
X2934135Y21735000D01*
X2902776Y21838375D01*
X2802954Y22025128D01*
X2668617Y22188817D01*
X2504928Y22323154D01*
X2318175Y22422976D01*
X2115537Y22484445D01*
X1957606Y22500000D01*
X1501994Y22500000D01*
X1344063Y22484445D01*
X1141425Y22422976D01*
X954672Y22323154D01*
X790983Y22188817D01*
X656646Y22025128D01*
X556824Y21838375D01*
X495355Y21635737D01*
X475000Y21429071D01*
X475000Y26880929D01*
X495355Y26674263D01*
X556824Y26471625D01*
X656646Y26284872D01*
X790983Y26121183D01*
X954672Y25986846D01*
X1141425Y25887024D01*
X1344063Y25825555D01*
X1501994Y25810000D01*
X1957606Y25810000D01*
X2115537Y25825555D01*
X2318175Y25887024D01*
X2504928Y25986846D01*
X2668617Y26121183D01*
X2802954Y26284872D01*
X2902776Y26471625D01*
X2934134Y26575000D01*
X3575204Y26575000D01*
X3593546Y26388768D01*
X3647868Y26209692D01*
X3736082Y26044655D01*
X3854799Y25899999D01*
X3999455Y25781282D01*
X4164492Y25693068D01*
X4343568Y25638746D01*
X4483135Y25625000D01*
X4976465Y25625000D01*
X5116032Y25638746D01*
X5295108Y25693068D01*
X5460145Y25781282D01*
X5604801Y25899999D01*
X5723518Y26044655D01*
X5811732Y26209692D01*
X5866054Y26388768D01*
X5884396Y26575000D01*
X5866054Y26761232D01*
X5811732Y26940308D01*
X5723518Y27105345D01*
X5604801Y27250001D01*
X5460145Y27368718D01*
X5295108Y27456932D01*
X5116032Y27511254D01*
X4976465Y27525000D01*
X4483135Y27525000D01*
X4343568Y27511254D01*
X4164492Y27456932D01*
X3999455Y27368718D01*
X3854799Y27250001D01*
X3736082Y27105345D01*
X3647868Y26940308D01*
X3593546Y26761232D01*
X3575204Y26575000D01*
X2934134Y26575000D01*
X2964245Y26674263D01*
X2985001Y26885000D01*
X2964245Y27095737D01*
X2902776Y27298375D01*
X2802954Y27485128D01*
X2668617Y27648817D01*
X2504928Y27783154D01*
X2339264Y27871704D01*
X34015680Y27871704D01*
X34015680Y27733816D01*
X34042581Y27598578D01*
X34065680Y27542811D01*
X34065681Y26447941D01*
X34062535Y26416000D01*
X34065680Y26384068D01*
X34065681Y23914692D01*
X34065680Y20842709D01*
X34042581Y20786942D01*
X34015680Y20651704D01*
X34015680Y20513816D01*
X34042581Y20378578D01*
X34095348Y20251186D01*
X34171954Y20136536D01*
X34269456Y20039034D01*
X34384106Y19962428D01*
X34511498Y19909661D01*
X34646736Y19882760D01*
X34784624Y19882760D01*
X34919862Y19909661D01*
X35047254Y19962428D01*
X35161904Y20039034D01*
X35259406Y20136536D01*
X35336012Y20251186D01*
X35388779Y20378578D01*
X35415680Y20513816D01*
X35415680Y20651704D01*
X35388779Y20786942D01*
X35365680Y20842708D01*
X35365680Y25766000D01*
X38221052Y25766000D01*
X38276818Y25742901D01*
X38412056Y25716000D01*
X38549944Y25716000D01*
X38685182Y25742901D01*
X38812574Y25795668D01*
X38927224Y25872274D01*
X39024726Y25969776D01*
X39101332Y26084426D01*
X39154099Y26211818D01*
X39181000Y26347056D01*
X39181000Y26484944D01*
X39154099Y26620182D01*
X39101332Y26747574D01*
X39024726Y26862224D01*
X38927224Y26959726D01*
X38812574Y27036332D01*
X38685182Y27089099D01*
X38549944Y27116000D01*
X38412056Y27116000D01*
X38276818Y27089099D01*
X38221052Y27066000D01*
X35365680Y27066000D01*
X35365680Y27542812D01*
X35388779Y27598578D01*
X35415680Y27733816D01*
X35415680Y27871704D01*
X35388779Y28006942D01*
X35336012Y28134334D01*
X35259406Y28248984D01*
X35255680Y28252710D01*
X35255680Y32177821D01*
X35275645Y32197786D01*
X35352251Y32312436D01*
X35405018Y32439828D01*
X35431919Y32575066D01*
X35431919Y32712954D01*
X35405018Y32848192D01*
X35352251Y32975584D01*
X35275645Y33090234D01*
X35178143Y33187736D01*
X35063493Y33264342D01*
X34936101Y33317109D01*
X34800863Y33344010D01*
X34662975Y33344010D01*
X34527737Y33317109D01*
X34400345Y33264342D01*
X34285695Y33187736D01*
X34188193Y33090234D01*
X34111587Y32975584D01*
X34058820Y32848192D01*
X34031919Y32712954D01*
X34031919Y32575066D01*
X34058820Y32439828D01*
X34111587Y32312436D01*
X34175681Y32216512D01*
X34175680Y28252710D01*
X34171954Y28248984D01*
X34095348Y28134334D01*
X34042581Y28006942D01*
X34015680Y27871704D01*
X2339264Y27871704D01*
X2318175Y27882976D01*
X2115537Y27944445D01*
X1957606Y27960000D01*
X1501994Y27960000D01*
X1344063Y27944445D01*
X1141425Y27882976D01*
X954672Y27783154D01*
X790983Y27648817D01*
X656646Y27485128D01*
X556824Y27298375D01*
X495355Y27095737D01*
X475000Y26889071D01*
X475000Y39946944D01*
X22668000Y39946944D01*
X22668000Y39809056D01*
X22694901Y39673818D01*
X22747668Y39546426D01*
X22824274Y39431776D01*
X22921776Y39334274D01*
X23036426Y39257668D01*
X23163818Y39204901D01*
X23299056Y39178000D01*
X23436944Y39178000D01*
X23572182Y39204901D01*
X23699574Y39257668D01*
X23766820Y39302600D01*
X25902966Y39302600D01*
X26008226Y39232268D01*
X26135618Y39179501D01*
X26270856Y39152600D01*
X26408744Y39152600D01*
X26543982Y39179501D01*
X26671374Y39232268D01*
X26786024Y39308874D01*
X26883526Y39406376D01*
X26960132Y39521026D01*
X27012899Y39648418D01*
X27039800Y39783656D01*
X27039800Y39921544D01*
X27012899Y40056782D01*
X26960132Y40184174D01*
X26883526Y40298824D01*
X26786024Y40396326D01*
X26671374Y40472932D01*
X26543982Y40525699D01*
X26408744Y40552600D01*
X26270856Y40552600D01*
X26135618Y40525699D01*
X26008226Y40472932D01*
X25902966Y40402600D01*
X23833350Y40402600D01*
X23814224Y40421726D01*
X23699574Y40498332D01*
X23572182Y40551099D01*
X23436944Y40578000D01*
X23299056Y40578000D01*
X23163818Y40551099D01*
X23036426Y40498332D01*
X22921776Y40421726D01*
X22824274Y40324224D01*
X22747668Y40209574D01*
X22694901Y40082182D01*
X22668000Y39946944D01*
X475000Y39946944D01*
X475000Y44426769D01*
X498040Y44661757D01*
X11857000Y44661757D01*
X11857000Y44238243D01*
X11939623Y43822868D01*
X12101695Y43431593D01*
X12336986Y43079455D01*
X12636455Y42779986D01*
X12988593Y42544695D01*
X13379868Y42382623D01*
X13795243Y42300000D01*
X14218757Y42300000D01*
X14332174Y42322560D01*
X23475840Y42322560D01*
X23475840Y41687163D01*
X23491212Y41609884D01*
X23521365Y41537089D01*
X23565140Y41471574D01*
X23620855Y41415859D01*
X23686369Y41372084D01*
X23759165Y41341932D01*
X23836444Y41326560D01*
X24471840Y41326560D01*
X24571840Y41426560D01*
X24571840Y42422560D01*
X24879840Y42422560D01*
X24879840Y41426560D01*
X24979840Y41326560D01*
X25615236Y41326560D01*
X25692515Y41341932D01*
X25765311Y41372084D01*
X25830825Y41415859D01*
X25886540Y41471574D01*
X25930315Y41537089D01*
X25960468Y41609884D01*
X25975840Y41687163D01*
X25975840Y42322560D01*
X25875840Y42422560D01*
X24879840Y42422560D01*
X24571840Y42422560D01*
X23575840Y42422560D01*
X23475840Y42322560D01*
X14332174Y42322560D01*
X14634132Y42382623D01*
X15025407Y42544695D01*
X15073096Y42576560D01*
X26009792Y42576560D01*
X26033927Y42331517D01*
X26105403Y42095891D01*
X26221474Y41878737D01*
X26377680Y41688400D01*
X26568017Y41532194D01*
X26785171Y41416123D01*
X27020797Y41344647D01*
X27204435Y41326560D01*
X27327245Y41326560D01*
X27510883Y41344647D01*
X27746509Y41416123D01*
X27963663Y41532194D01*
X28154000Y41688400D01*
X28310206Y41878737D01*
X28426277Y42095891D01*
X28497753Y42331517D01*
X28521888Y42576560D01*
X28497753Y42821603D01*
X28426277Y43057229D01*
X28310206Y43274383D01*
X28154000Y43464720D01*
X27963663Y43620926D01*
X27746509Y43736997D01*
X27510883Y43808473D01*
X27327245Y43826560D01*
X27204435Y43826560D01*
X27020797Y43808473D01*
X26785171Y43736997D01*
X26568017Y43620926D01*
X26377680Y43464720D01*
X26221474Y43274383D01*
X26105403Y43057229D01*
X26033927Y42821603D01*
X26009792Y42576560D01*
X15073096Y42576560D01*
X15377545Y42779986D01*
X15677014Y43079455D01*
X15912305Y43431593D01*
X15926539Y43465957D01*
X23475840Y43465957D01*
X23475840Y42830560D01*
X23575840Y42730560D01*
X24571840Y42730560D01*
X24571840Y43726560D01*
X24879840Y43726560D01*
X24879840Y42730560D01*
X25875840Y42730560D01*
X25975840Y42830560D01*
X25975840Y43465957D01*
X25960468Y43543236D01*
X25930315Y43616031D01*
X25886540Y43681546D01*
X25830825Y43737261D01*
X25765311Y43781036D01*
X25692515Y43811188D01*
X25615236Y43826560D01*
X24979840Y43826560D01*
X24879840Y43726560D01*
X24571840Y43726560D01*
X24471840Y43826560D01*
X23836444Y43826560D01*
X23759165Y43811188D01*
X23686369Y43781036D01*
X23620855Y43737261D01*
X23565140Y43681546D01*
X23521365Y43616031D01*
X23491212Y43543236D01*
X23475840Y43465957D01*
X15926539Y43465957D01*
X16074377Y43822868D01*
X16157000Y44238243D01*
X16157000Y44661757D01*
X16117058Y44862560D01*
X23475840Y44862560D01*
X23475840Y44227163D01*
X23491212Y44149884D01*
X23521365Y44077089D01*
X23565140Y44011574D01*
X23620855Y43955859D01*
X23686369Y43912084D01*
X23759165Y43881932D01*
X23836444Y43866560D01*
X24471840Y43866560D01*
X24571840Y43966560D01*
X24571840Y44962560D01*
X24879840Y44962560D01*
X24879840Y43966560D01*
X24979840Y43866560D01*
X25615236Y43866560D01*
X25692515Y43881932D01*
X25765311Y43912084D01*
X25830825Y43955859D01*
X25886540Y44011574D01*
X25930315Y44077089D01*
X25960468Y44149884D01*
X25975840Y44227163D01*
X25975840Y44862560D01*
X25875840Y44962560D01*
X24879840Y44962560D01*
X24571840Y44962560D01*
X23575840Y44962560D01*
X23475840Y44862560D01*
X16117058Y44862560D01*
X16074377Y45077132D01*
X16058046Y45116560D01*
X26009792Y45116560D01*
X26033927Y44871517D01*
X26105403Y44635891D01*
X26221474Y44418737D01*
X26377680Y44228400D01*
X26568017Y44072194D01*
X26785171Y43956123D01*
X27020797Y43884647D01*
X27204435Y43866560D01*
X27327245Y43866560D01*
X27510883Y43884647D01*
X27746509Y43956123D01*
X27963663Y44072194D01*
X28154000Y44228400D01*
X28310206Y44418737D01*
X28426277Y44635891D01*
X28497753Y44871517D01*
X28521888Y45116560D01*
X28549792Y45116560D01*
X28573927Y44871517D01*
X28645403Y44635891D01*
X28761474Y44418737D01*
X28905840Y44242827D01*
X28905841Y43450294D01*
X28761474Y43274383D01*
X28645403Y43057229D01*
X28573927Y42821603D01*
X28549792Y42576560D01*
X28573927Y42331517D01*
X28645403Y42095891D01*
X28761474Y41878737D01*
X28917680Y41688400D01*
X29108017Y41532194D01*
X29325171Y41416123D01*
X29560797Y41344647D01*
X29744435Y41326560D01*
X29867245Y41326560D01*
X30050883Y41344647D01*
X30286509Y41416123D01*
X30503663Y41532194D01*
X30694000Y41688400D01*
X30850206Y41878737D01*
X30966277Y42095891D01*
X31037753Y42331517D01*
X31061888Y42576560D01*
X31037753Y42821603D01*
X30966277Y43057229D01*
X30850206Y43274383D01*
X30705840Y43450293D01*
X30705840Y44242827D01*
X30850206Y44418737D01*
X30966277Y44635891D01*
X31037753Y44871517D01*
X31061888Y45116560D01*
X31037753Y45361603D01*
X30966277Y45597229D01*
X30850206Y45814383D01*
X30694000Y46004720D01*
X30503663Y46160926D01*
X30286509Y46276997D01*
X30050883Y46348473D01*
X29867245Y46366560D01*
X29744435Y46366560D01*
X29560797Y46348473D01*
X29325171Y46276997D01*
X29108017Y46160926D01*
X28917680Y46004720D01*
X28761474Y45814383D01*
X28645403Y45597229D01*
X28573927Y45361603D01*
X28549792Y45116560D01*
X28521888Y45116560D01*
X28497753Y45361603D01*
X28426277Y45597229D01*
X28310206Y45814383D01*
X28154000Y46004720D01*
X27963663Y46160926D01*
X27746509Y46276997D01*
X27510883Y46348473D01*
X27327245Y46366560D01*
X27204435Y46366560D01*
X27020797Y46348473D01*
X26785171Y46276997D01*
X26568017Y46160926D01*
X26377680Y46004720D01*
X26221474Y45814383D01*
X26105403Y45597229D01*
X26033927Y45361603D01*
X26009792Y45116560D01*
X16058046Y45116560D01*
X15912305Y45468407D01*
X15677014Y45820545D01*
X15491602Y46005957D01*
X23475840Y46005957D01*
X23475840Y45370560D01*
X23575840Y45270560D01*
X24571840Y45270560D01*
X24571840Y46266560D01*
X24879840Y46266560D01*
X24879840Y45270560D01*
X25875840Y45270560D01*
X25975840Y45370560D01*
X25975840Y46005957D01*
X25960468Y46083236D01*
X25930315Y46156031D01*
X25886540Y46221546D01*
X25830825Y46277261D01*
X25765311Y46321036D01*
X25692515Y46351188D01*
X25615236Y46366560D01*
X24979840Y46366560D01*
X24879840Y46266560D01*
X24571840Y46266560D01*
X24471840Y46366560D01*
X23836444Y46366560D01*
X23759165Y46351188D01*
X23686369Y46321036D01*
X23620855Y46277261D01*
X23565140Y46221546D01*
X23521365Y46156031D01*
X23491212Y46083236D01*
X23475840Y46005957D01*
X15491602Y46005957D01*
X15377545Y46120014D01*
X15025407Y46355305D01*
X14634132Y46517377D01*
X14218757Y46600000D01*
X13795243Y46600000D01*
X13379868Y46517377D01*
X12988593Y46355305D01*
X12636455Y46120014D01*
X12336986Y45820545D01*
X12101695Y45468407D01*
X11939623Y45077132D01*
X11857000Y44661757D01*
X498040Y44661757D01*
X540749Y45097328D01*
X728746Y45720003D01*
X1034102Y46294297D01*
X1445199Y46798351D01*
X1946364Y47212951D01*
X2518519Y47522315D01*
X3139861Y47714652D01*
X3809123Y47784994D01*
X3810803Y47785000D01*
X53240000Y47785000D01*
X53240000Y475000D01*
G04 #@! TD*
M02*
