G04 #@! TF.GenerationSoftware,KiCad,Pcbnew,5.0.1-33cea8e~68~ubuntu18.04.1*
G04 #@! TF.CreationDate,2018-12-09T10:12:36+01:00*
G04 #@! TF.ProjectId,NFC_adapter,4E46435F616461707465722E6B696361,rev?*
G04 #@! TF.SameCoordinates,PX6239c08PY7b26c20*
G04 #@! TF.FileFunction,Soldermask,Bot*
G04 #@! TF.FilePolarity,Negative*
%FSLAX46Y46*%
G04 Gerber Fmt 4.6, Leading zero omitted, Abs format (unit mm)*
G04 Created by KiCad (PCBNEW 5.0.1-33cea8e~68~ubuntu18.04.1) date ned 09 dec 2018 10:12:36 CET*
%MOMM*%
%LPD*%
G01*
G04 APERTURE LIST*
G04 #@! TA.AperFunction,NonConductor*
%ADD10C,0.100000*%
G04 #@! TD*
G04 APERTURE END LIST*
D10*
G36*
X14275327Y5622479D02*
X14540791Y5569675D01*
X14873830Y5431725D01*
X15173557Y5231454D01*
X15428454Y4976557D01*
X15628725Y4676830D01*
X15766675Y4343791D01*
X15837000Y3990239D01*
X15837000Y3629761D01*
X15766675Y3276209D01*
X15628725Y2943170D01*
X15428454Y2643443D01*
X15173557Y2388546D01*
X14873830Y2188275D01*
X14540791Y2050325D01*
X14275327Y1997521D01*
X14187241Y1980000D01*
X13826759Y1980000D01*
X13738673Y1997521D01*
X13473209Y2050325D01*
X13140170Y2188275D01*
X12840443Y2388546D01*
X12585546Y2643443D01*
X12385275Y2943170D01*
X12247325Y3276209D01*
X12177000Y3629761D01*
X12177000Y3990239D01*
X12247325Y4343791D01*
X12385275Y4676830D01*
X12585546Y4976557D01*
X12840443Y5231454D01*
X13140170Y5431725D01*
X13473209Y5569675D01*
X13738673Y5622479D01*
X13826759Y5640000D01*
X14187241Y5640000D01*
X14275327Y5622479D01*
X14275327Y5622479D01*
G37*
G36*
X42078000Y2626000D02*
X40218000Y2626000D01*
X40218000Y4486000D01*
X42078000Y4486000D01*
X42078000Y2626000D01*
X42078000Y2626000D01*
G37*
G36*
X38681006Y4483309D02*
X38790312Y4472543D01*
X38965617Y4419364D01*
X39127180Y4333008D01*
X39268791Y4216791D01*
X39385008Y4075180D01*
X39471364Y3913617D01*
X39524543Y3738312D01*
X39542499Y3556000D01*
X39524543Y3373688D01*
X39471364Y3198383D01*
X39385008Y3036820D01*
X39268791Y2895209D01*
X39127180Y2778992D01*
X38965617Y2692636D01*
X38790312Y2639457D01*
X38681006Y2628691D01*
X38653681Y2626000D01*
X38562319Y2626000D01*
X38534994Y2628691D01*
X38425688Y2639457D01*
X38250383Y2692636D01*
X38088820Y2778992D01*
X37947209Y2895209D01*
X37830992Y3036820D01*
X37744636Y3198383D01*
X37691457Y3373688D01*
X37673501Y3556000D01*
X37691457Y3738312D01*
X37744636Y3913617D01*
X37830992Y4075180D01*
X37947209Y4216791D01*
X38088820Y4333008D01*
X38250383Y4419364D01*
X38425688Y4472543D01*
X38534994Y4483309D01*
X38562319Y4486000D01*
X38653681Y4486000D01*
X38681006Y4483309D01*
X38681006Y4483309D01*
G37*
G36*
X36141006Y4483309D02*
X36250312Y4472543D01*
X36425617Y4419364D01*
X36587180Y4333008D01*
X36728791Y4216791D01*
X36845008Y4075180D01*
X36931364Y3913617D01*
X36984543Y3738312D01*
X37002499Y3556000D01*
X36984543Y3373688D01*
X36931364Y3198383D01*
X36845008Y3036820D01*
X36728791Y2895209D01*
X36587180Y2778992D01*
X36425617Y2692636D01*
X36250312Y2639457D01*
X36141006Y2628691D01*
X36113681Y2626000D01*
X36022319Y2626000D01*
X35994994Y2628691D01*
X35885688Y2639457D01*
X35710383Y2692636D01*
X35548820Y2778992D01*
X35407209Y2895209D01*
X35290992Y3036820D01*
X35204636Y3198383D01*
X35151457Y3373688D01*
X35133501Y3556000D01*
X35151457Y3738312D01*
X35204636Y3913617D01*
X35290992Y4075180D01*
X35407209Y4216791D01*
X35548820Y4333008D01*
X35710383Y4419364D01*
X35885688Y4472543D01*
X35994994Y4483309D01*
X36022319Y4486000D01*
X36113681Y4486000D01*
X36141006Y4483309D01*
X36141006Y4483309D01*
G37*
G36*
X33601006Y4483309D02*
X33710312Y4472543D01*
X33885617Y4419364D01*
X34047180Y4333008D01*
X34188791Y4216791D01*
X34305008Y4075180D01*
X34391364Y3913617D01*
X34444543Y3738312D01*
X34462499Y3556000D01*
X34444543Y3373688D01*
X34391364Y3198383D01*
X34305008Y3036820D01*
X34188791Y2895209D01*
X34047180Y2778992D01*
X33885617Y2692636D01*
X33710312Y2639457D01*
X33601006Y2628691D01*
X33573681Y2626000D01*
X33482319Y2626000D01*
X33454994Y2628691D01*
X33345688Y2639457D01*
X33170383Y2692636D01*
X33008820Y2778992D01*
X32867209Y2895209D01*
X32750992Y3036820D01*
X32664636Y3198383D01*
X32611457Y3373688D01*
X32593501Y3556000D01*
X32611457Y3738312D01*
X32664636Y3913617D01*
X32750992Y4075180D01*
X32867209Y4216791D01*
X33008820Y4333008D01*
X33170383Y4419364D01*
X33345688Y4472543D01*
X33454994Y4483309D01*
X33482319Y4486000D01*
X33573681Y4486000D01*
X33601006Y4483309D01*
X33601006Y4483309D01*
G37*
G36*
X31061006Y4483309D02*
X31170312Y4472543D01*
X31345617Y4419364D01*
X31507180Y4333008D01*
X31648791Y4216791D01*
X31765008Y4075180D01*
X31851364Y3913617D01*
X31904543Y3738312D01*
X31922499Y3556000D01*
X31904543Y3373688D01*
X31851364Y3198383D01*
X31765008Y3036820D01*
X31648791Y2895209D01*
X31507180Y2778992D01*
X31345617Y2692636D01*
X31170312Y2639457D01*
X31061006Y2628691D01*
X31033681Y2626000D01*
X30942319Y2626000D01*
X30914994Y2628691D01*
X30805688Y2639457D01*
X30630383Y2692636D01*
X30468820Y2778992D01*
X30327209Y2895209D01*
X30210992Y3036820D01*
X30124636Y3198383D01*
X30071457Y3373688D01*
X30053501Y3556000D01*
X30071457Y3738312D01*
X30124636Y3913617D01*
X30210992Y4075180D01*
X30327209Y4216791D01*
X30468820Y4333008D01*
X30630383Y4419364D01*
X30805688Y4472543D01*
X30914994Y4483309D01*
X30942319Y4486000D01*
X31033681Y4486000D01*
X31061006Y4483309D01*
X31061006Y4483309D01*
G37*
G36*
X28521006Y4483309D02*
X28630312Y4472543D01*
X28805617Y4419364D01*
X28967180Y4333008D01*
X29108791Y4216791D01*
X29225008Y4075180D01*
X29311364Y3913617D01*
X29364543Y3738312D01*
X29382499Y3556000D01*
X29364543Y3373688D01*
X29311364Y3198383D01*
X29225008Y3036820D01*
X29108791Y2895209D01*
X28967180Y2778992D01*
X28805617Y2692636D01*
X28630312Y2639457D01*
X28521006Y2628691D01*
X28493681Y2626000D01*
X28402319Y2626000D01*
X28374994Y2628691D01*
X28265688Y2639457D01*
X28090383Y2692636D01*
X27928820Y2778992D01*
X27787209Y2895209D01*
X27670992Y3036820D01*
X27584636Y3198383D01*
X27531457Y3373688D01*
X27513501Y3556000D01*
X27531457Y3738312D01*
X27584636Y3913617D01*
X27670992Y4075180D01*
X27787209Y4216791D01*
X27928820Y4333008D01*
X28090383Y4419364D01*
X28265688Y4472543D01*
X28374994Y4483309D01*
X28402319Y4486000D01*
X28493681Y4486000D01*
X28521006Y4483309D01*
X28521006Y4483309D01*
G37*
G36*
X25981006Y4483309D02*
X26090312Y4472543D01*
X26265617Y4419364D01*
X26427180Y4333008D01*
X26568791Y4216791D01*
X26685008Y4075180D01*
X26771364Y3913617D01*
X26824543Y3738312D01*
X26842499Y3556000D01*
X26824543Y3373688D01*
X26771364Y3198383D01*
X26685008Y3036820D01*
X26568791Y2895209D01*
X26427180Y2778992D01*
X26265617Y2692636D01*
X26090312Y2639457D01*
X25981006Y2628691D01*
X25953681Y2626000D01*
X25862319Y2626000D01*
X25834994Y2628691D01*
X25725688Y2639457D01*
X25550383Y2692636D01*
X25388820Y2778992D01*
X25247209Y2895209D01*
X25130992Y3036820D01*
X25044636Y3198383D01*
X24991457Y3373688D01*
X24973501Y3556000D01*
X24991457Y3738312D01*
X25044636Y3913617D01*
X25130992Y4075180D01*
X25247209Y4216791D01*
X25388820Y4333008D01*
X25550383Y4419364D01*
X25725688Y4472543D01*
X25834994Y4483309D01*
X25862319Y4486000D01*
X25953681Y4486000D01*
X25981006Y4483309D01*
X25981006Y4483309D01*
G37*
G36*
X23441006Y4483309D02*
X23550312Y4472543D01*
X23725617Y4419364D01*
X23887180Y4333008D01*
X24028791Y4216791D01*
X24145008Y4075180D01*
X24231364Y3913617D01*
X24284543Y3738312D01*
X24302499Y3556000D01*
X24284543Y3373688D01*
X24231364Y3198383D01*
X24145008Y3036820D01*
X24028791Y2895209D01*
X23887180Y2778992D01*
X23725617Y2692636D01*
X23550312Y2639457D01*
X23441006Y2628691D01*
X23413681Y2626000D01*
X23322319Y2626000D01*
X23294994Y2628691D01*
X23185688Y2639457D01*
X23010383Y2692636D01*
X22848820Y2778992D01*
X22707209Y2895209D01*
X22590992Y3036820D01*
X22504636Y3198383D01*
X22451457Y3373688D01*
X22433501Y3556000D01*
X22451457Y3738312D01*
X22504636Y3913617D01*
X22590992Y4075180D01*
X22707209Y4216791D01*
X22848820Y4333008D01*
X23010383Y4419364D01*
X23185688Y4472543D01*
X23294994Y4483309D01*
X23322319Y4486000D01*
X23413681Y4486000D01*
X23441006Y4483309D01*
X23441006Y4483309D01*
G37*
G36*
X20901006Y4483309D02*
X21010312Y4472543D01*
X21185617Y4419364D01*
X21347180Y4333008D01*
X21488791Y4216791D01*
X21605008Y4075180D01*
X21691364Y3913617D01*
X21744543Y3738312D01*
X21762499Y3556000D01*
X21744543Y3373688D01*
X21691364Y3198383D01*
X21605008Y3036820D01*
X21488791Y2895209D01*
X21347180Y2778992D01*
X21185617Y2692636D01*
X21010312Y2639457D01*
X20901006Y2628691D01*
X20873681Y2626000D01*
X20782319Y2626000D01*
X20754994Y2628691D01*
X20645688Y2639457D01*
X20470383Y2692636D01*
X20308820Y2778992D01*
X20167209Y2895209D01*
X20050992Y3036820D01*
X19964636Y3198383D01*
X19911457Y3373688D01*
X19893501Y3556000D01*
X19911457Y3738312D01*
X19964636Y3913617D01*
X20050992Y4075180D01*
X20167209Y4216791D01*
X20308820Y4333008D01*
X20470383Y4419364D01*
X20645688Y4472543D01*
X20754994Y4483309D01*
X20782319Y4486000D01*
X20873681Y4486000D01*
X20901006Y4483309D01*
X20901006Y4483309D01*
G37*
G36*
X2052806Y22169076D02*
X2195124Y22125904D01*
X2326285Y22055797D01*
X2441249Y21961449D01*
X2535597Y21846485D01*
X2605704Y21715324D01*
X2648876Y21573006D01*
X2663453Y21425000D01*
X2648876Y21276994D01*
X2605704Y21134676D01*
X2535597Y21003515D01*
X2441249Y20888551D01*
X2326285Y20794203D01*
X2195124Y20724096D01*
X2052806Y20680924D01*
X1941890Y20670000D01*
X1517710Y20670000D01*
X1406794Y20680924D01*
X1264476Y20724096D01*
X1133315Y20794203D01*
X1018351Y20888551D01*
X924003Y21003515D01*
X853896Y21134676D01*
X810724Y21276994D01*
X796147Y21425000D01*
X810724Y21573006D01*
X853896Y21715324D01*
X924003Y21846485D01*
X1018351Y21961449D01*
X1133315Y22055797D01*
X1264476Y22125904D01*
X1406794Y22169076D01*
X1517710Y22180000D01*
X1941890Y22180000D01*
X2052806Y22169076D01*
X2052806Y22169076D01*
G37*
G36*
X5053303Y22355885D02*
X5172055Y22319861D01*
X5172057Y22319860D01*
X5281503Y22261360D01*
X5377433Y22182633D01*
X5456160Y22086703D01*
X5456161Y22086701D01*
X5514661Y21977255D01*
X5550685Y21858503D01*
X5562848Y21735000D01*
X5550685Y21611497D01*
X5514661Y21492745D01*
X5514660Y21492743D01*
X5456160Y21383297D01*
X5377433Y21287367D01*
X5281503Y21208640D01*
X5281501Y21208639D01*
X5172055Y21150139D01*
X5053303Y21114115D01*
X4960750Y21105000D01*
X4498850Y21105000D01*
X4406297Y21114115D01*
X4287545Y21150139D01*
X4178099Y21208639D01*
X4178097Y21208640D01*
X4082167Y21287367D01*
X4003440Y21383297D01*
X3944940Y21492743D01*
X3944939Y21492745D01*
X3908915Y21611497D01*
X3896752Y21735000D01*
X3908915Y21858503D01*
X3944939Y21977255D01*
X4003439Y22086701D01*
X4003440Y22086703D01*
X4082167Y22182633D01*
X4178097Y22261360D01*
X4287543Y22319860D01*
X4287545Y22319861D01*
X4406297Y22355885D01*
X4498850Y22365000D01*
X4960750Y22365000D01*
X5053303Y22355885D01*
X5053303Y22355885D01*
G37*
G36*
X5053303Y27195885D02*
X5172055Y27159861D01*
X5172057Y27159860D01*
X5281503Y27101360D01*
X5377433Y27022633D01*
X5456160Y26926703D01*
X5456161Y26926701D01*
X5514661Y26817255D01*
X5550685Y26698503D01*
X5562848Y26575000D01*
X5550685Y26451497D01*
X5514661Y26332745D01*
X5514660Y26332743D01*
X5456160Y26223297D01*
X5377433Y26127367D01*
X5281503Y26048640D01*
X5281501Y26048639D01*
X5172055Y25990139D01*
X5053303Y25954115D01*
X4960750Y25945000D01*
X4498850Y25945000D01*
X4406297Y25954115D01*
X4287545Y25990139D01*
X4178099Y26048639D01*
X4178097Y26048640D01*
X4082167Y26127367D01*
X4003440Y26223297D01*
X3944940Y26332743D01*
X3944939Y26332745D01*
X3908915Y26451497D01*
X3896752Y26575000D01*
X3908915Y26698503D01*
X3944939Y26817255D01*
X4003439Y26926701D01*
X4003440Y26926703D01*
X4082167Y27022633D01*
X4178097Y27101360D01*
X4287543Y27159860D01*
X4287545Y27159861D01*
X4406297Y27195885D01*
X4498850Y27205000D01*
X4960750Y27205000D01*
X5053303Y27195885D01*
X5053303Y27195885D01*
G37*
G36*
X2052806Y27629076D02*
X2195124Y27585904D01*
X2326285Y27515797D01*
X2441249Y27421449D01*
X2535597Y27306485D01*
X2605704Y27175324D01*
X2648876Y27033006D01*
X2663453Y26885000D01*
X2648876Y26736994D01*
X2605704Y26594676D01*
X2535597Y26463515D01*
X2441249Y26348551D01*
X2326285Y26254203D01*
X2195124Y26184096D01*
X2052806Y26140924D01*
X1941890Y26130000D01*
X1517710Y26130000D01*
X1406794Y26140924D01*
X1264476Y26184096D01*
X1133315Y26254203D01*
X1018351Y26348551D01*
X924003Y26463515D01*
X853896Y26594676D01*
X810724Y26736994D01*
X796147Y26885000D01*
X810724Y27033006D01*
X853896Y27175324D01*
X924003Y27306485D01*
X1018351Y27421449D01*
X1133315Y27515797D01*
X1264476Y27585904D01*
X1406794Y27629076D01*
X1517710Y27640000D01*
X1941890Y27640000D01*
X2052806Y27629076D01*
X2052806Y27629076D01*
G37*
G36*
X25655840Y41646560D02*
X23795840Y41646560D01*
X23795840Y43506560D01*
X25655840Y43506560D01*
X25655840Y41646560D01*
X25655840Y41646560D01*
G37*
G36*
X29878846Y43503869D02*
X29988152Y43493103D01*
X30163457Y43439924D01*
X30325020Y43353568D01*
X30466631Y43237351D01*
X30582848Y43095740D01*
X30669204Y42934177D01*
X30722383Y42758872D01*
X30740339Y42576560D01*
X30722383Y42394248D01*
X30669204Y42218943D01*
X30582848Y42057380D01*
X30466631Y41915769D01*
X30325020Y41799552D01*
X30163457Y41713196D01*
X29988152Y41660017D01*
X29878846Y41649251D01*
X29851521Y41646560D01*
X29760159Y41646560D01*
X29732834Y41649251D01*
X29623528Y41660017D01*
X29448223Y41713196D01*
X29286660Y41799552D01*
X29145049Y41915769D01*
X29028832Y42057380D01*
X28942476Y42218943D01*
X28889297Y42394248D01*
X28871341Y42576560D01*
X28889297Y42758872D01*
X28942476Y42934177D01*
X29028832Y43095740D01*
X29145049Y43237351D01*
X29286660Y43353568D01*
X29448223Y43439924D01*
X29623528Y43493103D01*
X29732834Y43503869D01*
X29760159Y43506560D01*
X29851521Y43506560D01*
X29878846Y43503869D01*
X29878846Y43503869D01*
G37*
G36*
X27338846Y43503869D02*
X27448152Y43493103D01*
X27623457Y43439924D01*
X27785020Y43353568D01*
X27926631Y43237351D01*
X28042848Y43095740D01*
X28129204Y42934177D01*
X28182383Y42758872D01*
X28200339Y42576560D01*
X28182383Y42394248D01*
X28129204Y42218943D01*
X28042848Y42057380D01*
X27926631Y41915769D01*
X27785020Y41799552D01*
X27623457Y41713196D01*
X27448152Y41660017D01*
X27338846Y41649251D01*
X27311521Y41646560D01*
X27220159Y41646560D01*
X27192834Y41649251D01*
X27083528Y41660017D01*
X26908223Y41713196D01*
X26746660Y41799552D01*
X26605049Y41915769D01*
X26488832Y42057380D01*
X26402476Y42218943D01*
X26349297Y42394248D01*
X26331341Y42576560D01*
X26349297Y42758872D01*
X26402476Y42934177D01*
X26488832Y43095740D01*
X26605049Y43237351D01*
X26746660Y43353568D01*
X26908223Y43439924D01*
X27083528Y43493103D01*
X27192834Y43503869D01*
X27220159Y43506560D01*
X27311521Y43506560D01*
X27338846Y43503869D01*
X27338846Y43503869D01*
G37*
G36*
X14275327Y46262479D02*
X14540791Y46209675D01*
X14873830Y46071725D01*
X15173557Y45871454D01*
X15428454Y45616557D01*
X15628725Y45316830D01*
X15766675Y44983791D01*
X15811399Y44758943D01*
X15837000Y44630241D01*
X15837000Y44269759D01*
X15819479Y44181673D01*
X15766675Y43916209D01*
X15628725Y43583170D01*
X15428454Y43283443D01*
X15173557Y43028546D01*
X14873830Y42828275D01*
X14540791Y42690325D01*
X14275327Y42637521D01*
X14187241Y42620000D01*
X13826759Y42620000D01*
X13738673Y42637521D01*
X13473209Y42690325D01*
X13140170Y42828275D01*
X12840443Y43028546D01*
X12585546Y43283443D01*
X12385275Y43583170D01*
X12247325Y43916209D01*
X12194521Y44181673D01*
X12177000Y44269759D01*
X12177000Y44630241D01*
X12202601Y44758943D01*
X12247325Y44983791D01*
X12385275Y45316830D01*
X12585546Y45616557D01*
X12840443Y45871454D01*
X13140170Y46071725D01*
X13473209Y46209675D01*
X13738673Y46262479D01*
X13826759Y46280000D01*
X14187241Y46280000D01*
X14275327Y46262479D01*
X14275327Y46262479D01*
G37*
G36*
X29878846Y46043869D02*
X29988152Y46033103D01*
X30163457Y45979924D01*
X30325020Y45893568D01*
X30466631Y45777351D01*
X30582848Y45635740D01*
X30669204Y45474177D01*
X30722383Y45298872D01*
X30740339Y45116560D01*
X30722383Y44934248D01*
X30669204Y44758943D01*
X30582848Y44597380D01*
X30466631Y44455769D01*
X30325020Y44339552D01*
X30163457Y44253196D01*
X29988152Y44200017D01*
X29878846Y44189251D01*
X29851521Y44186560D01*
X29760159Y44186560D01*
X29732834Y44189251D01*
X29623528Y44200017D01*
X29448223Y44253196D01*
X29286660Y44339552D01*
X29145049Y44455769D01*
X29028832Y44597380D01*
X28942476Y44758943D01*
X28889297Y44934248D01*
X28871341Y45116560D01*
X28889297Y45298872D01*
X28942476Y45474177D01*
X29028832Y45635740D01*
X29145049Y45777351D01*
X29286660Y45893568D01*
X29448223Y45979924D01*
X29623528Y46033103D01*
X29732834Y46043869D01*
X29760159Y46046560D01*
X29851521Y46046560D01*
X29878846Y46043869D01*
X29878846Y46043869D01*
G37*
G36*
X27338846Y46043869D02*
X27448152Y46033103D01*
X27623457Y45979924D01*
X27785020Y45893568D01*
X27926631Y45777351D01*
X28042848Y45635740D01*
X28129204Y45474177D01*
X28182383Y45298872D01*
X28200339Y45116560D01*
X28182383Y44934248D01*
X28129204Y44758943D01*
X28042848Y44597380D01*
X27926631Y44455769D01*
X27785020Y44339552D01*
X27623457Y44253196D01*
X27448152Y44200017D01*
X27338846Y44189251D01*
X27311521Y44186560D01*
X27220159Y44186560D01*
X27192834Y44189251D01*
X27083528Y44200017D01*
X26908223Y44253196D01*
X26746660Y44339552D01*
X26605049Y44455769D01*
X26488832Y44597380D01*
X26402476Y44758943D01*
X26349297Y44934248D01*
X26331341Y45116560D01*
X26349297Y45298872D01*
X26402476Y45474177D01*
X26488832Y45635740D01*
X26605049Y45777351D01*
X26746660Y45893568D01*
X26908223Y45979924D01*
X27083528Y46033103D01*
X27192834Y46043869D01*
X27220159Y46046560D01*
X27311521Y46046560D01*
X27338846Y46043869D01*
X27338846Y46043869D01*
G37*
G36*
X25655840Y44186560D02*
X23795840Y44186560D01*
X23795840Y46046560D01*
X25655840Y46046560D01*
X25655840Y44186560D01*
X25655840Y44186560D01*
G37*
M02*
