G04 #@! TF.FileFunction,Copper,L2,Bot,Signal*
%FSLAX46Y46*%
G04 Gerber Fmt 4.6, Leading zero omitted, Abs format (unit mm)*
G04 Created by KiCad (PCBNEW 4.0.2+dfsg1-stable) date ned 09 jul 2017 09:25:13 CEST*
%MOMM*%
G01*
G04 APERTURE LIST*
%ADD10C,0.100000*%
%ADD11C,3.500000*%
%ADD12C,0.600000*%
%ADD13R,1.727200X1.727200*%
%ADD14O,1.727200X1.727200*%
%ADD15O,1.350000X0.940000*%
%ADD16O,1.500000X1.000000*%
%ADD17C,0.500000*%
%ADD18O,0.600000X0.600000*%
%ADD19R,0.797560X0.797560*%
%ADD20C,0.280000*%
%ADD21C,0.400000*%
%ADD22C,1.000000*%
%ADD23C,0.200000*%
G04 APERTURE END LIST*
D10*
D11*
X4000000Y3996400D03*
X4000000Y32996400D03*
D12*
X24100000Y14610000D03*
X24100000Y15660000D03*
X22970000Y15670000D03*
X21050000Y16780000D03*
X21060000Y20180000D03*
X8990000Y4060000D03*
X16210000Y4580000D03*
X14570000Y4580000D03*
X10700000Y4950000D03*
X12570000Y12040000D03*
X8260000Y7260000D03*
X8640000Y5060000D03*
X10400000Y13830000D03*
X1050000Y13000000D03*
X2130000Y13000000D03*
X3190000Y13000000D03*
X6310000Y14280000D03*
X6310000Y15180000D03*
X6310000Y16040000D03*
X6310000Y16830000D03*
X6310000Y17610000D03*
X19430000Y23150000D03*
X18200000Y23150000D03*
X24670000Y22930000D03*
X23630000Y22930000D03*
X16390000Y11700000D03*
X20540000Y16230000D03*
X20560000Y17310000D03*
X3180000Y8570000D03*
X4260000Y7570000D03*
X7210000Y9550000D03*
X9800000Y10200000D03*
X12480000Y10380000D03*
X28210000Y18500000D03*
D13*
X29120000Y1750000D03*
D14*
X26580000Y1750000D03*
X24040000Y1750000D03*
X21500000Y1750000D03*
X18960000Y1750000D03*
X16420000Y1750000D03*
X13880000Y1750000D03*
X11340000Y1750000D03*
X8800000Y1750000D03*
D13*
X9360000Y34850000D03*
D14*
X11900000Y34850000D03*
X14440000Y34850000D03*
D13*
X9360000Y32310000D03*
D14*
X11900000Y32310000D03*
X14440000Y32310000D03*
D15*
X4830000Y20921400D03*
X4830000Y16071400D03*
D16*
X1800000Y21221400D03*
X1800000Y15771400D03*
D12*
X27070000Y18500000D03*
D17*
X58001151Y19496937D02*
X58998849Y17495863D01*
X56001151Y19496937D02*
X56998849Y17495863D01*
X38151151Y19496937D02*
X39148849Y17495863D01*
D18*
X40150000Y18496400D03*
X39150000Y17496400D03*
X38150000Y19496400D03*
X57000000Y17496400D03*
X56000000Y19496400D03*
X58000000Y19496400D03*
X59000000Y17496400D03*
D19*
X20760700Y32000000D03*
X22259300Y32000000D03*
X20750700Y5000000D03*
X22249300Y5000000D03*
D12*
X11790000Y6940000D03*
X18780000Y3460000D03*
X10440000Y25090000D03*
X11230000Y19080000D03*
X9470000Y29190000D03*
X20610000Y19740000D03*
X8400000Y27250000D03*
X6150000Y27250000D03*
X26000000Y18496400D03*
X3260000Y9920000D03*
X19450000Y14980000D03*
X8820000Y23560000D03*
X21900000Y15320000D03*
X16960000Y30700000D03*
X21900000Y27280000D03*
X21900000Y22540000D03*
X24220000Y18610000D03*
X23560000Y18610000D03*
X20760000Y33050000D03*
X23170000Y5000000D03*
X20130000Y3320000D03*
X10470000Y3360000D03*
X14720000Y8230000D03*
X12780000Y8280000D03*
X14690000Y7410000D03*
X12700000Y7280000D03*
X13190000Y6500000D03*
X16450000Y9030000D03*
X12930000Y29940000D03*
X15580000Y24540000D03*
X11900000Y30630000D03*
X14970000Y23950000D03*
X11060000Y13020000D03*
X7650000Y12530000D03*
X5860000Y13020000D03*
X9260000Y12530000D03*
X20930000Y4030000D03*
D17*
X11790000Y6940000D02*
X11790000Y8410000D01*
X11790000Y8410000D02*
X14860000Y11480000D01*
X14860000Y11480000D02*
X14860000Y16480000D01*
X14860000Y16480000D02*
X12260000Y19080000D01*
X12260000Y19080000D02*
X11230000Y19080000D01*
D20*
X18390000Y3070000D02*
X12660000Y3070000D01*
X12660000Y3070000D02*
X11340000Y1750000D01*
X18780000Y3460000D02*
X18390000Y3070000D01*
D17*
X10440000Y25090000D02*
X10440000Y28220000D01*
X10440000Y28220000D02*
X9470000Y29190000D01*
D21*
X3260000Y9920000D02*
X4510000Y11170000D01*
X4510000Y11170000D02*
X13240000Y11170000D01*
X13240000Y11170000D02*
X14140000Y12070000D01*
X14140000Y12070000D02*
X14140000Y16200000D01*
X14140000Y16200000D02*
X11990000Y18350000D01*
X11990000Y18350000D02*
X10940000Y18350000D01*
X10940000Y18350000D02*
X10480000Y18810000D01*
X10480000Y18810000D02*
X10480000Y19400000D01*
X10480000Y19400000D02*
X11090000Y20010000D01*
X11090000Y20010000D02*
X12460000Y20010000D01*
D17*
X8910000Y23560000D02*
X12460000Y20010000D01*
X12460000Y20010000D02*
X15660000Y16810000D01*
X8820000Y23560000D02*
X8910000Y23560000D01*
X15660000Y15330000D02*
X16010000Y14980000D01*
X15660000Y16810000D02*
X15660000Y15330000D01*
X16010000Y14980000D02*
X19450000Y14980000D01*
X21900000Y15320000D02*
X21900000Y18620000D01*
D20*
X16960000Y30700000D02*
X16050000Y30700000D01*
X16050000Y30700000D02*
X14440000Y32310000D01*
X21900000Y22540000D02*
X21900000Y27280000D01*
D17*
X21900000Y22540000D02*
X21900000Y18620000D01*
X23560000Y18610000D02*
X21910000Y18610000D01*
X21910000Y18610000D02*
X21900000Y18620000D01*
D22*
X14440000Y34850000D02*
X14440000Y32310000D01*
D20*
X20760000Y33050000D02*
X20760700Y33049300D01*
X20760700Y33049300D02*
X20760700Y32000000D01*
X22249300Y5000000D02*
X23170000Y5000000D01*
X17810000Y3580000D02*
X10690000Y3580000D01*
X20130000Y3320000D02*
X19960000Y3320000D01*
X19960000Y3320000D02*
X19090000Y4190000D01*
X19090000Y4190000D02*
X18420000Y4190000D01*
X10690000Y3580000D02*
X10470000Y3360000D01*
X18420000Y4190000D02*
X17810000Y3580000D01*
X14720000Y8230000D02*
X14670000Y8280000D01*
X14670000Y8280000D02*
X12780000Y8280000D01*
X14560000Y7280000D02*
X12700000Y7280000D01*
X14690000Y7410000D02*
X14560000Y7280000D01*
X15070000Y6740000D02*
X13430000Y6740000D01*
X13430000Y6740000D02*
X13190000Y6500000D01*
X15430000Y7100000D02*
X15070000Y6740000D01*
X15430000Y8010000D02*
X16450000Y9030000D01*
X15430000Y7100000D02*
X15430000Y8010000D01*
X16450000Y8960000D02*
X16450000Y9030000D01*
X12930000Y29940000D02*
X12930000Y29200000D01*
X14070000Y28060000D02*
X14070000Y25250000D01*
X12930000Y29200000D02*
X14070000Y28060000D01*
X14070000Y25250000D02*
X14700000Y24620000D01*
X14700000Y24620000D02*
X15500000Y24620000D01*
X15500000Y24620000D02*
X15580000Y24540000D01*
X11900000Y30630000D02*
X12250000Y30280000D01*
X12250000Y30280000D02*
X12250000Y29190000D01*
X12250000Y29190000D02*
X13490000Y27950000D01*
X13490000Y27950000D02*
X13490000Y25140000D01*
X13490000Y25140000D02*
X14680000Y23950000D01*
X14680000Y23950000D02*
X14970000Y23950000D01*
X8410000Y11770000D02*
X9810000Y11770000D01*
X9810000Y11770000D02*
X11060000Y13020000D01*
X7650000Y12530000D02*
X8410000Y11770000D01*
X8620000Y13290000D02*
X6130000Y13290000D01*
X6130000Y13290000D02*
X5860000Y13020000D01*
X9260000Y12650000D02*
X8620000Y13290000D01*
X9260000Y12530000D02*
X9260000Y12650000D01*
X20750700Y5000000D02*
X20750700Y4209300D01*
X20750700Y4209300D02*
X20930000Y4030000D01*
D23*
G36*
X36300000Y475000D02*
X4023231Y475000D01*
X3315768Y544367D01*
X2657595Y743081D01*
X2050555Y1065850D01*
X1517768Y1500381D01*
X1306208Y1756114D01*
X7536400Y1756114D01*
X7536400Y1743886D01*
X7560465Y1498451D01*
X7631744Y1262365D01*
X7747521Y1044620D01*
X7903386Y853510D01*
X8093404Y696314D01*
X8310335Y579020D01*
X8545918Y506095D01*
X8791178Y480317D01*
X9036775Y502668D01*
X9273353Y572296D01*
X9491901Y686551D01*
X9684095Y841078D01*
X9842613Y1029994D01*
X9961419Y1246101D01*
X10035987Y1481169D01*
X10063477Y1726243D01*
X10063600Y1743886D01*
X10063600Y1756114D01*
X10039535Y2001549D01*
X9968256Y2237635D01*
X9852479Y2455380D01*
X9696614Y2646490D01*
X9506596Y2803686D01*
X9289665Y2920980D01*
X9054082Y2993905D01*
X8808822Y3019683D01*
X8563225Y2997332D01*
X8326647Y2927704D01*
X8108099Y2813449D01*
X7915905Y2658922D01*
X7757387Y2470006D01*
X7638581Y2253899D01*
X7564013Y2018831D01*
X7536523Y1773757D01*
X7536400Y1756114D01*
X1306208Y1756114D01*
X1079532Y2030117D01*
X752532Y2634892D01*
X549229Y3291656D01*
X494158Y3815622D01*
X1847174Y3815622D01*
X1923287Y3400912D01*
X2078502Y3008884D01*
X2306906Y2654470D01*
X2599800Y2351170D01*
X2946027Y2110537D01*
X3332399Y1941735D01*
X3744200Y1851194D01*
X4165744Y1842364D01*
X4580975Y1915581D01*
X4974077Y2068055D01*
X5330077Y2293979D01*
X5635414Y2584748D01*
X5878459Y2929287D01*
X6044020Y3301142D01*
X9769080Y3301142D01*
X9793861Y3166120D01*
X9844396Y3038483D01*
X9918760Y2923093D01*
X10014121Y2824344D01*
X10126846Y2745998D01*
X10252641Y2691039D01*
X10386716Y2661561D01*
X10457347Y2660081D01*
X10455905Y2658922D01*
X10297387Y2470006D01*
X10178581Y2253899D01*
X10104013Y2018831D01*
X10076523Y1773757D01*
X10076400Y1756114D01*
X10076400Y1743886D01*
X10100465Y1498451D01*
X10171744Y1262365D01*
X10287521Y1044620D01*
X10443386Y853510D01*
X10633404Y696314D01*
X10850335Y579020D01*
X11085918Y506095D01*
X11331178Y480317D01*
X11576775Y502668D01*
X11813353Y572296D01*
X12031901Y686551D01*
X12224095Y841078D01*
X12382613Y1029994D01*
X12501419Y1246101D01*
X12575987Y1481169D01*
X12603477Y1726243D01*
X12603600Y1743886D01*
X12603600Y1756114D01*
X12579535Y2001549D01*
X12527517Y2173841D01*
X12883676Y2530000D01*
X12887728Y2530000D01*
X12837387Y2470006D01*
X12718581Y2253899D01*
X12644013Y2018831D01*
X12616523Y1773757D01*
X12616400Y1756114D01*
X12616400Y1743886D01*
X12640465Y1498451D01*
X12711744Y1262365D01*
X12827521Y1044620D01*
X12983386Y853510D01*
X13173404Y696314D01*
X13390335Y579020D01*
X13625918Y506095D01*
X13871178Y480317D01*
X14116775Y502668D01*
X14353353Y572296D01*
X14571901Y686551D01*
X14764095Y841078D01*
X14922613Y1029994D01*
X15041419Y1246101D01*
X15115987Y1481169D01*
X15143477Y1726243D01*
X15143600Y1743886D01*
X15143600Y1756114D01*
X15119535Y2001549D01*
X15048256Y2237635D01*
X14932479Y2455380D01*
X14871621Y2530000D01*
X15427728Y2530000D01*
X15377387Y2470006D01*
X15258581Y2253899D01*
X15184013Y2018831D01*
X15156523Y1773757D01*
X15156400Y1756114D01*
X15156400Y1743886D01*
X15180465Y1498451D01*
X15251744Y1262365D01*
X15367521Y1044620D01*
X15523386Y853510D01*
X15713404Y696314D01*
X15930335Y579020D01*
X16165918Y506095D01*
X16411178Y480317D01*
X16656775Y502668D01*
X16893353Y572296D01*
X17111901Y686551D01*
X17304095Y841078D01*
X17462613Y1029994D01*
X17581419Y1246101D01*
X17655987Y1481169D01*
X17683477Y1726243D01*
X17683600Y1743886D01*
X17683600Y1756114D01*
X17659535Y2001549D01*
X17588256Y2237635D01*
X17472479Y2455380D01*
X17411621Y2530000D01*
X17967728Y2530000D01*
X17917387Y2470006D01*
X17798581Y2253899D01*
X17724013Y2018831D01*
X17696523Y1773757D01*
X17696400Y1756114D01*
X17696400Y1743886D01*
X17720465Y1498451D01*
X17791744Y1262365D01*
X17907521Y1044620D01*
X18063386Y853510D01*
X18253404Y696314D01*
X18470335Y579020D01*
X18705918Y506095D01*
X18951178Y480317D01*
X19196775Y502668D01*
X19433353Y572296D01*
X19651901Y686551D01*
X19844095Y841078D01*
X20002613Y1029994D01*
X20121419Y1246101D01*
X20195987Y1481169D01*
X20223477Y1726243D01*
X20223600Y1743886D01*
X20223600Y1756114D01*
X20236400Y1756114D01*
X20236400Y1743886D01*
X20260465Y1498451D01*
X20331744Y1262365D01*
X20447521Y1044620D01*
X20603386Y853510D01*
X20793404Y696314D01*
X21010335Y579020D01*
X21245918Y506095D01*
X21491178Y480317D01*
X21736775Y502668D01*
X21973353Y572296D01*
X22191901Y686551D01*
X22384095Y841078D01*
X22542613Y1029994D01*
X22661419Y1246101D01*
X22735987Y1481169D01*
X22763477Y1726243D01*
X22763600Y1743886D01*
X22763600Y1756114D01*
X22776400Y1756114D01*
X22776400Y1743886D01*
X22800465Y1498451D01*
X22871744Y1262365D01*
X22987521Y1044620D01*
X23143386Y853510D01*
X23333404Y696314D01*
X23550335Y579020D01*
X23785918Y506095D01*
X24031178Y480317D01*
X24276775Y502668D01*
X24513353Y572296D01*
X24731901Y686551D01*
X24924095Y841078D01*
X25082613Y1029994D01*
X25201419Y1246101D01*
X25275987Y1481169D01*
X25303477Y1726243D01*
X25303600Y1743886D01*
X25303600Y1756114D01*
X25316400Y1756114D01*
X25316400Y1743886D01*
X25340465Y1498451D01*
X25411744Y1262365D01*
X25527521Y1044620D01*
X25683386Y853510D01*
X25873404Y696314D01*
X26090335Y579020D01*
X26325918Y506095D01*
X26571178Y480317D01*
X26816775Y502668D01*
X27053353Y572296D01*
X27271901Y686551D01*
X27464095Y841078D01*
X27622613Y1029994D01*
X27741419Y1246101D01*
X27815987Y1481169D01*
X27817650Y1496000D01*
X27856400Y1496000D01*
X27856400Y847003D01*
X27871772Y769724D01*
X27901925Y696929D01*
X27945700Y631414D01*
X28001415Y575699D01*
X28066929Y531924D01*
X28139725Y501772D01*
X28217004Y486400D01*
X28866000Y486400D01*
X28966000Y586400D01*
X28966000Y1596000D01*
X29274000Y1596000D01*
X29274000Y586400D01*
X29374000Y486400D01*
X30022996Y486400D01*
X30100275Y501772D01*
X30173071Y531924D01*
X30238585Y575699D01*
X30294300Y631414D01*
X30338075Y696929D01*
X30368228Y769724D01*
X30383600Y847003D01*
X30383600Y1496000D01*
X30283600Y1596000D01*
X29274000Y1596000D01*
X28966000Y1596000D01*
X27956400Y1596000D01*
X27856400Y1496000D01*
X27817650Y1496000D01*
X27843477Y1726243D01*
X27843600Y1743886D01*
X27843600Y1756114D01*
X27819535Y2001549D01*
X27748256Y2237635D01*
X27632479Y2455380D01*
X27476614Y2646490D01*
X27468749Y2652997D01*
X27856400Y2652997D01*
X27856400Y2004000D01*
X27956400Y1904000D01*
X28966000Y1904000D01*
X28966000Y2913600D01*
X29274000Y2913600D01*
X29274000Y1904000D01*
X30283600Y1904000D01*
X30383600Y2004000D01*
X30383600Y2652997D01*
X30368228Y2730276D01*
X30338075Y2803071D01*
X30294300Y2868586D01*
X30238585Y2924301D01*
X30173071Y2968076D01*
X30100275Y2998228D01*
X30022996Y3013600D01*
X29374000Y3013600D01*
X29274000Y2913600D01*
X28966000Y2913600D01*
X28866000Y3013600D01*
X28217004Y3013600D01*
X28139725Y2998228D01*
X28066929Y2968076D01*
X28001415Y2924301D01*
X27945700Y2868586D01*
X27901925Y2803071D01*
X27871772Y2730276D01*
X27856400Y2652997D01*
X27468749Y2652997D01*
X27286596Y2803686D01*
X27069665Y2920980D01*
X26834082Y2993905D01*
X26588822Y3019683D01*
X26343225Y2997332D01*
X26106647Y2927704D01*
X25888099Y2813449D01*
X25695905Y2658922D01*
X25537387Y2470006D01*
X25418581Y2253899D01*
X25344013Y2018831D01*
X25316523Y1773757D01*
X25316400Y1756114D01*
X25303600Y1756114D01*
X25279535Y2001549D01*
X25208256Y2237635D01*
X25092479Y2455380D01*
X24936614Y2646490D01*
X24746596Y2803686D01*
X24529665Y2920980D01*
X24294082Y2993905D01*
X24048822Y3019683D01*
X23803225Y2997332D01*
X23566647Y2927704D01*
X23348099Y2813449D01*
X23155905Y2658922D01*
X22997387Y2470006D01*
X22878581Y2253899D01*
X22804013Y2018831D01*
X22776523Y1773757D01*
X22776400Y1756114D01*
X22763600Y1756114D01*
X22739535Y2001549D01*
X22668256Y2237635D01*
X22552479Y2455380D01*
X22396614Y2646490D01*
X22206596Y2803686D01*
X21989665Y2920980D01*
X21754082Y2993905D01*
X21508822Y3019683D01*
X21263225Y2997332D01*
X21026647Y2927704D01*
X20808099Y2813449D01*
X20615905Y2658922D01*
X20457387Y2470006D01*
X20338581Y2253899D01*
X20264013Y2018831D01*
X20236523Y1773757D01*
X20236400Y1756114D01*
X20223600Y1756114D01*
X20199535Y2001549D01*
X20128256Y2237635D01*
X20012479Y2455380D01*
X19856614Y2646490D01*
X19773303Y2715411D01*
X19786846Y2705998D01*
X19912641Y2651039D01*
X20046716Y2621561D01*
X20183963Y2618686D01*
X20319155Y2642524D01*
X20447141Y2692167D01*
X20563048Y2765723D01*
X20662460Y2860392D01*
X20741591Y2972568D01*
X20797427Y3097977D01*
X20827841Y3231842D01*
X20829287Y3335393D01*
X20846716Y3331561D01*
X20983963Y3328686D01*
X21119155Y3352524D01*
X21247141Y3402167D01*
X21363048Y3475723D01*
X21462460Y3570392D01*
X21541591Y3682568D01*
X21597427Y3807977D01*
X21627841Y3941842D01*
X21630030Y4098639D01*
X21603366Y4233301D01*
X21567972Y4319174D01*
X21635434Y4261677D01*
X21738544Y4215198D01*
X21850520Y4199285D01*
X22648080Y4199285D01*
X22711778Y4204365D01*
X22819818Y4237822D01*
X22914259Y4300055D01*
X22943915Y4334851D01*
X22952641Y4331039D01*
X23086716Y4301561D01*
X23223963Y4298686D01*
X23359155Y4322524D01*
X23487141Y4372167D01*
X23603048Y4445723D01*
X23702460Y4540392D01*
X23781591Y4652568D01*
X23837427Y4777977D01*
X23867841Y4911842D01*
X23870030Y5068639D01*
X23843366Y5203301D01*
X23791054Y5330220D01*
X23715086Y5444561D01*
X23618356Y5541969D01*
X23504548Y5618733D01*
X23377997Y5671930D01*
X23243524Y5699534D01*
X23106250Y5700492D01*
X22971405Y5674769D01*
X22948563Y5665540D01*
X22863166Y5738323D01*
X22760056Y5784802D01*
X22648080Y5800715D01*
X21850520Y5800715D01*
X21786822Y5795635D01*
X21678782Y5762178D01*
X21584341Y5699945D01*
X21510977Y5613866D01*
X21500146Y5589839D01*
X21450645Y5664959D01*
X21364566Y5738323D01*
X21261456Y5784802D01*
X21149480Y5800715D01*
X20351920Y5800715D01*
X20288222Y5795635D01*
X20180182Y5762178D01*
X20085741Y5699945D01*
X20012377Y5613866D01*
X19965898Y5510756D01*
X19949985Y5398780D01*
X19949985Y4601220D01*
X19955065Y4537522D01*
X19988522Y4429482D01*
X20050755Y4335041D01*
X20136834Y4261677D01*
X20210700Y4228380D01*
X20210700Y4209300D01*
X20215571Y4159624D01*
X20219915Y4109966D01*
X20220707Y4107241D01*
X20220984Y4104413D01*
X20230501Y4072891D01*
X20229681Y4014165D01*
X20203524Y4019534D01*
X20066250Y4020492D01*
X20030083Y4013593D01*
X19471838Y4571838D01*
X19433254Y4603531D01*
X19395082Y4635561D01*
X19392595Y4636928D01*
X19390399Y4638732D01*
X19346402Y4662323D01*
X19302729Y4686333D01*
X19300025Y4687191D01*
X19297520Y4688534D01*
X19249817Y4703118D01*
X19202272Y4718200D01*
X19199447Y4718517D01*
X19196735Y4719346D01*
X19147158Y4724382D01*
X19097540Y4729947D01*
X19091983Y4729986D01*
X19091885Y4729996D01*
X19091794Y4729987D01*
X19090000Y4730000D01*
X18420000Y4730000D01*
X18370324Y4725129D01*
X18320666Y4720785D01*
X18317941Y4719993D01*
X18315113Y4719716D01*
X18267328Y4705289D01*
X18219461Y4691382D01*
X18216942Y4690076D01*
X18214222Y4689255D01*
X18170208Y4665852D01*
X18125894Y4642882D01*
X18123671Y4641107D01*
X18121169Y4639777D01*
X18082577Y4608302D01*
X18043531Y4577132D01*
X18039577Y4573232D01*
X18039498Y4573168D01*
X18039438Y4573095D01*
X18038162Y4571837D01*
X17586324Y4120000D01*
X10690000Y4120000D01*
X10640324Y4115129D01*
X10590666Y4110785D01*
X10587941Y4109993D01*
X10585113Y4109716D01*
X10537361Y4095299D01*
X10489462Y4081383D01*
X10486940Y4080075D01*
X10484222Y4079255D01*
X10448382Y4060198D01*
X10406250Y4060492D01*
X10271405Y4034769D01*
X10144124Y3983344D01*
X10029255Y3908176D01*
X9931174Y3812128D01*
X9853617Y3698859D01*
X9799538Y3572683D01*
X9770997Y3438406D01*
X9769080Y3301142D01*
X6044020Y3301142D01*
X6049955Y3314471D01*
X6143368Y3725630D01*
X6150092Y4207218D01*
X6068196Y4620825D01*
X5907523Y5010648D01*
X5674192Y5361838D01*
X5377093Y5661019D01*
X5027540Y5896795D01*
X4638849Y6060186D01*
X4225824Y6144968D01*
X3804197Y6147912D01*
X3390029Y6068905D01*
X2999094Y5910957D01*
X2646283Y5680084D01*
X2345035Y5385080D01*
X2106824Y5037182D01*
X1940724Y4649641D01*
X1853061Y4237218D01*
X1847174Y3815622D01*
X494158Y3815622D01*
X475010Y3997794D01*
X475000Y4000786D01*
X475000Y9861142D01*
X2559080Y9861142D01*
X2583861Y9726120D01*
X2634396Y9598483D01*
X2708760Y9483093D01*
X2804121Y9384344D01*
X2916846Y9305998D01*
X3042641Y9251039D01*
X3176716Y9221561D01*
X3313963Y9218686D01*
X3449155Y9242524D01*
X3577141Y9292167D01*
X3693048Y9365723D01*
X3792460Y9460392D01*
X3871591Y9572568D01*
X3927427Y9697977D01*
X3939458Y9750930D01*
X4758528Y10570000D01*
X13030761Y10570000D01*
X11330381Y8869619D01*
X11292296Y8823254D01*
X11253676Y8777229D01*
X11252028Y8774231D01*
X11249860Y8771592D01*
X11221486Y8718676D01*
X11192562Y8666062D01*
X11191529Y8662806D01*
X11189913Y8659792D01*
X11172347Y8602336D01*
X11154204Y8545143D01*
X11153823Y8541749D01*
X11152823Y8538477D01*
X11146754Y8478729D01*
X11140063Y8419075D01*
X11140017Y8412393D01*
X11140004Y8412269D01*
X11140015Y8412153D01*
X11140000Y8410000D01*
X11140000Y7200425D01*
X11119538Y7152683D01*
X11090997Y7018406D01*
X11089080Y6881142D01*
X11113861Y6746120D01*
X11164396Y6618483D01*
X11238760Y6503093D01*
X11334121Y6404344D01*
X11446846Y6325998D01*
X11572641Y6271039D01*
X11706716Y6241561D01*
X11843963Y6238686D01*
X11979155Y6262524D01*
X12107141Y6312167D01*
X12223048Y6385723D01*
X12322460Y6480392D01*
X12401591Y6592568D01*
X12421674Y6637675D01*
X12482641Y6611039D01*
X12497251Y6607827D01*
X12490997Y6578406D01*
X12489080Y6441142D01*
X12513861Y6306120D01*
X12564396Y6178483D01*
X12638760Y6063093D01*
X12734121Y5964344D01*
X12846846Y5885998D01*
X12972641Y5831039D01*
X13106716Y5801561D01*
X13243963Y5798686D01*
X13379155Y5822524D01*
X13507141Y5872167D01*
X13623048Y5945723D01*
X13722460Y6040392D01*
X13801591Y6152568D01*
X13822709Y6200000D01*
X15070000Y6200000D01*
X15119676Y6204871D01*
X15169334Y6209215D01*
X15172059Y6210007D01*
X15174887Y6210284D01*
X15222639Y6224701D01*
X15270538Y6238617D01*
X15273060Y6239925D01*
X15275778Y6240745D01*
X15319775Y6264139D01*
X15364106Y6287118D01*
X15366329Y6288893D01*
X15368831Y6290223D01*
X15407423Y6321698D01*
X15446469Y6352868D01*
X15450428Y6356771D01*
X15450502Y6356832D01*
X15450559Y6356901D01*
X15451838Y6358162D01*
X15811838Y6718162D01*
X15843531Y6756746D01*
X15875561Y6794918D01*
X15876928Y6797405D01*
X15878732Y6799601D01*
X15902313Y6843579D01*
X15926333Y6887271D01*
X15927191Y6889977D01*
X15928534Y6892481D01*
X15943113Y6940169D01*
X15958200Y6987728D01*
X15958517Y6990553D01*
X15959346Y6993265D01*
X15964382Y7042842D01*
X15969947Y7092460D01*
X15969986Y7098017D01*
X15969996Y7098115D01*
X15969987Y7098206D01*
X15970000Y7100000D01*
X15970000Y7786324D01*
X16514160Y8330484D01*
X16639155Y8352524D01*
X16767141Y8402167D01*
X16883048Y8475723D01*
X16982460Y8570392D01*
X17061591Y8682568D01*
X17117427Y8807977D01*
X17147841Y8941842D01*
X17150030Y9098639D01*
X17123366Y9233301D01*
X17071054Y9360220D01*
X16995086Y9474561D01*
X16898356Y9571969D01*
X16784548Y9648733D01*
X16657997Y9701930D01*
X16523524Y9729534D01*
X16386250Y9730492D01*
X16251405Y9704769D01*
X16124124Y9653344D01*
X16009255Y9578176D01*
X15911174Y9482128D01*
X15833617Y9368859D01*
X15779538Y9242683D01*
X15750997Y9108406D01*
X15750802Y9094478D01*
X15291352Y8635028D01*
X15265086Y8674561D01*
X15168356Y8771969D01*
X15054548Y8848733D01*
X14927997Y8901930D01*
X14793524Y8929534D01*
X14656250Y8930492D01*
X14521405Y8904769D01*
X14394124Y8853344D01*
X14343169Y8820000D01*
X13230311Y8820000D01*
X13228356Y8821969D01*
X13164368Y8865129D01*
X15319620Y11020381D01*
X15357729Y11066776D01*
X15396324Y11112771D01*
X15397972Y11115768D01*
X15400140Y11118408D01*
X15428514Y11171324D01*
X15457438Y11223938D01*
X15458471Y11227194D01*
X15460087Y11230208D01*
X15477653Y11287664D01*
X15495796Y11344857D01*
X15496177Y11348251D01*
X15497177Y11351523D01*
X15503246Y11411271D01*
X15509937Y11470925D01*
X15509983Y11477607D01*
X15509996Y11477731D01*
X15509985Y11477847D01*
X15510000Y11480000D01*
X15510000Y14560761D01*
X15550381Y14520380D01*
X15596776Y14482271D01*
X15642771Y14443676D01*
X15645768Y14442028D01*
X15648408Y14439860D01*
X15701324Y14411486D01*
X15753938Y14382562D01*
X15757194Y14381529D01*
X15760208Y14379913D01*
X15817664Y14362347D01*
X15874857Y14344204D01*
X15878251Y14343823D01*
X15881523Y14342823D01*
X15941271Y14336754D01*
X16000925Y14330063D01*
X16007607Y14330017D01*
X16007731Y14330004D01*
X16007847Y14330015D01*
X16010000Y14330000D01*
X19189241Y14330000D01*
X19232641Y14311039D01*
X19366716Y14281561D01*
X19503963Y14278686D01*
X19639155Y14302524D01*
X19767141Y14352167D01*
X19883048Y14425723D01*
X19982460Y14520392D01*
X20061591Y14632568D01*
X20117427Y14757977D01*
X20147841Y14891842D01*
X20150030Y15048639D01*
X20123366Y15183301D01*
X20071054Y15310220D01*
X19995086Y15424561D01*
X19898356Y15521969D01*
X19784548Y15598733D01*
X19657997Y15651930D01*
X19523524Y15679534D01*
X19386250Y15680492D01*
X19251405Y15654769D01*
X19190100Y15630000D01*
X16310000Y15630000D01*
X16310000Y16810000D01*
X16304140Y16869770D01*
X16298908Y16929569D01*
X16297954Y16932851D01*
X16297621Y16936252D01*
X16280260Y16993756D01*
X16263515Y17051390D01*
X16261944Y17054421D01*
X16260955Y17057696D01*
X16232747Y17110748D01*
X16205136Y17164015D01*
X16203005Y17166684D01*
X16201399Y17169705D01*
X16163452Y17216232D01*
X16125992Y17263158D01*
X16121298Y17267917D01*
X16121221Y17268012D01*
X16121133Y17268085D01*
X16119619Y17269620D01*
X12919691Y20469547D01*
X12919619Y20469620D01*
X9369619Y24019619D01*
X9323254Y24057704D01*
X9277229Y24096324D01*
X9274231Y24097972D01*
X9271592Y24100140D01*
X9268555Y24101768D01*
X9268356Y24101969D01*
X9154548Y24178733D01*
X9027997Y24231930D01*
X8893524Y24259534D01*
X8756250Y24260492D01*
X8621405Y24234769D01*
X8494124Y24183344D01*
X8379255Y24108176D01*
X8281174Y24012128D01*
X8203617Y23898859D01*
X8149538Y23772683D01*
X8120997Y23638406D01*
X8119080Y23501142D01*
X8143861Y23366120D01*
X8194396Y23238483D01*
X8268760Y23123093D01*
X8364121Y23024344D01*
X8476846Y22945998D01*
X8602641Y22891039D01*
X8675810Y22874952D01*
X10957121Y20593640D01*
X10920362Y20582542D01*
X10867179Y20567091D01*
X10864381Y20565641D01*
X10861358Y20564728D01*
X10812388Y20538690D01*
X10763216Y20513202D01*
X10760751Y20511235D01*
X10757965Y20509753D01*
X10715022Y20474730D01*
X10671700Y20440146D01*
X10667309Y20435816D01*
X10667219Y20435742D01*
X10667150Y20435658D01*
X10665736Y20434264D01*
X10055736Y19824264D01*
X10020561Y19781441D01*
X9984932Y19738980D01*
X9983413Y19736216D01*
X9981409Y19733777D01*
X9955201Y19684899D01*
X9928519Y19636365D01*
X9927566Y19633360D01*
X9926074Y19630578D01*
X9909865Y19577560D01*
X9893111Y19524747D01*
X9892759Y19521612D01*
X9891837Y19518595D01*
X9886241Y19463496D01*
X9880058Y19408377D01*
X9880015Y19402205D01*
X9880004Y19402094D01*
X9880014Y19401991D01*
X9880000Y19400000D01*
X9880000Y18810000D01*
X9885409Y18754830D01*
X9890239Y18699629D01*
X9891119Y18696600D01*
X9891427Y18693459D01*
X9907458Y18640362D01*
X9922909Y18587179D01*
X9924359Y18584381D01*
X9925272Y18581358D01*
X9951289Y18532427D01*
X9976797Y18483216D01*
X9978767Y18480748D01*
X9980247Y18477965D01*
X10015248Y18435050D01*
X10049854Y18391700D01*
X10054184Y18387309D01*
X10054258Y18387219D01*
X10054342Y18387150D01*
X10055736Y18385736D01*
X10515736Y17925736D01*
X10558559Y17890561D01*
X10601020Y17854932D01*
X10603784Y17853413D01*
X10606223Y17851409D01*
X10655101Y17825201D01*
X10703635Y17798519D01*
X10706640Y17797566D01*
X10709422Y17796074D01*
X10762440Y17779865D01*
X10815253Y17763111D01*
X10818388Y17762759D01*
X10821405Y17761837D01*
X10876504Y17756241D01*
X10931623Y17750058D01*
X10937795Y17750015D01*
X10937906Y17750004D01*
X10938009Y17750014D01*
X10940000Y17750000D01*
X11741472Y17750000D01*
X13540000Y15951472D01*
X13540000Y12318528D01*
X12991472Y11770000D01*
X10573676Y11770000D01*
X11124160Y12320484D01*
X11249155Y12342524D01*
X11377141Y12392167D01*
X11493048Y12465723D01*
X11592460Y12560392D01*
X11671591Y12672568D01*
X11727427Y12797977D01*
X11757841Y12931842D01*
X11760030Y13088639D01*
X11733366Y13223301D01*
X11681054Y13350220D01*
X11605086Y13464561D01*
X11508356Y13561969D01*
X11394548Y13638733D01*
X11267997Y13691930D01*
X11133524Y13719534D01*
X10996250Y13720492D01*
X10861405Y13694769D01*
X10734124Y13643344D01*
X10619255Y13568176D01*
X10521174Y13472128D01*
X10443617Y13358859D01*
X10389538Y13232683D01*
X10360997Y13098406D01*
X10360802Y13084478D01*
X9945970Y12669646D01*
X9933366Y12733301D01*
X9881054Y12860220D01*
X9805086Y12974561D01*
X9708356Y13071969D01*
X9594548Y13148733D01*
X9474464Y13199212D01*
X9001838Y13671838D01*
X8963254Y13703531D01*
X8925082Y13735561D01*
X8922595Y13736928D01*
X8920399Y13738732D01*
X8876402Y13762323D01*
X8832729Y13786333D01*
X8830025Y13787191D01*
X8827520Y13788534D01*
X8779817Y13803118D01*
X8732272Y13818200D01*
X8729447Y13818517D01*
X8726735Y13819346D01*
X8677158Y13824382D01*
X8627540Y13829947D01*
X8621983Y13829986D01*
X8621885Y13829996D01*
X8621794Y13829987D01*
X8620000Y13830000D01*
X6130000Y13830000D01*
X6080320Y13825129D01*
X6030667Y13820785D01*
X6027942Y13819993D01*
X6025113Y13819716D01*
X5977349Y13805295D01*
X5929462Y13791383D01*
X5926940Y13790075D01*
X5924222Y13789255D01*
X5880205Y13765850D01*
X5835895Y13742882D01*
X5833674Y13741109D01*
X5831169Y13739777D01*
X5807428Y13720414D01*
X5796250Y13720492D01*
X5661405Y13694769D01*
X5534124Y13643344D01*
X5419255Y13568176D01*
X5321174Y13472128D01*
X5243617Y13358859D01*
X5189538Y13232683D01*
X5160997Y13098406D01*
X5159080Y12961142D01*
X5183861Y12826120D01*
X5234396Y12698483D01*
X5308760Y12583093D01*
X5404121Y12484344D01*
X5516846Y12405998D01*
X5642641Y12351039D01*
X5776716Y12321561D01*
X5913963Y12318686D01*
X6049155Y12342524D01*
X6177141Y12392167D01*
X6293048Y12465723D01*
X6392460Y12560392D01*
X6471591Y12672568D01*
X6506066Y12750000D01*
X6982674Y12750000D01*
X6979538Y12742683D01*
X6950997Y12608406D01*
X6949080Y12471142D01*
X6973861Y12336120D01*
X7024396Y12208483D01*
X7098760Y12093093D01*
X7194121Y11994344D01*
X7306846Y11915998D01*
X7432641Y11861039D01*
X7566716Y11831561D01*
X7585150Y11831175D01*
X7646324Y11770000D01*
X4510000Y11770000D01*
X4454830Y11764591D01*
X4399629Y11759761D01*
X4396600Y11758881D01*
X4393459Y11758573D01*
X4340362Y11742542D01*
X4287179Y11727091D01*
X4284381Y11725641D01*
X4281358Y11724728D01*
X4232427Y11698711D01*
X4183216Y11673203D01*
X4180748Y11671233D01*
X4177965Y11669753D01*
X4135080Y11634777D01*
X4091700Y11600147D01*
X4087308Y11595814D01*
X4087219Y11595742D01*
X4087151Y11595660D01*
X4085736Y11594264D01*
X3092096Y10600624D01*
X3061405Y10594769D01*
X2934124Y10543344D01*
X2819255Y10468176D01*
X2721174Y10372128D01*
X2643617Y10258859D01*
X2589538Y10132683D01*
X2560997Y9998406D01*
X2559080Y9861142D01*
X475000Y9861142D01*
X475000Y15777683D01*
X644458Y15777683D01*
X660377Y15602757D01*
X709971Y15434254D01*
X791348Y15278593D01*
X901411Y15141703D01*
X1035966Y15028798D01*
X1189888Y14944178D01*
X1357315Y14891067D01*
X1531870Y14871488D01*
X1544436Y14871400D01*
X2055564Y14871400D01*
X2230375Y14888540D01*
X2398527Y14939309D01*
X2553616Y15021771D01*
X2689735Y15132786D01*
X2801698Y15268126D01*
X2885241Y15422636D01*
X2937182Y15590430D01*
X2955542Y15765117D01*
X2939623Y15940043D01*
X2899175Y16077474D01*
X3749820Y16077474D01*
X3765209Y15908378D01*
X3813149Y15745492D01*
X3891814Y15595020D01*
X3998208Y15462693D01*
X4128278Y15353551D01*
X4277070Y15271752D01*
X4438916Y15220412D01*
X4607652Y15201485D01*
X4619799Y15201400D01*
X5040201Y15201400D01*
X5209185Y15217969D01*
X5371732Y15267045D01*
X5521652Y15346759D01*
X5653233Y15454073D01*
X5761464Y15584902D01*
X5842222Y15734261D01*
X5892431Y15896462D01*
X5910180Y16065326D01*
X5894791Y16234422D01*
X5846851Y16397308D01*
X5768186Y16547780D01*
X5661792Y16680107D01*
X5531722Y16789249D01*
X5382930Y16871048D01*
X5221084Y16922388D01*
X5052348Y16941315D01*
X5040201Y16941400D01*
X4619799Y16941400D01*
X4450815Y16924831D01*
X4288268Y16875755D01*
X4138348Y16796041D01*
X4006767Y16688727D01*
X3898536Y16557898D01*
X3817778Y16408539D01*
X3767569Y16246338D01*
X3749820Y16077474D01*
X2899175Y16077474D01*
X2890029Y16108546D01*
X2808652Y16264207D01*
X2698589Y16401097D01*
X2564034Y16514002D01*
X2410112Y16598622D01*
X2242685Y16651733D01*
X2068130Y16671312D01*
X2055564Y16671400D01*
X1544436Y16671400D01*
X1369625Y16654260D01*
X1201473Y16603491D01*
X1046384Y16521029D01*
X910265Y16410014D01*
X798302Y16274674D01*
X714759Y16120164D01*
X662818Y15952370D01*
X644458Y15777683D01*
X475000Y15777683D01*
X475000Y21227683D01*
X644458Y21227683D01*
X660377Y21052757D01*
X709971Y20884254D01*
X791348Y20728593D01*
X901411Y20591703D01*
X1035966Y20478798D01*
X1189888Y20394178D01*
X1357315Y20341067D01*
X1531870Y20321488D01*
X1544436Y20321400D01*
X2055564Y20321400D01*
X2230375Y20338540D01*
X2398527Y20389309D01*
X2553616Y20471771D01*
X2689735Y20582786D01*
X2801698Y20718126D01*
X2885241Y20872636D01*
X2902216Y20927474D01*
X3749820Y20927474D01*
X3765209Y20758378D01*
X3813149Y20595492D01*
X3891814Y20445020D01*
X3998208Y20312693D01*
X4128278Y20203551D01*
X4277070Y20121752D01*
X4438916Y20070412D01*
X4607652Y20051485D01*
X4619799Y20051400D01*
X5040201Y20051400D01*
X5209185Y20067969D01*
X5371732Y20117045D01*
X5521652Y20196759D01*
X5653233Y20304073D01*
X5761464Y20434902D01*
X5842222Y20584261D01*
X5892431Y20746462D01*
X5910180Y20915326D01*
X5894791Y21084422D01*
X5846851Y21247308D01*
X5768186Y21397780D01*
X5661792Y21530107D01*
X5531722Y21639249D01*
X5382930Y21721048D01*
X5221084Y21772388D01*
X5052348Y21791315D01*
X5040201Y21791400D01*
X4619799Y21791400D01*
X4450815Y21774831D01*
X4288268Y21725755D01*
X4138348Y21646041D01*
X4006767Y21538727D01*
X3898536Y21407898D01*
X3817778Y21258539D01*
X3767569Y21096338D01*
X3749820Y20927474D01*
X2902216Y20927474D01*
X2937182Y21040430D01*
X2955542Y21215117D01*
X2939623Y21390043D01*
X2890029Y21558546D01*
X2808652Y21714207D01*
X2698589Y21851097D01*
X2564034Y21964002D01*
X2410112Y22048622D01*
X2242685Y22101733D01*
X2068130Y22121312D01*
X2055564Y22121400D01*
X1544436Y22121400D01*
X1369625Y22104260D01*
X1201473Y22053491D01*
X1046384Y21971029D01*
X910265Y21860014D01*
X798302Y21724674D01*
X714759Y21570164D01*
X662818Y21402370D01*
X644458Y21227683D01*
X475000Y21227683D01*
X475000Y29131142D01*
X8769080Y29131142D01*
X8793861Y28996120D01*
X8844396Y28868483D01*
X8918760Y28753093D01*
X9014121Y28654344D01*
X9126846Y28575998D01*
X9194183Y28546579D01*
X9790000Y27950761D01*
X9790000Y25350425D01*
X9769538Y25302683D01*
X9740997Y25168406D01*
X9739080Y25031142D01*
X9763861Y24896120D01*
X9814396Y24768483D01*
X9888760Y24653093D01*
X9984121Y24554344D01*
X10096846Y24475998D01*
X10222641Y24421039D01*
X10356716Y24391561D01*
X10493963Y24388686D01*
X10629155Y24412524D01*
X10757141Y24462167D01*
X10873048Y24535723D01*
X10972460Y24630392D01*
X11051591Y24742568D01*
X11107427Y24867977D01*
X11137841Y25001842D01*
X11140030Y25158639D01*
X11113366Y25293301D01*
X11090000Y25349991D01*
X11090000Y28220000D01*
X11084139Y28279774D01*
X11078908Y28339568D01*
X11077955Y28342850D01*
X11077621Y28346252D01*
X11060266Y28403735D01*
X11043516Y28461389D01*
X11041943Y28464424D01*
X11040955Y28467696D01*
X11012756Y28520731D01*
X10985136Y28574015D01*
X10983005Y28576684D01*
X10981399Y28579705D01*
X10943452Y28626232D01*
X10905992Y28673158D01*
X10901298Y28677917D01*
X10901221Y28678012D01*
X10901133Y28678085D01*
X10899619Y28679620D01*
X10113516Y29465722D01*
X10091054Y29520220D01*
X10015086Y29634561D01*
X9918356Y29731969D01*
X9804548Y29808733D01*
X9677997Y29861930D01*
X9543524Y29889534D01*
X9406250Y29890492D01*
X9271405Y29864769D01*
X9144124Y29813344D01*
X9029255Y29738176D01*
X8931174Y29642128D01*
X8853617Y29528859D01*
X8799538Y29402683D01*
X8770997Y29268406D01*
X8769080Y29131142D01*
X475000Y29131142D01*
X475000Y32815622D01*
X1847174Y32815622D01*
X1923287Y32400912D01*
X2078502Y32008884D01*
X2306906Y31654470D01*
X2599800Y31351170D01*
X2946027Y31110537D01*
X3332399Y30941735D01*
X3744200Y30851194D01*
X4165744Y30842364D01*
X4580975Y30915581D01*
X4974077Y31068055D01*
X5330077Y31293979D01*
X5635414Y31584748D01*
X5878459Y31929287D01*
X5934875Y32056000D01*
X8096400Y32056000D01*
X8096400Y31407003D01*
X8111772Y31329724D01*
X8141925Y31256929D01*
X8185700Y31191414D01*
X8241415Y31135699D01*
X8306929Y31091924D01*
X8379725Y31061772D01*
X8457004Y31046400D01*
X9106000Y31046400D01*
X9206000Y31146400D01*
X9206000Y32156000D01*
X9514000Y32156000D01*
X9514000Y31146400D01*
X9614000Y31046400D01*
X10262996Y31046400D01*
X10340275Y31061772D01*
X10413071Y31091924D01*
X10478585Y31135699D01*
X10534300Y31191414D01*
X10578075Y31256929D01*
X10608228Y31329724D01*
X10623600Y31407003D01*
X10623600Y32056000D01*
X10523600Y32156000D01*
X9514000Y32156000D01*
X9206000Y32156000D01*
X8196400Y32156000D01*
X8096400Y32056000D01*
X5934875Y32056000D01*
X6049955Y32314471D01*
X6050328Y32316114D01*
X10636400Y32316114D01*
X10636400Y32303886D01*
X10660465Y32058451D01*
X10731744Y31822365D01*
X10847521Y31604620D01*
X11003386Y31413510D01*
X11193404Y31256314D01*
X11410335Y31139020D01*
X11417124Y31136918D01*
X11361174Y31082128D01*
X11283617Y30968859D01*
X11229538Y30842683D01*
X11200997Y30708406D01*
X11199080Y30571142D01*
X11223861Y30436120D01*
X11274396Y30308483D01*
X11348760Y30193093D01*
X11444121Y30094344D01*
X11556846Y30015998D01*
X11682641Y29961039D01*
X11710000Y29955024D01*
X11710000Y29190000D01*
X11714871Y29140324D01*
X11719215Y29090666D01*
X11720007Y29087941D01*
X11720284Y29085113D01*
X11734701Y29037361D01*
X11748617Y28989462D01*
X11749925Y28986940D01*
X11750745Y28984222D01*
X11774139Y28940225D01*
X11797118Y28895894D01*
X11798893Y28893671D01*
X11800223Y28891169D01*
X11831698Y28852577D01*
X11862868Y28813531D01*
X11866771Y28809572D01*
X11866832Y28809498D01*
X11866901Y28809441D01*
X11868162Y28808162D01*
X12950000Y27726324D01*
X12950000Y25140000D01*
X12954871Y25090324D01*
X12959215Y25040666D01*
X12960007Y25037941D01*
X12960284Y25035113D01*
X12974701Y24987361D01*
X12988617Y24939462D01*
X12989925Y24936940D01*
X12990745Y24934222D01*
X13014139Y24890225D01*
X13037118Y24845894D01*
X13038893Y24843671D01*
X13040223Y24841169D01*
X13071698Y24802577D01*
X13102868Y24763531D01*
X13106771Y24759572D01*
X13106832Y24759498D01*
X13106901Y24759441D01*
X13108162Y24758162D01*
X14298162Y23568162D01*
X14336768Y23536451D01*
X14374918Y23504439D01*
X14377402Y23503073D01*
X14379600Y23501268D01*
X14423619Y23477665D01*
X14467271Y23453667D01*
X14469975Y23452809D01*
X14472480Y23451466D01*
X14480699Y23448953D01*
X14514121Y23414344D01*
X14626846Y23335998D01*
X14752641Y23281039D01*
X14886716Y23251561D01*
X15023963Y23248686D01*
X15159155Y23272524D01*
X15287141Y23322167D01*
X15403048Y23395723D01*
X15502460Y23490392D01*
X15581591Y23602568D01*
X15637427Y23727977D01*
X15663774Y23843943D01*
X15769155Y23862524D01*
X15897141Y23912167D01*
X16013048Y23985723D01*
X16112460Y24080392D01*
X16191591Y24192568D01*
X16247427Y24317977D01*
X16277841Y24451842D01*
X16280030Y24608639D01*
X16253366Y24743301D01*
X16201054Y24870220D01*
X16125086Y24984561D01*
X16028356Y25081969D01*
X15914548Y25158733D01*
X15787997Y25211930D01*
X15653524Y25239534D01*
X15516250Y25240492D01*
X15381405Y25214769D01*
X15254124Y25163344D01*
X15249014Y25160000D01*
X14923675Y25160000D01*
X14610000Y25473676D01*
X14610000Y27221142D01*
X21199080Y27221142D01*
X21223861Y27086120D01*
X21274396Y26958483D01*
X21348760Y26843093D01*
X21360000Y26831454D01*
X21360000Y22990413D01*
X21283617Y22878859D01*
X21229538Y22752683D01*
X21200997Y22618406D01*
X21199080Y22481142D01*
X21223861Y22346120D01*
X21250000Y22280100D01*
X21250000Y15580425D01*
X21229538Y15532683D01*
X21200997Y15398406D01*
X21199080Y15261142D01*
X21223861Y15126120D01*
X21274396Y14998483D01*
X21348760Y14883093D01*
X21444121Y14784344D01*
X21556846Y14705998D01*
X21682641Y14651039D01*
X21816716Y14621561D01*
X21953963Y14618686D01*
X22089155Y14642524D01*
X22217141Y14692167D01*
X22333048Y14765723D01*
X22432460Y14860392D01*
X22511591Y14972568D01*
X22567427Y15097977D01*
X22597841Y15231842D01*
X22600030Y15388639D01*
X22573366Y15523301D01*
X22550000Y15579991D01*
X22550000Y17960000D01*
X23299241Y17960000D01*
X23342641Y17941039D01*
X23476716Y17911561D01*
X23613963Y17908686D01*
X23749155Y17932524D01*
X23877141Y17982167D01*
X23889929Y17990282D01*
X24002641Y17941039D01*
X24136716Y17911561D01*
X24273963Y17908686D01*
X24409155Y17932524D01*
X24537141Y17982167D01*
X24653048Y18055723D01*
X24752460Y18150392D01*
X24831591Y18262568D01*
X24887427Y18387977D01*
X24917841Y18521842D01*
X24920030Y18678639D01*
X24893366Y18813301D01*
X24841054Y18940220D01*
X24765086Y19054561D01*
X24668356Y19151969D01*
X24554548Y19228733D01*
X24427997Y19281930D01*
X24293524Y19309534D01*
X24156250Y19310492D01*
X24021405Y19284769D01*
X23894124Y19233344D01*
X23889999Y19230645D01*
X23767997Y19281930D01*
X23633524Y19309534D01*
X23496250Y19310492D01*
X23361405Y19284769D01*
X23300100Y19260000D01*
X22550000Y19260000D01*
X22550000Y22278836D01*
X22567427Y22317977D01*
X22597841Y22451842D01*
X22600030Y22608639D01*
X22573366Y22743301D01*
X22521054Y22870220D01*
X22445086Y22984561D01*
X22440000Y22989683D01*
X22440000Y26831081D01*
X22511591Y26932568D01*
X22567427Y27057977D01*
X22597841Y27191842D01*
X22600030Y27348639D01*
X22573366Y27483301D01*
X22521054Y27610220D01*
X22445086Y27724561D01*
X22348356Y27821969D01*
X22234548Y27898733D01*
X22107997Y27951930D01*
X21973524Y27979534D01*
X21836250Y27980492D01*
X21701405Y27954769D01*
X21574124Y27903344D01*
X21459255Y27828176D01*
X21361174Y27732128D01*
X21283617Y27618859D01*
X21229538Y27492683D01*
X21200997Y27358406D01*
X21199080Y27221142D01*
X14610000Y27221142D01*
X14610000Y28060000D01*
X14605125Y28109722D01*
X14600784Y28159334D01*
X14599994Y28162054D01*
X14599716Y28164887D01*
X14585276Y28212714D01*
X14571382Y28260539D01*
X14570076Y28263058D01*
X14569255Y28265778D01*
X14545852Y28309792D01*
X14522882Y28354106D01*
X14521107Y28356329D01*
X14519777Y28358831D01*
X14488277Y28397454D01*
X14457131Y28436469D01*
X14453233Y28440422D01*
X14453168Y28440502D01*
X14453094Y28440563D01*
X14451837Y28441838D01*
X13470000Y29423676D01*
X13470000Y29491081D01*
X13541591Y29592568D01*
X13597427Y29717977D01*
X13627841Y29851842D01*
X13630030Y30008639D01*
X13603366Y30143301D01*
X13551054Y30270220D01*
X13475086Y30384561D01*
X13378356Y30481969D01*
X13264548Y30558733D01*
X13137997Y30611930D01*
X13003524Y30639534D01*
X12866250Y30640492D01*
X12731405Y30614769D01*
X12685570Y30596250D01*
X12668264Y30617470D01*
X12637132Y30656468D01*
X12633233Y30660422D01*
X12633168Y30660502D01*
X12633094Y30660563D01*
X12631838Y30661837D01*
X12599961Y30693714D01*
X12600030Y30698639D01*
X12573366Y30833301D01*
X12521054Y30960220D01*
X12445086Y31074561D01*
X12382832Y31137251D01*
X12591901Y31246551D01*
X12784095Y31401078D01*
X12942613Y31589994D01*
X13061419Y31806101D01*
X13135987Y32041169D01*
X13163477Y32286243D01*
X13163600Y32303886D01*
X13163600Y32316114D01*
X13139535Y32561549D01*
X13068256Y32797635D01*
X12952479Y33015380D01*
X12796614Y33206490D01*
X12606596Y33363686D01*
X12389665Y33480980D01*
X12154082Y33553905D01*
X11908822Y33579683D01*
X11663225Y33557332D01*
X11426647Y33487704D01*
X11208099Y33373449D01*
X11015905Y33218922D01*
X10857387Y33030006D01*
X10738581Y32813899D01*
X10664013Y32578831D01*
X10636523Y32333757D01*
X10636400Y32316114D01*
X6050328Y32316114D01*
X6143368Y32725630D01*
X6150092Y33207218D01*
X6148948Y33212997D01*
X8096400Y33212997D01*
X8096400Y32564000D01*
X8196400Y32464000D01*
X9206000Y32464000D01*
X9206000Y33473600D01*
X9514000Y33473600D01*
X9514000Y32464000D01*
X10523600Y32464000D01*
X10623600Y32564000D01*
X10623600Y33212997D01*
X10608228Y33290276D01*
X10578075Y33363071D01*
X10534300Y33428586D01*
X10478585Y33484301D01*
X10413071Y33528076D01*
X10340275Y33558228D01*
X10262996Y33573600D01*
X9614000Y33573600D01*
X9514000Y33473600D01*
X9206000Y33473600D01*
X9106000Y33573600D01*
X8457004Y33573600D01*
X8379725Y33558228D01*
X8306929Y33528076D01*
X8241415Y33484301D01*
X8185700Y33428586D01*
X8141925Y33363071D01*
X8111772Y33290276D01*
X8096400Y33212997D01*
X6148948Y33212997D01*
X6068196Y33620825D01*
X5907523Y34010648D01*
X5674192Y34361838D01*
X5441660Y34596000D01*
X8096400Y34596000D01*
X8096400Y33947003D01*
X8111772Y33869724D01*
X8141925Y33796929D01*
X8185700Y33731414D01*
X8241415Y33675699D01*
X8306929Y33631924D01*
X8379725Y33601772D01*
X8457004Y33586400D01*
X9106000Y33586400D01*
X9206000Y33686400D01*
X9206000Y34696000D01*
X9514000Y34696000D01*
X9514000Y33686400D01*
X9614000Y33586400D01*
X10262996Y33586400D01*
X10340275Y33601772D01*
X10413071Y33631924D01*
X10478585Y33675699D01*
X10534300Y33731414D01*
X10578075Y33796929D01*
X10608228Y33869724D01*
X10623600Y33947003D01*
X10623600Y34596000D01*
X10523600Y34696000D01*
X9514000Y34696000D01*
X9206000Y34696000D01*
X8196400Y34696000D01*
X8096400Y34596000D01*
X5441660Y34596000D01*
X5377093Y34661019D01*
X5087853Y34856114D01*
X10636400Y34856114D01*
X10636400Y34843886D01*
X10660465Y34598451D01*
X10731744Y34362365D01*
X10847521Y34144620D01*
X11003386Y33953510D01*
X11193404Y33796314D01*
X11410335Y33679020D01*
X11645918Y33606095D01*
X11891178Y33580317D01*
X12136775Y33602668D01*
X12373353Y33672296D01*
X12591901Y33786551D01*
X12784095Y33941078D01*
X12942613Y34129994D01*
X13061419Y34346101D01*
X13135987Y34581169D01*
X13163477Y34826243D01*
X13163600Y34843886D01*
X13163600Y34856114D01*
X13176400Y34856114D01*
X13176400Y34843886D01*
X13200465Y34598451D01*
X13271744Y34362365D01*
X13387521Y34144620D01*
X13540000Y33957662D01*
X13540000Y33199967D01*
X13397387Y33030006D01*
X13278581Y32813899D01*
X13204013Y32578831D01*
X13176523Y32333757D01*
X13176400Y32316114D01*
X13176400Y32303886D01*
X13200465Y32058451D01*
X13271744Y31822365D01*
X13387521Y31604620D01*
X13543386Y31413510D01*
X13733404Y31256314D01*
X13950335Y31139020D01*
X14185918Y31066095D01*
X14431178Y31040317D01*
X14676775Y31062668D01*
X14867518Y31118806D01*
X15668162Y30318162D01*
X15706746Y30286469D01*
X15744918Y30254439D01*
X15747405Y30253072D01*
X15749601Y30251268D01*
X15793579Y30227687D01*
X15837271Y30203667D01*
X15839977Y30202809D01*
X15842481Y30201466D01*
X15890169Y30186887D01*
X15937728Y30171800D01*
X15940553Y30171483D01*
X15943265Y30170654D01*
X15992842Y30165618D01*
X16042460Y30160053D01*
X16048017Y30160014D01*
X16048115Y30160004D01*
X16048206Y30160013D01*
X16050000Y30160000D01*
X16510371Y30160000D01*
X16616846Y30085998D01*
X16742641Y30031039D01*
X16876716Y30001561D01*
X17013963Y29998686D01*
X17149155Y30022524D01*
X17277141Y30072167D01*
X17393048Y30145723D01*
X17492460Y30240392D01*
X17571591Y30352568D01*
X17627427Y30477977D01*
X17657841Y30611842D01*
X17660030Y30768639D01*
X17633366Y30903301D01*
X17581054Y31030220D01*
X17505086Y31144561D01*
X17408356Y31241969D01*
X17294548Y31318733D01*
X17167997Y31371930D01*
X17033524Y31399534D01*
X16896250Y31400492D01*
X16761405Y31374769D01*
X16634124Y31323344D01*
X16519255Y31248176D01*
X16510906Y31240000D01*
X16273676Y31240000D01*
X15626984Y31886692D01*
X15675987Y32041169D01*
X15703477Y32286243D01*
X15703600Y32303886D01*
X15703600Y32316114D01*
X15695495Y32398780D01*
X19959985Y32398780D01*
X19959985Y31601220D01*
X19965065Y31537522D01*
X19998522Y31429482D01*
X20060755Y31335041D01*
X20146834Y31261677D01*
X20249944Y31215198D01*
X20361920Y31199285D01*
X21159480Y31199285D01*
X21223178Y31204365D01*
X21331218Y31237822D01*
X21425659Y31300055D01*
X21499023Y31386134D01*
X21508746Y31407705D01*
X21549819Y31346235D01*
X21605534Y31290520D01*
X21671049Y31246745D01*
X21743844Y31216592D01*
X21821123Y31201220D01*
X22005300Y31201220D01*
X22105300Y31301220D01*
X22105300Y31846000D01*
X22413300Y31846000D01*
X22413300Y31301220D01*
X22513300Y31201220D01*
X22697477Y31201220D01*
X22774756Y31216592D01*
X22847551Y31246745D01*
X22913066Y31290520D01*
X22968781Y31346235D01*
X23012556Y31411749D01*
X23042708Y31484545D01*
X23058080Y31561824D01*
X23058080Y31746000D01*
X22958080Y31846000D01*
X22413300Y31846000D01*
X22105300Y31846000D01*
X22085300Y31846000D01*
X22085300Y32154000D01*
X22105300Y32154000D01*
X22105300Y32698780D01*
X22413300Y32698780D01*
X22413300Y32154000D01*
X22958080Y32154000D01*
X23058080Y32254000D01*
X23058080Y32438176D01*
X23042708Y32515455D01*
X23012556Y32588251D01*
X22968781Y32653765D01*
X22913066Y32709480D01*
X22847551Y32753255D01*
X22774756Y32783408D01*
X22697477Y32798780D01*
X22513300Y32798780D01*
X22413300Y32698780D01*
X22105300Y32698780D01*
X22005300Y32798780D01*
X21821123Y32798780D01*
X21743844Y32783408D01*
X21671049Y32753255D01*
X21605534Y32709480D01*
X21549819Y32653765D01*
X21508636Y32592130D01*
X21460645Y32664959D01*
X21383950Y32730326D01*
X21427427Y32827977D01*
X21457841Y32961842D01*
X21460030Y33118639D01*
X21433366Y33253301D01*
X21381054Y33380220D01*
X21305086Y33494561D01*
X21208356Y33591969D01*
X21094548Y33668733D01*
X20967997Y33721930D01*
X20833524Y33749534D01*
X20696250Y33750492D01*
X20561405Y33724769D01*
X20434124Y33673344D01*
X20319255Y33598176D01*
X20221174Y33502128D01*
X20143617Y33388859D01*
X20089538Y33262683D01*
X20060997Y33128406D01*
X20059080Y32991142D01*
X20083861Y32856120D01*
X20134396Y32728483D01*
X20135783Y32726331D01*
X20095741Y32699945D01*
X20022377Y32613866D01*
X19975898Y32510756D01*
X19959985Y32398780D01*
X15695495Y32398780D01*
X15679535Y32561549D01*
X15608256Y32797635D01*
X15492479Y33015380D01*
X15340000Y33202338D01*
X15340000Y33960033D01*
X15482613Y34129994D01*
X15601419Y34346101D01*
X15675987Y34581169D01*
X15703477Y34826243D01*
X15703600Y34843886D01*
X15703600Y34856114D01*
X15679535Y35101549D01*
X15608256Y35337635D01*
X15492479Y35555380D01*
X15336614Y35746490D01*
X15146596Y35903686D01*
X14929665Y36020980D01*
X14694082Y36093905D01*
X14448822Y36119683D01*
X14203225Y36097332D01*
X13966647Y36027704D01*
X13748099Y35913449D01*
X13555905Y35758922D01*
X13397387Y35570006D01*
X13278581Y35353899D01*
X13204013Y35118831D01*
X13176523Y34873757D01*
X13176400Y34856114D01*
X13163600Y34856114D01*
X13139535Y35101549D01*
X13068256Y35337635D01*
X12952479Y35555380D01*
X12796614Y35746490D01*
X12606596Y35903686D01*
X12389665Y36020980D01*
X12154082Y36093905D01*
X11908822Y36119683D01*
X11663225Y36097332D01*
X11426647Y36027704D01*
X11208099Y35913449D01*
X11015905Y35758922D01*
X10857387Y35570006D01*
X10738581Y35353899D01*
X10664013Y35118831D01*
X10636523Y34873757D01*
X10636400Y34856114D01*
X5087853Y34856114D01*
X5027540Y34896795D01*
X4638849Y35060186D01*
X4225824Y35144968D01*
X3804197Y35147912D01*
X3390029Y35068905D01*
X2999094Y34910957D01*
X2646283Y34680084D01*
X2345035Y34385080D01*
X2106824Y34037182D01*
X1940724Y33649641D01*
X1853061Y33237218D01*
X1847174Y32815622D01*
X475000Y32815622D01*
X475000Y32976769D01*
X544367Y33684232D01*
X743082Y34342407D01*
X1065849Y34949443D01*
X1500378Y35482230D01*
X1827679Y35752997D01*
X8096400Y35752997D01*
X8096400Y35104000D01*
X8196400Y35004000D01*
X9206000Y35004000D01*
X9206000Y36013600D01*
X9514000Y36013600D01*
X9514000Y35004000D01*
X10523600Y35004000D01*
X10623600Y35104000D01*
X10623600Y35752997D01*
X10608228Y35830276D01*
X10578075Y35903071D01*
X10534300Y35968586D01*
X10478585Y36024301D01*
X10413071Y36068076D01*
X10340275Y36098228D01*
X10262996Y36113600D01*
X9614000Y36113600D01*
X9514000Y36013600D01*
X9206000Y36013600D01*
X9106000Y36113600D01*
X8457004Y36113600D01*
X8379725Y36098228D01*
X8306929Y36068076D01*
X8241415Y36024301D01*
X8185700Y35968586D01*
X8141925Y35903071D01*
X8111772Y35830276D01*
X8096400Y35752997D01*
X1827679Y35752997D01*
X2030120Y35920470D01*
X2634891Y36247468D01*
X3291656Y36450771D01*
X3997795Y36524990D01*
X4000786Y36525000D01*
X36300000Y36525000D01*
X36300000Y475000D01*
X36300000Y475000D01*
G37*
X36300000Y475000D02*
X4023231Y475000D01*
X3315768Y544367D01*
X2657595Y743081D01*
X2050555Y1065850D01*
X1517768Y1500381D01*
X1306208Y1756114D01*
X7536400Y1756114D01*
X7536400Y1743886D01*
X7560465Y1498451D01*
X7631744Y1262365D01*
X7747521Y1044620D01*
X7903386Y853510D01*
X8093404Y696314D01*
X8310335Y579020D01*
X8545918Y506095D01*
X8791178Y480317D01*
X9036775Y502668D01*
X9273353Y572296D01*
X9491901Y686551D01*
X9684095Y841078D01*
X9842613Y1029994D01*
X9961419Y1246101D01*
X10035987Y1481169D01*
X10063477Y1726243D01*
X10063600Y1743886D01*
X10063600Y1756114D01*
X10039535Y2001549D01*
X9968256Y2237635D01*
X9852479Y2455380D01*
X9696614Y2646490D01*
X9506596Y2803686D01*
X9289665Y2920980D01*
X9054082Y2993905D01*
X8808822Y3019683D01*
X8563225Y2997332D01*
X8326647Y2927704D01*
X8108099Y2813449D01*
X7915905Y2658922D01*
X7757387Y2470006D01*
X7638581Y2253899D01*
X7564013Y2018831D01*
X7536523Y1773757D01*
X7536400Y1756114D01*
X1306208Y1756114D01*
X1079532Y2030117D01*
X752532Y2634892D01*
X549229Y3291656D01*
X494158Y3815622D01*
X1847174Y3815622D01*
X1923287Y3400912D01*
X2078502Y3008884D01*
X2306906Y2654470D01*
X2599800Y2351170D01*
X2946027Y2110537D01*
X3332399Y1941735D01*
X3744200Y1851194D01*
X4165744Y1842364D01*
X4580975Y1915581D01*
X4974077Y2068055D01*
X5330077Y2293979D01*
X5635414Y2584748D01*
X5878459Y2929287D01*
X6044020Y3301142D01*
X9769080Y3301142D01*
X9793861Y3166120D01*
X9844396Y3038483D01*
X9918760Y2923093D01*
X10014121Y2824344D01*
X10126846Y2745998D01*
X10252641Y2691039D01*
X10386716Y2661561D01*
X10457347Y2660081D01*
X10455905Y2658922D01*
X10297387Y2470006D01*
X10178581Y2253899D01*
X10104013Y2018831D01*
X10076523Y1773757D01*
X10076400Y1756114D01*
X10076400Y1743886D01*
X10100465Y1498451D01*
X10171744Y1262365D01*
X10287521Y1044620D01*
X10443386Y853510D01*
X10633404Y696314D01*
X10850335Y579020D01*
X11085918Y506095D01*
X11331178Y480317D01*
X11576775Y502668D01*
X11813353Y572296D01*
X12031901Y686551D01*
X12224095Y841078D01*
X12382613Y1029994D01*
X12501419Y1246101D01*
X12575987Y1481169D01*
X12603477Y1726243D01*
X12603600Y1743886D01*
X12603600Y1756114D01*
X12579535Y2001549D01*
X12527517Y2173841D01*
X12883676Y2530000D01*
X12887728Y2530000D01*
X12837387Y2470006D01*
X12718581Y2253899D01*
X12644013Y2018831D01*
X12616523Y1773757D01*
X12616400Y1756114D01*
X12616400Y1743886D01*
X12640465Y1498451D01*
X12711744Y1262365D01*
X12827521Y1044620D01*
X12983386Y853510D01*
X13173404Y696314D01*
X13390335Y579020D01*
X13625918Y506095D01*
X13871178Y480317D01*
X14116775Y502668D01*
X14353353Y572296D01*
X14571901Y686551D01*
X14764095Y841078D01*
X14922613Y1029994D01*
X15041419Y1246101D01*
X15115987Y1481169D01*
X15143477Y1726243D01*
X15143600Y1743886D01*
X15143600Y1756114D01*
X15119535Y2001549D01*
X15048256Y2237635D01*
X14932479Y2455380D01*
X14871621Y2530000D01*
X15427728Y2530000D01*
X15377387Y2470006D01*
X15258581Y2253899D01*
X15184013Y2018831D01*
X15156523Y1773757D01*
X15156400Y1756114D01*
X15156400Y1743886D01*
X15180465Y1498451D01*
X15251744Y1262365D01*
X15367521Y1044620D01*
X15523386Y853510D01*
X15713404Y696314D01*
X15930335Y579020D01*
X16165918Y506095D01*
X16411178Y480317D01*
X16656775Y502668D01*
X16893353Y572296D01*
X17111901Y686551D01*
X17304095Y841078D01*
X17462613Y1029994D01*
X17581419Y1246101D01*
X17655987Y1481169D01*
X17683477Y1726243D01*
X17683600Y1743886D01*
X17683600Y1756114D01*
X17659535Y2001549D01*
X17588256Y2237635D01*
X17472479Y2455380D01*
X17411621Y2530000D01*
X17967728Y2530000D01*
X17917387Y2470006D01*
X17798581Y2253899D01*
X17724013Y2018831D01*
X17696523Y1773757D01*
X17696400Y1756114D01*
X17696400Y1743886D01*
X17720465Y1498451D01*
X17791744Y1262365D01*
X17907521Y1044620D01*
X18063386Y853510D01*
X18253404Y696314D01*
X18470335Y579020D01*
X18705918Y506095D01*
X18951178Y480317D01*
X19196775Y502668D01*
X19433353Y572296D01*
X19651901Y686551D01*
X19844095Y841078D01*
X20002613Y1029994D01*
X20121419Y1246101D01*
X20195987Y1481169D01*
X20223477Y1726243D01*
X20223600Y1743886D01*
X20223600Y1756114D01*
X20236400Y1756114D01*
X20236400Y1743886D01*
X20260465Y1498451D01*
X20331744Y1262365D01*
X20447521Y1044620D01*
X20603386Y853510D01*
X20793404Y696314D01*
X21010335Y579020D01*
X21245918Y506095D01*
X21491178Y480317D01*
X21736775Y502668D01*
X21973353Y572296D01*
X22191901Y686551D01*
X22384095Y841078D01*
X22542613Y1029994D01*
X22661419Y1246101D01*
X22735987Y1481169D01*
X22763477Y1726243D01*
X22763600Y1743886D01*
X22763600Y1756114D01*
X22776400Y1756114D01*
X22776400Y1743886D01*
X22800465Y1498451D01*
X22871744Y1262365D01*
X22987521Y1044620D01*
X23143386Y853510D01*
X23333404Y696314D01*
X23550335Y579020D01*
X23785918Y506095D01*
X24031178Y480317D01*
X24276775Y502668D01*
X24513353Y572296D01*
X24731901Y686551D01*
X24924095Y841078D01*
X25082613Y1029994D01*
X25201419Y1246101D01*
X25275987Y1481169D01*
X25303477Y1726243D01*
X25303600Y1743886D01*
X25303600Y1756114D01*
X25316400Y1756114D01*
X25316400Y1743886D01*
X25340465Y1498451D01*
X25411744Y1262365D01*
X25527521Y1044620D01*
X25683386Y853510D01*
X25873404Y696314D01*
X26090335Y579020D01*
X26325918Y506095D01*
X26571178Y480317D01*
X26816775Y502668D01*
X27053353Y572296D01*
X27271901Y686551D01*
X27464095Y841078D01*
X27622613Y1029994D01*
X27741419Y1246101D01*
X27815987Y1481169D01*
X27817650Y1496000D01*
X27856400Y1496000D01*
X27856400Y847003D01*
X27871772Y769724D01*
X27901925Y696929D01*
X27945700Y631414D01*
X28001415Y575699D01*
X28066929Y531924D01*
X28139725Y501772D01*
X28217004Y486400D01*
X28866000Y486400D01*
X28966000Y586400D01*
X28966000Y1596000D01*
X29274000Y1596000D01*
X29274000Y586400D01*
X29374000Y486400D01*
X30022996Y486400D01*
X30100275Y501772D01*
X30173071Y531924D01*
X30238585Y575699D01*
X30294300Y631414D01*
X30338075Y696929D01*
X30368228Y769724D01*
X30383600Y847003D01*
X30383600Y1496000D01*
X30283600Y1596000D01*
X29274000Y1596000D01*
X28966000Y1596000D01*
X27956400Y1596000D01*
X27856400Y1496000D01*
X27817650Y1496000D01*
X27843477Y1726243D01*
X27843600Y1743886D01*
X27843600Y1756114D01*
X27819535Y2001549D01*
X27748256Y2237635D01*
X27632479Y2455380D01*
X27476614Y2646490D01*
X27468749Y2652997D01*
X27856400Y2652997D01*
X27856400Y2004000D01*
X27956400Y1904000D01*
X28966000Y1904000D01*
X28966000Y2913600D01*
X29274000Y2913600D01*
X29274000Y1904000D01*
X30283600Y1904000D01*
X30383600Y2004000D01*
X30383600Y2652997D01*
X30368228Y2730276D01*
X30338075Y2803071D01*
X30294300Y2868586D01*
X30238585Y2924301D01*
X30173071Y2968076D01*
X30100275Y2998228D01*
X30022996Y3013600D01*
X29374000Y3013600D01*
X29274000Y2913600D01*
X28966000Y2913600D01*
X28866000Y3013600D01*
X28217004Y3013600D01*
X28139725Y2998228D01*
X28066929Y2968076D01*
X28001415Y2924301D01*
X27945700Y2868586D01*
X27901925Y2803071D01*
X27871772Y2730276D01*
X27856400Y2652997D01*
X27468749Y2652997D01*
X27286596Y2803686D01*
X27069665Y2920980D01*
X26834082Y2993905D01*
X26588822Y3019683D01*
X26343225Y2997332D01*
X26106647Y2927704D01*
X25888099Y2813449D01*
X25695905Y2658922D01*
X25537387Y2470006D01*
X25418581Y2253899D01*
X25344013Y2018831D01*
X25316523Y1773757D01*
X25316400Y1756114D01*
X25303600Y1756114D01*
X25279535Y2001549D01*
X25208256Y2237635D01*
X25092479Y2455380D01*
X24936614Y2646490D01*
X24746596Y2803686D01*
X24529665Y2920980D01*
X24294082Y2993905D01*
X24048822Y3019683D01*
X23803225Y2997332D01*
X23566647Y2927704D01*
X23348099Y2813449D01*
X23155905Y2658922D01*
X22997387Y2470006D01*
X22878581Y2253899D01*
X22804013Y2018831D01*
X22776523Y1773757D01*
X22776400Y1756114D01*
X22763600Y1756114D01*
X22739535Y2001549D01*
X22668256Y2237635D01*
X22552479Y2455380D01*
X22396614Y2646490D01*
X22206596Y2803686D01*
X21989665Y2920980D01*
X21754082Y2993905D01*
X21508822Y3019683D01*
X21263225Y2997332D01*
X21026647Y2927704D01*
X20808099Y2813449D01*
X20615905Y2658922D01*
X20457387Y2470006D01*
X20338581Y2253899D01*
X20264013Y2018831D01*
X20236523Y1773757D01*
X20236400Y1756114D01*
X20223600Y1756114D01*
X20199535Y2001549D01*
X20128256Y2237635D01*
X20012479Y2455380D01*
X19856614Y2646490D01*
X19773303Y2715411D01*
X19786846Y2705998D01*
X19912641Y2651039D01*
X20046716Y2621561D01*
X20183963Y2618686D01*
X20319155Y2642524D01*
X20447141Y2692167D01*
X20563048Y2765723D01*
X20662460Y2860392D01*
X20741591Y2972568D01*
X20797427Y3097977D01*
X20827841Y3231842D01*
X20829287Y3335393D01*
X20846716Y3331561D01*
X20983963Y3328686D01*
X21119155Y3352524D01*
X21247141Y3402167D01*
X21363048Y3475723D01*
X21462460Y3570392D01*
X21541591Y3682568D01*
X21597427Y3807977D01*
X21627841Y3941842D01*
X21630030Y4098639D01*
X21603366Y4233301D01*
X21567972Y4319174D01*
X21635434Y4261677D01*
X21738544Y4215198D01*
X21850520Y4199285D01*
X22648080Y4199285D01*
X22711778Y4204365D01*
X22819818Y4237822D01*
X22914259Y4300055D01*
X22943915Y4334851D01*
X22952641Y4331039D01*
X23086716Y4301561D01*
X23223963Y4298686D01*
X23359155Y4322524D01*
X23487141Y4372167D01*
X23603048Y4445723D01*
X23702460Y4540392D01*
X23781591Y4652568D01*
X23837427Y4777977D01*
X23867841Y4911842D01*
X23870030Y5068639D01*
X23843366Y5203301D01*
X23791054Y5330220D01*
X23715086Y5444561D01*
X23618356Y5541969D01*
X23504548Y5618733D01*
X23377997Y5671930D01*
X23243524Y5699534D01*
X23106250Y5700492D01*
X22971405Y5674769D01*
X22948563Y5665540D01*
X22863166Y5738323D01*
X22760056Y5784802D01*
X22648080Y5800715D01*
X21850520Y5800715D01*
X21786822Y5795635D01*
X21678782Y5762178D01*
X21584341Y5699945D01*
X21510977Y5613866D01*
X21500146Y5589839D01*
X21450645Y5664959D01*
X21364566Y5738323D01*
X21261456Y5784802D01*
X21149480Y5800715D01*
X20351920Y5800715D01*
X20288222Y5795635D01*
X20180182Y5762178D01*
X20085741Y5699945D01*
X20012377Y5613866D01*
X19965898Y5510756D01*
X19949985Y5398780D01*
X19949985Y4601220D01*
X19955065Y4537522D01*
X19988522Y4429482D01*
X20050755Y4335041D01*
X20136834Y4261677D01*
X20210700Y4228380D01*
X20210700Y4209300D01*
X20215571Y4159624D01*
X20219915Y4109966D01*
X20220707Y4107241D01*
X20220984Y4104413D01*
X20230501Y4072891D01*
X20229681Y4014165D01*
X20203524Y4019534D01*
X20066250Y4020492D01*
X20030083Y4013593D01*
X19471838Y4571838D01*
X19433254Y4603531D01*
X19395082Y4635561D01*
X19392595Y4636928D01*
X19390399Y4638732D01*
X19346402Y4662323D01*
X19302729Y4686333D01*
X19300025Y4687191D01*
X19297520Y4688534D01*
X19249817Y4703118D01*
X19202272Y4718200D01*
X19199447Y4718517D01*
X19196735Y4719346D01*
X19147158Y4724382D01*
X19097540Y4729947D01*
X19091983Y4729986D01*
X19091885Y4729996D01*
X19091794Y4729987D01*
X19090000Y4730000D01*
X18420000Y4730000D01*
X18370324Y4725129D01*
X18320666Y4720785D01*
X18317941Y4719993D01*
X18315113Y4719716D01*
X18267328Y4705289D01*
X18219461Y4691382D01*
X18216942Y4690076D01*
X18214222Y4689255D01*
X18170208Y4665852D01*
X18125894Y4642882D01*
X18123671Y4641107D01*
X18121169Y4639777D01*
X18082577Y4608302D01*
X18043531Y4577132D01*
X18039577Y4573232D01*
X18039498Y4573168D01*
X18039438Y4573095D01*
X18038162Y4571837D01*
X17586324Y4120000D01*
X10690000Y4120000D01*
X10640324Y4115129D01*
X10590666Y4110785D01*
X10587941Y4109993D01*
X10585113Y4109716D01*
X10537361Y4095299D01*
X10489462Y4081383D01*
X10486940Y4080075D01*
X10484222Y4079255D01*
X10448382Y4060198D01*
X10406250Y4060492D01*
X10271405Y4034769D01*
X10144124Y3983344D01*
X10029255Y3908176D01*
X9931174Y3812128D01*
X9853617Y3698859D01*
X9799538Y3572683D01*
X9770997Y3438406D01*
X9769080Y3301142D01*
X6044020Y3301142D01*
X6049955Y3314471D01*
X6143368Y3725630D01*
X6150092Y4207218D01*
X6068196Y4620825D01*
X5907523Y5010648D01*
X5674192Y5361838D01*
X5377093Y5661019D01*
X5027540Y5896795D01*
X4638849Y6060186D01*
X4225824Y6144968D01*
X3804197Y6147912D01*
X3390029Y6068905D01*
X2999094Y5910957D01*
X2646283Y5680084D01*
X2345035Y5385080D01*
X2106824Y5037182D01*
X1940724Y4649641D01*
X1853061Y4237218D01*
X1847174Y3815622D01*
X494158Y3815622D01*
X475010Y3997794D01*
X475000Y4000786D01*
X475000Y9861142D01*
X2559080Y9861142D01*
X2583861Y9726120D01*
X2634396Y9598483D01*
X2708760Y9483093D01*
X2804121Y9384344D01*
X2916846Y9305998D01*
X3042641Y9251039D01*
X3176716Y9221561D01*
X3313963Y9218686D01*
X3449155Y9242524D01*
X3577141Y9292167D01*
X3693048Y9365723D01*
X3792460Y9460392D01*
X3871591Y9572568D01*
X3927427Y9697977D01*
X3939458Y9750930D01*
X4758528Y10570000D01*
X13030761Y10570000D01*
X11330381Y8869619D01*
X11292296Y8823254D01*
X11253676Y8777229D01*
X11252028Y8774231D01*
X11249860Y8771592D01*
X11221486Y8718676D01*
X11192562Y8666062D01*
X11191529Y8662806D01*
X11189913Y8659792D01*
X11172347Y8602336D01*
X11154204Y8545143D01*
X11153823Y8541749D01*
X11152823Y8538477D01*
X11146754Y8478729D01*
X11140063Y8419075D01*
X11140017Y8412393D01*
X11140004Y8412269D01*
X11140015Y8412153D01*
X11140000Y8410000D01*
X11140000Y7200425D01*
X11119538Y7152683D01*
X11090997Y7018406D01*
X11089080Y6881142D01*
X11113861Y6746120D01*
X11164396Y6618483D01*
X11238760Y6503093D01*
X11334121Y6404344D01*
X11446846Y6325998D01*
X11572641Y6271039D01*
X11706716Y6241561D01*
X11843963Y6238686D01*
X11979155Y6262524D01*
X12107141Y6312167D01*
X12223048Y6385723D01*
X12322460Y6480392D01*
X12401591Y6592568D01*
X12421674Y6637675D01*
X12482641Y6611039D01*
X12497251Y6607827D01*
X12490997Y6578406D01*
X12489080Y6441142D01*
X12513861Y6306120D01*
X12564396Y6178483D01*
X12638760Y6063093D01*
X12734121Y5964344D01*
X12846846Y5885998D01*
X12972641Y5831039D01*
X13106716Y5801561D01*
X13243963Y5798686D01*
X13379155Y5822524D01*
X13507141Y5872167D01*
X13623048Y5945723D01*
X13722460Y6040392D01*
X13801591Y6152568D01*
X13822709Y6200000D01*
X15070000Y6200000D01*
X15119676Y6204871D01*
X15169334Y6209215D01*
X15172059Y6210007D01*
X15174887Y6210284D01*
X15222639Y6224701D01*
X15270538Y6238617D01*
X15273060Y6239925D01*
X15275778Y6240745D01*
X15319775Y6264139D01*
X15364106Y6287118D01*
X15366329Y6288893D01*
X15368831Y6290223D01*
X15407423Y6321698D01*
X15446469Y6352868D01*
X15450428Y6356771D01*
X15450502Y6356832D01*
X15450559Y6356901D01*
X15451838Y6358162D01*
X15811838Y6718162D01*
X15843531Y6756746D01*
X15875561Y6794918D01*
X15876928Y6797405D01*
X15878732Y6799601D01*
X15902313Y6843579D01*
X15926333Y6887271D01*
X15927191Y6889977D01*
X15928534Y6892481D01*
X15943113Y6940169D01*
X15958200Y6987728D01*
X15958517Y6990553D01*
X15959346Y6993265D01*
X15964382Y7042842D01*
X15969947Y7092460D01*
X15969986Y7098017D01*
X15969996Y7098115D01*
X15969987Y7098206D01*
X15970000Y7100000D01*
X15970000Y7786324D01*
X16514160Y8330484D01*
X16639155Y8352524D01*
X16767141Y8402167D01*
X16883048Y8475723D01*
X16982460Y8570392D01*
X17061591Y8682568D01*
X17117427Y8807977D01*
X17147841Y8941842D01*
X17150030Y9098639D01*
X17123366Y9233301D01*
X17071054Y9360220D01*
X16995086Y9474561D01*
X16898356Y9571969D01*
X16784548Y9648733D01*
X16657997Y9701930D01*
X16523524Y9729534D01*
X16386250Y9730492D01*
X16251405Y9704769D01*
X16124124Y9653344D01*
X16009255Y9578176D01*
X15911174Y9482128D01*
X15833617Y9368859D01*
X15779538Y9242683D01*
X15750997Y9108406D01*
X15750802Y9094478D01*
X15291352Y8635028D01*
X15265086Y8674561D01*
X15168356Y8771969D01*
X15054548Y8848733D01*
X14927997Y8901930D01*
X14793524Y8929534D01*
X14656250Y8930492D01*
X14521405Y8904769D01*
X14394124Y8853344D01*
X14343169Y8820000D01*
X13230311Y8820000D01*
X13228356Y8821969D01*
X13164368Y8865129D01*
X15319620Y11020381D01*
X15357729Y11066776D01*
X15396324Y11112771D01*
X15397972Y11115768D01*
X15400140Y11118408D01*
X15428514Y11171324D01*
X15457438Y11223938D01*
X15458471Y11227194D01*
X15460087Y11230208D01*
X15477653Y11287664D01*
X15495796Y11344857D01*
X15496177Y11348251D01*
X15497177Y11351523D01*
X15503246Y11411271D01*
X15509937Y11470925D01*
X15509983Y11477607D01*
X15509996Y11477731D01*
X15509985Y11477847D01*
X15510000Y11480000D01*
X15510000Y14560761D01*
X15550381Y14520380D01*
X15596776Y14482271D01*
X15642771Y14443676D01*
X15645768Y14442028D01*
X15648408Y14439860D01*
X15701324Y14411486D01*
X15753938Y14382562D01*
X15757194Y14381529D01*
X15760208Y14379913D01*
X15817664Y14362347D01*
X15874857Y14344204D01*
X15878251Y14343823D01*
X15881523Y14342823D01*
X15941271Y14336754D01*
X16000925Y14330063D01*
X16007607Y14330017D01*
X16007731Y14330004D01*
X16007847Y14330015D01*
X16010000Y14330000D01*
X19189241Y14330000D01*
X19232641Y14311039D01*
X19366716Y14281561D01*
X19503963Y14278686D01*
X19639155Y14302524D01*
X19767141Y14352167D01*
X19883048Y14425723D01*
X19982460Y14520392D01*
X20061591Y14632568D01*
X20117427Y14757977D01*
X20147841Y14891842D01*
X20150030Y15048639D01*
X20123366Y15183301D01*
X20071054Y15310220D01*
X19995086Y15424561D01*
X19898356Y15521969D01*
X19784548Y15598733D01*
X19657997Y15651930D01*
X19523524Y15679534D01*
X19386250Y15680492D01*
X19251405Y15654769D01*
X19190100Y15630000D01*
X16310000Y15630000D01*
X16310000Y16810000D01*
X16304140Y16869770D01*
X16298908Y16929569D01*
X16297954Y16932851D01*
X16297621Y16936252D01*
X16280260Y16993756D01*
X16263515Y17051390D01*
X16261944Y17054421D01*
X16260955Y17057696D01*
X16232747Y17110748D01*
X16205136Y17164015D01*
X16203005Y17166684D01*
X16201399Y17169705D01*
X16163452Y17216232D01*
X16125992Y17263158D01*
X16121298Y17267917D01*
X16121221Y17268012D01*
X16121133Y17268085D01*
X16119619Y17269620D01*
X12919691Y20469547D01*
X12919619Y20469620D01*
X9369619Y24019619D01*
X9323254Y24057704D01*
X9277229Y24096324D01*
X9274231Y24097972D01*
X9271592Y24100140D01*
X9268555Y24101768D01*
X9268356Y24101969D01*
X9154548Y24178733D01*
X9027997Y24231930D01*
X8893524Y24259534D01*
X8756250Y24260492D01*
X8621405Y24234769D01*
X8494124Y24183344D01*
X8379255Y24108176D01*
X8281174Y24012128D01*
X8203617Y23898859D01*
X8149538Y23772683D01*
X8120997Y23638406D01*
X8119080Y23501142D01*
X8143861Y23366120D01*
X8194396Y23238483D01*
X8268760Y23123093D01*
X8364121Y23024344D01*
X8476846Y22945998D01*
X8602641Y22891039D01*
X8675810Y22874952D01*
X10957121Y20593640D01*
X10920362Y20582542D01*
X10867179Y20567091D01*
X10864381Y20565641D01*
X10861358Y20564728D01*
X10812388Y20538690D01*
X10763216Y20513202D01*
X10760751Y20511235D01*
X10757965Y20509753D01*
X10715022Y20474730D01*
X10671700Y20440146D01*
X10667309Y20435816D01*
X10667219Y20435742D01*
X10667150Y20435658D01*
X10665736Y20434264D01*
X10055736Y19824264D01*
X10020561Y19781441D01*
X9984932Y19738980D01*
X9983413Y19736216D01*
X9981409Y19733777D01*
X9955201Y19684899D01*
X9928519Y19636365D01*
X9927566Y19633360D01*
X9926074Y19630578D01*
X9909865Y19577560D01*
X9893111Y19524747D01*
X9892759Y19521612D01*
X9891837Y19518595D01*
X9886241Y19463496D01*
X9880058Y19408377D01*
X9880015Y19402205D01*
X9880004Y19402094D01*
X9880014Y19401991D01*
X9880000Y19400000D01*
X9880000Y18810000D01*
X9885409Y18754830D01*
X9890239Y18699629D01*
X9891119Y18696600D01*
X9891427Y18693459D01*
X9907458Y18640362D01*
X9922909Y18587179D01*
X9924359Y18584381D01*
X9925272Y18581358D01*
X9951289Y18532427D01*
X9976797Y18483216D01*
X9978767Y18480748D01*
X9980247Y18477965D01*
X10015248Y18435050D01*
X10049854Y18391700D01*
X10054184Y18387309D01*
X10054258Y18387219D01*
X10054342Y18387150D01*
X10055736Y18385736D01*
X10515736Y17925736D01*
X10558559Y17890561D01*
X10601020Y17854932D01*
X10603784Y17853413D01*
X10606223Y17851409D01*
X10655101Y17825201D01*
X10703635Y17798519D01*
X10706640Y17797566D01*
X10709422Y17796074D01*
X10762440Y17779865D01*
X10815253Y17763111D01*
X10818388Y17762759D01*
X10821405Y17761837D01*
X10876504Y17756241D01*
X10931623Y17750058D01*
X10937795Y17750015D01*
X10937906Y17750004D01*
X10938009Y17750014D01*
X10940000Y17750000D01*
X11741472Y17750000D01*
X13540000Y15951472D01*
X13540000Y12318528D01*
X12991472Y11770000D01*
X10573676Y11770000D01*
X11124160Y12320484D01*
X11249155Y12342524D01*
X11377141Y12392167D01*
X11493048Y12465723D01*
X11592460Y12560392D01*
X11671591Y12672568D01*
X11727427Y12797977D01*
X11757841Y12931842D01*
X11760030Y13088639D01*
X11733366Y13223301D01*
X11681054Y13350220D01*
X11605086Y13464561D01*
X11508356Y13561969D01*
X11394548Y13638733D01*
X11267997Y13691930D01*
X11133524Y13719534D01*
X10996250Y13720492D01*
X10861405Y13694769D01*
X10734124Y13643344D01*
X10619255Y13568176D01*
X10521174Y13472128D01*
X10443617Y13358859D01*
X10389538Y13232683D01*
X10360997Y13098406D01*
X10360802Y13084478D01*
X9945970Y12669646D01*
X9933366Y12733301D01*
X9881054Y12860220D01*
X9805086Y12974561D01*
X9708356Y13071969D01*
X9594548Y13148733D01*
X9474464Y13199212D01*
X9001838Y13671838D01*
X8963254Y13703531D01*
X8925082Y13735561D01*
X8922595Y13736928D01*
X8920399Y13738732D01*
X8876402Y13762323D01*
X8832729Y13786333D01*
X8830025Y13787191D01*
X8827520Y13788534D01*
X8779817Y13803118D01*
X8732272Y13818200D01*
X8729447Y13818517D01*
X8726735Y13819346D01*
X8677158Y13824382D01*
X8627540Y13829947D01*
X8621983Y13829986D01*
X8621885Y13829996D01*
X8621794Y13829987D01*
X8620000Y13830000D01*
X6130000Y13830000D01*
X6080320Y13825129D01*
X6030667Y13820785D01*
X6027942Y13819993D01*
X6025113Y13819716D01*
X5977349Y13805295D01*
X5929462Y13791383D01*
X5926940Y13790075D01*
X5924222Y13789255D01*
X5880205Y13765850D01*
X5835895Y13742882D01*
X5833674Y13741109D01*
X5831169Y13739777D01*
X5807428Y13720414D01*
X5796250Y13720492D01*
X5661405Y13694769D01*
X5534124Y13643344D01*
X5419255Y13568176D01*
X5321174Y13472128D01*
X5243617Y13358859D01*
X5189538Y13232683D01*
X5160997Y13098406D01*
X5159080Y12961142D01*
X5183861Y12826120D01*
X5234396Y12698483D01*
X5308760Y12583093D01*
X5404121Y12484344D01*
X5516846Y12405998D01*
X5642641Y12351039D01*
X5776716Y12321561D01*
X5913963Y12318686D01*
X6049155Y12342524D01*
X6177141Y12392167D01*
X6293048Y12465723D01*
X6392460Y12560392D01*
X6471591Y12672568D01*
X6506066Y12750000D01*
X6982674Y12750000D01*
X6979538Y12742683D01*
X6950997Y12608406D01*
X6949080Y12471142D01*
X6973861Y12336120D01*
X7024396Y12208483D01*
X7098760Y12093093D01*
X7194121Y11994344D01*
X7306846Y11915998D01*
X7432641Y11861039D01*
X7566716Y11831561D01*
X7585150Y11831175D01*
X7646324Y11770000D01*
X4510000Y11770000D01*
X4454830Y11764591D01*
X4399629Y11759761D01*
X4396600Y11758881D01*
X4393459Y11758573D01*
X4340362Y11742542D01*
X4287179Y11727091D01*
X4284381Y11725641D01*
X4281358Y11724728D01*
X4232427Y11698711D01*
X4183216Y11673203D01*
X4180748Y11671233D01*
X4177965Y11669753D01*
X4135080Y11634777D01*
X4091700Y11600147D01*
X4087308Y11595814D01*
X4087219Y11595742D01*
X4087151Y11595660D01*
X4085736Y11594264D01*
X3092096Y10600624D01*
X3061405Y10594769D01*
X2934124Y10543344D01*
X2819255Y10468176D01*
X2721174Y10372128D01*
X2643617Y10258859D01*
X2589538Y10132683D01*
X2560997Y9998406D01*
X2559080Y9861142D01*
X475000Y9861142D01*
X475000Y15777683D01*
X644458Y15777683D01*
X660377Y15602757D01*
X709971Y15434254D01*
X791348Y15278593D01*
X901411Y15141703D01*
X1035966Y15028798D01*
X1189888Y14944178D01*
X1357315Y14891067D01*
X1531870Y14871488D01*
X1544436Y14871400D01*
X2055564Y14871400D01*
X2230375Y14888540D01*
X2398527Y14939309D01*
X2553616Y15021771D01*
X2689735Y15132786D01*
X2801698Y15268126D01*
X2885241Y15422636D01*
X2937182Y15590430D01*
X2955542Y15765117D01*
X2939623Y15940043D01*
X2899175Y16077474D01*
X3749820Y16077474D01*
X3765209Y15908378D01*
X3813149Y15745492D01*
X3891814Y15595020D01*
X3998208Y15462693D01*
X4128278Y15353551D01*
X4277070Y15271752D01*
X4438916Y15220412D01*
X4607652Y15201485D01*
X4619799Y15201400D01*
X5040201Y15201400D01*
X5209185Y15217969D01*
X5371732Y15267045D01*
X5521652Y15346759D01*
X5653233Y15454073D01*
X5761464Y15584902D01*
X5842222Y15734261D01*
X5892431Y15896462D01*
X5910180Y16065326D01*
X5894791Y16234422D01*
X5846851Y16397308D01*
X5768186Y16547780D01*
X5661792Y16680107D01*
X5531722Y16789249D01*
X5382930Y16871048D01*
X5221084Y16922388D01*
X5052348Y16941315D01*
X5040201Y16941400D01*
X4619799Y16941400D01*
X4450815Y16924831D01*
X4288268Y16875755D01*
X4138348Y16796041D01*
X4006767Y16688727D01*
X3898536Y16557898D01*
X3817778Y16408539D01*
X3767569Y16246338D01*
X3749820Y16077474D01*
X2899175Y16077474D01*
X2890029Y16108546D01*
X2808652Y16264207D01*
X2698589Y16401097D01*
X2564034Y16514002D01*
X2410112Y16598622D01*
X2242685Y16651733D01*
X2068130Y16671312D01*
X2055564Y16671400D01*
X1544436Y16671400D01*
X1369625Y16654260D01*
X1201473Y16603491D01*
X1046384Y16521029D01*
X910265Y16410014D01*
X798302Y16274674D01*
X714759Y16120164D01*
X662818Y15952370D01*
X644458Y15777683D01*
X475000Y15777683D01*
X475000Y21227683D01*
X644458Y21227683D01*
X660377Y21052757D01*
X709971Y20884254D01*
X791348Y20728593D01*
X901411Y20591703D01*
X1035966Y20478798D01*
X1189888Y20394178D01*
X1357315Y20341067D01*
X1531870Y20321488D01*
X1544436Y20321400D01*
X2055564Y20321400D01*
X2230375Y20338540D01*
X2398527Y20389309D01*
X2553616Y20471771D01*
X2689735Y20582786D01*
X2801698Y20718126D01*
X2885241Y20872636D01*
X2902216Y20927474D01*
X3749820Y20927474D01*
X3765209Y20758378D01*
X3813149Y20595492D01*
X3891814Y20445020D01*
X3998208Y20312693D01*
X4128278Y20203551D01*
X4277070Y20121752D01*
X4438916Y20070412D01*
X4607652Y20051485D01*
X4619799Y20051400D01*
X5040201Y20051400D01*
X5209185Y20067969D01*
X5371732Y20117045D01*
X5521652Y20196759D01*
X5653233Y20304073D01*
X5761464Y20434902D01*
X5842222Y20584261D01*
X5892431Y20746462D01*
X5910180Y20915326D01*
X5894791Y21084422D01*
X5846851Y21247308D01*
X5768186Y21397780D01*
X5661792Y21530107D01*
X5531722Y21639249D01*
X5382930Y21721048D01*
X5221084Y21772388D01*
X5052348Y21791315D01*
X5040201Y21791400D01*
X4619799Y21791400D01*
X4450815Y21774831D01*
X4288268Y21725755D01*
X4138348Y21646041D01*
X4006767Y21538727D01*
X3898536Y21407898D01*
X3817778Y21258539D01*
X3767569Y21096338D01*
X3749820Y20927474D01*
X2902216Y20927474D01*
X2937182Y21040430D01*
X2955542Y21215117D01*
X2939623Y21390043D01*
X2890029Y21558546D01*
X2808652Y21714207D01*
X2698589Y21851097D01*
X2564034Y21964002D01*
X2410112Y22048622D01*
X2242685Y22101733D01*
X2068130Y22121312D01*
X2055564Y22121400D01*
X1544436Y22121400D01*
X1369625Y22104260D01*
X1201473Y22053491D01*
X1046384Y21971029D01*
X910265Y21860014D01*
X798302Y21724674D01*
X714759Y21570164D01*
X662818Y21402370D01*
X644458Y21227683D01*
X475000Y21227683D01*
X475000Y29131142D01*
X8769080Y29131142D01*
X8793861Y28996120D01*
X8844396Y28868483D01*
X8918760Y28753093D01*
X9014121Y28654344D01*
X9126846Y28575998D01*
X9194183Y28546579D01*
X9790000Y27950761D01*
X9790000Y25350425D01*
X9769538Y25302683D01*
X9740997Y25168406D01*
X9739080Y25031142D01*
X9763861Y24896120D01*
X9814396Y24768483D01*
X9888760Y24653093D01*
X9984121Y24554344D01*
X10096846Y24475998D01*
X10222641Y24421039D01*
X10356716Y24391561D01*
X10493963Y24388686D01*
X10629155Y24412524D01*
X10757141Y24462167D01*
X10873048Y24535723D01*
X10972460Y24630392D01*
X11051591Y24742568D01*
X11107427Y24867977D01*
X11137841Y25001842D01*
X11140030Y25158639D01*
X11113366Y25293301D01*
X11090000Y25349991D01*
X11090000Y28220000D01*
X11084139Y28279774D01*
X11078908Y28339568D01*
X11077955Y28342850D01*
X11077621Y28346252D01*
X11060266Y28403735D01*
X11043516Y28461389D01*
X11041943Y28464424D01*
X11040955Y28467696D01*
X11012756Y28520731D01*
X10985136Y28574015D01*
X10983005Y28576684D01*
X10981399Y28579705D01*
X10943452Y28626232D01*
X10905992Y28673158D01*
X10901298Y28677917D01*
X10901221Y28678012D01*
X10901133Y28678085D01*
X10899619Y28679620D01*
X10113516Y29465722D01*
X10091054Y29520220D01*
X10015086Y29634561D01*
X9918356Y29731969D01*
X9804548Y29808733D01*
X9677997Y29861930D01*
X9543524Y29889534D01*
X9406250Y29890492D01*
X9271405Y29864769D01*
X9144124Y29813344D01*
X9029255Y29738176D01*
X8931174Y29642128D01*
X8853617Y29528859D01*
X8799538Y29402683D01*
X8770997Y29268406D01*
X8769080Y29131142D01*
X475000Y29131142D01*
X475000Y32815622D01*
X1847174Y32815622D01*
X1923287Y32400912D01*
X2078502Y32008884D01*
X2306906Y31654470D01*
X2599800Y31351170D01*
X2946027Y31110537D01*
X3332399Y30941735D01*
X3744200Y30851194D01*
X4165744Y30842364D01*
X4580975Y30915581D01*
X4974077Y31068055D01*
X5330077Y31293979D01*
X5635414Y31584748D01*
X5878459Y31929287D01*
X5934875Y32056000D01*
X8096400Y32056000D01*
X8096400Y31407003D01*
X8111772Y31329724D01*
X8141925Y31256929D01*
X8185700Y31191414D01*
X8241415Y31135699D01*
X8306929Y31091924D01*
X8379725Y31061772D01*
X8457004Y31046400D01*
X9106000Y31046400D01*
X9206000Y31146400D01*
X9206000Y32156000D01*
X9514000Y32156000D01*
X9514000Y31146400D01*
X9614000Y31046400D01*
X10262996Y31046400D01*
X10340275Y31061772D01*
X10413071Y31091924D01*
X10478585Y31135699D01*
X10534300Y31191414D01*
X10578075Y31256929D01*
X10608228Y31329724D01*
X10623600Y31407003D01*
X10623600Y32056000D01*
X10523600Y32156000D01*
X9514000Y32156000D01*
X9206000Y32156000D01*
X8196400Y32156000D01*
X8096400Y32056000D01*
X5934875Y32056000D01*
X6049955Y32314471D01*
X6050328Y32316114D01*
X10636400Y32316114D01*
X10636400Y32303886D01*
X10660465Y32058451D01*
X10731744Y31822365D01*
X10847521Y31604620D01*
X11003386Y31413510D01*
X11193404Y31256314D01*
X11410335Y31139020D01*
X11417124Y31136918D01*
X11361174Y31082128D01*
X11283617Y30968859D01*
X11229538Y30842683D01*
X11200997Y30708406D01*
X11199080Y30571142D01*
X11223861Y30436120D01*
X11274396Y30308483D01*
X11348760Y30193093D01*
X11444121Y30094344D01*
X11556846Y30015998D01*
X11682641Y29961039D01*
X11710000Y29955024D01*
X11710000Y29190000D01*
X11714871Y29140324D01*
X11719215Y29090666D01*
X11720007Y29087941D01*
X11720284Y29085113D01*
X11734701Y29037361D01*
X11748617Y28989462D01*
X11749925Y28986940D01*
X11750745Y28984222D01*
X11774139Y28940225D01*
X11797118Y28895894D01*
X11798893Y28893671D01*
X11800223Y28891169D01*
X11831698Y28852577D01*
X11862868Y28813531D01*
X11866771Y28809572D01*
X11866832Y28809498D01*
X11866901Y28809441D01*
X11868162Y28808162D01*
X12950000Y27726324D01*
X12950000Y25140000D01*
X12954871Y25090324D01*
X12959215Y25040666D01*
X12960007Y25037941D01*
X12960284Y25035113D01*
X12974701Y24987361D01*
X12988617Y24939462D01*
X12989925Y24936940D01*
X12990745Y24934222D01*
X13014139Y24890225D01*
X13037118Y24845894D01*
X13038893Y24843671D01*
X13040223Y24841169D01*
X13071698Y24802577D01*
X13102868Y24763531D01*
X13106771Y24759572D01*
X13106832Y24759498D01*
X13106901Y24759441D01*
X13108162Y24758162D01*
X14298162Y23568162D01*
X14336768Y23536451D01*
X14374918Y23504439D01*
X14377402Y23503073D01*
X14379600Y23501268D01*
X14423619Y23477665D01*
X14467271Y23453667D01*
X14469975Y23452809D01*
X14472480Y23451466D01*
X14480699Y23448953D01*
X14514121Y23414344D01*
X14626846Y23335998D01*
X14752641Y23281039D01*
X14886716Y23251561D01*
X15023963Y23248686D01*
X15159155Y23272524D01*
X15287141Y23322167D01*
X15403048Y23395723D01*
X15502460Y23490392D01*
X15581591Y23602568D01*
X15637427Y23727977D01*
X15663774Y23843943D01*
X15769155Y23862524D01*
X15897141Y23912167D01*
X16013048Y23985723D01*
X16112460Y24080392D01*
X16191591Y24192568D01*
X16247427Y24317977D01*
X16277841Y24451842D01*
X16280030Y24608639D01*
X16253366Y24743301D01*
X16201054Y24870220D01*
X16125086Y24984561D01*
X16028356Y25081969D01*
X15914548Y25158733D01*
X15787997Y25211930D01*
X15653524Y25239534D01*
X15516250Y25240492D01*
X15381405Y25214769D01*
X15254124Y25163344D01*
X15249014Y25160000D01*
X14923675Y25160000D01*
X14610000Y25473676D01*
X14610000Y27221142D01*
X21199080Y27221142D01*
X21223861Y27086120D01*
X21274396Y26958483D01*
X21348760Y26843093D01*
X21360000Y26831454D01*
X21360000Y22990413D01*
X21283617Y22878859D01*
X21229538Y22752683D01*
X21200997Y22618406D01*
X21199080Y22481142D01*
X21223861Y22346120D01*
X21250000Y22280100D01*
X21250000Y15580425D01*
X21229538Y15532683D01*
X21200997Y15398406D01*
X21199080Y15261142D01*
X21223861Y15126120D01*
X21274396Y14998483D01*
X21348760Y14883093D01*
X21444121Y14784344D01*
X21556846Y14705998D01*
X21682641Y14651039D01*
X21816716Y14621561D01*
X21953963Y14618686D01*
X22089155Y14642524D01*
X22217141Y14692167D01*
X22333048Y14765723D01*
X22432460Y14860392D01*
X22511591Y14972568D01*
X22567427Y15097977D01*
X22597841Y15231842D01*
X22600030Y15388639D01*
X22573366Y15523301D01*
X22550000Y15579991D01*
X22550000Y17960000D01*
X23299241Y17960000D01*
X23342641Y17941039D01*
X23476716Y17911561D01*
X23613963Y17908686D01*
X23749155Y17932524D01*
X23877141Y17982167D01*
X23889929Y17990282D01*
X24002641Y17941039D01*
X24136716Y17911561D01*
X24273963Y17908686D01*
X24409155Y17932524D01*
X24537141Y17982167D01*
X24653048Y18055723D01*
X24752460Y18150392D01*
X24831591Y18262568D01*
X24887427Y18387977D01*
X24917841Y18521842D01*
X24920030Y18678639D01*
X24893366Y18813301D01*
X24841054Y18940220D01*
X24765086Y19054561D01*
X24668356Y19151969D01*
X24554548Y19228733D01*
X24427997Y19281930D01*
X24293524Y19309534D01*
X24156250Y19310492D01*
X24021405Y19284769D01*
X23894124Y19233344D01*
X23889999Y19230645D01*
X23767997Y19281930D01*
X23633524Y19309534D01*
X23496250Y19310492D01*
X23361405Y19284769D01*
X23300100Y19260000D01*
X22550000Y19260000D01*
X22550000Y22278836D01*
X22567427Y22317977D01*
X22597841Y22451842D01*
X22600030Y22608639D01*
X22573366Y22743301D01*
X22521054Y22870220D01*
X22445086Y22984561D01*
X22440000Y22989683D01*
X22440000Y26831081D01*
X22511591Y26932568D01*
X22567427Y27057977D01*
X22597841Y27191842D01*
X22600030Y27348639D01*
X22573366Y27483301D01*
X22521054Y27610220D01*
X22445086Y27724561D01*
X22348356Y27821969D01*
X22234548Y27898733D01*
X22107997Y27951930D01*
X21973524Y27979534D01*
X21836250Y27980492D01*
X21701405Y27954769D01*
X21574124Y27903344D01*
X21459255Y27828176D01*
X21361174Y27732128D01*
X21283617Y27618859D01*
X21229538Y27492683D01*
X21200997Y27358406D01*
X21199080Y27221142D01*
X14610000Y27221142D01*
X14610000Y28060000D01*
X14605125Y28109722D01*
X14600784Y28159334D01*
X14599994Y28162054D01*
X14599716Y28164887D01*
X14585276Y28212714D01*
X14571382Y28260539D01*
X14570076Y28263058D01*
X14569255Y28265778D01*
X14545852Y28309792D01*
X14522882Y28354106D01*
X14521107Y28356329D01*
X14519777Y28358831D01*
X14488277Y28397454D01*
X14457131Y28436469D01*
X14453233Y28440422D01*
X14453168Y28440502D01*
X14453094Y28440563D01*
X14451837Y28441838D01*
X13470000Y29423676D01*
X13470000Y29491081D01*
X13541591Y29592568D01*
X13597427Y29717977D01*
X13627841Y29851842D01*
X13630030Y30008639D01*
X13603366Y30143301D01*
X13551054Y30270220D01*
X13475086Y30384561D01*
X13378356Y30481969D01*
X13264548Y30558733D01*
X13137997Y30611930D01*
X13003524Y30639534D01*
X12866250Y30640492D01*
X12731405Y30614769D01*
X12685570Y30596250D01*
X12668264Y30617470D01*
X12637132Y30656468D01*
X12633233Y30660422D01*
X12633168Y30660502D01*
X12633094Y30660563D01*
X12631838Y30661837D01*
X12599961Y30693714D01*
X12600030Y30698639D01*
X12573366Y30833301D01*
X12521054Y30960220D01*
X12445086Y31074561D01*
X12382832Y31137251D01*
X12591901Y31246551D01*
X12784095Y31401078D01*
X12942613Y31589994D01*
X13061419Y31806101D01*
X13135987Y32041169D01*
X13163477Y32286243D01*
X13163600Y32303886D01*
X13163600Y32316114D01*
X13139535Y32561549D01*
X13068256Y32797635D01*
X12952479Y33015380D01*
X12796614Y33206490D01*
X12606596Y33363686D01*
X12389665Y33480980D01*
X12154082Y33553905D01*
X11908822Y33579683D01*
X11663225Y33557332D01*
X11426647Y33487704D01*
X11208099Y33373449D01*
X11015905Y33218922D01*
X10857387Y33030006D01*
X10738581Y32813899D01*
X10664013Y32578831D01*
X10636523Y32333757D01*
X10636400Y32316114D01*
X6050328Y32316114D01*
X6143368Y32725630D01*
X6150092Y33207218D01*
X6148948Y33212997D01*
X8096400Y33212997D01*
X8096400Y32564000D01*
X8196400Y32464000D01*
X9206000Y32464000D01*
X9206000Y33473600D01*
X9514000Y33473600D01*
X9514000Y32464000D01*
X10523600Y32464000D01*
X10623600Y32564000D01*
X10623600Y33212997D01*
X10608228Y33290276D01*
X10578075Y33363071D01*
X10534300Y33428586D01*
X10478585Y33484301D01*
X10413071Y33528076D01*
X10340275Y33558228D01*
X10262996Y33573600D01*
X9614000Y33573600D01*
X9514000Y33473600D01*
X9206000Y33473600D01*
X9106000Y33573600D01*
X8457004Y33573600D01*
X8379725Y33558228D01*
X8306929Y33528076D01*
X8241415Y33484301D01*
X8185700Y33428586D01*
X8141925Y33363071D01*
X8111772Y33290276D01*
X8096400Y33212997D01*
X6148948Y33212997D01*
X6068196Y33620825D01*
X5907523Y34010648D01*
X5674192Y34361838D01*
X5441660Y34596000D01*
X8096400Y34596000D01*
X8096400Y33947003D01*
X8111772Y33869724D01*
X8141925Y33796929D01*
X8185700Y33731414D01*
X8241415Y33675699D01*
X8306929Y33631924D01*
X8379725Y33601772D01*
X8457004Y33586400D01*
X9106000Y33586400D01*
X9206000Y33686400D01*
X9206000Y34696000D01*
X9514000Y34696000D01*
X9514000Y33686400D01*
X9614000Y33586400D01*
X10262996Y33586400D01*
X10340275Y33601772D01*
X10413071Y33631924D01*
X10478585Y33675699D01*
X10534300Y33731414D01*
X10578075Y33796929D01*
X10608228Y33869724D01*
X10623600Y33947003D01*
X10623600Y34596000D01*
X10523600Y34696000D01*
X9514000Y34696000D01*
X9206000Y34696000D01*
X8196400Y34696000D01*
X8096400Y34596000D01*
X5441660Y34596000D01*
X5377093Y34661019D01*
X5087853Y34856114D01*
X10636400Y34856114D01*
X10636400Y34843886D01*
X10660465Y34598451D01*
X10731744Y34362365D01*
X10847521Y34144620D01*
X11003386Y33953510D01*
X11193404Y33796314D01*
X11410335Y33679020D01*
X11645918Y33606095D01*
X11891178Y33580317D01*
X12136775Y33602668D01*
X12373353Y33672296D01*
X12591901Y33786551D01*
X12784095Y33941078D01*
X12942613Y34129994D01*
X13061419Y34346101D01*
X13135987Y34581169D01*
X13163477Y34826243D01*
X13163600Y34843886D01*
X13163600Y34856114D01*
X13176400Y34856114D01*
X13176400Y34843886D01*
X13200465Y34598451D01*
X13271744Y34362365D01*
X13387521Y34144620D01*
X13540000Y33957662D01*
X13540000Y33199967D01*
X13397387Y33030006D01*
X13278581Y32813899D01*
X13204013Y32578831D01*
X13176523Y32333757D01*
X13176400Y32316114D01*
X13176400Y32303886D01*
X13200465Y32058451D01*
X13271744Y31822365D01*
X13387521Y31604620D01*
X13543386Y31413510D01*
X13733404Y31256314D01*
X13950335Y31139020D01*
X14185918Y31066095D01*
X14431178Y31040317D01*
X14676775Y31062668D01*
X14867518Y31118806D01*
X15668162Y30318162D01*
X15706746Y30286469D01*
X15744918Y30254439D01*
X15747405Y30253072D01*
X15749601Y30251268D01*
X15793579Y30227687D01*
X15837271Y30203667D01*
X15839977Y30202809D01*
X15842481Y30201466D01*
X15890169Y30186887D01*
X15937728Y30171800D01*
X15940553Y30171483D01*
X15943265Y30170654D01*
X15992842Y30165618D01*
X16042460Y30160053D01*
X16048017Y30160014D01*
X16048115Y30160004D01*
X16048206Y30160013D01*
X16050000Y30160000D01*
X16510371Y30160000D01*
X16616846Y30085998D01*
X16742641Y30031039D01*
X16876716Y30001561D01*
X17013963Y29998686D01*
X17149155Y30022524D01*
X17277141Y30072167D01*
X17393048Y30145723D01*
X17492460Y30240392D01*
X17571591Y30352568D01*
X17627427Y30477977D01*
X17657841Y30611842D01*
X17660030Y30768639D01*
X17633366Y30903301D01*
X17581054Y31030220D01*
X17505086Y31144561D01*
X17408356Y31241969D01*
X17294548Y31318733D01*
X17167997Y31371930D01*
X17033524Y31399534D01*
X16896250Y31400492D01*
X16761405Y31374769D01*
X16634124Y31323344D01*
X16519255Y31248176D01*
X16510906Y31240000D01*
X16273676Y31240000D01*
X15626984Y31886692D01*
X15675987Y32041169D01*
X15703477Y32286243D01*
X15703600Y32303886D01*
X15703600Y32316114D01*
X15695495Y32398780D01*
X19959985Y32398780D01*
X19959985Y31601220D01*
X19965065Y31537522D01*
X19998522Y31429482D01*
X20060755Y31335041D01*
X20146834Y31261677D01*
X20249944Y31215198D01*
X20361920Y31199285D01*
X21159480Y31199285D01*
X21223178Y31204365D01*
X21331218Y31237822D01*
X21425659Y31300055D01*
X21499023Y31386134D01*
X21508746Y31407705D01*
X21549819Y31346235D01*
X21605534Y31290520D01*
X21671049Y31246745D01*
X21743844Y31216592D01*
X21821123Y31201220D01*
X22005300Y31201220D01*
X22105300Y31301220D01*
X22105300Y31846000D01*
X22413300Y31846000D01*
X22413300Y31301220D01*
X22513300Y31201220D01*
X22697477Y31201220D01*
X22774756Y31216592D01*
X22847551Y31246745D01*
X22913066Y31290520D01*
X22968781Y31346235D01*
X23012556Y31411749D01*
X23042708Y31484545D01*
X23058080Y31561824D01*
X23058080Y31746000D01*
X22958080Y31846000D01*
X22413300Y31846000D01*
X22105300Y31846000D01*
X22085300Y31846000D01*
X22085300Y32154000D01*
X22105300Y32154000D01*
X22105300Y32698780D01*
X22413300Y32698780D01*
X22413300Y32154000D01*
X22958080Y32154000D01*
X23058080Y32254000D01*
X23058080Y32438176D01*
X23042708Y32515455D01*
X23012556Y32588251D01*
X22968781Y32653765D01*
X22913066Y32709480D01*
X22847551Y32753255D01*
X22774756Y32783408D01*
X22697477Y32798780D01*
X22513300Y32798780D01*
X22413300Y32698780D01*
X22105300Y32698780D01*
X22005300Y32798780D01*
X21821123Y32798780D01*
X21743844Y32783408D01*
X21671049Y32753255D01*
X21605534Y32709480D01*
X21549819Y32653765D01*
X21508636Y32592130D01*
X21460645Y32664959D01*
X21383950Y32730326D01*
X21427427Y32827977D01*
X21457841Y32961842D01*
X21460030Y33118639D01*
X21433366Y33253301D01*
X21381054Y33380220D01*
X21305086Y33494561D01*
X21208356Y33591969D01*
X21094548Y33668733D01*
X20967997Y33721930D01*
X20833524Y33749534D01*
X20696250Y33750492D01*
X20561405Y33724769D01*
X20434124Y33673344D01*
X20319255Y33598176D01*
X20221174Y33502128D01*
X20143617Y33388859D01*
X20089538Y33262683D01*
X20060997Y33128406D01*
X20059080Y32991142D01*
X20083861Y32856120D01*
X20134396Y32728483D01*
X20135783Y32726331D01*
X20095741Y32699945D01*
X20022377Y32613866D01*
X19975898Y32510756D01*
X19959985Y32398780D01*
X15695495Y32398780D01*
X15679535Y32561549D01*
X15608256Y32797635D01*
X15492479Y33015380D01*
X15340000Y33202338D01*
X15340000Y33960033D01*
X15482613Y34129994D01*
X15601419Y34346101D01*
X15675987Y34581169D01*
X15703477Y34826243D01*
X15703600Y34843886D01*
X15703600Y34856114D01*
X15679535Y35101549D01*
X15608256Y35337635D01*
X15492479Y35555380D01*
X15336614Y35746490D01*
X15146596Y35903686D01*
X14929665Y36020980D01*
X14694082Y36093905D01*
X14448822Y36119683D01*
X14203225Y36097332D01*
X13966647Y36027704D01*
X13748099Y35913449D01*
X13555905Y35758922D01*
X13397387Y35570006D01*
X13278581Y35353899D01*
X13204013Y35118831D01*
X13176523Y34873757D01*
X13176400Y34856114D01*
X13163600Y34856114D01*
X13139535Y35101549D01*
X13068256Y35337635D01*
X12952479Y35555380D01*
X12796614Y35746490D01*
X12606596Y35903686D01*
X12389665Y36020980D01*
X12154082Y36093905D01*
X11908822Y36119683D01*
X11663225Y36097332D01*
X11426647Y36027704D01*
X11208099Y35913449D01*
X11015905Y35758922D01*
X10857387Y35570006D01*
X10738581Y35353899D01*
X10664013Y35118831D01*
X10636523Y34873757D01*
X10636400Y34856114D01*
X5087853Y34856114D01*
X5027540Y34896795D01*
X4638849Y35060186D01*
X4225824Y35144968D01*
X3804197Y35147912D01*
X3390029Y35068905D01*
X2999094Y34910957D01*
X2646283Y34680084D01*
X2345035Y34385080D01*
X2106824Y34037182D01*
X1940724Y33649641D01*
X1853061Y33237218D01*
X1847174Y32815622D01*
X475000Y32815622D01*
X475000Y32976769D01*
X544367Y33684232D01*
X743082Y34342407D01*
X1065849Y34949443D01*
X1500378Y35482230D01*
X1827679Y35752997D01*
X8096400Y35752997D01*
X8096400Y35104000D01*
X8196400Y35004000D01*
X9206000Y35004000D01*
X9206000Y36013600D01*
X9514000Y36013600D01*
X9514000Y35004000D01*
X10523600Y35004000D01*
X10623600Y35104000D01*
X10623600Y35752997D01*
X10608228Y35830276D01*
X10578075Y35903071D01*
X10534300Y35968586D01*
X10478585Y36024301D01*
X10413071Y36068076D01*
X10340275Y36098228D01*
X10262996Y36113600D01*
X9614000Y36113600D01*
X9514000Y36013600D01*
X9206000Y36013600D01*
X9106000Y36113600D01*
X8457004Y36113600D01*
X8379725Y36098228D01*
X8306929Y36068076D01*
X8241415Y36024301D01*
X8185700Y35968586D01*
X8141925Y35903071D01*
X8111772Y35830276D01*
X8096400Y35752997D01*
X1827679Y35752997D01*
X2030120Y35920470D01*
X2634891Y36247468D01*
X3291656Y36450771D01*
X3997795Y36524990D01*
X4000786Y36525000D01*
X36300000Y36525000D01*
X36300000Y475000D01*
M02*
