M48
;DRILL file {KiCad 4.0.2+dfsg1-stable} date ned 09 jul 2017 09:25:14 CEST
;FORMAT={-:-/ absolute / metric / decimal}
FMAT,2
METRIC,TZ
T1C0.300
T2C0.400
T3C0.650
T4C0.700
T5C1.016
T6C3.200
%
G90
G05
M71
T1
X1.05Y13.
X2.13Y13.
X3.18Y8.57
X3.19Y13.
X3.26Y9.92
X4.26Y7.57
X5.86Y13.02
X6.31Y17.61
X6.31Y16.83
X6.31Y16.04
X6.31Y15.18
X6.31Y14.28
X7.21Y9.55
X7.65Y12.53
X8.26Y7.26
X8.64Y5.06
X8.82Y23.56
X8.99Y4.06
X9.26Y12.53
X9.47Y29.19
X9.8Y10.2
X10.4Y13.83
X10.44Y25.09
X10.47Y3.36
X10.7Y4.95
X11.06Y13.02
X11.23Y19.08
X11.79Y6.94
X11.9Y30.63
X12.48Y10.38
X12.57Y12.04
X12.7Y7.28
X12.78Y8.28
X12.93Y29.94
X13.19Y6.5
X14.57Y4.58
X14.69Y7.41
X14.72Y8.23
X14.97Y23.95
X15.58Y24.54
X16.21Y4.58
X16.39Y11.7
X16.45Y9.03
X16.96Y30.7
X18.2Y23.15
X18.78Y3.46
X19.43Y23.15
X19.45Y14.98
X20.13Y3.32
X20.54Y16.23
X20.56Y17.31
X20.61Y19.74
X20.76Y33.05
X20.93Y4.03
X21.05Y16.78
X21.06Y20.18
X21.9Y27.28
X21.9Y22.54
X21.9Y15.32
X22.97Y15.67
X23.17Y5.
X23.56Y18.61
X23.63Y22.93
X24.1Y15.66
X24.1Y14.61
X24.22Y18.61
X24.67Y22.93
X26.Y18.496
X27.07Y18.5
X28.21Y18.5
X38.15Y19.496
X39.15Y17.496
X40.15Y18.496
X56.Y19.496
X57.Y17.496
X58.Y19.496
X59.Y17.496
T2
X6.15Y27.25
X8.4Y27.25
T5
X8.8Y1.75
X9.36Y34.85
X9.36Y32.31
X11.34Y1.75
X11.9Y34.85
X11.9Y32.31
X13.88Y1.75
X14.44Y34.85
X14.44Y32.31
X16.42Y1.75
X18.96Y1.75
X21.5Y1.75
X24.04Y1.75
X26.58Y1.75
X29.12Y1.75
T6
X4.Y32.996
X4.Y3.996
T3
X5.03Y20.921G85X4.63Y20.921
G05
X5.03Y16.071G85X4.63Y16.071
G05
T4
X2.05Y21.221G85X1.55Y21.221
G05
X2.05Y15.771G85X1.55Y15.771
G05
T0
M30
