G04 #@! TF.FileFunction,Legend,Bot*
%FSLAX46Y46*%
G04 Gerber Fmt 4.6, Leading zero omitted, Abs format (unit mm)*
G04 Created by KiCad (PCBNEW 4.0.2+dfsg1-stable) date ned 09 jul 2017 09:25:13 CEST*
%MOMM*%
G01*
G04 APERTURE LIST*
%ADD10C,0.100000*%
%ADD11C,0.300000*%
%ADD12C,0.150000*%
G04 APERTURE END LIST*
D10*
D11*
X17654285Y34151429D02*
X17654285Y35651429D01*
X16654285Y35651429D02*
X16511428Y35651429D01*
X16368571Y35580000D01*
X16297142Y35508571D01*
X16225713Y35365714D01*
X16154285Y35080000D01*
X16154285Y34722857D01*
X16225713Y34437143D01*
X16297142Y34294286D01*
X16368571Y34222857D01*
X16511428Y34151429D01*
X16654285Y34151429D01*
X16797142Y34222857D01*
X16868571Y34294286D01*
X16939999Y34437143D01*
X17011428Y34722857D01*
X17011428Y35080000D01*
X16939999Y35365714D01*
X16868571Y35508571D01*
X16797142Y35580000D01*
X16654285Y35651429D01*
X17654285Y31751429D02*
X17654285Y33251429D01*
X16154285Y31751429D02*
X17011428Y31751429D01*
X16582856Y31751429D02*
X16582856Y33251429D01*
X16725713Y33037143D01*
X16868571Y32894286D01*
X17011428Y32822857D01*
X27260000Y33231429D02*
X27260000Y34731429D01*
X26688572Y34731429D01*
X26545714Y34660000D01*
X26474286Y34588571D01*
X26402857Y34445714D01*
X26402857Y34231429D01*
X26474286Y34088571D01*
X26545714Y34017143D01*
X26688572Y33945714D01*
X27260000Y33945714D01*
X25902857Y34731429D02*
X25545714Y33231429D01*
X25260000Y34302857D01*
X24974286Y33231429D01*
X24617143Y34731429D01*
X23188571Y33231429D02*
X23688571Y33945714D01*
X24045714Y33231429D02*
X24045714Y34731429D01*
X23474286Y34731429D01*
X23331428Y34660000D01*
X23260000Y34588571D01*
X23188571Y34445714D01*
X23188571Y34231429D01*
X23260000Y34088571D01*
X23331428Y34017143D01*
X23474286Y33945714D01*
X24045714Y33945714D01*
X27398571Y4750000D02*
X26684285Y4750000D01*
X27541428Y4321429D02*
X27041428Y5821429D01*
X26541428Y4321429D01*
X25184285Y4464286D02*
X25255714Y4392857D01*
X25470000Y4321429D01*
X25612857Y4321429D01*
X25827142Y4392857D01*
X25970000Y4535714D01*
X26041428Y4678571D01*
X26112857Y4964286D01*
X26112857Y5178571D01*
X26041428Y5464286D01*
X25970000Y5607143D01*
X25827142Y5750000D01*
X25612857Y5821429D01*
X25470000Y5821429D01*
X25255714Y5750000D01*
X25184285Y5678571D01*
X24755714Y5821429D02*
X23898571Y5821429D01*
X24327142Y4321429D02*
X24327142Y5821429D01*
D12*
X37150000Y3496400D02*
X37150000Y17496400D01*
X39650000Y996400D02*
X37150000Y3496400D01*
X56500000Y996400D02*
X39650000Y996400D01*
X59000000Y3496400D02*
X56500000Y996400D01*
X59000000Y16996400D02*
X59000000Y3496400D01*
X59000000Y33496400D02*
X59000000Y19496400D01*
X56500000Y35996400D02*
X59000000Y33496400D01*
X56150000Y35996400D02*
X56500000Y35996400D01*
X39650000Y35996400D02*
X56150000Y35996400D01*
X37150000Y33496400D02*
X39650000Y35996400D01*
X37150000Y19496400D02*
X37150000Y33496400D01*
X51150000Y25996400D02*
G75*
G03X50650000Y26496400I-500000J0D01*
G01*
X46649127Y26496399D02*
G75*
G03X46150000Y25996400I873J-499999D01*
G01*
X50650000Y18496400D02*
G75*
G03X51150000Y18996400I0J500000D01*
G01*
X46150000Y18996400D02*
G75*
G03X46650000Y18496400I500000J0D01*
G01*
X46650000Y18496400D02*
X50650000Y18496400D01*
X46150000Y25996400D02*
X46150000Y18996400D01*
X50650000Y26496400D02*
X46650000Y26496400D01*
X51150000Y18996400D02*
X51150000Y25996400D01*
X52144981Y15500786D02*
G75*
G03X45150000Y15496400I-3494981J-4004386D01*
G01*
X51149417Y14496886D02*
G75*
G03X46150000Y14496400I-2499417J-3000486D01*
G01*
X50148611Y13497441D02*
G75*
G03X47150000Y13496400I-1498611J-2001041D01*
G01*
X56800000Y17896400D02*
X56200000Y19096400D01*
X58200000Y19096400D02*
X58800000Y17896400D01*
X38950000Y17896400D02*
X38350000Y19096400D01*
X22610000Y31450000D02*
X20710000Y31450000D01*
X22610000Y32550000D02*
X20710000Y32550000D01*
X21710000Y32000000D02*
X21260000Y32000000D01*
X21760000Y32250000D02*
X21760000Y31750000D01*
X21760000Y32000000D02*
X21510000Y32250000D01*
X21510000Y32250000D02*
X21510000Y31750000D01*
X21510000Y31750000D02*
X21760000Y32000000D01*
X22600000Y4450000D02*
X20700000Y4450000D01*
X22600000Y5550000D02*
X20700000Y5550000D01*
X21700000Y5000000D02*
X21250000Y5000000D01*
X21750000Y5250000D02*
X21750000Y4750000D01*
X21750000Y5000000D02*
X21500000Y5250000D01*
X21500000Y5250000D02*
X21500000Y4750000D01*
X21500000Y4750000D02*
X21750000Y5000000D01*
X49864286Y11544019D02*
X49864286Y12544019D01*
X49292857Y11544019D01*
X49292857Y12544019D01*
X48483333Y12067829D02*
X48816667Y12067829D01*
X48816667Y11544019D02*
X48816667Y12544019D01*
X48340476Y12544019D01*
X47388095Y11639257D02*
X47435714Y11591638D01*
X47578571Y11544019D01*
X47673809Y11544019D01*
X47816667Y11591638D01*
X47911905Y11686876D01*
X47959524Y11782114D01*
X48007143Y11972590D01*
X48007143Y12115448D01*
X47959524Y12305924D01*
X47911905Y12401162D01*
X47816667Y12496400D01*
X47673809Y12544019D01*
X47578571Y12544019D01*
X47435714Y12496400D01*
X47388095Y12448781D01*
X49292857Y24510685D02*
X49378571Y24596399D01*
X49464286Y24853542D01*
X49464286Y25024971D01*
X49378571Y25282114D01*
X49207143Y25453542D01*
X49035714Y25539257D01*
X48692857Y25624971D01*
X48435714Y25624971D01*
X48092857Y25539257D01*
X47921429Y25453542D01*
X47750000Y25282114D01*
X47664286Y25024971D01*
X47664286Y24853542D01*
X47750000Y24596399D01*
X47835714Y24510685D01*
X48950000Y23824971D02*
X48950000Y22967828D01*
X49464286Y23996399D02*
X47664286Y23396399D01*
X49464286Y22796399D01*
X49464286Y21167828D02*
X48607143Y21767828D01*
X49464286Y22196400D02*
X47664286Y22196400D01*
X47664286Y21510685D01*
X47750000Y21339257D01*
X47835714Y21253542D01*
X48007143Y21167828D01*
X48264286Y21167828D01*
X48435714Y21253542D01*
X48521429Y21339257D01*
X48607143Y21510685D01*
X48607143Y22196400D01*
X49464286Y20396400D02*
X47664286Y20396400D01*
X47664286Y19967828D01*
X47750000Y19710685D01*
X47921429Y19539257D01*
X48092857Y19453542D01*
X48435714Y19367828D01*
X48692857Y19367828D01*
X49035714Y19453542D01*
X49207143Y19539257D01*
X49378571Y19710685D01*
X49464286Y19967828D01*
X49464286Y20396400D01*
X22248095Y33047619D02*
X22248095Y34047619D01*
X22010000Y34047619D01*
X21867142Y34000000D01*
X21771904Y33904762D01*
X21724285Y33809524D01*
X21676666Y33619048D01*
X21676666Y33476190D01*
X21724285Y33285714D01*
X21771904Y33190476D01*
X21867142Y33095238D01*
X22010000Y33047619D01*
X22248095Y33047619D01*
X21343333Y34047619D02*
X20724285Y34047619D01*
X21057619Y33666667D01*
X20914761Y33666667D01*
X20819523Y33619048D01*
X20771904Y33571429D01*
X20724285Y33476190D01*
X20724285Y33238095D01*
X20771904Y33142857D01*
X20819523Y33095238D01*
X20914761Y33047619D01*
X21200476Y33047619D01*
X21295714Y33095238D01*
X21343333Y33142857D01*
X22238095Y6047619D02*
X22238095Y7047619D01*
X22000000Y7047619D01*
X21857142Y7000000D01*
X21761904Y6904762D01*
X21714285Y6809524D01*
X21666666Y6619048D01*
X21666666Y6476190D01*
X21714285Y6285714D01*
X21761904Y6190476D01*
X21857142Y6095238D01*
X22000000Y6047619D01*
X22238095Y6047619D01*
X20809523Y6714286D02*
X20809523Y6047619D01*
X21047619Y7095238D02*
X21285714Y6380952D01*
X20666666Y6380952D01*
M02*
